# CC0 albedo mesh for MuJoCo kit_cam rooms
v -0.155042 -0.351870 0.005496
v -0.155042 -0.351870 0.005496
v -0.155041 0.351870 0.005496
v -0.155041 0.351870 0.005496
v 0.155041 -0.351870 0.005496
v 0.155041 -0.351870 0.005496
v 0.155041 0.351870 0.005496
v 0.155041 0.351870 0.005496
v -0.177072 -0.400583 0.159390
v -0.195477 -0.402545 0.263558
v -0.195477 -0.402545 0.263558
v -0.195477 0.402544 0.263558
v -0.195477 0.402544 0.263558
v -0.177072 0.400583 0.159390
v 0.089304 0.364973 0.004331
v 0.089304 0.364973 0.004331
v -0.000000 0.370579 0.004158
v -0.000000 0.370579 0.004158
v -0.089304 0.364973 0.004331
v -0.089304 0.364973 0.004331
v 0.195477 0.402544 0.263558
v 0.195477 0.402544 0.263558
v 0.177072 0.400583 0.159390
v 0.195477 -0.402545 0.263558
v 0.195477 -0.402545 0.263558
v 0.177072 -0.400583 0.159390
v -0.089304 -0.364973 0.004331
v -0.089304 -0.364973 0.004331
v -0.000000 -0.370579 0.004158
v -0.000000 -0.370579 0.004158
v 0.089304 -0.364973 0.004331
v 0.089304 -0.364973 0.004331
v -0.197787 -0.194528 0.004153
v -0.197787 -0.194528 0.004153
v -0.177666 -0.292546 0.004362
v -0.177666 -0.292546 0.004362
v 0.197787 0.194528 0.004153
v 0.197787 0.194528 0.004153
v 0.177666 0.292546 0.004362
v 0.177666 0.292546 0.004362
v -0.177666 0.292546 0.004362
v -0.177666 0.292546 0.004362
v -0.197787 0.194528 0.004153
v -0.197787 0.194528 0.004153
v 0.177666 -0.292547 0.004362
v 0.177666 -0.292547 0.004362
v 0.197787 -0.194528 0.004153
v 0.197787 -0.194528 0.004153
v -0.096040 0.444793 0.161604
v -0.105241 0.450039 0.264247
v -0.105241 0.450039 0.264247
v -0.000000 0.459212 0.161855
v -0.000000 0.466092 0.264611
v -0.000000 0.466092 0.264611
v 0.096040 0.444793 0.161604
v 0.105241 0.450039 0.264247
v 0.105241 0.450039 0.264247
v -0.258399 -0.321219 0.265384
v -0.258399 -0.321219 0.265384
v -0.296656 -0.216142 0.265972
v -0.296656 -0.216142 0.265972
v -0.235144 -0.322020 0.163539
v -0.271908 -0.214727 0.164583
v 0.096040 -0.444793 0.161604
v 0.105241 -0.450040 0.264247
v 0.105241 -0.450040 0.264247
v -0.000000 -0.459213 0.161855
v -0.000000 -0.466093 0.264611
v -0.000000 -0.466093 0.264611
v -0.096040 -0.444793 0.161604
v -0.105241 -0.450040 0.264247
v -0.105241 -0.450040 0.264247
v 0.258399 0.321219 0.265384
v 0.258399 0.321219 0.265384
v 0.296656 0.216141 0.265972
v 0.296656 0.216141 0.265972
v 0.235144 0.322020 0.163539
v 0.271907 0.214726 0.164583
v 0.271907 -0.214727 0.164583
v 0.296656 -0.216142 0.265972
v 0.296656 -0.216142 0.265972
v 0.235144 -0.322020 0.163539
v 0.258399 -0.321219 0.265384
v 0.258399 -0.321219 0.265384
v -0.271908 0.214726 0.164583
v -0.296656 0.216141 0.265972
v -0.296656 0.216141 0.265972
v -0.235144 0.322020 0.163539
v -0.258399 0.321219 0.265384
v -0.258399 0.321219 0.265384
v -0.146230 -0.319288 0.114908
v -0.146230 0.319288 0.114909
v 0.146230 -0.319288 0.114908
v 0.146230 0.319288 0.114909
v 0.084245 0.332739 0.095464
v -0.000000 0.339934 0.088759
v -0.084245 0.332739 0.095464
v -0.084245 -0.332739 0.095464
v -0.000000 -0.339933 0.088759
v 0.084245 -0.332739 0.095464
v -0.190204 -0.183023 0.085797
v -0.169449 -0.265582 0.097620
v 0.190203 0.183023 0.085797
v 0.169449 0.265582 0.097620
v -0.169449 0.265582 0.097620
v -0.190204 0.183023 0.085797
v 0.169449 -0.265582 0.097620
v 0.190203 -0.183023 0.085797
v -0.100800 -0.180079 0.034891
v -0.000000 -0.180529 0.023214
v 0.100800 -0.180079 0.034891
v -0.091173 -0.264643 0.051367
v -0.000000 -0.267131 0.041226
v 0.091173 -0.264643 0.051367
v 0.091173 0.264643 0.051367
v 0.100800 0.180079 0.034891
v -0.000000 0.267131 0.041226
v -0.000000 0.180528 0.023214
v -0.091173 0.264643 0.051367
v -0.100800 0.180079 0.034891
v -0.213190 -0.439450 0.265429
v -0.213190 -0.439450 0.265429
v -0.221135 -0.457400 0.285465
v -0.221135 -0.457400 0.285465
v -0.214770 -0.452716 0.369727
v -0.214770 -0.452716 0.369727
v -0.221604 -0.465593 0.343813
v -0.221604 -0.465593 0.343813
v -0.221604 0.465592 0.343813
v -0.221604 0.465592 0.343813
v -0.214770 0.452716 0.369727
v -0.214770 0.452716 0.369727
v -0.213190 0.439449 0.265429
v -0.213190 0.439449 0.265429
v -0.221135 0.457399 0.285465
v -0.221135 0.457399 0.285465
v -0.116161 0.508128 0.369578
v -0.116161 0.508128 0.369578
v -0.119971 0.522233 0.343890
v -0.119971 0.522233 0.343890
v -0.000000 0.526615 0.369529
v -0.000000 0.526615 0.369529
v -0.000000 0.541117 0.343925
v -0.000000 0.541117 0.343925
v 0.116161 0.508128 0.369578
v 0.116161 0.508128 0.369578
v 0.119971 0.522232 0.343890
v 0.119971 0.522232 0.343890
v 0.214770 0.452716 0.369727
v 0.214770 0.452716 0.369727
v 0.221604 0.465592 0.343813
v 0.221604 0.465592 0.343813
v 0.221135 0.457399 0.285465
v 0.221135 0.457399 0.285465
v 0.213190 0.439449 0.265429
v 0.213190 0.439449 0.265429
v 0.221604 -0.465593 0.343813
v 0.221604 -0.465593 0.343813
v 0.214770 -0.452716 0.369727
v 0.214770 -0.452716 0.369727
v 0.213190 -0.439450 0.265429
v 0.213190 -0.439450 0.265429
v 0.221135 -0.457400 0.285465
v 0.221135 -0.457400 0.285465
v 0.116161 -0.508129 0.369579
v 0.116161 -0.508129 0.369579
v 0.119971 -0.522233 0.343890
v 0.119971 -0.522233 0.343890
v -0.000000 -0.526616 0.369529
v -0.000000 -0.526616 0.369529
v -0.000000 -0.541117 0.343925
v -0.000000 -0.541117 0.343925
v -0.116161 -0.508129 0.369579
v -0.116161 -0.508129 0.369579
v -0.119971 -0.522233 0.343890
v -0.119971 -0.522233 0.343890
v -0.326795 0.244077 0.370282
v -0.326795 0.244077 0.370282
v -0.338419 0.251626 0.343732
v -0.338419 0.251626 0.343732
v -0.283461 0.362043 0.369985
v -0.283461 0.362043 0.369985
v -0.292775 0.372779 0.343758
v -0.292775 0.372779 0.343758
v 0.326794 -0.244078 0.370282
v 0.326794 -0.244078 0.370282
v 0.338419 -0.251626 0.343732
v 0.338419 -0.251626 0.343732
v 0.283461 -0.362044 0.369985
v 0.283461 -0.362044 0.369985
v 0.292775 -0.372780 0.343758
v 0.292775 -0.372780 0.343758
v -0.283461 -0.362044 0.369985
v -0.283461 -0.362044 0.369985
v -0.292775 -0.372780 0.343758
v -0.292775 -0.372780 0.343758
v -0.326794 -0.244078 0.370282
v -0.326794 -0.244078 0.370282
v -0.338419 -0.251626 0.343732
v -0.338419 -0.251626 0.343732
v 0.283461 0.362043 0.369985
v 0.283461 0.362043 0.369985
v 0.292775 0.372779 0.343758
v 0.292775 0.372779 0.343758
v 0.326794 0.244077 0.370282
v 0.326794 0.244077 0.370282
v 0.338419 0.251626 0.343732
v 0.338419 0.251626 0.343732
v -0.115218 0.493054 0.266169
v -0.115218 0.493054 0.266169
v -0.119633 0.512816 0.285560
v -0.119633 0.512816 0.285560
v -0.000000 0.531225 0.285428
v -0.000000 0.531225 0.285428
v -0.000000 0.510846 0.266433
v -0.000000 0.510846 0.266433
v 0.119633 0.512816 0.285560
v 0.119633 0.512816 0.285560
v 0.115218 0.493054 0.266169
v 0.115218 0.493054 0.266169
v -0.281647 -0.351018 0.266533
v -0.281647 -0.351018 0.266533
v -0.292390 -0.366146 0.285687
v -0.292390 -0.366146 0.285687
v -0.337694 -0.246906 0.285498
v -0.337694 -0.246906 0.285498
v -0.324015 -0.236100 0.266898
v -0.324015 -0.236100 0.266898
v 0.115218 -0.493054 0.266169
v 0.115218 -0.493054 0.266169
v 0.119633 -0.512816 0.285560
v 0.119633 -0.512816 0.285560
v -0.000000 -0.531226 0.285428
v -0.000000 -0.531226 0.285428
v -0.000000 -0.510846 0.266433
v -0.000000 -0.510846 0.266433
v -0.119633 -0.512816 0.285560
v -0.119633 -0.512816 0.285560
v -0.115218 -0.493054 0.266169
v -0.115218 -0.493054 0.266169
v 0.281647 0.351018 0.266533
v 0.281647 0.351018 0.266533
v 0.292390 0.366145 0.285687
v 0.292390 0.366145 0.285687
v 0.337694 0.246906 0.285498
v 0.337694 0.246906 0.285498
v 0.324015 0.236099 0.266898
v 0.324015 0.236099 0.266898
v 0.337694 -0.246906 0.285498
v 0.337694 -0.246906 0.285498
v 0.324015 -0.236100 0.266898
v 0.324015 -0.236100 0.266898
v 0.292390 -0.366146 0.285687
v 0.292390 -0.366146 0.285687
v 0.281647 -0.351018 0.266533
v 0.281647 -0.351018 0.266533
v -0.337694 0.246906 0.285498
v -0.337694 0.246906 0.285498
v -0.324016 0.236099 0.266898
v -0.324016 0.236099 0.266898
v -0.292390 0.366145 0.285687
v -0.292390 0.366145 0.285687
v -0.281647 0.351018 0.266533
v -0.281647 0.351018 0.266533
v -0.167920 -0.369756 0.344292
v -0.167920 -0.369756 0.344292
v -0.179411 -0.392064 0.363770
v -0.179411 -0.392064 0.363770
v -0.179411 0.392063 0.363770
v -0.179411 0.392063 0.363770
v -0.167920 0.369755 0.344292
v -0.167920 0.369755 0.344292
v 0.179410 -0.392064 0.363770
v 0.179410 -0.392064 0.363770
v 0.167920 -0.369756 0.344292
v 0.167920 -0.369756 0.344292
v 0.167920 0.369755 0.344292
v 0.167920 0.369755 0.344292
v 0.179410 0.392063 0.363770
v 0.179410 0.392063 0.363770
v -0.093490 0.410012 0.344421
v -0.093490 0.410012 0.344421
v -0.098999 0.435855 0.363714
v -0.098999 0.435855 0.363714
v -0.000000 0.424509 0.344465
v -0.000000 0.424509 0.344465
v 0.093490 0.410012 0.344421
v 0.093490 0.410012 0.344421
v 0.098998 0.435855 0.363714
v 0.098998 0.435855 0.363714
v 0.093490 -0.410013 0.344421
v 0.093490 -0.410013 0.344421
v 0.098999 -0.435856 0.363714
v 0.098999 -0.435856 0.363714
v -0.000000 -0.424509 0.344465
v -0.000000 -0.424509 0.344465
v -0.000000 -0.451272 0.363695
v -0.000000 -0.451272 0.363695
v -0.093490 -0.410013 0.344421
v -0.093490 -0.410013 0.344421
v -0.098999 -0.435856 0.363714
v -0.098999 -0.435856 0.363714
v -0.246309 0.214902 0.344088
v -0.246309 0.214902 0.344088
v -0.265829 0.223579 0.363898
v -0.265829 0.223579 0.363898
v -0.215547 0.306234 0.344161
v -0.215547 0.306234 0.344161
v -0.232025 0.321751 0.363825
v -0.232025 0.321751 0.363825
v 0.246309 -0.214903 0.344088
v 0.246309 -0.214903 0.344088
v 0.265829 -0.223579 0.363898
v 0.265829 -0.223579 0.363898
v 0.215547 -0.306235 0.344161
v 0.215547 -0.306235 0.344161
v 0.232024 -0.321752 0.363825
v 0.232024 -0.321752 0.363825
v -0.215547 -0.306235 0.344161
v -0.215547 -0.306235 0.344161
v -0.232025 -0.321752 0.363825
v -0.232025 -0.321752 0.363825
v -0.246309 -0.214903 0.344088
v -0.246309 -0.214903 0.344088
v -0.265829 -0.223579 0.363898
v -0.265829 -0.223579 0.363898
v 0.215547 0.306234 0.344161
v 0.215547 0.306234 0.344161
v 0.232024 0.321751 0.363825
v 0.232024 0.321751 0.363825
v 0.246309 0.214902 0.344088
v 0.246309 0.214902 0.344088
v 0.265829 0.223579 0.363898
v 0.265829 0.223579 0.363898
v 0.208601 0.068756 0.004093
v 0.208601 0.068756 0.004093
v -0.208601 0.068756 0.004093
v -0.208601 0.068756 0.004093
v 0.313956 0.084177 0.266121
v 0.313956 0.084177 0.266121
v 0.289189 0.078869 0.164575
v -0.289189 0.078869 0.164575
v -0.313957 0.084177 0.266121
v -0.313957 0.084177 0.266121
v 0.200509 0.072012 0.079882
v -0.200509 0.072012 0.079882
v 0.106136 0.070985 0.027883
v -0.000000 0.070918 0.015710
v -0.106136 0.070985 0.027883
v -0.347418 0.090175 0.370531
v -0.347418 0.090175 0.370531
v -0.360745 0.091846 0.343719
v -0.360745 0.091846 0.343719
v 0.347418 0.090175 0.370531
v 0.347418 0.090175 0.370531
v 0.360745 0.091846 0.343719
v 0.360745 0.091846 0.343719
v 0.343630 0.088384 0.266889
v 0.343630 0.088384 0.266889
v 0.359591 0.090732 0.285394
v 0.359591 0.090732 0.285394
v -0.359591 0.090732 0.285394
v -0.359591 0.090732 0.285394
v -0.343630 0.088384 0.266889
v -0.343630 0.088384 0.266889
v -0.261875 0.084889 0.344049
v -0.261875 0.084889 0.344049
v -0.282863 0.086595 0.363975
v -0.282863 0.086595 0.363975
v 0.261875 0.084889 0.344049
v 0.261875 0.084889 0.344049
v 0.282863 0.086595 0.363975
v 0.282863 0.086595 0.363975
v -0.208601 -0.068756 0.004093
v -0.208601 -0.068756 0.004093
v 0.208601 -0.068756 0.004093
v 0.208601 -0.068756 0.004093
v -0.313957 -0.084178 0.266121
v -0.313957 -0.084178 0.266121
v -0.289189 -0.078869 0.164575
v 0.289189 -0.078869 0.164575
v 0.313956 -0.084178 0.266121
v 0.313956 -0.084178 0.266121
v -0.200509 -0.072012 0.079882
v 0.200509 -0.072012 0.079882
v -0.106136 -0.070985 0.027883
v -0.000000 -0.070918 0.015710
v 0.106136 -0.070985 0.027883
v 0.347418 -0.090176 0.370531
v 0.347418 -0.090176 0.370531
v 0.360745 -0.091846 0.343719
v 0.360745 -0.091846 0.343719
v -0.347418 -0.090175 0.370531
v -0.347418 -0.090175 0.370531
v -0.360745 -0.091846 0.343719
v -0.360745 -0.091846 0.343719
v -0.343630 -0.088384 0.266889
v -0.343630 -0.088384 0.266889
v -0.359591 -0.090732 0.285394
v -0.359591 -0.090732 0.285394
v 0.359591 -0.090732 0.285394
v 0.359591 -0.090732 0.285394
v 0.343630 -0.088384 0.266889
v 0.343630 -0.088384 0.266889
v 0.261875 -0.084890 0.344049
v 0.261875 -0.084890 0.344049
v 0.282863 -0.086595 0.363975
v 0.282863 -0.086595 0.363975
v -0.261875 -0.084890 0.344049
v -0.261875 -0.084890 0.344049
v -0.282863 -0.086595 0.363975
v -0.282863 -0.086595 0.363975
v -0.171952 -0.382570 0.052006
v -0.171952 -0.382570 0.052006
v -0.171952 0.382570 0.052006
v -0.171952 0.382570 0.052006
v 0.171952 0.382570 0.052006
v 0.171952 0.382570 0.052006
v 0.171952 -0.382570 0.052006
v 0.171952 -0.382570 0.052006
v -0.092409 0.416814 0.056572
v -0.092409 0.416814 0.056572
v -0.000000 0.427902 0.056769
v -0.000000 0.427902 0.056769
v 0.092409 0.416814 0.056572
v 0.092409 0.416814 0.056572
v -0.214115 -0.313561 0.057141
v -0.214115 -0.313561 0.057141
v -0.241431 -0.210157 0.057388
v -0.241431 -0.210157 0.057388
v 0.092409 -0.416814 0.056572
v 0.092409 -0.416814 0.056572
v -0.000000 -0.427903 0.056769
v -0.000000 -0.427903 0.056769
v -0.092409 -0.416814 0.056572
v -0.092409 -0.416814 0.056572
v 0.214115 0.313561 0.057141
v 0.214115 0.313561 0.057141
v 0.241431 0.210157 0.057388
v 0.241431 0.210157 0.057388
v 0.241431 -0.210157 0.057388
v 0.241431 -0.210157 0.057388
v 0.214115 -0.313561 0.057141
v 0.214115 -0.313561 0.057141
v -0.241431 0.210157 0.057388
v -0.241431 0.210157 0.057388
v -0.214115 0.313561 0.057141
v -0.214115 0.313561 0.057141
v 0.255246 0.075618 0.057037
v 0.255246 0.075618 0.057037
v -0.255246 0.075618 0.057037
v -0.255246 0.075618 0.057037
v -0.255246 -0.075618 0.057037
v -0.255246 -0.075618 0.057037
v 0.255246 -0.075618 0.057037
v 0.255246 -0.075618 0.057037
v -0.000000 0.451271 0.363695
v -0.000000 0.451271 0.363695
v -0.090391 -0.389507 0.194262
v -0.170870 -0.365526 0.200102
v -0.215650 -0.298106 0.196299
v -0.215650 0.298105 0.196299
v -0.170870 0.365526 0.200103
v -0.090391 0.389506 0.194263
v 0.215650 -0.298106 0.196299
v 0.170870 -0.365526 0.200102
v 0.090391 -0.389507 0.194262
v 0.090391 0.389506 0.194263
v 0.170870 0.365526 0.200103
v 0.215650 0.298105 0.196299
v -0.000000 0.401056 0.190906
v -0.000000 -0.401056 0.190906
v -0.237417 0.199782 0.193010
v 0.237416 -0.199782 0.193010
v -0.237417 -0.199782 0.193010
v 0.237416 0.199782 0.193010
v 0.251263 0.076905 0.190427
v -0.251264 0.076905 0.190427
v 0.251263 -0.076905 0.190427
v -0.251264 -0.076905 0.190427
v -0.000000 0.526615 0.369529
v -0.000000 0.451271 0.363695
v -0.000000 0.523860 0.384060
v -0.000000 0.523860 0.384060
v -0.000000 0.448515 0.378226
v -0.000000 0.448515 0.378226
v -0.120966 0.486962 0.368154
v -0.120966 0.486962 0.368154
v -0.110389 0.507390 0.369571
v -0.110389 0.507390 0.369571
v -0.119279 0.500218 0.369159
v 0.110389 0.507390 0.369571
v 0.110389 0.507390 0.369571
v 0.120966 0.486962 0.368154
v 0.120966 0.486962 0.368154
v 0.119279 0.500218 0.369159
v -0.096368 0.435082 0.363711
v -0.096368 0.435082 0.363711
v -0.113760 0.449806 0.365139
v -0.113760 0.449806 0.365139
v -0.107256 0.438221 0.364130
v 0.113760 0.449806 0.365139
v 0.113760 0.449806 0.365139
v 0.096368 0.435082 0.363711
v 0.096368 0.435082 0.363711
v 0.107255 0.438221 0.364131
v -0.111505 0.490958 0.383058
v 0.111505 0.490958 0.383058
v -0.102216 0.445080 0.379326
v 0.102216 0.445080 0.379326
v 0.119279 0.497463 0.383690
v 0.119279 0.497463 0.383690
v 0.120966 0.484207 0.382685
v 0.120966 0.484207 0.382685
v 0.120966 0.484207 0.382685
v 0.110389 0.504634 0.384102
v 0.110389 0.504634 0.384102
v 0.110389 0.504634 0.384102
v -0.096368 0.432327 0.378241
v -0.096368 0.432327 0.378241
v -0.096368 0.432327 0.378241
v -0.107256 0.435465 0.378661
v -0.107256 0.435465 0.378661
v -0.113760 0.447051 0.379669
v -0.113760 0.447051 0.379669
v -0.113760 0.447051 0.379669
v -0.119279 0.497463 0.383690
v -0.119279 0.497463 0.383690
v -0.110389 0.504635 0.384102
v -0.110389 0.504635 0.384102
v -0.110389 0.504635 0.384102
v -0.120966 0.484207 0.382685
v -0.120966 0.484207 0.382685
v -0.120966 0.484207 0.382685
v 0.107255 0.435465 0.378661
v 0.107255 0.435465 0.378661
v 0.096368 0.432327 0.378241
v 0.096368 0.432327 0.378241
v 0.096368 0.432327 0.378241
v 0.113760 0.447051 0.379670
v 0.113760 0.447051 0.379670
v 0.113760 0.447051 0.379670
v -0.000000 0.512933 0.383188
v -0.000000 0.459439 0.379097
v -0.000000 -0.293607 0.000599
v -0.000000 -0.191831 0.000052
v -0.000000 -0.067315 0.000000
v -0.000000 0.067315 0.000000
v -0.000000 0.191831 0.000052
v -0.000000 0.293607 0.000599
v -0.093053 -0.292310 0.001067
v -0.098897 -0.191919 0.000556
v -0.102226 -0.067446 0.000501
v -0.102226 0.067446 0.000501
v -0.098897 0.191919 0.000556
v -0.093053 0.292310 0.001067
v 0.093053 -0.292310 0.001067
v 0.098897 -0.191919 0.000556
v 0.102226 -0.067446 0.000501
v 0.102226 0.067446 0.000501
v 0.098897 0.191919 0.000556
v 0.093053 0.292310 0.001067
v 0.079364 0.469399 0.378407
v 0.083693 0.469399 0.425304
v 0.083693 0.469399 0.425304
v 0.083591 0.459196 0.378407
v 0.086652 0.462257 0.425304
v 0.086652 0.462257 0.425304
v 0.093794 0.454969 0.378407
v 0.093794 0.459298 0.425304
v 0.093794 0.459298 0.425304
v 0.103997 0.459196 0.378407
v 0.100936 0.462257 0.425304
v 0.100936 0.462257 0.425304
v 0.108224 0.469399 0.378407
v 0.103895 0.469399 0.425304
v 0.103895 0.469399 0.425304
v 0.103997 0.479602 0.378407
v 0.100936 0.476541 0.425304
v 0.100936 0.476541 0.425304
v 0.093794 0.483829 0.378407
v 0.093794 0.479500 0.425304
v 0.093794 0.479500 0.425304
v 0.083591 0.479602 0.378407
v 0.086652 0.476541 0.425304
v 0.086652 0.476541 0.425304
v 0.082972 0.422502 0.443341
v 0.082972 0.422502 0.443341
v 0.082972 0.415287 0.436126
v 0.082972 0.415287 0.436126
v 0.082972 0.415287 0.436126
v 0.075757 0.422502 0.436126
v 0.075757 0.422502 0.436126
v 0.075757 0.422502 0.436126
v 0.082972 0.422502 0.407266
v 0.082972 0.422502 0.407266
v 0.075757 0.422502 0.414481
v 0.075757 0.422502 0.414481
v 0.075757 0.422502 0.414481
v 0.082972 0.415287 0.414481
v 0.082972 0.415287 0.414481
v 0.082972 0.415287 0.414481
v 0.111831 0.422502 0.436126
v 0.111831 0.422502 0.436126
v 0.111831 0.422502 0.436126
v 0.104616 0.415287 0.436126
v 0.104616 0.415287 0.436126
v 0.104616 0.415287 0.436126
v 0.104616 0.422502 0.443341
v 0.104616 0.422502 0.443341
v 0.104616 0.422502 0.407266
v 0.104616 0.422502 0.407266
v 0.104616 0.415287 0.414481
v 0.104616 0.415287 0.414481
v 0.104616 0.415287 0.414481
v 0.111831 0.422502 0.414481
v 0.111831 0.422502 0.414481
v 0.111831 0.422502 0.414481
v 0.075757 0.516296 0.436126
v 0.075757 0.516296 0.436126
v 0.075757 0.516296 0.436126
v 0.082972 0.523511 0.436126
v 0.082972 0.523511 0.436126
v 0.082972 0.523511 0.436126
v 0.082972 0.516296 0.443341
v 0.082972 0.516296 0.443341
v 0.082972 0.516296 0.407266
v 0.082972 0.516296 0.407266
v 0.082972 0.523511 0.414481
v 0.082972 0.523511 0.414481
v 0.082972 0.523511 0.414481
v 0.075757 0.516296 0.414481
v 0.075757 0.516296 0.414481
v 0.075757 0.516296 0.414481
v 0.111831 0.516296 0.436126
v 0.111831 0.516296 0.436126
v 0.111831 0.516296 0.436126
v 0.104616 0.516296 0.443341
v 0.104616 0.516296 0.443341
v 0.104616 0.523511 0.436126
v 0.104616 0.523511 0.436126
v 0.104616 0.523511 0.436126
v 0.111831 0.516296 0.414481
v 0.111831 0.516296 0.414481
v 0.111831 0.516296 0.414481
v 0.104616 0.523511 0.414481
v 0.104616 0.523511 0.414481
v 0.104616 0.523511 0.414481
v 0.104616 0.516296 0.407266
v 0.104616 0.516296 0.407266
v 0.104616 0.458577 0.443341
v 0.104616 0.458577 0.443341
v 0.111831 0.451362 0.436126
v 0.111831 0.451362 0.436126
v 0.111831 0.487436 0.436126
v 0.111831 0.487436 0.436126
v 0.111831 0.487436 0.436126
v 0.111831 0.487436 0.436126
v 0.104616 0.480221 0.443341
v 0.104616 0.480221 0.443341
v 0.104616 0.480221 0.407266
v 0.104616 0.480221 0.407266
v 0.111831 0.487436 0.414481
v 0.111831 0.487436 0.414481
v 0.111831 0.487436 0.414481
v 0.111831 0.487436 0.414481
v 0.111831 0.451362 0.414481
v 0.111831 0.451362 0.414481
v 0.104616 0.458577 0.407266
v 0.104616 0.458577 0.407266
v 0.082972 0.480221 0.443341
v 0.082972 0.480221 0.443341
v 0.075757 0.487436 0.436126
v 0.075757 0.487436 0.436126
v 0.075757 0.451362 0.436126
v 0.075757 0.451362 0.436126
v 0.082972 0.458577 0.443341
v 0.082972 0.458577 0.443341
v 0.082972 0.458577 0.407266
v 0.082972 0.458577 0.407266
v 0.075757 0.451362 0.414481
v 0.075757 0.451362 0.414481
v 0.075757 0.487436 0.414481
v 0.075757 0.487436 0.414481
v 0.082972 0.480221 0.407266
v 0.082972 0.480221 0.407266
v 0.046897 0.480221 0.443341
v 0.046897 0.480221 0.443341
v 0.039682 0.480221 0.436126
v 0.039682 0.480221 0.436126
v 0.039682 0.480221 0.436126
v 0.046897 0.487436 0.436126
v 0.046897 0.487436 0.436126
v 0.046897 0.487436 0.436126
v 0.046897 0.458577 0.443341
v 0.046897 0.458577 0.443341
v 0.046897 0.451362 0.436126
v 0.046897 0.451362 0.436126
v 0.046897 0.451362 0.436126
v 0.039682 0.458577 0.436126
v 0.039682 0.458577 0.436126
v 0.039682 0.458577 0.436126
v 0.046897 0.458577 0.407266
v 0.046897 0.458577 0.407266
v 0.039682 0.458577 0.414481
v 0.039682 0.458577 0.414481
v 0.039682 0.458577 0.414481
v 0.046897 0.451362 0.414481
v 0.046897 0.451362 0.414481
v 0.046897 0.451362 0.414481
v 0.046897 0.480221 0.407266
v 0.046897 0.480221 0.407266
v 0.046897 0.487436 0.414481
v 0.046897 0.487436 0.414481
v 0.046897 0.487436 0.414481
v 0.039682 0.480221 0.414481
v 0.039682 0.480221 0.414481
v 0.039682 0.480221 0.414481
v 0.140691 0.458577 0.443341
v 0.140691 0.458577 0.443341
v 0.147906 0.458577 0.436126
v 0.147906 0.458577 0.436126
v 0.147906 0.458577 0.436126
v 0.140691 0.451362 0.436126
v 0.140691 0.451362 0.436126
v 0.140691 0.451362 0.436126
v 0.140691 0.480221 0.443341
v 0.140691 0.480221 0.443341
v 0.140691 0.487436 0.436126
v 0.140691 0.487436 0.436126
v 0.140691 0.487436 0.436126
v 0.147906 0.480221 0.436126
v 0.147906 0.480221 0.436126
v 0.147906 0.480221 0.436126
v 0.140691 0.480221 0.407266
v 0.140691 0.480221 0.407266
v 0.147906 0.480221 0.414481
v 0.147906 0.480221 0.414481
v 0.147906 0.480221 0.414481
v 0.140691 0.487436 0.414481
v 0.140691 0.487436 0.414481
v 0.140691 0.487436 0.414481
v 0.140691 0.458577 0.407266
v 0.140691 0.458577 0.407266
v 0.140691 0.451362 0.414481
v 0.140691 0.451362 0.414481
v 0.140691 0.451362 0.414481
v 0.147906 0.458577 0.414481
v 0.147906 0.458577 0.414481
v 0.147906 0.458577 0.414481
v -0.147906 0.458577 0.414481
v -0.147906 0.458577 0.414481
v -0.147906 0.458577 0.414481
v -0.140691 0.451362 0.414481
v -0.140691 0.451362 0.414481
v -0.140691 0.451362 0.414481
v -0.140691 0.458577 0.407266
v -0.140691 0.458577 0.407266
v -0.140691 0.487436 0.414481
v -0.140691 0.487436 0.414481
v -0.140691 0.487436 0.414481
v -0.147906 0.480221 0.414481
v -0.147906 0.480221 0.414481
v -0.147906 0.480221 0.414481
v -0.140691 0.480221 0.407266
v -0.140691 0.480221 0.407266
v -0.147906 0.480221 0.436126
v -0.147906 0.480221 0.436126
v -0.147906 0.480221 0.436126
v -0.140691 0.487436 0.436126
v -0.140691 0.487436 0.436126
v -0.140691 0.487436 0.436126
v -0.140691 0.480221 0.443341
v -0.140691 0.480221 0.443341
v -0.140691 0.451362 0.436126
v -0.140691 0.451362 0.436126
v -0.140691 0.451362 0.436126
v -0.147906 0.458577 0.436126
v -0.147906 0.458577 0.436126
v -0.147906 0.458577 0.436126
v -0.140691 0.458577 0.443341
v -0.140691 0.458577 0.443341
v -0.039682 0.480221 0.414481
v -0.039682 0.480221 0.414481
v -0.039682 0.480221 0.414481
v -0.046897 0.487436 0.414481
v -0.046897 0.487436 0.414481
v -0.046897 0.487436 0.414481
v -0.046897 0.480221 0.407266
v -0.046897 0.480221 0.407266
v -0.046897 0.451362 0.414481
v -0.046897 0.451362 0.414481
v -0.046897 0.451362 0.414481
v -0.039682 0.458577 0.414481
v -0.039682 0.458577 0.414481
v -0.039682 0.458577 0.414481
v -0.046897 0.458577 0.407266
v -0.046897 0.458577 0.407266
v -0.039682 0.458577 0.436126
v -0.039682 0.458577 0.436126
v -0.039682 0.458577 0.436126
v -0.046897 0.451362 0.436126
v -0.046897 0.451362 0.436126
v -0.046897 0.451362 0.436126
v -0.046897 0.458577 0.443341
v -0.046897 0.458577 0.443341
v -0.046897 0.487436 0.436126
v -0.046897 0.487436 0.436126
v -0.046897 0.487436 0.436126
v -0.039682 0.480221 0.436126
v -0.039682 0.480221 0.436126
v -0.039682 0.480221 0.436126
v -0.046897 0.480221 0.443341
v -0.046897 0.480221 0.443341
v -0.082972 0.480221 0.407266
v -0.082972 0.480221 0.407266
v -0.075757 0.487436 0.414481
v -0.075757 0.487436 0.414481
v -0.075757 0.487436 0.414481
v -0.075757 0.487436 0.414481
v -0.075757 0.451362 0.414481
v -0.075757 0.451362 0.414481
v -0.082972 0.458577 0.407266
v -0.082972 0.458577 0.407266
v -0.082972 0.458577 0.443341
v -0.082972 0.458577 0.443341
v -0.075757 0.451362 0.436126
v -0.075757 0.451362 0.436126
v -0.075757 0.487436 0.436126
v -0.075757 0.487436 0.436126
v -0.075757 0.487436 0.436126
v -0.075757 0.487436 0.436126
v -0.082972 0.480221 0.443341
v -0.082972 0.480221 0.443341
v -0.104616 0.458577 0.407266
v -0.104616 0.458577 0.407266
v -0.111831 0.451362 0.414481
v -0.111831 0.451362 0.414481
v -0.111831 0.487436 0.414481
v -0.111831 0.487436 0.414481
v -0.111831 0.487436 0.414481
v -0.111831 0.487436 0.414481
v -0.104616 0.480221 0.407266
v -0.104616 0.480221 0.407266
v -0.104616 0.480221 0.443341
v -0.104616 0.480221 0.443341
v -0.111831 0.487436 0.436126
v -0.111831 0.487436 0.436126
v -0.111831 0.487436 0.436126
v -0.111831 0.487436 0.436126
v -0.111831 0.451362 0.436126
v -0.111831 0.451362 0.436126
v -0.104616 0.458577 0.443341
v -0.104616 0.458577 0.443341
v -0.104616 0.516296 0.407266
v -0.104616 0.516296 0.407266
v -0.104616 0.523511 0.414481
v -0.104616 0.523511 0.414481
v -0.104616 0.523511 0.414481
v -0.111831 0.516296 0.414481
v -0.111831 0.516296 0.414481
v -0.111831 0.516296 0.414481
v -0.104616 0.523511 0.436126
v -0.104616 0.523511 0.436126
v -0.104616 0.523511 0.436126
v -0.104616 0.516296 0.443341
v -0.104616 0.516296 0.443341
v -0.111831 0.516296 0.436126
v -0.111831 0.516296 0.436126
v -0.111831 0.516296 0.436126
v -0.075757 0.516296 0.414481
v -0.075757 0.516296 0.414481
v -0.075757 0.516296 0.414481
v -0.082972 0.523511 0.414481
v -0.082972 0.523511 0.414481
v -0.082972 0.523511 0.414481
v -0.082972 0.516296 0.407266
v -0.082972 0.516296 0.407266
v -0.082972 0.516296 0.443341
v -0.082972 0.516296 0.443341
v -0.082972 0.523511 0.436126
v -0.082972 0.523511 0.436126
v -0.082972 0.523511 0.436126
v -0.075757 0.516296 0.436126
v -0.075757 0.516296 0.436126
v -0.075757 0.516296 0.436126
v -0.111831 0.422502 0.414481
v -0.111831 0.422502 0.414481
v -0.111831 0.422502 0.414481
v -0.104616 0.415287 0.414481
v -0.104616 0.415287 0.414481
v -0.104616 0.415287 0.414481
v -0.104616 0.422502 0.407266
v -0.104616 0.422502 0.407266
v -0.104616 0.422502 0.443341
v -0.104616 0.422502 0.443341
v -0.104616 0.415287 0.436126
v -0.104616 0.415287 0.436126
v -0.104616 0.415287 0.436126
v -0.111831 0.422502 0.436126
v -0.111831 0.422502 0.436126
v -0.111831 0.422502 0.436126
v -0.082972 0.415287 0.414481
v -0.082972 0.415287 0.414481
v -0.082972 0.415287 0.414481
v -0.075757 0.422502 0.414481
v -0.075757 0.422502 0.414481
v -0.075757 0.422502 0.414481
v -0.082972 0.422502 0.407266
v -0.082972 0.422502 0.407266
v -0.075757 0.422502 0.436126
v -0.075757 0.422502 0.436126
v -0.075757 0.422502 0.436126
v -0.082972 0.415287 0.436126
v -0.082972 0.415287 0.436126
v -0.082972 0.415287 0.436126
v -0.082972 0.422502 0.443341
v -0.082972 0.422502 0.443341
v -0.086652 0.476541 0.425304
v -0.086652 0.476541 0.425304
v -0.083591 0.479602 0.378407
v -0.093794 0.479500 0.425304
v -0.093794 0.479500 0.425304
v -0.093794 0.483829 0.378407
v -0.100936 0.476541 0.425304
v -0.100936 0.476541 0.425304
v -0.103998 0.479602 0.378407
v -0.103895 0.469399 0.425304
v -0.103895 0.469399 0.425304
v -0.108224 0.469399 0.378407
v -0.100936 0.462257 0.425304
v -0.100936 0.462257 0.425304
v -0.103998 0.459196 0.378407
v -0.093794 0.459298 0.425304
v -0.093794 0.459298 0.425304
v -0.093794 0.454969 0.378407
v -0.086652 0.462257 0.425304
v -0.086652 0.462257 0.425304
v -0.083591 0.459196 0.378407
v -0.083693 0.469399 0.425304
v -0.083693 0.469399 0.425304
v -0.079364 0.469399 0.378407
v 0.025445 0.512083 0.398794
v 0.025445 0.512083 0.398794
v 0.025445 0.512083 0.378051
v -0.035984 0.486639 0.398794
v -0.035984 0.486639 0.398794
v -0.035984 0.486639 0.378051
v 0.025445 0.461194 0.398794
v 0.025445 0.461194 0.398794
v 0.025445 0.461194 0.378051
v 0.000000 0.522623 0.398794
v 0.000000 0.522623 0.398794
v 0.000000 0.522623 0.378051
v -0.025444 0.461194 0.398794
v -0.025444 0.461194 0.398794
v -0.025444 0.461194 0.378051
v 0.000000 0.450654 0.378051
v 0.035985 0.486639 0.378051
v -0.025444 0.512083 0.378051
v 0.035985 0.486639 0.398794
v 0.035985 0.486639 0.398794
v -0.025444 0.512083 0.398794
v -0.025444 0.512083 0.398794
v 0.000000 0.450654 0.398794
v 0.000000 0.450654 0.398794
v 0.000000 0.243745 0.445059
v 0.000000 0.243745 0.445059
v -0.019083 0.251649 0.445059
v -0.019083 0.251649 0.445059
v -0.026988 0.270733 0.445059
v -0.026988 0.270733 0.445059
v -0.019083 0.289817 0.445059
v -0.019083 0.289817 0.445059
v 0.000000 0.297721 0.445059
v 0.000000 0.297721 0.445059
v 0.019084 0.289817 0.445059
v 0.019084 0.289817 0.445059
v 0.026989 0.270733 0.445059
v 0.026989 0.270733 0.445059
v 0.019084 0.251649 0.445059
v 0.019084 0.251649 0.445059
v 0.000000 0.254017 0.496699
v -0.019083 0.261320 0.493674
v -0.026988 0.278950 0.486371
v -0.019083 0.296581 0.479068
v 0.000000 0.303884 0.476043
v 0.019084 0.296581 0.479068
v 0.026989 0.278950 0.486371
v 0.019084 0.261320 0.493674
v 0.000000 0.283268 0.540477
v -0.019083 0.288857 0.534887
v -0.026988 0.302352 0.521393
v -0.019083 0.315846 0.507899
v 0.000000 0.321435 0.502310
v 0.019084 0.315846 0.507899
v 0.026989 0.302352 0.521393
v 0.019084 0.288857 0.534887
v 0.000000 0.327046 0.569728
v -0.019083 0.330071 0.562425
v -0.026988 0.337374 0.544795
v -0.019083 0.344677 0.527164
v 0.000000 0.347702 0.519861
v 0.019084 0.344677 0.527164
v 0.026989 0.337374 0.544795
v 0.019084 0.330071 0.562425
v 0.000000 0.378686 0.580000
v -0.019083 0.378686 0.572095
v -0.026988 0.378686 0.553012
v -0.019083 0.378686 0.533928
v 0.000000 0.378686 0.526024
v 0.019084 0.378686 0.533928
v 0.026989 0.378686 0.553012
v 0.019084 0.378686 0.572095
v 0.000000 0.430326 0.569728
v -0.019083 0.427300 0.562425
v -0.026988 0.419997 0.544795
v -0.019083 0.412695 0.527164
v 0.000000 0.409670 0.519861
v 0.019084 0.412695 0.527164
v 0.026989 0.419997 0.544795
v 0.019084 0.427300 0.562425
v 0.000000 0.474103 0.540477
v -0.019083 0.468514 0.534887
v -0.026988 0.455020 0.521393
v -0.019083 0.441526 0.507899
v 0.000000 0.435937 0.502310
v 0.019084 0.441526 0.507899
v 0.026989 0.455020 0.521393
v 0.019084 0.468514 0.534887
v 0.000000 0.503355 0.496699
v -0.019083 0.496052 0.493674
v -0.026988 0.478421 0.486371
v -0.019083 0.460790 0.479068
v 0.000000 0.453488 0.476043
v 0.019084 0.460790 0.479068
v 0.026989 0.478421 0.486371
v 0.019084 0.496052 0.493674
v 0.000000 0.513627 0.445059
v -0.019083 0.505722 0.445059
v -0.026988 0.486639 0.445059
v -0.019083 0.467555 0.445059
v 0.000000 0.459651 0.445059
v 0.019084 0.467555 0.445059
v 0.026989 0.486639 0.445059
v 0.019084 0.505722 0.445059
v 0.019084 0.251649 0.410608
v 0.019084 0.251649 0.410608
v 0.026989 0.270733 0.410608
v 0.026989 0.270733 0.410608
v 0.019084 0.289817 0.410608
v 0.019084 0.289817 0.410608
v 0.000000 0.297721 0.410608
v 0.000000 0.297721 0.410608
v -0.019083 0.289817 0.410608
v -0.019083 0.289817 0.410608
v -0.026988 0.270733 0.410608
v -0.026988 0.270733 0.410608
v -0.019083 0.251649 0.410608
v -0.019083 0.251649 0.410608
v 0.000000 0.243745 0.410608
v 0.000000 0.243745 0.410608
v 0.019084 0.505722 0.398794
v 0.019084 0.505722 0.398794
v -0.026988 0.486639 0.398794
v -0.026988 0.486639 0.398794
v 0.019084 0.467555 0.398794
v 0.019084 0.467555 0.398794
v 0.026989 0.486639 0.398794
v 0.026989 0.486639 0.398794
v 0.000000 0.513627 0.398794
v 0.000000 0.513627 0.398794
v -0.019083 0.505722 0.398794
v -0.019083 0.505722 0.398794
v -0.019083 0.467555 0.398794
v -0.019083 0.467555 0.398794
v 0.000000 0.459651 0.398794
v 0.000000 0.459651 0.398794
v -0.028625 0.299358 0.445059
v -0.028625 0.299358 0.445059
v 0.040483 0.270733 0.445059
v 0.040483 0.270733 0.445059
v -0.040482 0.270733 0.445059
v -0.040482 0.270733 0.445059
v 0.028626 0.242108 0.445059
v 0.028626 0.242108 0.445059
v 0.028626 0.299358 0.445059
v 0.028626 0.299358 0.445059
v 0.000000 0.311215 0.445059
v 0.000000 0.311215 0.445059
v -0.028625 0.242108 0.445059
v -0.028625 0.242108 0.445059
v 0.000000 0.230251 0.445059
v 0.000000 0.230251 0.445059
v 0.000000 0.311215 0.410608
v 0.000000 0.311215 0.410608
v 0.028626 0.299358 0.410608
v 0.028626 0.299358 0.410608
v -0.028625 0.242108 0.410608
v -0.028625 0.242108 0.410608
v 0.040483 0.270733 0.410608
v 0.040483 0.270733 0.410608
v -0.028625 0.299358 0.410608
v -0.028625 0.299358 0.410608
v -0.040482 0.270733 0.410608
v -0.040482 0.270733 0.410608
v 0.000000 0.230251 0.410608
v 0.000000 0.230251 0.410608
v 0.028626 0.242108 0.410608
v 0.028626 0.242108 0.410608
v 0.032839 0.237894 0.427834
v 0.000000 0.224292 0.427834
v -0.046441 0.270733 0.427834
v -0.032839 0.303572 0.427834
v 0.046442 0.270733 0.427834
v -0.032839 0.237894 0.427834
v 0.032839 0.303572 0.427834
v 0.000000 0.317174 0.427834
v 0.000000 0.270733 0.432253
v 0.100518 0.485632 0.439733
v 0.100518 0.485632 0.439733
v 0.100518 0.485632 0.454163
v 0.100518 0.485632 0.454163
v 0.100518 0.485632 0.454163
v 0.110028 0.476123 0.439733
v 0.110028 0.476123 0.439733
v 0.110028 0.476123 0.454163
v 0.110028 0.476123 0.454163
v 0.110028 0.476123 0.454163
v 0.110028 0.462675 0.439733
v 0.110028 0.462675 0.439733
v 0.110028 0.462675 0.454163
v 0.110028 0.462675 0.454163
v 0.110028 0.462675 0.454163
v 0.100518 0.453165 0.439733
v 0.100518 0.453165 0.439733
v 0.100518 0.453165 0.454163
v 0.100518 0.453165 0.454163
v 0.100518 0.453165 0.454163
v 0.087070 0.453165 0.439733
v 0.087070 0.453165 0.439733
v 0.087070 0.453165 0.454163
v 0.087070 0.453165 0.454163
v 0.087070 0.453165 0.454163
v 0.077560 0.462675 0.439733
v 0.077560 0.462675 0.439733
v 0.077560 0.462675 0.454163
v 0.077560 0.462675 0.454163
v 0.077560 0.462675 0.454163
v 0.077560 0.476123 0.439733
v 0.077560 0.476123 0.439733
v 0.077560 0.476123 0.454163
v 0.077560 0.476123 0.454163
v 0.077560 0.476123 0.454163
v 0.087070 0.485632 0.439733
v 0.087070 0.485632 0.439733
v 0.087070 0.485632 0.454163
v 0.087070 0.485632 0.454163
v 0.087070 0.485632 0.454163
v -0.087070 0.485632 0.436126
v -0.087070 0.485632 0.436126
v -0.087070 0.485632 0.450556
v -0.087070 0.485632 0.450556
v -0.087070 0.485632 0.450556
v -0.077560 0.476123 0.436126
v -0.077560 0.476123 0.436126
v -0.077560 0.476123 0.450556
v -0.077560 0.476123 0.450556
v -0.077560 0.476123 0.450556
v -0.077560 0.462675 0.436126
v -0.077560 0.462675 0.436126
v -0.077560 0.462675 0.450556
v -0.077560 0.462675 0.450556
v -0.077560 0.462675 0.450556
v -0.087070 0.453165 0.436126
v -0.087070 0.453165 0.436126
v -0.087070 0.453165 0.450556
v -0.087070 0.453165 0.450556
v -0.087070 0.453165 0.450556
v -0.100518 0.453165 0.436126
v -0.100518 0.453165 0.436126
v -0.100518 0.453165 0.450556
v -0.100518 0.453165 0.450556
v -0.100518 0.453165 0.450556
v -0.110028 0.462675 0.436126
v -0.110028 0.462675 0.436126
v -0.110028 0.462675 0.450556
v -0.110028 0.462675 0.450556
v -0.110028 0.462675 0.450556
v -0.110028 0.476123 0.436126
v -0.110028 0.476123 0.436126
v -0.110028 0.476123 0.450556
v -0.110028 0.476123 0.450556
v -0.110028 0.476123 0.450556
v -0.100518 0.485632 0.436126
v -0.100518 0.485632 0.436126
v -0.100518 0.485632 0.450556
v -0.100518 0.485632 0.450556
v -0.100518 0.485632 0.450556
vt 0.468481 0.844166
vt 0.468481 0.828541
vt 0.406519 0.844166
vt 0.406519 0.828541
vt 0.468481 0.844166
vt 0.468481 0.828541
vt 0.406519 0.844166
vt 0.406519 0.828541
vt 0.472402 0.876497
vt 0.473293 0.886523
vt 0.473293 0.855273
vt 0.401707 0.886523
vt 0.401707 0.855273
vt 0.402598 0.876497
vt 0.405548 0.827858
vt 0.405548 0.843483
vt 0.404961 0.827842
vt 0.404961 0.843467
vt 0.405548 0.843483
vt 0.405548 0.827858
vt 0.401707 0.886523
vt 0.401707 0.855273
vt 0.402598 0.876497
vt 0.473293 0.886523
vt 0.473293 0.855273
vt 0.472402 0.876497
vt 0.469452 0.843483
vt 0.469452 0.827858
vt 0.470039 0.827842
vt 0.470039 0.843467
vt 0.469452 0.827858
vt 0.469452 0.843483
vt 0.455061 0.827752
vt 0.455061 0.843377
vt 0.463368 0.843478
vt 0.463368 0.827853
vt 0.419939 0.843377
vt 0.419939 0.827752
vt 0.411632 0.827853
vt 0.411632 0.843478
vt 0.411632 0.827853
vt 0.411632 0.843478
vt 0.419939 0.827752
vt 0.419939 0.843377
vt 0.463368 0.843478
vt 0.463368 0.827853
vt 0.455061 0.827752
vt 0.455061 0.843377
vt 0.398778 0.876461
vt 0.397489 0.855259
vt 0.397489 0.886509
vt 0.397545 0.876373
vt 0.396054 0.886494
vt 0.396054 0.855244
vt 0.398778 0.876461
vt 0.397489 0.886509
vt 0.397489 0.855259
vt 0.466097 0.855257
vt 0.466097 0.886507
vt 0.456761 0.886479
vt 0.456761 0.855229
vt 0.465511 0.876445
vt 0.456256 0.876249
vt 0.476222 0.876461
vt 0.477511 0.855259
vt 0.477511 0.886509
vt 0.477455 0.876373
vt 0.478946 0.855244
vt 0.478946 0.886494
vt 0.476222 0.876461
vt 0.477511 0.855259
vt 0.477511 0.886509
vt 0.408903 0.855257
vt 0.408903 0.886507
vt 0.418239 0.886479
vt 0.418239 0.855229
vt 0.409489 0.876445
vt 0.418744 0.876249
vt 0.456256 0.876249
vt 0.456761 0.886479
vt 0.456761 0.855229
vt 0.465511 0.876445
vt 0.466097 0.886507
vt 0.466097 0.855257
vt 0.418744 0.876249
vt 0.418239 0.855229
vt 0.418239 0.886479
vt 0.409489 0.876445
vt 0.408903 0.855257
vt 0.408903 0.886507
vt 0.466107 0.773506
vt 0.408893 0.773506
vt 0.466107 0.773505
vt 0.408893 0.773506
vt 0.407341 0.771772
vt 0.406584 0.771072
vt 0.407341 0.771772
vt 0.467659 0.771772
vt 0.468416 0.771072
vt 0.467659 0.771772
vt 0.454063 0.770830
vt 0.461401 0.772085
vt 0.420937 0.770830
vt 0.413599 0.772085
vt 0.413599 0.772085
vt 0.420937 0.770830
vt 0.461401 0.772085
vt 0.454063 0.770830
vt 0.453980 0.766319
vt 0.454027 0.765098
vt 0.453980 0.766319
vt 0.461543 0.768115
vt 0.461827 0.767044
vt 0.461543 0.768115
vt 0.413457 0.768115
vt 0.421020 0.766319
vt 0.413173 0.767044
vt 0.420973 0.765098
vt 0.413457 0.768115
vt 0.421020 0.766319
vt 0.476746 0.870898
vt 0.476746 0.855273
vt 0.478598 0.888662
vt 0.478598 0.873037
vt 0.478351 0.929719
vt 0.478351 0.945344
vt 0.479513 0.942316
vt 0.479513 0.895441
vt 0.395487 0.942316
vt 0.395487 0.895441
vt 0.396649 0.945344
vt 0.396649 0.929719
vt 0.398254 0.870898
vt 0.398254 0.855273
vt 0.396402 0.888662
vt 0.396402 0.873037
vt 0.391649 0.929702
vt 0.391649 0.945327
vt 0.390377 0.942326
vt 0.390377 0.895451
vt 0.389981 0.929696
vt 0.389981 0.945321
vt 0.388672 0.942330
vt 0.388672 0.895455
vt 0.391649 0.945327
vt 0.391649 0.929702
vt 0.390377 0.942326
vt 0.390377 0.895451
vt 0.396649 0.929719
vt 0.396649 0.945344
vt 0.395487 0.942316
vt 0.395487 0.895441
vt 0.396402 0.873037
vt 0.396402 0.888662
vt 0.398254 0.855273
vt 0.398254 0.870898
vt 0.479513 0.942316
vt 0.479513 0.895441
vt 0.478351 0.945344
vt 0.478351 0.929719
vt 0.476746 0.870898
vt 0.476746 0.855273
vt 0.478598 0.888662
vt 0.478598 0.873037
vt 0.483351 0.929702
vt 0.483351 0.945327
vt 0.484624 0.895451
vt 0.484624 0.942326
vt 0.485019 0.945321
vt 0.485019 0.929696
vt 0.486328 0.942330
vt 0.486328 0.895455
vt 0.483351 0.945327
vt 0.483351 0.929702
vt 0.484624 0.895451
vt 0.484624 0.942326
vt 0.415476 0.929784
vt 0.415476 0.945409
vt 0.414795 0.895432
vt 0.414795 0.942307
vt 0.404831 0.929749
vt 0.404831 0.945374
vt 0.403862 0.942310
vt 0.403862 0.895435
vt 0.459524 0.945409
vt 0.459524 0.929784
vt 0.460205 0.895432
vt 0.460205 0.942307
vt 0.470169 0.929749
vt 0.470169 0.945374
vt 0.471138 0.942310
vt 0.471138 0.895435
vt 0.470169 0.945374
vt 0.470169 0.929749
vt 0.471138 0.942310
vt 0.471138 0.895435
vt 0.459524 0.929784
vt 0.459524 0.945409
vt 0.460205 0.895432
vt 0.460205 0.942307
vt 0.404831 0.945374
vt 0.404831 0.929749
vt 0.403862 0.942310
vt 0.403862 0.895435
vt 0.415476 0.929784
vt 0.415476 0.945409
vt 0.414795 0.942307
vt 0.414795 0.895432
vt 0.393450 0.870884
vt 0.393450 0.855259
vt 0.391407 0.873013
vt 0.391407 0.888638
vt 0.389744 0.872995
vt 0.389744 0.888620
vt 0.391846 0.855244
vt 0.391846 0.870869
vt 0.391407 0.888638
vt 0.391407 0.873013
vt 0.393450 0.870884
vt 0.393450 0.855259
vt 0.468871 0.870882
vt 0.468871 0.855257
vt 0.470405 0.873027
vt 0.470405 0.888652
vt 0.459698 0.888628
vt 0.459698 0.873003
vt 0.458618 0.870854
vt 0.458618 0.855229
vt 0.481550 0.870884
vt 0.481550 0.855259
vt 0.483593 0.873013
vt 0.483593 0.888638
vt 0.485256 0.872995
vt 0.485256 0.888620
vt 0.483154 0.870869
vt 0.483154 0.855244
vt 0.483593 0.888638
vt 0.483593 0.873013
vt 0.481550 0.870884
vt 0.481550 0.855259
vt 0.406129 0.870882
vt 0.406129 0.855257
vt 0.404595 0.873027
vt 0.404595 0.888652
vt 0.415302 0.873003
vt 0.415302 0.888628
vt 0.416382 0.855229
vt 0.416382 0.870854
vt 0.459698 0.888628
vt 0.459698 0.873003
vt 0.458618 0.855229
vt 0.458618 0.870854
vt 0.470405 0.888652
vt 0.470405 0.873027
vt 0.468871 0.855257
vt 0.468871 0.870882
vt 0.415302 0.873003
vt 0.415302 0.888628
vt 0.416382 0.870854
vt 0.416382 0.855229
vt 0.404595 0.873027
vt 0.404595 0.888652
vt 0.406129 0.870882
vt 0.406129 0.855257
vt 0.470848 0.942372
vt 0.470848 0.864247
vt 0.472878 0.944648
vt 0.472878 0.929023
vt 0.402122 0.944648
vt 0.402122 0.929023
vt 0.404152 0.864247
vt 0.404152 0.942372
vt 0.472878 0.929023
vt 0.472878 0.944648
vt 0.470848 0.864247
vt 0.470848 0.942372
vt 0.404152 0.942372
vt 0.404152 0.864247
vt 0.402122 0.929023
vt 0.402122 0.944648
vt 0.400521 0.864263
vt 0.400521 0.942388
vt 0.398171 0.929017
vt 0.398171 0.944642
vt 0.399213 0.942393
vt 0.399213 0.864268
vt 0.400521 0.864263
vt 0.400521 0.942388
vt 0.398171 0.944642
vt 0.398171 0.929017
vt 0.474479 0.864263
vt 0.474479 0.942388
vt 0.476829 0.944642
vt 0.476829 0.929017
vt 0.475787 0.942393
vt 0.475787 0.864268
vt 0.478220 0.929015
vt 0.478220 0.944640
vt 0.474479 0.864263
vt 0.474479 0.942388
vt 0.476829 0.944642
vt 0.476829 0.929017
vt 0.418118 0.942349
vt 0.418118 0.864224
vt 0.417325 0.944663
vt 0.417325 0.929038
vt 0.409882 0.864232
vt 0.409882 0.942357
vt 0.408467 0.944655
vt 0.408467 0.929030
vt 0.456882 0.942349
vt 0.456882 0.864224
vt 0.457675 0.944663
vt 0.457675 0.929038
vt 0.465118 0.864232
vt 0.465118 0.942357
vt 0.466533 0.929030
vt 0.466533 0.944655
vt 0.465118 0.942357
vt 0.465118 0.864232
vt 0.466533 0.944655
vt 0.466533 0.929030
vt 0.456882 0.942349
vt 0.456882 0.864224
vt 0.457675 0.944663
vt 0.457675 0.929038
vt 0.409882 0.864232
vt 0.409882 0.942357
vt 0.408467 0.944655
vt 0.408467 0.929030
vt 0.418118 0.942349
vt 0.418118 0.864224
vt 0.417325 0.944663
vt 0.417325 0.929038
vt 0.431176 0.827671
vt 0.431176 0.843296
vt 0.431176 0.827671
vt 0.431176 0.843296
vt 0.429995 0.855216
vt 0.429995 0.886466
vt 0.430469 0.876133
vt 0.430469 0.876133
vt 0.429995 0.886466
vt 0.429995 0.855216
vt 0.430494 0.770205
vt 0.430494 0.770205
vt 0.430557 0.765532
vt 0.430573 0.764265
vt 0.430557 0.765532
vt 0.429363 0.945438
vt 0.429363 0.929813
vt 0.429212 0.942306
vt 0.429212 0.895431
vt 0.429363 0.945438
vt 0.429363 0.929813
vt 0.429212 0.942306
vt 0.429212 0.895431
vt 0.429592 0.855216
vt 0.429592 0.870841
vt 0.429342 0.872991
vt 0.429342 0.888616
vt 0.429342 0.872991
vt 0.429342 0.888616
vt 0.429592 0.855216
vt 0.429592 0.870841
vt 0.429843 0.942344
vt 0.429843 0.864219
vt 0.429686 0.929047
vt 0.429686 0.944673
vt 0.429843 0.942344
vt 0.429843 0.864219
vt 0.429686 0.944672
vt 0.429686 0.929047
vt 0.443824 0.827671
vt 0.443824 0.843296
vt 0.443824 0.827671
vt 0.443824 0.843296
vt 0.445005 0.855216
vt 0.445005 0.886466
vt 0.444531 0.876133
vt 0.444531 0.876133
vt 0.445005 0.855216
vt 0.445005 0.886466
vt 0.444507 0.770205
vt 0.444506 0.770205
vt 0.444443 0.765532
vt 0.444427 0.764265
vt 0.444443 0.765532
vt 0.445637 0.945438
vt 0.445637 0.929813
vt 0.445788 0.895431
vt 0.445788 0.942306
vt 0.445637 0.929813
vt 0.445637 0.945438
vt 0.445788 0.942306
vt 0.445788 0.895431
vt 0.445408 0.855216
vt 0.445408 0.870841
vt 0.445658 0.872991
vt 0.445658 0.888616
vt 0.445658 0.872991
vt 0.445658 0.888616
vt 0.445408 0.870841
vt 0.445408 0.855216
vt 0.445157 0.864219
vt 0.445157 0.942344
vt 0.445314 0.929047
vt 0.445314 0.944672
vt 0.445157 0.864219
vt 0.445157 0.942344
vt 0.445314 0.929047
vt 0.445314 0.944673
vt 0.470593 0.849434
vt 0.470593 0.865059
vt 0.404407 0.849434
vt 0.404407 0.865059
vt 0.404407 0.865059
vt 0.404407 0.849434
vt 0.470593 0.849434
vt 0.470593 0.865059
vt 0.401540 0.865017
vt 0.401540 0.849392
vt 0.400535 0.849277
vt 0.400535 0.864902
vt 0.401540 0.849392
vt 0.401540 0.865017
vt 0.464837 0.865020
vt 0.464837 0.849395
vt 0.456132 0.864730
vt 0.456132 0.849105
vt 0.473460 0.865017
vt 0.473460 0.849392
vt 0.474465 0.849277
vt 0.474465 0.864902
vt 0.473460 0.865017
vt 0.473460 0.849392
vt 0.410163 0.849395
vt 0.410163 0.865020
vt 0.418868 0.849105
vt 0.418868 0.864730
vt 0.456132 0.849105
vt 0.456132 0.864730
vt 0.464837 0.865020
vt 0.464837 0.849395
vt 0.418868 0.864730
vt 0.418868 0.849105
vt 0.410163 0.849395
vt 0.410163 0.865020
vt 0.430479 0.848902
vt 0.430479 0.864527
vt 0.430479 0.848902
vt 0.430479 0.864527
vt 0.444521 0.864527
vt 0.444521 0.848902
vt 0.444521 0.864527
vt 0.444521 0.848902
vt 0.396780 0.944640
vt 0.396780 0.929015
vt 0.473494 0.785976
vt 0.470483 0.786910
vt 0.464399 0.786256
vt 0.410601 0.786256
vt 0.404517 0.786910
vt 0.401506 0.785976
vt 0.464399 0.786256
vt 0.470483 0.786910
vt 0.473494 0.785976
vt 0.401506 0.785976
vt 0.404517 0.786910
vt 0.410601 0.786256
vt 0.400419 0.785576
vt 0.474581 0.785576
vt 0.419021 0.785638
vt 0.455979 0.785638
vt 0.455979 0.785638
vt 0.419021 0.785638
vt 0.430042 0.785343
vt 0.430042 0.785343
vt 0.444958 0.785343
vt 0.444958 0.785343
vt 0.311856 0.914071
vt 0.318655 0.913390
vt 0.312105 0.947019
vt 0.312105 0.915769
vt 0.318903 0.946337
vt 0.318903 0.915087
vt 0.315109 0.913911
vt 0.315109 0.929536
vt 0.313265 0.914076
vt 0.313265 0.929701
vt 0.313912 0.929653
vt 0.313265 0.929701
vt 0.313265 0.914076
vt 0.315109 0.929536
vt 0.315109 0.913911
vt 0.313912 0.929653
vt 0.319790 0.929016
vt 0.319790 0.913391
vt 0.318461 0.913558
vt 0.318461 0.929183
vt 0.319507 0.929065
vt 0.318461 0.913558
vt 0.318461 0.929183
vt 0.319790 0.913391
vt 0.319790 0.929016
vt 0.319507 0.929065
vt 0.314748 0.946902
vt 0.314748 0.946902
vt 0.318888 0.946466
vt 0.318888 0.946466
vt 0.314161 0.946976
vt 0.314161 0.931351
vt 0.315357 0.946858
vt 0.315357 0.915608
vt 0.315357 0.931233
vt 0.313514 0.947024
vt 0.313514 0.915774
vt 0.313514 0.931399
vt 0.320039 0.930714
vt 0.320039 0.946339
vt 0.320039 0.915089
vt 0.319755 0.946388
vt 0.319755 0.930763
vt 0.318710 0.946506
vt 0.318710 0.915256
vt 0.318710 0.930881
vt 0.314161 0.946976
vt 0.314161 0.931351
vt 0.313514 0.915774
vt 0.313514 0.947024
vt 0.313514 0.931399
vt 0.315357 0.946858
vt 0.315357 0.931233
vt 0.315357 0.915608
vt 0.319755 0.946388
vt 0.319755 0.930763
vt 0.320039 0.930714
vt 0.320039 0.915089
vt 0.320039 0.946339
vt 0.318710 0.930881
vt 0.318710 0.946506
vt 0.318710 0.915256
vt 0.313091 0.946917
vt 0.317918 0.946439
vt 0.463368 0.827853
vt 0.455061 0.827752
vt 0.443824 0.827671
vt 0.431176 0.827671
vt 0.419939 0.827752
vt 0.411632 0.827853
vt 0.463368 0.827853
vt 0.455061 0.827752
vt 0.443824 0.827671
vt 0.431176 0.827671
vt 0.419939 0.827752
vt 0.411632 0.827853
vt 0.463368 0.827853
vt 0.455061 0.827752
vt 0.443824 0.827671
vt 0.431176 0.827671
vt 0.419939 0.827752
vt 0.411632 0.827853
vt 0.325690 0.909597
vt 0.326255 0.918923
vt 0.326255 0.918923
vt 0.326242 0.909597
vt 0.326641 0.918923
vt 0.326641 0.918923
vt 0.327574 0.909597
vt 0.327574 0.918923
vt 0.327574 0.918923
vt 0.328906 0.909597
vt 0.328507 0.918923
vt 0.328507 0.918923
vt 0.329458 0.909597
vt 0.328893 0.918923
vt 0.328893 0.918923
vt 0.328906 0.909597
vt 0.328507 0.918923
vt 0.328507 0.918923
vt 0.327574 0.909597
vt 0.327574 0.918923
vt 0.327574 0.918923
vt 0.326242 0.909597
vt 0.326641 0.918923
vt 0.326641 0.918923
vt 0.326161 0.969385
vt 0.326161 0.953760
vt 0.326161 0.936700
vt 0.326161 0.967950
vt 0.326161 0.921075
vt 0.325219 0.967950
vt 0.325219 0.921075
vt 0.325219 0.936700
vt 0.326161 0.884086
vt 0.326161 0.899711
vt 0.325219 0.932396
vt 0.325219 0.916771
vt 0.325219 0.901146
vt 0.326161 0.901146
vt 0.326161 0.916771
vt 0.326161 0.932396
vt 0.329930 0.921075
vt 0.329930 0.936700
vt 0.329930 0.967950
vt 0.328987 0.936700
vt 0.328987 0.967950
vt 0.328987 0.921075
vt 0.328987 0.969385
vt 0.328987 0.953760
vt 0.328987 0.884086
vt 0.328987 0.899711
vt 0.328987 0.916771
vt 0.328987 0.901146
vt 0.328987 0.932396
vt 0.329930 0.901146
vt 0.329930 0.932396
vt 0.329930 0.916771
vt 0.325219 0.921075
vt 0.325219 0.936700
vt 0.325219 0.967950
vt 0.326161 0.921075
vt 0.326161 0.967950
vt 0.326161 0.936700
vt 0.326161 0.953760
vt 0.326161 0.969385
vt 0.326161 0.884086
vt 0.326161 0.899711
vt 0.326161 0.901146
vt 0.326161 0.932396
vt 0.326161 0.916771
vt 0.325219 0.901146
vt 0.325219 0.916771
vt 0.325219 0.932396
vt 0.329930 0.967950
vt 0.329930 0.921075
vt 0.329930 0.936700
vt 0.328987 0.953760
vt 0.328987 0.969385
vt 0.328987 0.936700
vt 0.328987 0.921075
vt 0.328987 0.967950
vt 0.329930 0.932396
vt 0.329930 0.901146
vt 0.329930 0.916771
vt 0.328987 0.901146
vt 0.328987 0.932396
vt 0.328987 0.916771
vt 0.328987 0.899711
vt 0.328987 0.884086
vt 0.328987 0.969385
vt 0.328987 0.953760
vt 0.329930 0.967950
vt 0.329930 0.921075
vt 0.329930 0.967950
vt 0.329930 0.921075
vt 0.329930 0.921075
vt 0.329930 0.967950
vt 0.328987 0.969385
vt 0.328987 0.953760
vt 0.328987 0.884086
vt 0.328987 0.899711
vt 0.329930 0.901146
vt 0.329930 0.916771
vt 0.329930 0.916771
vt 0.329930 0.901146
vt 0.329930 0.901146
vt 0.329930 0.916771
vt 0.328987 0.899711
vt 0.328987 0.884086
vt 0.326161 0.969385
vt 0.326161 0.953760
vt 0.325219 0.921075
vt 0.325219 0.967950
vt 0.325219 0.967950
vt 0.325219 0.921075
vt 0.326161 0.953760
vt 0.326161 0.969385
vt 0.326161 0.884086
vt 0.326161 0.899711
vt 0.325219 0.901146
vt 0.325219 0.916771
vt 0.325219 0.916771
vt 0.325219 0.901146
vt 0.326161 0.884086
vt 0.326161 0.899711
vt 0.321450 0.969385
vt 0.321450 0.953760
vt 0.320508 0.967950
vt 0.320508 0.921075
vt 0.320508 0.936700
vt 0.321450 0.921075
vt 0.321450 0.936700
vt 0.321450 0.967950
vt 0.321450 0.953760
vt 0.321450 0.969385
vt 0.321450 0.921075
vt 0.321450 0.967950
vt 0.321450 0.936700
vt 0.320508 0.967950
vt 0.320508 0.936700
vt 0.320508 0.921075
vt 0.321450 0.884086
vt 0.321450 0.899711
vt 0.320508 0.932396
vt 0.320508 0.916771
vt 0.320508 0.901146
vt 0.321450 0.932396
vt 0.321450 0.901146
vt 0.321450 0.916771
vt 0.321450 0.899711
vt 0.321450 0.884086
vt 0.321450 0.901146
vt 0.321450 0.932396
vt 0.321450 0.916771
vt 0.320508 0.932396
vt 0.320508 0.901146
vt 0.320508 0.916771
vt 0.333698 0.953760
vt 0.333698 0.969385
vt 0.334640 0.967950
vt 0.334640 0.921075
vt 0.334640 0.936700
vt 0.333698 0.967950
vt 0.333698 0.936700
vt 0.333698 0.921075
vt 0.333698 0.969385
vt 0.333698 0.953760
vt 0.333698 0.936700
vt 0.333698 0.921075
vt 0.333698 0.967950
vt 0.334640 0.936700
vt 0.334640 0.921075
vt 0.334640 0.967950
vt 0.333698 0.884086
vt 0.333698 0.899711
vt 0.334640 0.901146
vt 0.334640 0.932396
vt 0.334640 0.916771
vt 0.333698 0.932396
vt 0.333698 0.901146
vt 0.333698 0.916771
vt 0.333698 0.899711
vt 0.333698 0.884086
vt 0.333698 0.916771
vt 0.333698 0.901146
vt 0.333698 0.932396
vt 0.334640 0.932396
vt 0.334640 0.916771
vt 0.334640 0.901146
vt 0.334640 0.932396
vt 0.334640 0.916771
vt 0.334640 0.901146
vt 0.333698 0.932396
vt 0.333698 0.916771
vt 0.333698 0.901146
vt 0.333698 0.884086
vt 0.333698 0.899711
vt 0.333698 0.916771
vt 0.333698 0.932396
vt 0.333698 0.901146
vt 0.334640 0.932396
vt 0.334640 0.916771
vt 0.334640 0.901146
vt 0.333698 0.899711
vt 0.333698 0.884086
vt 0.334640 0.921075
vt 0.334640 0.936700
vt 0.334640 0.967950
vt 0.333698 0.967950
vt 0.333698 0.921075
vt 0.333698 0.936700
vt 0.333698 0.969385
vt 0.333698 0.953760
vt 0.333698 0.967950
vt 0.333698 0.936700
vt 0.333698 0.921075
vt 0.334640 0.921075
vt 0.334640 0.967950
vt 0.334640 0.936700
vt 0.333698 0.953760
vt 0.333698 0.969385
vt 0.320508 0.932396
vt 0.320508 0.916771
vt 0.320508 0.901146
vt 0.321450 0.901146
vt 0.321450 0.916771
vt 0.321450 0.932396
vt 0.321450 0.899711
vt 0.321450 0.884086
vt 0.321450 0.932396
vt 0.321450 0.901146
vt 0.321450 0.916771
vt 0.320508 0.932396
vt 0.320508 0.901146
vt 0.320508 0.916771
vt 0.321450 0.899711
vt 0.321450 0.884086
vt 0.320508 0.921075
vt 0.320508 0.936700
vt 0.320508 0.967950
vt 0.321450 0.921075
vt 0.321450 0.936700
vt 0.321450 0.967950
vt 0.321450 0.953760
vt 0.321450 0.969385
vt 0.321450 0.921075
vt 0.321450 0.936700
vt 0.321450 0.967950
vt 0.320508 0.921075
vt 0.320508 0.936700
vt 0.320508 0.967950
vt 0.321450 0.953760
vt 0.321450 0.969385
vt 0.326161 0.884086
vt 0.326161 0.899711
vt 0.325219 0.916771
vt 0.325219 0.901146
vt 0.325219 0.916771
vt 0.325219 0.901146
vt 0.325219 0.901146
vt 0.325219 0.916771
vt 0.326161 0.884086
vt 0.326161 0.899711
vt 0.326161 0.953760
vt 0.326161 0.969385
vt 0.325219 0.967950
vt 0.325219 0.921075
vt 0.325219 0.921075
vt 0.325219 0.967950
vt 0.325219 0.967950
vt 0.325219 0.921075
vt 0.326161 0.953760
vt 0.326161 0.969385
vt 0.328987 0.899711
vt 0.328987 0.884086
vt 0.329930 0.901146
vt 0.329930 0.916771
vt 0.329930 0.916771
vt 0.329930 0.916771
vt 0.329930 0.901146
vt 0.329930 0.901146
vt 0.328987 0.899711
vt 0.328987 0.884086
vt 0.328987 0.953760
vt 0.328987 0.969385
vt 0.329930 0.967950
vt 0.329930 0.921075
vt 0.329930 0.967950
vt 0.329930 0.921075
vt 0.329930 0.967950
vt 0.329930 0.921075
vt 0.328987 0.953760
vt 0.328987 0.969385
vt 0.328987 0.884086
vt 0.328987 0.899711
vt 0.328987 0.916771
vt 0.328987 0.932396
vt 0.328987 0.901146
vt 0.329930 0.932396
vt 0.329930 0.916771
vt 0.329930 0.901146
vt 0.328987 0.936700
vt 0.328987 0.921075
vt 0.328987 0.967950
vt 0.328987 0.969385
vt 0.328987 0.953760
vt 0.329930 0.936700
vt 0.329930 0.967950
vt 0.329930 0.921075
vt 0.325219 0.916771
vt 0.325219 0.932396
vt 0.325219 0.901146
vt 0.326161 0.932396
vt 0.326161 0.901146
vt 0.326161 0.916771
vt 0.326161 0.899711
vt 0.326161 0.884086
vt 0.326161 0.953760
vt 0.326161 0.969385
vt 0.326161 0.936700
vt 0.326161 0.921075
vt 0.326161 0.967950
vt 0.325219 0.967950
vt 0.325219 0.921075
vt 0.325219 0.936700
vt 0.329930 0.901146
vt 0.329930 0.932396
vt 0.329930 0.916771
vt 0.328987 0.932396
vt 0.328987 0.916771
vt 0.328987 0.901146
vt 0.328987 0.884086
vt 0.328987 0.899711
vt 0.328987 0.953760
vt 0.328987 0.969385
vt 0.328987 0.921075
vt 0.328987 0.936700
vt 0.328987 0.967950
vt 0.329930 0.967950
vt 0.329930 0.936700
vt 0.329930 0.921075
vt 0.326161 0.901146
vt 0.326161 0.916771
vt 0.326161 0.932396
vt 0.325219 0.901146
vt 0.325219 0.932396
vt 0.325219 0.916771
vt 0.326161 0.899711
vt 0.326161 0.884086
vt 0.325219 0.921075
vt 0.325219 0.936700
vt 0.325219 0.967950
vt 0.326161 0.921075
vt 0.326161 0.936700
vt 0.326161 0.967950
vt 0.326161 0.969385
vt 0.326161 0.953760
vt 0.326641 0.918923
vt 0.326641 0.918923
vt 0.326242 0.909597
vt 0.327574 0.918923
vt 0.327574 0.918923
vt 0.327574 0.909597
vt 0.328507 0.918923
vt 0.328507 0.918923
vt 0.328906 0.909597
vt 0.328893 0.918923
vt 0.328893 0.918923
vt 0.329458 0.909597
vt 0.328507 0.918923
vt 0.328507 0.918923
vt 0.328906 0.909597
vt 0.327574 0.918923
vt 0.327574 0.918923
vt 0.327574 0.909597
vt 0.326641 0.918923
vt 0.326641 0.918923
vt 0.326242 0.909597
vt 0.326255 0.918923
vt 0.326255 0.918923
vt 0.325690 0.909597
vt 0.315822 0.912216
vt 0.315822 0.943466
vt 0.315822 0.877962
vt 0.307800 0.943466
vt 0.307800 0.912216
vt 0.307800 0.877962
vt 0.315822 0.943466
vt 0.315822 0.912216
vt 0.315822 0.877962
vt 0.312499 0.943466
vt 0.312499 0.912216
vt 0.312499 0.877962
vt 0.309176 0.943466
vt 0.309176 0.912216
vt 0.309176 0.877962
vt 0.312499 0.877962
vt 0.317198 0.877962
vt 0.309176 0.877962
vt 0.317198 0.943466
vt 0.317198 0.912216
vt 0.309176 0.943466
vt 0.309176 0.912216
vt 0.312499 0.943466
vt 0.312499 0.912216
vt 0.312499 0.935764
vt 0.312499 0.967014
vt 0.310007 0.935764
vt 0.310007 0.967014
vt 0.308975 0.935764
vt 0.308975 0.967014
vt 0.310007 0.967014
vt 0.310007 0.935764
vt 0.312499 0.935764
vt 0.312499 0.967014
vt 0.314991 0.967014
vt 0.314991 0.935764
vt 0.316024 0.967014
vt 0.316024 0.935764
vt 0.314991 0.935764
vt 0.314991 0.967014
vt 0.312499 0.946033
vt 0.310007 0.945432
vt 0.308975 0.943980
vt 0.310007 0.942527
vt 0.312499 0.941926
vt 0.314991 0.942527
vt 0.316024 0.943980
vt 0.314991 0.945432
vt 0.312499 0.954739
vt 0.310007 0.953628
vt 0.308975 0.950944
vt 0.310007 0.948261
vt 0.312499 0.947149
vt 0.314991 0.948261
vt 0.316024 0.950944
vt 0.314991 0.953628
vt 0.312499 0.960556
vt 0.310007 0.959104
vt 0.308975 0.955598
vt 0.310007 0.952092
vt 0.312499 0.950639
vt 0.314991 0.952092
vt 0.316024 0.955598
vt 0.314991 0.959104
vt 0.312499 0.962599
vt 0.310007 0.961027
vt 0.308975 0.957232
vt 0.310007 0.953437
vt 0.312499 0.951865
vt 0.314991 0.953437
vt 0.316024 0.957232
vt 0.314991 0.961027
vt 0.312499 0.960556
vt 0.310007 0.959104
vt 0.308975 0.955598
vt 0.310007 0.952092
vt 0.312499 0.950639
vt 0.314991 0.952092
vt 0.316024 0.955598
vt 0.314991 0.959104
vt 0.312499 0.954739
vt 0.310007 0.953628
vt 0.308975 0.950944
vt 0.310007 0.948261
vt 0.312499 0.947149
vt 0.314991 0.948261
vt 0.316024 0.950944
vt 0.314991 0.953628
vt 0.312499 0.946033
vt 0.310007 0.945432
vt 0.308975 0.943980
vt 0.310007 0.942527
vt 0.312499 0.941926
vt 0.314991 0.942527
vt 0.316024 0.943980
vt 0.314991 0.945432
vt 0.312499 0.935764
vt 0.310007 0.935764
vt 0.308975 0.935764
vt 0.310007 0.935764
vt 0.312499 0.935764
vt 0.314991 0.935764
vt 0.316024 0.935764
vt 0.314991 0.935764
vt 0.314991 0.850788
vt 0.314991 0.897663
vt 0.316024 0.897663
vt 0.316024 0.850788
vt 0.314991 0.897663
vt 0.314991 0.850788
vt 0.312499 0.850788
vt 0.312499 0.897663
vt 0.310007 0.850788
vt 0.310007 0.897663
vt 0.308975 0.850788
vt 0.308975 0.897663
vt 0.310007 0.897663
vt 0.310007 0.850788
vt 0.312499 0.850788
vt 0.312499 0.897663
vt 0.314991 0.943466
vt 0.314991 0.912216
vt 0.308975 0.912216
vt 0.308975 0.943466
vt 0.314991 0.943466
vt 0.314991 0.912216
vt 0.316024 0.912216
vt 0.316024 0.943466
vt 0.312499 0.912216
vt 0.312499 0.943466
vt 0.310007 0.943466
vt 0.310007 0.912216
vt 0.310007 0.912216
vt 0.310007 0.943466
vt 0.312499 0.912216
vt 0.312499 0.943466
vt 0.308761 0.967014
vt 0.308761 0.935764
vt 0.317786 0.935764
vt 0.317786 0.967014
vt 0.307213 0.967014
vt 0.307213 0.935764
vt 0.316237 0.935764
vt 0.316237 0.967014
vt 0.316237 0.967014
vt 0.316237 0.935764
vt 0.312499 0.935764
vt 0.312499 0.967014
vt 0.308761 0.967014
vt 0.308761 0.935764
vt 0.312499 0.935764
vt 0.312499 0.967014
vt 0.312499 0.928913
vt 0.312499 0.897663
vt 0.316237 0.897663
vt 0.316237 0.928913
vt 0.308761 0.897663
vt 0.308761 0.928913
vt 0.317786 0.928913
vt 0.317786 0.897663
vt 0.308761 0.897663
vt 0.308761 0.928913
vt 0.307213 0.928913
vt 0.307213 0.897663
vt 0.312499 0.928913
vt 0.312499 0.897663
vt 0.316237 0.928913
vt 0.316237 0.897663
vt 0.316788 0.932339
vt 0.312499 0.932339
vt 0.306435 0.932339
vt 0.308211 0.932339
vt 0.318564 0.932339
vt 0.308211 0.932339
vt 0.316788 0.932339
vt 0.312499 0.932339
vt 0.312499 0.855093
vt 0.698910 0.655930
vt 0.698910 0.655930
vt 0.698910 0.666177
vt 0.698910 0.666177
vt 0.698910 0.666177
vt 0.705670 0.655930
vt 0.705670 0.655930
vt 0.705670 0.666177
vt 0.705670 0.666177
vt 0.705670 0.666177
vt 0.705670 0.655930
vt 0.705670 0.655930
vt 0.705670 0.666177
vt 0.705670 0.666177
vt 0.705670 0.666177
vt 0.698910 0.655930
vt 0.698910 0.655930
vt 0.698910 0.666177
vt 0.698910 0.666177
vt 0.698910 0.666177
vt 0.689351 0.655930
vt 0.689351 0.655930
vt 0.689351 0.666177
vt 0.689351 0.666177
vt 0.689351 0.666177
vt 0.682592 0.655930
vt 0.682592 0.655930
vt 0.682592 0.666177
vt 0.682592 0.666177
vt 0.682592 0.666177
vt 0.682592 0.655930
vt 0.682592 0.655930
vt 0.682592 0.666177
vt 0.682592 0.666177
vt 0.682592 0.666177
vt 0.689351 0.655930
vt 0.689351 0.655930
vt 0.689351 0.666177
vt 0.689351 0.666177
vt 0.689351 0.666177
vt 0.310649 0.403368
vt 0.310649 0.403368
vt 0.310649 0.413615
vt 0.310649 0.413615
vt 0.310649 0.413615
vt 0.317408 0.403368
vt 0.317408 0.403368
vt 0.317408 0.413615
vt 0.317408 0.413615
vt 0.317408 0.413615
vt 0.317408 0.403368
vt 0.317408 0.403368
vt 0.317408 0.413615
vt 0.317408 0.413615
vt 0.317408 0.413615
vt 0.310649 0.403368
vt 0.310649 0.403368
vt 0.310649 0.413615
vt 0.310649 0.413615
vt 0.310649 0.413615
vt 0.301090 0.403368
vt 0.301090 0.403368
vt 0.301090 0.413615
vt 0.301090 0.413615
vt 0.301090 0.413615
vt 0.294330 0.403368
vt 0.294330 0.403368
vt 0.294330 0.413615
vt 0.294330 0.413615
vt 0.294330 0.413615
vt 0.294330 0.403368
vt 0.294330 0.403368
vt 0.294330 0.413615
vt 0.294330 0.413615
vt 0.294330 0.413615
vt 0.301090 0.403368
vt 0.301090 0.403368
vt 0.301090 0.413615
vt 0.301090 0.413615
vt 0.301090 0.413615
f 1121/1121 1124/1124 1128/1128
f 1128/1128 1125/1125 1121/1121
f 1126/1126 1127/1127 1134/1134
f 1134/1134 1130/1130 1126/1126
f 1131/1131 1133/1133 1139/1139
f 1139/1139 1135/1135 1131/1131
f 1136/1136 1138/1138 1142/1142
f 1142/1142 1140/1140 1136/1136
f 1141/1141 1144/1144 1148/1148
f 1148/1148 1145/1145 1141/1141
f 1146/1146 1147/1147 1153/1153
f 1153/1153 1150/1150 1146/1146
f 1129/1129 1123/1123 1158/1158
f 1129/1129 1158/1158 1154/1154
f 1129/1129 1154/1154 1149/1149
f 1129/1129 1149/1149 1143/1143
f 1129/1129 1143/1143 1137/1137
f 1129/1129 1137/1137 1132/1132
f 1151/1151 1152/1152 1157/1157
f 1157/1157 1156/1156 1151/1151
f 1155/1155 1159/1159 1122/1122
f 1122/1122 1120/1120 1155/1155
f 1160/1160 1162/1162 1168/1168
f 1168/1168 1165/1165 1160/1160
f 1166/1166 1169/1169 1172/1172
f 1172/1172 1171/1171 1166/1166
f 1170/1170 1173/1173 1179/1179
f 1179/1179 1176/1176 1170/1170
f 1175/1175 1178/1178 1183/1183
f 1183/1183 1180/1180 1175/1175
f 1181/1181 1182/1182 1187/1187
f 1187/1187 1186/1186 1181/1181
f 1185/1185 1188/1188 1192/1192
f 1192/1192 1190/1190 1185/1185
f 1167/1167 1163/1163 1197/1197
f 1167/1167 1197/1197 1193/1193
f 1167/1167 1193/1193 1189/1189
f 1167/1167 1189/1189 1184/1184
f 1167/1167 1184/1184 1177/1177
f 1167/1167 1177/1177 1174/1174
f 1191/1191 1194/1194 1198/1198
f 1198/1198 1195/1195 1191/1191
f 1196/1196 1199/1199 1164/1164
f 1164/1164 1161/1161 1196/1196
f 19/19 422/422 423/423
f 423/423 18/18 19/19
f 49/49 51/51 53/53
f 53/53 52/52 49/49
f 18/18 423/423 425/425
f 425/425 16/16 18/18
f 52/52 53/53 56/56
f 56/56 55/55 52/52
f 443/443 442/442 79/79
f 79/79 82/82 443/443
f 42/42 447/447 415/415
f 415/415 3/3 42/42
f 14/14 12/12 51/51
f 51/51 49/49 14/14
f 57/57 54/54 215/215
f 215/215 220/220 57/57
f 55/55 56/56 21/21
f 21/21 23/23 55/55
f 418/418 437/437 40/40
f 40/40 7/7 418/418
f 429/429 427/427 62/62
f 62/62 63/63 429/429
f 453/453 429/429 63/63
f 63/63 380/380 453/453
f 421/421 416/416 14/14
f 14/14 49/49 421/421
f 59/59 60/60 63/63
f 63/63 62/62 59/59
f 430/430 454/454 375/375
f 375/375 34/34 430/430
f 428/428 430/430 34/34
f 34/34 35/35 428/428
f 435/435 434/434 67/67
f 67/67 70/70 435/435
f 76/76 73/73 242/242
f 242/242 247/247 76/76
f 84/84 81/81 251/251
f 251/251 255/255 84/84
f 50/50 13/13 134/134
f 134/134 210/210 50/50
f 451/451 338/338 375/375
f 375/375 454/454 451/451
f 340/340 383/383 381/381
f 381/381 341/341 340/340
f 427/427 414/414 9/9
f 9/9 62/62 427/427
f 440/440 438/438 77/77
f 77/77 78/78 440/440
f 413/413 428/428 35/35
f 35/35 1/1 413/413
f 10/10 59/59 62/62
f 62/62 9/9 10/10
f 32/32 432/432 433/433
f 433/433 30/30 32/32
f 64/64 66/66 69/69
f 69/69 67/67 64/64
f 30/30 433/433 436/436
f 436/436 27/27 30/30
f 67/67 69/69 72/72
f 72/72 70/70 67/67
f 426/426 424/424 52/52
f 52/52 55/55 426/426
f 45/45 444/444 419/419
f 419/419 5/5 45/45
f 26/26 24/24 66/66
f 66/66 64/64 26/26
f 262/262 184/184 130/130
f 130/130 135/135 262/262
f 258/258 179/179 184/184
f 184/184 262/262 258/258
f 391/391 402/402 361/361
f 361/361 357/357 391/391
f 253/253 192/192 158/158
f 158/158 163/163 253/253
f 70/70 72/72 10/10
f 10/10 9/9 70/70
f 452/452 453/453 380/380
f 380/380 342/342 452/452
f 434/434 431/431 64/64
f 64/64 67/67 434/434
f 450/450 440/440 78/78
f 78/78 341/341 450/450
f 431/431 420/420 26/26
f 26/26 64/64 431/431
f 74/74 75/75 78/78
f 78/78 77/77 74/74
f 439/439 449/449 336/336
f 336/336 37/37 439/439
f 437/437 439/439 37/37
f 37/37 40/40 437/437
f 442/442 455/455 381/381
f 381/381 79/79 442/442
f 212/212 140/140 144/144
f 144/144 214/214 212/212
f 13/13 89/89 264/264
f 264/264 134/134 13/13
f 89/89 86/86 260/260
f 260/260 264/264 89/89
f 187/187 249/249 402/402
f 402/402 391/391 187/187
f 455/455 450/450 341/341
f 341/341 381/381 455/455
f 438/438 417/417 23/23
f 23/23 77/77 438/438
f 448/448 445/445 85/85
f 85/85 88/88 448/448
f 16/16 425/425 418/418
f 418/418 7/7 16/16
f 21/21 74/74 77/77
f 77/77 23/23 21/21
f 441/441 48/48 377/377
f 377/377 456/456 441/441
f 381/381 383/383 80/80
f 80/80 79/79 381/381
f 445/445 452/452 342/342
f 342/342 85/85 445/445
f 48/48 441/441 444/444
f 444/444 45/45 48/48
f 79/79 80/80 83/83
f 83/83 82/82 79/79
f 446/446 44/44 338/338
f 338/338 451/451 446/446
f 54/54 50/50 210/210
f 210/210 215/215 54/54
f 128/128 196/196 224/224
f 224/224 123/123 128/128
f 82/82 83/83 24/24
f 24/24 26/26 82/82
f 414/414 435/435 70/70
f 70/70 9/9 414/414
f 5/5 419/419 432/432
f 432/432 32/32 5/5
f 420/420 443/443 82/82
f 82/82 26/26 420/420
f 342/342 343/343 87/87
f 87/87 85/85 342/342
f 449/449 456/456 377/377
f 377/377 336/336 449/449
f 44/44 446/446 447/447
f 447/447 42/42 44/44
f 85/85 87/87 90/90
f 90/90 88/88 85/85
f 81/81 382/382 404/404
f 404/404 251/251 81/81
f 204/204 208/208 246/246
f 246/246 244/244 204/204
f 71/71 68/68 236/236
f 236/236 240/240 71/71
f 68/68 65/65 230/230
f 230/230 236/236 68/68
f 88/88 90/90 12/12
f 12/12 14/14 88/88
f 417/417 426/426 55/55
f 55/55 23/23 417/417
f 3/3 415/415 422/422
f 422/422 19/19 3/3
f 416/416 448/448 88/88
f 88/88 14/14 416/416
f 297/297 170/170 165/165
f 165/165 294/294 297/297
f 464/464 281/281 271/271
f 271/271 463/463 464/464
f 283/283 137/137 132/132
f 132/132 270/270 283/283
f 461/461 102/102 101/101
f 101/101 475/475 461/461
f 469/469 278/278 287/287
f 287/287 468/468 469/469
f 390/390 407/407 314/314
f 314/314 186/186 390/390
f 465/465 315/315 312/312
f 312/312 474/474 465/465
f 334/334 205/205 202/202
f 202/202 330/330 334/334
f 480/480 409/409 324/324
f 324/324 475/475 480/480
f 462/462 463/463 271/271
f 271/271 307/307 462/462
f 424/424 421/421 49/49
f 49/49 52/52 424/424
f 302/302 174/174 170/170
f 170/170 297/297 302/302
f 469/469 470/470 327/327
f 327/327 278/278 469/469
f 478/478 367/367 409/409
f 409/409 480/480 478/478
f 472/472 296/296 291/291
f 291/291 467/467 472/472
f 459/459 299/299 296/296
f 296/296 472/472 459/459
f 368/368 351/351 393/393
f 393/393 411/411 368/368
f 467/467 291/291 275/275
f 275/275 466/466 467/467
f 294/294 165/165 160/160
f 160/160 273/273 294/294
f 470/470 104/104 103/103
f 103/103 476/476 470/470
f 322/322 194/194 125/125
f 125/125 268/268 322/322
f 476/476 103/103 345/345
f 345/345 477/477 476/476
f 460/460 266/266 299/299
f 299/299 459/459 460/460
f 386/386 109/109 110/110
f 110/110 387/387 386/386
f 345/345 347/347 388/388
f 388/388 385/385 345/345
f 317/317 189/189 186/186
f 186/186 314/314 317/317
f 330/330 202/202 149/149
f 149/149 279/279 330/330
f 387/387 110/110 111/111
f 111/111 388/388 387/387
f 111/111 108/108 385/385
f 385/385 388/388 111/111
f 109/109 112/112 113/113
f 113/113 110/110 109/109
f 110/110 113/113 114/114
f 114/114 111/111 110/110
f 384/384 101/101 109/109
f 109/109 386/386 384/384
f 111/111 114/114 107/107
f 107/107 108/108 111/111
f 114/114 100/100 93/93
f 93/93 107/107 114/114
f 113/113 99/99 100/100
f 100/100 114/114 113/113
f 112/112 98/98 99/99
f 99/99 113/113 112/112
f 102/102 91/91 98/98
f 98/98 112/112 102/102
f 101/101 102/102 112/112
f 112/112 109/109 101/101
f 466/466 275/275 315/315
f 315/315 465/465 466/466
f 326/326 197/197 194/194
f 194/194 322/322 326/326
f 479/479 474/474 312/312
f 312/312 405/405 479/479
f 273/273 160/160 189/189
f 189/189 317/317 273/273
f 310/310 181/181 177/177
f 177/177 306/306 310/310
f 118/118 348/348 347/347
f 347/347 116/116 118/118
f 462/462 307/307 304/304
f 304/304 473/473 462/462
f 407/407 390/390 355/355
f 355/355 373/373 407/407
f 270/270 132/132 181/181
f 181/181 310/310 270/270
f 478/478 473/473 304/304
f 304/304 367/367 478/478
f 115/115 117/117 118/118
f 118/118 116/116 115/115
f 120/120 349/349 348/348
f 348/348 118/118 120/120
f 117/117 119/119 120/120
f 120/120 118/118 117/117
f 116/116 347/347 345/345
f 345/345 103/103 116/116
f 94/94 95/95 115/115
f 115/115 104/104 94/94
f 104/104 115/115 116/116
f 116/116 103/103 104/104
f 120/120 106/106 346/346
f 346/346 349/349 120/120
f 119/119 105/105 106/106
f 106/106 120/120 119/119
f 97/97 92/92 105/105
f 105/105 119/119 97/97
f 96/96 97/97 119/119
f 119/119 117/117 96/96
f 95/95 96/96 117/117
f 117/117 115/115 95/95
f 290/290 146/146 141/141
f 141/141 458/458 290/290
f 279/279 149/149 146/146
f 146/146 290/290 279/279
f 268/268 125/125 174/174
f 174/174 302/302 268/268
f 152/152 204/204 244/244
f 244/244 154/154 152/152
f 11/11 71/71 240/240
f 240/240 122/122 11/11
f 61/61 228/228 397/397
f 397/397 378/378 61/61
f 196/196 199/199 225/225
f 225/225 224/224 196/196
f 163/163 158/158 167/167
f 167/167 232/232 163/163
f 135/135 130/130 140/140
f 140/140 212/212 135/135
f 73/73 22/22 155/155
f 155/155 242/242 73/73
f 396/396 353/353 363/363
f 363/363 400/400 396/396
f 214/214 144/144 148/148
f 148/148 217/217 214/214
f 65/65 25/25 162/162
f 162/162 230/230 65/65
f 410/410 366/366 369/369
f 369/369 412/412 410/410
f 217/217 148/148 152/152
f 152/152 154/154 217/217
f 232/232 167/167 172/172
f 172/172 234/234 232/232
f 237/237 175/175 128/128
f 128/128 123/123 237/237
f 234/234 172/172 175/175
f 175/175 237/237 234/234
f 208/208 357/357 361/361
f 361/361 246/246 208/208
f 25/25 84/84 255/255
f 255/255 162/162 25/25
f 61/61 58/58 222/222
f 222/222 228/228 61/61
f 249/249 187/187 192/192
f 192/192 253/253 249/249
f 382/382 339/339 358/358
f 358/358 404/404 382/382
f 22/22 57/57 220/220
f 220/220 155/155 22/22
f 131/131 138/138 139/139
f 139/139 129/129 131/131
f 138/138 142/142 143/143
f 143/143 139/139 138/138
f 142/142 145/145 147/147
f 147/147 143/143 142/142
f 145/145 150/150 151/151
f 151/151 147/147 145/145
f 159/159 166/166 168/168
f 168/168 157/157 159/159
f 166/166 169/169 171/171
f 171/171 168/168 166/166
f 169/169 173/173 176/176
f 176/176 171/171 169/169
f 173/173 126/126 127/127
f 127/127 176/176 173/173
f 354/354 389/389 392/392
f 392/392 356/356 354/354
f 178/178 182/182 183/183
f 183/183 180/180 178/178
f 182/182 131/131 129/129
f 129/129 183/183 182/182
f 198/198 394/394 395/395
f 395/395 200/200 198/198
f 185/185 190/190 191/191
f 191/191 188/188 185/185
f 190/190 159/159 157/157
f 157/157 191/191 190/190
f 126/126 193/193 195/195
f 195/195 127/127 126/126
f 193/193 198/198 200/200
f 200/200 195/195 193/193
f 206/206 354/354 356/356
f 356/356 207/207 206/206
f 150/150 201/201 203/203
f 203/203 151/151 150/150
f 201/201 206/206 207/207
f 207/207 203/203 201/201
f 398/398 227/227 226/226
f 226/226 399/399 398/398
f 211/211 213/213 216/216
f 216/216 209/209 211/211
f 213/213 218/218 219/219
f 219/219 216/216 213/213
f 136/136 211/211 209/209
f 209/209 133/133 136/136
f 156/156 219/219 218/218
f 218/218 153/153 156/156
f 223/223 226/226 227/227
f 227/227 221/221 223/223
f 399/399 362/362 365/365
f 365/365 398/398 399/399
f 124/124 223/223 221/221
f 221/221 121/121 124/124
f 231/231 233/233 235/235
f 235/235 229/229 231/231
f 233/233 238/238 239/239
f 239/239 235/235 233/233
f 164/164 231/231 229/229
f 229/229 161/161 164/164
f 121/121 239/239 238/238
f 238/238 124/124 121/121
f 243/243 245/245 248/248
f 248/248 241/241 243/243
f 360/360 401/401 403/403
f 403/403 359/359 360/360
f 153/153 243/243 241/241
f 241/241 156/156 153/153
f 362/362 257/257 259/259
f 259/259 365/365 362/362
f 250/250 254/254 256/256
f 256/256 252/252 250/250
f 161/161 256/256 254/254
f 254/254 164/164 161/161
f 199/199 396/396 400/400
f 400/400 225/225 199/199
f 257/257 261/261 263/263
f 263/263 259/259 257/257
f 133/133 263/263 261/261
f 261/261 136/136 133/133
f 58/58 11/11 122/122
f 122/122 222/222 58/58
f 458/458 141/141 137/137
f 137/137 283/283 458/458
f 272/272 282/282 284/284
f 284/284 269/269 272/272
f 282/282 285/285 457/457
f 457/457 284/284 282/282
f 285/285 288/288 289/289
f 289/289 457/457 285/285
f 288/288 277/277 280/280
f 280/280 289/289 288/288
f 276/276 292/292 293/293
f 293/293 274/274 276/276
f 292/292 295/295 298/298
f 298/298 293/293 292/292
f 295/295 300/300 301/301
f 301/301 298/298 295/295
f 300/300 265/265 267/267
f 267/267 301/301 300/300
f 370/370 406/406 408/408
f 408/408 372/372 370/370
f 303/303 308/308 309/309
f 309/309 305/305 303/303
f 308/308 272/272 269/269
f 269/269 309/309 308/308
f 323/323 410/410 412/412
f 412/412 325/325 323/323
f 311/311 316/316 318/318
f 318/318 313/313 311/311
f 316/316 276/276 274/274
f 274/274 318/318 316/316
f 265/265 319/319 321/321
f 321/321 267/267 265/265
f 319/319 323/323 325/325
f 325/325 321/321 319/319
f 331/331 370/370 372/372
f 372/372 333/333 331/331
f 277/277 328/328 329/329
f 329/329 280/280 277/277
f 328/328 331/331 333/333
f 333/333 329/329 328/328
f 351/351 368/368 306/306
f 306/306 177/177 351/351
f 366/366 303/303 305/305
f 305/305 369/369 366/366
f 401/401 250/250 252/252
f 252/252 403/403 401/401
f 350/350 178/178 180/180
f 180/180 352/352 350/350
f 344/344 378/378 397/397
f 397/397 364/364 344/344
f 394/394 350/350 352/352
f 352/352 395/395 394/394
f 411/411 393/393 197/197
f 197/197 326/326 411/411
f 468/468 287/287 286/286
f 286/286 471/471 468/468
f 76/76 247/247 358/358
f 358/358 339/339 76/76
f 363/363 353/353 179/179
f 179/179 258/258 363/363
f 86/86 344/344 364/364
f 364/364 260/260 86/86
f 406/406 311/311 313/313
f 313/313 408/408 406/406
f 359/359 248/248 245/245
f 245/245 360/360 359/359
f 389/389 185/185 188/188
f 188/188 392/392 389/389
f 479/479 405/405 371/371
f 371/371 477/477 479/479
f 347/347 348/348 387/387
f 387/387 388/388 347/347
f 348/348 349/349 386/386
f 386/386 387/387 348/348
f 349/349 346/346 384/384
f 384/384 386/386 349/349
f 373/373 355/355 205/205
f 205/205 334/334 373/373
f 60/60 379/379 380/380
f 380/380 63/63 60/60
f 75/75 340/340 341/341
f 341/341 78/78 75/75
f 343/343 342/342 380/380
f 380/380 379/379 343/343
f 27/27 436/436 413/413
f 413/413 1/1 27/27
f 461/461 320/320 266/266
f 266/266 460/460 461/461
f 96/96 471/471 464/464
f 464/464 97/97 96/96
f 102/102 461/461 460/460
f 460/460 91/91 102/102
f 385/385 479/479 477/477
f 477/477 345/345 385/385
f 95/95 468/468 471/471
f 471/471 96/96 95/95
f 346/346 106/106 473/473
f 473/473 478/478 346/346
f 105/105 462/462 473/473
f 473/473 106/106 105/105
f 385/385 108/108 474/474
f 474/474 479/479 385/385
f 93/93 466/466 465/465
f 465/465 107/107 93/93
f 471/471 286/286 281/281
f 281/281 464/464 471/471
f 332/332 476/476 477/477
f 477/477 371/371 332/332
f 91/91 460/460 459/459
f 459/459 98/98 91/91
f 100/100 467/467 466/466
f 466/466 93/93 100/100
f 98/98 459/459 472/472
f 472/472 99/99 98/98
f 99/99 472/472 467/467
f 467/467 100/100 99/99
f 346/346 478/478 480/480
f 480/480 384/384 346/346
f 94/94 104/104 470/470
f 470/470 469/469 94/94
f 105/105 92/92 463/463
f 463/463 462/462 105/105
f 384/384 480/480 475/475
f 475/475 101/101 384/384
f 107/107 465/465 474/474
f 474/474 108/108 107/107
f 327/327 470/470 476/476
f 476/476 332/332 327/327
f 94/94 469/469 468/468
f 468/468 95/95 94/94
f 97/97 464/464 463/463
f 463/463 92/92 97/97
f 544/544 510/510 508/508
f 508/508 543/543 544/544
f 502/502 495/495 514/514
f 514/514 542/542 502/502
f 493/493 481/481 484/484
f 484/484 517/517 493/493
f 482/482 504/504 538/538
f 538/538 486/486 482/482
f 487/487 499/499 525/525
f 525/525 534/534 487/487
f 498/498 482/482 486/486
f 486/486 521/521 498/498
f 544/544 543/543 507/507
f 507/507 509/509 544/544
f 515/515 494/494 496/496
f 496/496 512/512 515/515
f 512/512 496/496 492/492
f 492/492 518/518 512/512
f 497/497 519/519 523/523
f 523/523 501/501 497/497
f 501/501 523/523 526/526
f 526/526 500/500 501/501
f 531/531 490/490 491/491
f 491/491 528/528 531/531
f 528/528 491/491 488/488
f 488/488 533/533 528/528
f 537/537 505/505 506/506
f 506/506 536/536 537/537
f 536/536 506/506 503/503
f 503/503 540/540 536/536
f 481/481 489/489 529/529
f 529/529 484/484 481/481
f 508/508 513/513 511/511
f 508/508 511/511 516/516
f 509/509 522/522 520/520
f 509/509 524/524 522/522
f 507/507 530/530 527/527
f 507/507 527/527 532/532
f 510/510 539/539 535/535
f 510/510 535/535 541/541
f 507/507 543/543 483/483
f 483/483 530/530 507/507
f 509/509 507/507 532/532
f 532/532 524/524 509/509
f 543/543 508/508 516/516
f 516/516 483/483 543/543
f 508/508 510/510 541/541
f 541/541 513/513 508/508
f 544/544 509/509 520/520
f 520/520 485/485 544/544
f 510/510 544/544 485/485
f 485/485 539/539 510/510
f 557/557 46/46 6/6
f 6/6 31/31 557/557
f 558/558 47/47 46/46
f 46/46 557/557 558/558
f 559/559 376/376 47/47
f 47/47 558/558 559/559
f 560/560 335/335 376/376
f 376/376 559/559 560/560
f 561/561 38/38 335/335
f 335/335 560/560 561/561
f 556/556 555/555 43/43
f 43/43 41/41 556/556
f 20/20 556/556 41/41
f 41/41 4/4 20/20
f 562/562 561/561 549/549
f 549/549 550/550 562/562
f 555/555 549/549 548/548
f 548/548 554/554 555/555
f 554/554 548/548 547/547
f 547/547 553/553 554/554
f 553/553 547/547 546/546
f 546/546 552/552 553/553
f 552/552 546/546 545/545
f 545/545 551/551 552/552
f 551/551 545/545 29/29
f 29/29 28/28 551/551
f 15/15 562/562 550/550
f 550/550 17/17 15/15
f 550/550 549/549 555/555
f 555/555 556/556 550/550
f 43/43 555/555 554/554
f 554/554 337/337 43/43
f 337/337 554/554 553/553
f 553/553 374/374 337/337
f 374/374 553/553 552/552
f 552/552 33/33 374/374
f 33/33 552/552 551/551
f 551/551 36/36 33/33
f 36/36 551/551 28/28
f 28/28 2/2 36/36
f 17/17 550/550 556/556
f 556/556 20/20 17/17
f 39/39 38/38 561/561
f 561/561 562/562 39/39
f 549/549 561/561 560/560
f 560/560 548/548 549/549
f 548/548 560/560 559/559
f 559/559 547/547 548/548
f 547/547 559/559 558/558
f 558/558 546/546 547/547
f 546/546 558/558 557/557
f 557/557 545/545 546/546
f 545/545 557/557 31/31
f 31/31 29/29 545/545
f 8/8 39/39 562/562
f 562/562 15/15 8/8
f 320/320 461/461 475/475
f 475/475 324/324 320/320
f 627/627 650/650 661/661
f 661/661 685/685 627/627
f 618/618 668/668 654/654
f 654/654 603/603 618/618
f 652/652 719/719 728/728
f 728/728 660/660 652/652
f 682/682 598/598 593/593
f 593/593 676/676 682/682
f 679/679 670/670 611/611
f 611/611 595/595 679/679
f 672/672 660/660 638/638
f 638/638 625/625 672/672
f 563/563 566/566 567/567
f 567/567 565/565 563/563
f 566/566 569/569 570/570
f 570/570 567/567 566/566
f 569/569 572/572 574/574
f 574/574 570/570 569/569
f 572/572 575/575 576/576
f 576/576 574/574 572/572
f 575/575 578/578 580/580
f 580/580 576/576 575/575
f 578/578 581/581 582/582
f 582/582 580/580 578/578
f 568/568 571/571 573/573
f 568/568 573/573 577/577
f 568/568 577/577 579/579
f 568/568 579/579 583/583
f 568/568 583/583 585/585
f 568/568 585/585 564/564
f 581/581 584/584 586/586
f 586/586 582/582 581/581
f 584/584 563/563 565/565
f 565/565 586/586 584/584
f 648/648 631/631 622/622
f 622/622 641/641 648/648
f 676/676 697/697 710/710
f 710/710 682/682 676/676
f 633/633 683/683 673/673
f 673/673 619/619 633/633
f 672/672 688/688 695/695
f 695/695 677/677 672/672
f 664/664 645/645 636/636
f 636/636 657/657 664/664
f 661/661 735/735 744/744
f 744/744 670/670 661/661
f 601/601 613/613 608/608
f 608/608 591/591 601/601
f 668/668 745/745 726/726
f 726/726 654/654 668/668
f 749/749 739/739 733/733
f 733/733 722/722 749/749
f 679/679 703/703 712/712
f 712/712 685/685 679/679
f 718/718 706/706 702/702
f 702/702 690/690 718/718
f 683/683 715/715 692/692
f 692/692 673/673 683/683
f 677/677 652/652 660/660
f 660/660 672/672 677/677
f 656/656 730/730 742/742
f 742/742 665/665 656/656
f 685/685 661/661 670/670
f 670/670 679/679 685/685
f 587/587 592/592 590/590
f 596/596 600/600 599/599
f 605/605 609/609 607/607
f 612/612 616/616 614/614
f 621/621 626/626 623/623
f 628/628 632/632 629/629
f 635/635 642/642 639/639
f 644/644 649/649 646/646
f 687/687 694/694 689/689
f 696/696 700/700 698/698
f 704/704 709/709 707/707
f 711/711 717/717 713/713
f 720/720 724/724 721/721
f 727/727 734/734 731/731
f 736/736 741/741 737/737
f 743/743 750/750 746/746
f 659/659 658/658 635/635
f 635/635 639/639 659/659
f 669/669 667/667 616/616
f 616/616 612/612 669/669
f 604/604 606/606 615/615
f 615/615 617/617 604/604
f 587/587 590/590 607/607
f 607/607 609/609 587/587
f 612/612 614/614 600/600
f 600/600 596/596 612/612
f 589/589 594/594 597/597
f 597/597 602/602 589/589
f 678/678 675/675 592/592
f 592/592 587/587 678/678
f 686/686 684/684 632/632
f 632/632 628/628 686/686
f 620/620 624/624 630/630
f 630/630 634/634 620/620
f 639/639 642/642 623/623
f 623/623 626/626 639/639
f 643/643 647/647 640/640
f 640/640 637/637 643/643
f 628/628 629/629 646/646
f 646/646 649/649 628/628
f 609/609 605/605 653/653
f 653/653 651/651 609/609
f 649/649 644/644 666/666
f 666/666 662/662 649/649
f 626/626 621/621 674/674
f 674/674 671/671 626/626
f 596/596 599/599 681/681
f 681/681 680/680 596/596
f 687/687 689/689 700/700
f 700/700 696/696 687/687
f 704/704 707/707 717/717
f 717/717 711/711 704/704
f 691/691 693/693 714/714
f 714/714 716/716 691/691
f 699/699 701/701 705/705
f 705/705 708/708 699/699
f 671/671 674/674 694/694
f 694/694 687/687 671/671
f 711/711 713/713 684/684
f 684/684 686/686 711/711
f 680/680 681/681 709/709
f 709/709 704/704 680/680
f 696/696 698/698 675/675
f 675/675 678/678 696/696
f 720/720 721/721 734/734
f 734/734 727/727 720/720
f 736/736 737/737 750/750
f 750/750 743/743 736/736
f 723/723 725/725 747/747
f 747/747 748/748 723/723
f 729/729 732/732 738/738
f 738/738 740/740 729/729
f 667/667 669/669 743/743
f 743/743 746/746 667/667
f 741/741 736/736 662/662
f 662/662 663/663 741/741
f 655/655 659/659 727/727
f 727/727 731/731 655/655
f 724/724 720/720 651/651
f 651/651 653/653 724/724
f 588/588 610/610 652/652
f 652/652 677/677 588/588
f 918/918 825/825 853/853
f 853/853 895/895 918/918
f 775/775 851/851 854/854
f 854/854 782/782 775/775
f 847/847 770/770 773/773
f 773/773 846/846 847/847
f 761/761 842/842 843/843
f 843/843 765/765 761/761
f 837/837 756/756 758/758
f 758/758 835/835 837/837
f 772/772 760/760 762/762
f 762/762 768/768 772/772
f 780/780 751/751 754/754
f 754/754 776/776 780/780
f 765/765 758/758 753/753
f 753/753 764/764 765/765
f 782/782 773/773 769/769
f 769/769 779/779 782/782
f 806/806 826/826 827/827
f 827/827 804/804 806/806
f 824/824 797/797 792/792
f 792/792 821/821 824/824
f 789/789 816/816 820/820
f 820/820 786/786 789/789
f 834/834 814/814 809/809
f 809/809 831/831 834/834
f 803/803 791/791 794/794
f 794/794 800/800 803/803
f 811/811 783/783 788/788
f 788/788 808/808 811/811
f 797/797 789/789 785/785
f 785/785 795/795 797/797
f 814/814 806/806 801/801
f 801/801 812/812 814/814
f 909/909 824/824 821/821
f 821/821 906/906 909/909
f 880/880 834/834 830/830
f 830/830 884/884 880/880
f 856/856 843/843 841/841
f 841/841 862/862 856/856
f 896/896 854/854 851/851
f 851/851 900/900 896/896
f 877/877 856/856 859/859
f 859/859 875/875 877/877
f 860/860 868/868 863/863
f 863/863 858/858 860/860
f 866/866 880/880 883/883
f 883/883 865/865 866/866
f 886/886 872/872 874/874
f 874/874 881/881 886/886
f 816/816 877/877 873/873
f 873/873 818/818 816/816
f 826/826 917/917 913/913
f 913/913 827/827 826/826
f 915/915 905/905 907/907
f 907/907 912/912 915/915
f 894/894 909/909 903/903
f 903/903 892/892 894/894
f 917/917 896/896 899/899
f 899/899 916/916 917/917
f 901/901 888/888 890/890
f 890/890 898/898 901/901
f 835/835 894/894 887/887
f 887/887 837/837 835/835
f 846/846 866/866 869/869
f 869/869 849/849 846/846
f 758/758 756/756 753/753
f 765/765 764/764 761/761
f 773/773 770/770 769/769
f 782/782 779/779 775/775
f 789/789 786/786 785/785
f 797/797 795/795 792/792
f 806/806 804/804 801/801
f 814/814 812/812 809/809
f 862/862 859/859 856/856
f 869/869 866/866 865/865
f 877/877 875/875 873/873
f 884/884 883/883 880/880
f 894/894 892/892 887/887
f 900/900 899/899 896/896
f 909/909 906/906 903/903
f 917/917 916/916 913/913
f 815/815 823/823 836/836
f 836/836 844/844 815/815
f 850/850 839/839 759/759
f 759/759 771/771 850/850
f 825/825 833/833 845/845
f 845/845 853/853 825/825
f 819/819 832/832 807/807
f 807/807 787/787 819/819
f 784/784 810/810 799/799
f 799/799 796/796 784/784
f 823/823 815/815 790/790
f 790/790 798/798 823/823
f 752/752 778/778 767/767
f 767/767 763/763 752/752
f 838/838 852/852 777/777
f 777/777 755/755 838/838
f 904/904 914/914 897/897
f 897/897 891/891 904/904
f 844/844 836/836 757/757
f 757/757 766/766 844/844
f 840/840 848/848 870/870
f 870/870 861/861 840/840
f 833/833 825/825 805/805
f 805/805 813/813 833/833
f 871/871 885/885 829/829
f 829/829 817/817 871/871
f 828/828 822/822 793/793
f 793/793 802/802 828/828
f 857/857 864/864 882/882
f 882/882 876/876 857/857
f 921/921 920/920 940/940
f 940/940 942/942 921/921
f 924/924 922/922 920/920
f 920/920 921/921 924/924
f 937/937 941/941 919/919
f 937/937 919/919 923/923
f 937/937 923/923 926/926
f 937/937 926/926 928/928
f 937/937 928/928 931/931
f 937/937 931/931 935/935
f 927/927 925/925 922/922
f 922/922 924/924 927/927
f 930/930 929/929 925/925
f 925/925 927/927 930/930
f 933/933 932/932 929/929
f 929/929 930/930 933/933
f 936/936 934/934 932/932
f 932/932 933/933 936/936
f 939/939 938/938 934/934
f 934/934 936/936 939/939
f 942/942 940/940 938/938
f 938/938 939/939 942/942
f 833/833 879/879 867/867
f 867/867 845/845 833/833
f 823/823 910/910 893/893
f 893/893 836/836 823/823
f 822/822 828/828 911/911
f 911/911 908/908 822/822
f 853/853 845/845 774/774
f 774/774 781/781 853/853
f 889/889 902/902 852/852
f 852/852 838/838 889/889
f 878/878 815/815 844/844
f 844/844 855/855 878/878
f 947/947 964/964 960/960
f 960/960 948/948 947/947
f 943/943 962/962 959/959
f 959/959 945/945 943/943
f 953/953 943/943 945/945
f 945/945 954/954 953/953
f 956/956 947/947 948/948
f 948/948 957/957 956/956
f 950/950 966/966 958/958
f 958/958 951/951 950/950
f 962/962 950/950 951/951
f 951/951 959/959 962/962
f 964/964 953/953 954/954
f 954/954 960/960 964/964
f 966/966 956/956 957/957
f 957/957 958/958 966/966
f 967/967 983/983 984/984
f 984/984 969/969 967/967
f 969/969 984/984 985/985
f 985/985 971/971 969/969
f 971/971 985/985 986/986
f 986/986 974/974 971/971
f 974/974 986/986 987/987
f 987/987 975/975 974/974
f 975/975 987/987 988/988
f 988/988 978/978 975/975
f 978/978 988/988 989/989
f 989/989 980/980 978/978
f 980/980 989/989 990/990
f 990/990 981/981 980/980
f 981/981 990/990 983/983
f 983/983 967/967 981/981
f 983/983 991/991 992/992
f 992/992 984/984 983/983
f 984/984 992/992 993/993
f 993/993 985/985 984/984
f 985/985 993/993 994/994
f 994/994 986/986 985/985
f 986/986 994/994 995/995
f 995/995 987/987 986/986
f 987/987 995/995 996/996
f 996/996 988/988 987/987
f 988/988 996/996 997/997
f 997/997 989/989 988/988
f 989/989 997/997 998/998
f 998/998 990/990 989/989
f 990/990 998/998 991/991
f 991/991 983/983 990/990
f 991/991 999/999 1000/1000
f 1000/1000 992/992 991/991
f 992/992 1000/1000 1001/1001
f 1001/1001 993/993 992/992
f 993/993 1001/1001 1002/1002
f 1002/1002 994/994 993/993
f 994/994 1002/1002 1003/1003
f 1003/1003 995/995 994/994
f 995/995 1003/1003 1004/1004
f 1004/1004 996/996 995/995
f 996/996 1004/1004 1005/1005
f 1005/1005 997/997 996/996
f 997/997 1005/1005 1006/1006
f 1006/1006 998/998 997/997
f 998/998 1006/1006 999/999
f 999/999 991/991 998/998
f 999/999 1007/1007 1008/1008
f 1008/1008 1000/1000 999/999
f 1000/1000 1008/1008 1009/1009
f 1009/1009 1001/1001 1000/1000
f 1001/1001 1009/1009 1010/1010
f 1010/1010 1002/1002 1001/1001
f 1002/1002 1010/1010 1011/1011
f 1011/1011 1003/1003 1002/1002
f 1003/1003 1011/1011 1012/1012
f 1012/1012 1004/1004 1003/1003
f 1004/1004 1012/1012 1013/1013
f 1013/1013 1005/1005 1004/1004
f 1005/1005 1013/1013 1014/1014
f 1014/1014 1006/1006 1005/1005
f 1006/1006 1014/1014 1007/1007
f 1007/1007 999/999 1006/1006
f 1007/1007 1015/1015 1016/1016
f 1016/1016 1008/1008 1007/1007
f 1008/1008 1016/1016 1017/1017
f 1017/1017 1009/1009 1008/1008
f 1009/1009 1017/1017 1018/1018
f 1018/1018 1010/1010 1009/1009
f 1010/1010 1018/1018 1019/1019
f 1019/1019 1011/1011 1010/1010
f 1011/1011 1019/1019 1020/1020
f 1020/1020 1012/1012 1011/1011
f 1012/1012 1020/1020 1021/1021
f 1021/1021 1013/1013 1012/1012
f 1013/1013 1021/1021 1022/1022
f 1022/1022 1014/1014 1013/1013
f 1014/1014 1022/1022 1015/1015
f 1015/1015 1007/1007 1014/1014
f 1015/1015 1023/1023 1024/1024
f 1024/1024 1016/1016 1015/1015
f 1016/1016 1024/1024 1025/1025
f 1025/1025 1017/1017 1016/1016
f 1017/1017 1025/1025 1026/1026
f 1026/1026 1018/1018 1017/1017
f 1018/1018 1026/1026 1027/1027
f 1027/1027 1019/1019 1018/1018
f 1019/1019 1027/1027 1028/1028
f 1028/1028 1020/1020 1019/1019
f 1020/1020 1028/1028 1029/1029
f 1029/1029 1021/1021 1020/1020
f 1021/1021 1029/1029 1030/1030
f 1030/1030 1022/1022 1021/1021
f 1022/1022 1030/1030 1023/1023
f 1023/1023 1015/1015 1022/1022
f 1023/1023 1031/1031 1032/1032
f 1032/1032 1024/1024 1023/1023
f 1024/1024 1032/1032 1033/1033
f 1033/1033 1025/1025 1024/1024
f 1025/1025 1033/1033 1034/1034
f 1034/1034 1026/1026 1025/1025
f 1026/1026 1034/1034 1035/1035
f 1035/1035 1027/1027 1026/1026
f 1027/1027 1035/1035 1036/1036
f 1036/1036 1028/1028 1027/1027
f 1028/1028 1036/1036 1037/1037
f 1037/1037 1029/1029 1028/1028
f 1029/1029 1037/1037 1038/1038
f 1038/1038 1030/1030 1029/1029
f 1030/1030 1038/1038 1031/1031
f 1031/1031 1023/1023 1030/1030
f 1031/1031 1039/1039 1040/1040
f 1040/1040 1032/1032 1031/1031
f 1032/1032 1040/1040 1041/1041
f 1041/1041 1033/1033 1032/1032
f 1033/1033 1041/1041 1042/1042
f 1042/1042 1034/1034 1033/1033
f 1034/1034 1042/1042 1043/1043
f 1043/1043 1035/1035 1034/1034
f 1035/1035 1043/1043 1044/1044
f 1044/1044 1036/1036 1035/1035
f 1036/1036 1044/1044 1045/1045
f 1045/1045 1037/1037 1036/1036
f 1037/1037 1045/1045 1046/1046
f 1046/1046 1038/1038 1037/1037
f 1038/1038 1046/1046 1039/1039
f 1039/1039 1031/1031 1038/1038
f 979/979 982/982 1086/1086
f 1086/1086 1082/1082 979/979
f 1062/1062 1048/1048 1110/1110
f 1110/1110 1108/1108 1062/1062
f 972/972 973/973 1079/1079
f 1079/1079 1083/1083 972/972
f 1058/1058 1059/1059 1099/1099
f 1099/1099 1106/1106 1058/1058
f 982/982 968/968 1094/1094
f 1094/1094 1086/1086 982/982
f 1049/1049 1051/1051 1097/1097
f 1097/1097 1102/1102 1049/1049
f 1056/1056 1058/1058 1106/1106
f 1106/1106 1103/1103 1056/1056
f 976/976 977/977 1087/1087
f 1087/1087 1090/1090 976/976
f 1043/1043 1042/1042 1075/1075
f 1075/1075 1077/1077 1043/1043
f 1040/1040 1039/1039 1071/1071
f 1071/1071 1074/1074 1040/1040
f 1045/1045 1044/1044 1068/1068
f 1068/1068 1069/1069 1045/1045
f 1044/1044 1043/1043 1077/1077
f 1077/1077 1068/1068 1044/1044
f 1042/1042 1041/1041 1065/1065
f 1065/1065 1075/1075 1042/1042
f 1039/1039 1046/1046 1064/1064
f 1064/1064 1071/1071 1039/1039
f 1046/1046 1045/1045 1069/1069
f 1069/1069 1064/1064 1046/1046
f 1041/1041 1040/1040 1074/1074
f 1074/1074 1065/1065 1041/1041
f 1076/1076 1066/1066 946/946
f 946/946 955/955 1076/1076
f 1066/1066 1073/1073 963/963
f 963/963 946/946 1066/1066
f 1073/1073 1072/1072 952/952
f 952/952 963/963 1073/1073
f 1072/1072 1063/1063 944/944
f 944/944 952/952 1072/1072
f 1063/1063 1070/1070 961/961
f 961/961 944/944 1063/1063
f 1070/1070 1067/1067 949/949
f 949/949 961/961 1070/1070
f 1067/1067 1078/1078 965/965
f 965/965 949/949 1067/1067
f 1078/1078 1076/1076 955/955
f 955/955 965/965 1078/1078
f 1111/1111 1112/1112 1107/1107
f 1107/1107 1109/1109 1111/1111
f 1113/1113 1114/1114 1104/1104
f 1104/1104 1105/1105 1113/1113
f 1115/1115 1111/1111 1109/1109
f 1109/1109 1101/1101 1115/1115
f 1116/1116 1113/1113 1105/1105
f 1105/1105 1100/1100 1116/1116
f 1117/1117 1115/1115 1101/1101
f 1101/1101 1098/1098 1117/1117
f 1112/1112 1116/1116 1100/1100
f 1100/1100 1107/1107 1112/1112
f 1114/1114 1118/1118 1095/1095
f 1095/1095 1104/1104 1114/1114
f 1118/1118 1117/1117 1098/1098
f 1098/1098 1095/1095 1118/1118
f 1051/1051 1054/1054 1096/1096
f 1096/1096 1097/1097 1051/1051
f 1059/1059 1062/1062 1108/1108
f 1108/1108 1099/1099 1059/1059
f 973/973 976/976 1090/1090
f 1090/1090 1079/1079 973/973
f 970/970 972/972 1083/1083
f 1083/1083 1091/1091 970/970
f 1054/1054 1056/1056 1103/1103
f 1103/1103 1096/1096 1054/1054
f 977/977 979/979 1082/1082
f 1082/1082 1087/1087 977/977
f 1048/1048 1049/1049 1102/1102
f 1102/1102 1110/1110 1048/1048
f 968/968 970/970 1091/1091
f 1091/1091 1094/1094 968/968
f 1089/1089 1088/1088 1117/1117
f 1117/1117 1118/1118 1089/1089
f 1080/1080 1089/1089 1118/1118
f 1118/1118 1114/1114 1080/1080
f 1093/1093 1092/1092 1116/1116
f 1116/1116 1112/1112 1093/1093
f 1088/1088 1081/1081 1115/1115
f 1115/1115 1117/1117 1088/1088
f 1092/1092 1084/1084 1113/1113
f 1113/1113 1116/1116 1092/1092
f 1081/1081 1085/1085 1111/1111
f 1111/1111 1115/1115 1081/1081
f 1084/1084 1080/1080 1114/1114
f 1114/1114 1113/1113 1084/1084
f 1085/1085 1093/1093 1112/1112
f 1112/1112 1111/1111 1085/1085
f 1053/1053 1052/1052 1119/1119
f 1060/1060 1057/1057 1119/1119
f 1057/1057 1055/1055 1119/1119
f 1055/1055 1053/1053 1119/1119
f 1061/1061 1060/1060 1119/1119
f 1047/1047 1061/1061 1119/1119
f 1052/1052 1050/1050 1119/1119
f 1050/1050 1047/1047 1119/1119
