# CC0 mesh
v -0.250000 0.295943 0.305000
v -0.250000 0.295943 0.305000
v -0.250000 0.295943 0.000000
v -0.250000 0.295943 0.000000
v 0.250000 0.295943 0.305000
v 0.250000 0.295943 0.305000
v 0.250000 0.295943 0.000000
v 0.250000 0.295943 0.000000
v -0.250000 0.334684 0.000000
v -0.250000 0.334684 0.000000
v 0.250000 0.334684 0.000000
v 0.250000 0.334684 0.000000
v 0.250000 0.260792 0.000000
v 0.250000 0.260792 0.000000
v 0.087066 0.204125 0.065434
v 0.087066 0.204125 0.065434
v 0.087066 0.204125 0.065434
v 0.241234 0.228075 0.008767
v 0.241234 0.228075 0.008767
v 0.217283 0.204125 0.032717
v 0.217283 0.204125 0.032717
v 0.217283 0.204125 0.032717
v -0.087066 0.204125 0.065434
v -0.087066 0.204125 0.065434
v -0.087066 0.204125 0.065434
v -0.250000 0.260792 0.000000
v -0.250000 0.260792 0.000000
v -0.217283 0.204125 0.032717
v -0.217283 0.204125 0.032717
v -0.217283 0.204125 0.032717
v -0.241234 0.228075 0.008767
v -0.241234 0.228075 0.008767
v -0.250000 0.260792 0.305000
v -0.250000 0.260792 0.305000
v -0.087066 0.204125 0.239566
v -0.087066 0.204125 0.239566
v -0.087066 0.204125 0.239566
v -0.241234 0.228075 0.296234
v -0.241234 0.228075 0.296234
v -0.217283 0.204125 0.272283
v -0.217283 0.204125 0.272283
v -0.217283 0.204125 0.272283
v 0.087066 0.204125 0.239566
v 0.087066 0.204125 0.239566
v 0.087066 0.204125 0.239566
v 0.250000 0.260792 0.305000
v 0.250000 0.260792 0.305000
v 0.217283 0.204125 0.272283
v 0.217283 0.204125 0.272283
v 0.217283 0.204125 0.272283
v 0.241234 0.228075 0.296234
v 0.241234 0.228075 0.296234
v 0.131950 -0.427316 0.020550
v 0.131950 -0.427316 0.020550
v -0.131950 -0.427316 0.020550
v -0.131950 -0.427316 0.020550
v -0.131950 -0.427316 0.284450
v -0.131950 -0.427316 0.284450
v 0.131950 -0.427316 0.284450
v 0.131950 -0.427316 0.284450
v -0.131950 -0.400771 0.284450
v -0.131950 -0.400771 0.284450
v -0.131950 -0.400771 0.020550
v -0.087066 -0.316791 0.065434
v -0.087066 -0.316791 0.065434
v -0.109508 -0.378540 0.042992
v -0.093080 -0.347802 0.059421
v -0.093080 -0.347802 0.059421
v -0.087066 -0.316791 0.239566
v -0.087066 -0.316791 0.239566
v -0.093080 -0.347802 0.245579
v -0.093080 -0.347802 0.245579
v -0.109508 -0.378540 0.262008
v -0.109508 -0.378540 0.262008
v 0.087066 -0.316791 0.239566
v 0.087066 -0.316791 0.239566
v 0.131950 -0.400771 0.284450
v 0.093080 -0.347802 0.245579
v 0.093080 -0.347802 0.245579
v 0.109508 -0.378540 0.262008
v 0.087066 -0.316791 0.065434
v 0.087066 -0.316791 0.065434
v 0.131950 -0.400771 0.020550
v 0.093080 -0.347802 0.059421
v 0.093080 -0.347802 0.059421
v 0.109508 -0.378540 0.042992
v 0.250000 0.334684 0.304965
v 0.250000 0.334684 0.304965
v -0.250000 0.334684 0.304965
v -0.250000 0.334684 0.304965
v -0.225761 0.334684 0.018380
v 0.225761 0.334684 0.018380
v 0.225730 0.334684 0.304965
v 0.225730 0.334684 0.304965
v -0.132367 0.334684 0.050679
v -0.132367 0.334684 0.050679
v -0.184458 0.334684 0.081177
v -0.184458 0.334684 0.081177
v -0.161865 0.334684 0.058583
v -0.161865 0.334684 0.058583
v -0.192362 0.334684 0.231098
v -0.192362 0.334684 0.231098
v -0.221465 0.260792 0.305000
v -0.161865 0.334684 0.283190
v -0.161865 0.334684 0.283190
v -0.184458 0.334684 0.260596
v -0.184458 0.334684 0.260596
v 0.192362 0.334684 0.110675
v 0.192362 0.334684 0.110675
v 0.161864 0.334684 0.058583
v 0.161864 0.334684 0.058583
v 0.184458 0.334684 0.081177
v 0.184458 0.334684 0.081177
v 0.132367 0.334684 0.291093
v 0.132367 0.334684 0.291093
v 0.132367 0.334684 0.291093
v 0.184458 0.334684 0.260596
v 0.184458 0.334684 0.260596
v 0.161864 0.334684 0.283190
v 0.161864 0.334684 0.283190
v -0.192362 0.334684 0.110675
v -0.192362 0.334684 0.110675
v -0.132367 0.334684 0.291093
v -0.132367 0.334684 0.291093
v -0.132367 0.334684 0.291093
v 0.132367 0.334684 0.050679
v 0.132367 0.334684 0.050679
v 0.192362 0.334684 0.231098
v 0.192362 0.334684 0.231098
v -0.181991 0.326950 0.112040
v -0.175160 0.326950 0.086545
v -0.156496 0.326950 0.067882
v -0.131001 0.326950 0.061051
v -0.131001 0.326950 0.280722
v -0.131001 0.326950 0.280722
v -0.156496 0.326950 0.273891
v -0.175160 0.326950 0.255228
v -0.181991 0.326950 0.229733
v 0.131001 0.326950 0.061051
v 0.156496 0.326950 0.067882
v 0.175159 0.326950 0.086545
v 0.181991 0.326950 0.112040
v 0.181991 0.326950 0.229733
v 0.175159 0.326950 0.255228
v 0.156496 0.326950 0.273891
v 0.131001 0.326950 0.280722
v 0.131001 0.326950 0.280722
v -0.131001 0.255267 0.273910
v -0.131001 0.255267 0.273910
v -0.131001 0.255267 0.273910
v -0.155385 0.256345 0.267293
v -0.155385 0.256345 0.267293
v -0.131001 0.236551 0.255194
v -0.155385 0.243168 0.254117
v -0.131001 0.229739 0.229733
v -0.156463 0.236551 0.229733
v -0.175179 0.255267 0.229733
v -0.175179 0.255267 0.229733
v -0.168562 0.256345 0.254117
v -0.168562 0.256345 0.254117
v 0.131001 0.255267 0.273910
v 0.131001 0.255267 0.273910
v 0.131001 0.255267 0.273910
v 0.155385 0.256345 0.267293
v 0.155385 0.256345 0.267293
v 0.168562 0.256345 0.254117
v 0.168562 0.256345 0.254117
v 0.175179 0.255267 0.229733
v 0.175179 0.255267 0.229733
v 0.156463 0.236551 0.229733
v 0.155385 0.243168 0.254117
v 0.131001 0.229739 0.229733
v 0.131001 0.236551 0.255194
v -0.175179 0.255267 0.112040
v -0.175179 0.255267 0.112040
v -0.168562 0.256345 0.087656
v -0.168562 0.256345 0.087656
v -0.156463 0.236551 0.112040
v -0.155385 0.243168 0.087656
v -0.131001 0.229739 0.112040
v -0.131001 0.236551 0.086579
v -0.131001 0.255267 0.067863
v -0.131001 0.255267 0.067863
v -0.155385 0.256345 0.074479
v -0.155385 0.256345 0.074479
v 0.131001 0.255267 0.067862
v 0.131001 0.255267 0.067862
v 0.155385 0.256345 0.074479
v 0.155385 0.256345 0.074479
v 0.131001 0.236551 0.086579
v 0.155385 0.243168 0.087656
v 0.131001 0.229739 0.112040
v 0.156463 0.236551 0.112040
v 0.175179 0.255267 0.112040
v 0.175179 0.255267 0.112040
v 0.168562 0.256345 0.087656
v 0.168562 0.256345 0.087656
v -0.250000 0.349084 0.304965
v -0.250000 0.349084 0.304965
v -0.250000 0.349084 0.304965
v -0.250000 0.349084 0.000000
v -0.250000 0.349084 0.000000
v -0.250000 0.349084 0.000000
v 0.250000 0.349084 0.000000
v 0.250000 0.349084 0.000000
v 0.250000 0.349084 0.000000
v 0.250000 0.349084 0.304965
v 0.250000 0.349084 0.304965
v 0.250000 0.349084 0.304965
v -0.223494 0.295943 0.305000
v -0.225730 0.334684 0.304965
v -0.225730 0.334684 0.304965
v -0.219333 0.228075 0.296234
v 0.223494 0.295943 0.305000
v 0.221465 0.260792 0.305000
v 0.219333 0.228075 0.296234
v -0.237865 0.349084 0.304965
v -0.237865 0.349084 0.304965
v -0.237881 0.349084 0.009190
v 0.237881 0.349084 0.009190
v 0.237865 0.349084 0.304965
v 0.237865 0.349084 0.304965
v -0.000000 0.334684 0.024320
v -0.000000 0.339241 0.024320
v -0.000000 0.339241 0.024320
v 0.005468 0.334684 0.025785
v 0.005468 0.339241 0.025785
v 0.005468 0.339241 0.025785
v 0.009471 0.334684 0.029788
v 0.009471 0.339241 0.029788
v 0.009471 0.339241 0.029788
v 0.010936 0.334684 0.035256
v 0.010936 0.339241 0.035256
v 0.010936 0.339241 0.035256
v 0.009471 0.334684 0.040725
v 0.009471 0.339241 0.040725
v 0.009471 0.339241 0.040725
v 0.005468 0.334684 0.044728
v 0.005468 0.339241 0.044728
v 0.005468 0.339241 0.044728
v -0.000000 0.334684 0.046193
v -0.000000 0.339241 0.046193
v -0.000000 0.339241 0.046193
v -0.005469 0.334684 0.044728
v -0.005469 0.339241 0.044728
v -0.005469 0.339241 0.044728
v -0.009472 0.334684 0.040725
v -0.009472 0.334684 0.040725
v -0.009472 0.339241 0.040725
v -0.009472 0.339241 0.040725
v -0.009472 0.339241 0.040725
v -0.010937 0.334684 0.035256
v -0.010937 0.339241 0.035256
v -0.010937 0.339241 0.035256
v -0.009472 0.334684 0.029788
v -0.009472 0.339241 0.029788
v -0.009472 0.339241 0.029788
v -0.005469 0.334684 0.025785
v -0.005469 0.339241 0.025785
v -0.005469 0.339241 0.025785
v -0.000000 0.359549 0.024320
v -0.000000 0.359549 0.024320
v -0.000000 0.364105 0.024320
v -0.000000 0.364105 0.024320
v 0.005468 0.359549 0.025785
v 0.005468 0.359549 0.025785
v 0.005468 0.364105 0.025785
v 0.005468 0.364105 0.025785
v 0.009471 0.359549 0.029788
v 0.009471 0.359549 0.029788
v 0.009471 0.364105 0.029788
v 0.009471 0.364105 0.029788
v 0.010936 0.359549 0.035256
v 0.010936 0.359549 0.035256
v 0.010936 0.364105 0.035256
v 0.010936 0.364105 0.035256
v 0.009471 0.359549 0.040725
v 0.009471 0.359549 0.040725
v 0.009471 0.364105 0.040725
v 0.009471 0.364105 0.040725
v 0.005468 0.359549 0.044728
v 0.005468 0.359549 0.044728
v 0.005468 0.364105 0.044728
v 0.005468 0.364105 0.044728
v -0.000000 0.359549 0.046193
v -0.000000 0.359549 0.046193
v -0.000000 0.364105 0.046193
v -0.000000 0.364105 0.046193
v -0.005469 0.359549 0.044728
v -0.005469 0.359549 0.044728
v -0.005469 0.364105 0.044728
v -0.005469 0.364105 0.044728
v -0.009472 0.359549 0.040725
v -0.009472 0.359549 0.040725
v -0.009472 0.359549 0.040725
v -0.009472 0.364105 0.040725
v -0.009472 0.364105 0.040725
v -0.009472 0.364105 0.040725
v -0.010937 0.359549 0.035256
v -0.010937 0.359549 0.035256
v -0.010937 0.364105 0.035256
v -0.010937 0.364105 0.035256
v -0.009472 0.359549 0.029788
v -0.009472 0.359549 0.029788
v -0.009472 0.364105 0.029788
v -0.009472 0.364105 0.029788
v -0.005469 0.359549 0.025785
v -0.005469 0.359549 0.025785
v -0.005469 0.364105 0.025785
v -0.005469 0.364105 0.025785
v -0.000001 0.339241 0.026535
v -0.000001 0.359549 0.026535
v 0.006167 0.339241 0.029090
v 0.006167 0.339241 0.029090
v 0.006167 0.359549 0.029090
v 0.006167 0.359549 0.029090
v 0.008722 0.339241 0.035257
v 0.008722 0.359549 0.035257
v 0.006167 0.339241 0.041425
v 0.006167 0.359549 0.041425
v -0.000001 0.339241 0.043980
v -0.000001 0.359549 0.043980
v -0.006168 0.339241 0.041425
v -0.006168 0.359549 0.041425
v -0.008723 0.339241 0.035257
v -0.008723 0.359549 0.035257
v -0.006168 0.339241 0.029090
v -0.006168 0.359549 0.029090
v -0.000001 0.344164 0.025208
v -0.000001 0.349395 0.024493
v -0.000001 0.354625 0.025208
v 0.008965 0.352445 0.032207
v 0.008965 0.352445 0.032207
v 0.008448 0.349394 0.030943
v 0.008448 0.349394 0.030943
v 0.008966 0.346344 0.032207
v 0.008966 0.346344 0.032207
v 0.010156 0.353708 0.035257
v 0.010156 0.353708 0.035257
v 0.010155 0.345081 0.035257
v 0.010155 0.345081 0.035257
v 0.010155 0.345081 0.035257
v 0.008966 0.352445 0.038307
v 0.008966 0.352445 0.038307
v 0.008449 0.349394 0.039571
v 0.008449 0.349394 0.039571
v 0.008966 0.346344 0.037872
v 0.008966 0.346344 0.037872
v -0.000001 0.354625 0.045306
v -0.000001 0.349395 0.046021
v -0.000001 0.344164 0.045306
v -0.007106 0.354625 0.042363
v -0.007612 0.349395 0.042869
v -0.007106 0.344164 0.042363
v -0.010050 0.354625 0.035257
v -0.010765 0.349395 0.035257
v -0.010050 0.344164 0.035257
v -0.007106 0.354625 0.028152
v -0.007612 0.349395 0.027646
v -0.007106 0.344164 0.028152
v 0.007105 0.354625 0.028152
v 0.007105 0.354625 0.028152
v 0.007611 0.349395 0.027646
v 0.007611 0.349395 0.027646
v 0.007105 0.344164 0.028152
v 0.007105 0.344164 0.028152
v 0.007105 0.354625 0.042363
v 0.007611 0.349395 0.042869
v 0.007105 0.344164 0.042363
v 0.010048 0.344164 0.035257
v 0.010048 0.354625 0.035257
v 0.012890 0.349394 0.039571
v 0.012890 0.352445 0.038307
v 0.012890 0.353708 0.035257
v 0.012890 0.352445 0.032207
v 0.012890 0.349394 0.030943
v 0.012890 0.346344 0.032207
v 0.012890 0.345081 0.035257
v 0.012890 0.345081 0.035257
v 0.012890 0.346344 0.038307
v 0.012890 0.354117 0.035257
v 0.012890 0.354117 0.035257
v 0.014857 0.352943 0.035258
v 0.014857 0.352943 0.035258
v 0.012890 0.353485 0.032896
v 0.012890 0.353485 0.032896
v 0.014857 0.352467 0.033484
v 0.014857 0.352467 0.033484
v 0.012890 0.351756 0.031167
v 0.012890 0.351756 0.031167
v 0.014857 0.351168 0.032185
v 0.014857 0.351168 0.032185
v 0.012890 0.349394 0.030535
v 0.012890 0.349394 0.030535
v 0.014857 0.349394 0.031709
v 0.014857 0.349394 0.031709
v 0.012890 0.347033 0.031167
v 0.012890 0.347033 0.031167
v 0.014857 0.347620 0.032185
v 0.014857 0.347620 0.032185
v 0.012890 0.345304 0.032896
v 0.012890 0.345304 0.032896
v 0.014857 0.346322 0.033484
v 0.014857 0.346322 0.033484
v 0.012890 0.344672 0.035257
v 0.012890 0.344672 0.035257
v 0.012890 0.344672 0.035257
v 0.014857 0.345846 0.035258
v 0.014857 0.345846 0.035258
v 0.012890 0.345304 0.037619
v 0.012890 0.345304 0.037619
v 0.014857 0.346322 0.037032
v 0.014857 0.346322 0.037032
v 0.012890 0.347033 0.039348
v 0.012890 0.347033 0.039348
v 0.014857 0.347620 0.038331
v 0.014857 0.347620 0.038331
v 0.012890 0.349394 0.039980
v 0.012890 0.349394 0.039980
v 0.014857 0.349394 0.038806
v 0.014857 0.349394 0.038806
v 0.012890 0.351756 0.039348
v 0.012890 0.351756 0.039348
v 0.014857 0.351168 0.038331
v 0.014857 0.351168 0.038331
v 0.012890 0.353485 0.037619
v 0.012890 0.353485 0.037619
v 0.014857 0.352467 0.037032
v 0.014857 0.352467 0.037032
v 0.013873 0.354117 0.035257
v 0.013873 0.354117 0.035257
v 0.013873 0.353485 0.032896
v 0.013873 0.353485 0.032896
v 0.013873 0.351756 0.031167
v 0.013873 0.351756 0.031167
v 0.013873 0.349394 0.030535
v 0.013873 0.349394 0.030535
v 0.013873 0.347033 0.031167
v 0.013873 0.347033 0.031167
v 0.013873 0.345304 0.032896
v 0.013873 0.345304 0.032896
v 0.013873 0.344672 0.035257
v 0.013873 0.344672 0.035257
v 0.013873 0.344672 0.035257
v 0.013873 0.345304 0.037619
v 0.013873 0.345304 0.037619
v 0.013873 0.347033 0.039348
v 0.013873 0.347033 0.039348
v 0.013873 0.349394 0.039980
v 0.013873 0.349394 0.039980
v 0.013873 0.351756 0.039348
v 0.013873 0.351756 0.039348
v 0.013873 0.353485 0.037619
v 0.013873 0.353485 0.037619
v -0.000000 0.376639 0.098028
v -0.000000 0.376639 0.098028
v -0.000000 0.381196 0.098028
v -0.000000 0.381196 0.098028
v 0.005238 0.376639 0.099432
v 0.005238 0.376639 0.099432
v 0.005238 0.381196 0.099432
v 0.005238 0.381196 0.099432
v 0.009072 0.376639 0.103266
v 0.009072 0.376639 0.103266
v 0.009072 0.381196 0.103266
v 0.009072 0.381196 0.103266
v 0.010476 0.376639 0.108504
v 0.010476 0.376639 0.108504
v 0.010476 0.381196 0.108504
v 0.010476 0.381196 0.108504
v 0.009072 0.376639 0.113742
v 0.009072 0.376639 0.113742
v 0.009072 0.381196 0.113742
v 0.009072 0.381196 0.113742
v 0.005238 0.376639 0.117577
v 0.005238 0.376639 0.117577
v 0.005238 0.381196 0.117577
v 0.005238 0.381196 0.117577
v -0.000000 0.376639 0.118980
v -0.000000 0.376639 0.118980
v -0.000000 0.381196 0.118980
v -0.000000 0.381196 0.118980
v -0.005238 0.376639 0.117577
v -0.005238 0.376639 0.117577
v -0.005238 0.381196 0.117577
v -0.005238 0.381196 0.117577
v -0.009073 0.376639 0.113742
v -0.009073 0.376639 0.113742
v -0.009073 0.376639 0.113742
v -0.009073 0.381196 0.113742
v -0.009073 0.381196 0.113742
v -0.009073 0.381196 0.113742
v -0.010476 0.376639 0.108504
v -0.010476 0.376639 0.108504
v -0.010476 0.381196 0.108504
v -0.010476 0.381196 0.108504
v -0.009073 0.376639 0.103266
v -0.009073 0.376639 0.103266
v -0.009073 0.381196 0.103266
v -0.009073 0.381196 0.103266
v -0.005238 0.376639 0.099432
v -0.005238 0.376639 0.099432
v -0.005238 0.381196 0.099432
v -0.005238 0.381196 0.099432
v -0.000000 0.385358 0.026535
v 0.006168 0.385358 0.029090
v 0.008722 0.385358 0.035257
v 0.006168 0.385358 0.041425
v -0.000000 0.385358 0.043980
v -0.000000 0.385358 0.043980
v -0.006168 0.385358 0.041425
v -0.008722 0.385358 0.035257
v -0.006168 0.385358 0.029090
v -0.000000 0.402454 0.031283
v 0.006168 0.401476 0.033644
v 0.008722 0.399116 0.039342
v 0.006168 0.396755 0.045040
v -0.000000 0.395778 0.047400
v -0.000000 0.395778 0.047400
v -0.006168 0.396755 0.045040
v -0.008722 0.399116 0.039342
v -0.006168 0.401476 0.033644
v -0.000000 0.416430 0.042213
v 0.006168 0.414624 0.044019
v 0.008722 0.410263 0.048380
v 0.006168 0.405901 0.052741
v -0.000000 0.404095 0.054548
v -0.000000 0.404095 0.054548
v -0.006168 0.405901 0.052741
v -0.008722 0.410263 0.048380
v -0.006168 0.414624 0.044019
v -0.000000 0.425161 0.057658
v 0.006168 0.422800 0.058636
v 0.008722 0.417102 0.060996
v 0.006168 0.411404 0.063357
v -0.000000 0.409044 0.064334
v -0.000000 0.409044 0.064334
v -0.006168 0.411404 0.063357
v -0.008722 0.417102 0.060996
v -0.006168 0.422800 0.058636
v -0.000000 0.427316 0.075269
v 0.006168 0.424761 0.075269
v 0.008722 0.418593 0.075269
v 0.006168 0.412426 0.075269
v -0.000000 0.409871 0.075269
v -0.000000 0.409871 0.075269
v -0.006168 0.412426 0.075269
v -0.008722 0.418593 0.075269
v -0.006168 0.424761 0.075269
v -0.000000 0.422567 0.092365
v 0.006168 0.420207 0.091387
v 0.008722 0.414509 0.089027
v 0.006168 0.408810 0.086666
v -0.000000 0.406450 0.085689
v -0.000000 0.406450 0.085689
v -0.006168 0.408810 0.086666
v -0.008722 0.414509 0.089027
v -0.006168 0.420207 0.091387
v -0.000000 0.411638 0.106341
v 0.006168 0.409831 0.104535
v 0.008722 0.405470 0.100174
v 0.006168 0.401109 0.095812
v -0.000000 0.399303 0.094006
v -0.000000 0.399303 0.094006
v -0.006168 0.401109 0.095812
v -0.008722 0.405470 0.100174
v -0.006168 0.409831 0.104535
v -0.000000 0.396192 0.115072
v 0.006168 0.395214 0.112711
v 0.008722 0.392854 0.107013
v 0.006168 0.390494 0.101315
v -0.000000 0.389516 0.098955
v -0.000000 0.389516 0.098955
v -0.006168 0.390494 0.101315
v -0.008722 0.392854 0.107013
v -0.006168 0.395214 0.112711
v -0.000000 0.378581 0.117227
v 0.006168 0.378581 0.114672
v 0.008722 0.378581 0.108504
v 0.006168 0.378581 0.102337
v -0.000000 0.378581 0.099782
v -0.000000 0.378581 0.099782
v -0.006168 0.378581 0.102337
v -0.008722 0.378581 0.108504
v -0.006168 0.378581 0.114672
v 0.006168 0.364105 0.029090
v -0.000000 0.364105 0.026535
v 0.008722 0.364105 0.035257
v 0.006168 0.364105 0.041425
v -0.000000 0.364105 0.043980
v -0.000000 0.364105 0.043980
v -0.006168 0.364105 0.041425
v -0.008722 0.364105 0.035257
v -0.006168 0.364105 0.029090
v 0.016290 0.349394 0.038430
v 0.016290 0.351638 0.037501
v 0.016290 0.351638 0.037501
v 0.016290 0.351638 0.037501
v 0.016290 0.352567 0.035257
v 0.016290 0.352567 0.035257
v 0.016290 0.351638 0.033013
v 0.016290 0.351638 0.033013
v 0.016290 0.351638 0.033013
v 0.016290 0.351638 0.033013
v 0.016290 0.349394 0.032084
v 0.016290 0.347151 0.033013
v 0.016290 0.346221 0.035257
v 0.016290 0.347151 0.037501
v 0.014858 0.351638 0.037501
v 0.014858 0.349394 0.038430
v 0.014858 0.352567 0.035257
v 0.014858 0.351638 0.033013
v 0.014858 0.351638 0.033013
v 0.014858 0.349394 0.032084
v 0.014858 0.347151 0.033013
v 0.014858 0.346221 0.035257
v 0.014858 0.347151 0.037501
v 0.018168 0.351638 0.037501
v 0.018168 0.351638 0.037501
v 0.018168 0.351638 0.037501
v 0.018168 0.351638 0.037501
v 0.018168 0.349394 0.038430
v 0.018168 0.349394 0.038430
v 0.018168 0.351638 0.035257
v 0.018168 0.351638 0.035257
v 0.018168 0.351638 0.033013
v 0.018168 0.351638 0.033013
v 0.018168 0.351638 0.033013
v 0.018168 0.351638 0.033013
v 0.018168 0.349394 0.032084
v 0.018168 0.349394 0.032084
v 0.018168 0.347151 0.033013
v 0.018168 0.347151 0.033013
v 0.018168 0.346221 0.035257
v 0.018168 0.346221 0.035257
v 0.018168 0.347151 0.037501
v 0.018168 0.347151 0.037501
v 0.016290 0.370535 0.035257
v 0.016290 0.370535 0.035257
v 0.016290 0.369606 0.037501
v 0.016290 0.369606 0.037501
v 0.016290 0.369606 0.037501
v 0.016290 0.369606 0.033013
v 0.016290 0.369606 0.033013
v 0.016290 0.369606 0.033013
v 0.018168 0.370535 0.035257
v 0.018168 0.370535 0.035257
v 0.018168 0.369606 0.037501
v 0.018168 0.369606 0.037501
v 0.018168 0.369606 0.037501
v 0.018168 0.369606 0.033013
v 0.018168 0.369606 0.033013
v 0.018168 0.369606 0.033013
vt 0.673145 0.868471
vt 0.673620 0.333890
vt 0.078696 0.713254
vt 0.673620 0.081624
vt 0.673145 0.454921
vt 0.572306 0.855892
vt 0.492246 0.713254
vt 0.320040 0.855892
vt 0.078696 0.681211
vt 0.641577 0.081624
vt 0.492246 0.681211
vt 0.320040 0.823849
vt 0.492246 0.742327
vt 0.320040 0.884965
vt 0.326578 0.003906
vt 0.893457 0.733636
vt 0.326578 0.003906
vt 0.484995 0.770342
vt 0.327291 0.912980
vt 0.465186 0.798357
vt 0.920517 0.841338
vt 0.347100 0.940995
vt 0.179745 0.003906
vt 0.893457 0.589611
vt 0.179745 0.003906
vt 0.078696 0.742328
vt 0.702693 0.081624
vt 0.105756 0.798357
vt 0.920517 0.481908
vt 0.758722 0.108685
vt 0.085947 0.770342
vt 0.730708 0.088875
vt 0.644071 0.868471
vt 0.702693 0.333890
vt 0.574460 0.003906
vt 0.749432 0.589611
vt 0.078696 0.003906
vt 0.616056 0.861220
vt 0.730708 0.326639
vt 0.588042 0.841411
vt 0.722372 0.481908
vt 0.758722 0.306830
vt 0.427627 0.003906
vt 0.749432 0.733636
vt 0.427627 0.003906
vt 0.644071 0.454921
vt 0.572306 0.884965
vt 0.588042 0.481981
vt 0.722372 0.841338
vt 0.545246 0.940995
vt 0.616056 0.462172
vt 0.565055 0.912980
vt 0.326578 0.655719
vt 0.326578 0.655719
vt 0.179745 0.655719
vt 0.179745 0.655719
vt 0.574460 0.655719
vt 0.078696 0.655719
vt 0.427627 0.655719
vt 0.427627 0.655719
vt 0.574460 0.629380
vt 0.078696 0.629380
vt 0.179745 0.629380
vt 0.179745 0.520790
vt 0.179745 0.520790
vt 0.179745 0.590931
vt 0.179745 0.552697
vt 0.179745 0.552697
vt 0.574460 0.520790
vt 0.078696 0.520790
vt 0.574460 0.552697
vt 0.078696 0.552697
vt 0.574460 0.590931
vt 0.078696 0.590931
vt 0.427627 0.520790
vt 0.427627 0.520790
vt 0.427627 0.629380
vt 0.427627 0.552697
vt 0.427627 0.552697
vt 0.427627 0.590931
vt 0.326578 0.520790
vt 0.326578 0.520790
vt 0.326578 0.629380
vt 0.326578 0.552697
vt 0.326578 0.552697
vt 0.326578 0.590931
vt 0.705188 0.454921
vt 0.572277 0.823849
vt 0.705188 0.868471
vt 0.641577 0.333861
vt 0.838765 0.420134
vt 0.838765 0.025112
vt 0.705188 0.474995
vt 0.588042 0.025140
vt 0.003906 0.270525
vt 0.810507 0.338426
vt 0.003906 0.233694
vt 0.783826 0.383999
vt 0.003906 0.251719
vt 0.803593 0.364232
vt 0.003906 0.059545
vt 0.652665 0.390913
vt 0.644071 0.844870
vt 0.003906 0.022713
vt 0.607092 0.364232
vt 0.003906 0.040738
vt 0.626858 0.383999
vt 0.003906 0.551887
vt 0.758019 0.054332
vt 0.003906 0.515056
vt 0.803593 0.081013
vt 0.003906 0.533081
vt 0.783826 0.061247
vt 0.003906 0.762868
vt 0.600177 0.106820
vt 0.868427 0.004661
vt 0.003906 0.726036
vt 0.626858 0.061247
vt 0.003906 0.744061
vt 0.607092 0.081013
vt 0.003906 0.214887
vt 0.758019 0.390913
vt 0.003906 0.003906
vt 0.600177 0.338426
vt 0.868427 0.223622
vt 0.003906 0.496249
vt 0.810507 0.106820
vt 0.003906 0.707229
vt 0.652665 0.054332
vt 0.013401 0.214887
vt 0.013401 0.233694
vt 0.013401 0.251719
vt 0.013401 0.270525
vt 0.013401 0.003906
vt 0.879127 0.222493
vt 0.013401 0.022713
vt 0.013401 0.040738
vt 0.013401 0.059545
vt 0.013401 0.496249
vt 0.013401 0.515056
vt 0.013401 0.533081
vt 0.013401 0.551887
vt 0.013401 0.707229
vt 0.013401 0.726036
vt 0.013401 0.744061
vt 0.013401 0.762868
vt 0.879127 0.005790
vt 0.065114 0.003906
vt 0.265762 0.996094
vt 0.938683 0.222493
vt 0.065114 0.022713
vt 0.287327 0.988864
vt 0.263013 0.973599
vt 0.283790 0.973425
vt 0.262162 0.952002
vt 0.283678 0.952549
vt 0.065114 0.059545
vt 0.306770 0.955118
vt 0.065114 0.040738
vt 0.299312 0.976999
vt 0.045051 0.996094
vt 0.065114 0.762868
vt 0.938683 0.005790
vt 0.023401 0.988654
vt 0.065114 0.744061
vt 0.011587 0.976719
vt 0.065114 0.726036
vt 0.004371 0.955120
vt 0.065114 0.707229
vt 0.026980 0.952490
vt 0.027007 0.973232
vt 0.048528 0.951764
vt 0.047809 0.973291
vt 0.065114 0.214887
vt 0.306310 0.852913
vt 0.065114 0.233694
vt 0.299094 0.831314
vt 0.283701 0.855543
vt 0.283674 0.834801
vt 0.262153 0.856268
vt 0.262872 0.834742
vt 0.065114 0.270525
vt 0.265631 0.811939
vt 0.065114 0.251719
vt 0.287280 0.819379
vt 0.044920 0.811939
vt 0.065114 0.496249
vt 0.023354 0.819168
vt 0.065114 0.515056
vt 0.047668 0.834434
vt 0.026892 0.834607
vt 0.048519 0.856031
vt 0.027003 0.855484
vt 0.003911 0.852915
vt 0.065114 0.551887
vt 0.011369 0.831034
vt 0.065114 0.533081
vt 0.717098 0.868471
vt 0.588042 0.441339
vt 0.629667 0.333861
vt 0.078696 0.669301
vt 0.854845 0.441339
vt 0.629667 0.081624
vt 0.492246 0.669301
vt 0.854845 0.003906
vt 0.320040 0.811939
vt 0.717098 0.454921
vt 0.588042 0.003906
vt 0.572277 0.811939
vt 0.673145 0.846548
vt 0.705188 0.848397
vt 0.588042 0.420106
vt 0.616056 0.843106
vt 0.673145 0.476844
vt 0.644071 0.478522
vt 0.616056 0.480286
vt 0.717098 0.858434
vt 0.588042 0.430722
vt 0.846806 0.430736
vt 0.846806 0.014509
vt 0.717098 0.464958
vt 0.588042 0.014523
vt 0.527738 0.710690
vt 0.536066 0.710690
vt 0.366930 0.993193
vt 0.527738 0.721038
vt 0.375891 0.988020
vt 0.536066 0.721038
vt 0.527738 0.731385
vt 0.381065 0.979059
vt 0.536066 0.731385
vt 0.527738 0.741732
vt 0.381065 0.968712
vt 0.536066 0.741732
vt 0.527738 0.752079
vt 0.375891 0.959751
vt 0.536066 0.752079
vt 0.527738 0.762427
vt 0.366930 0.954577
vt 0.536066 0.762427
vt 0.527738 0.772774
vt 0.536066 0.772774
vt 0.356583 0.954577
vt 0.527738 0.783121
vt 0.347622 0.959751
vt 0.536066 0.783121
vt 0.527738 0.793468
vt 0.527738 0.669301
vt 0.342448 0.968712
vt 0.536066 0.793468
vt 0.536066 0.669301
vt 0.527738 0.679648
vt 0.342448 0.979059
vt 0.536066 0.679648
vt 0.527738 0.689996
vt 0.347622 0.988020
vt 0.536066 0.689996
vt 0.527738 0.700343
vt 0.356583 0.993194
vt 0.536066 0.700343
vt 0.505828 0.710690
vt 0.471327 0.993194
vt 0.514156 0.710690
vt 0.394647 0.979059
vt 0.460980 0.993194
vt 0.505828 0.721038
vt 0.399820 0.988020
vt 0.514156 0.721038
vt 0.452019 0.988020
vt 0.505828 0.731385
vt 0.408781 0.993194
vt 0.514156 0.731385
vt 0.446845 0.979059
vt 0.505828 0.741732
vt 0.419128 0.993194
vt 0.514156 0.741732
vt 0.446845 0.968712
vt 0.505828 0.752079
vt 0.428089 0.988020
vt 0.514156 0.752079
vt 0.452019 0.959751
vt 0.505828 0.762427
vt 0.433263 0.979059
vt 0.514156 0.762427
vt 0.505828 0.772774
vt 0.460980 0.954577
vt 0.514156 0.772774
vt 0.433263 0.968712
vt 0.471327 0.954577
vt 0.505828 0.783121
vt 0.428089 0.959750
vt 0.514156 0.783121
vt 0.480288 0.959751
vt 0.505828 0.793469
vt 0.505828 0.669301
vt 0.419128 0.954577
vt 0.514156 0.793469
vt 0.514156 0.669301
vt 0.485462 0.968712
vt 0.505828 0.679649
vt 0.408781 0.954577
vt 0.514156 0.679649
vt 0.485462 0.979059
vt 0.505828 0.689996
vt 0.399820 0.959750
vt 0.514156 0.689996
vt 0.480288 0.988020
vt 0.505828 0.700343
vt 0.394647 0.968712
vt 0.514156 0.700343
vt 0.785642 0.695090
vt 0.825478 0.695090
vt 0.785642 0.707701
vt 0.785642 0.603193
vt 0.825478 0.707701
vt 0.825478 0.603193
vt 0.785642 0.618670
vt 0.825478 0.618038
vt 0.785642 0.631282
vt 0.825478 0.630855
vt 0.785642 0.643991
vt 0.825478 0.643721
vt 0.785642 0.656701
vt 0.825478 0.656606
vt 0.785642 0.669475
vt 0.825478 0.669475
vt 0.785642 0.682351
vt 0.825478 0.682351
vt 0.794878 0.695090
vt 0.805109 0.695090
vt 0.816013 0.695090
vt 0.321687 0.972911
vt 0.810312 0.611856
vt 0.320747 0.978946
vt 0.804822 0.609442
vt 0.321697 0.984980
vt 0.799483 0.612172
vt 0.323857 0.966874
vt 0.812328 0.617644
vt 0.797688 0.617898
vt 0.323559 0.943010
vt 0.323877 0.991013
vt 0.321677 0.960842
vt 0.810197 0.623244
vt 0.805109 0.625569
vt 0.320727 0.954808
vt 0.799947 0.622717
vt 0.321667 0.948425
vt 0.816013 0.643785
vt 0.805109 0.643770
vt 0.794878 0.643889
vt 0.816013 0.656685
vt 0.805109 0.656650
vt 0.794878 0.656669
vt 0.816013 0.669475
vt 0.805109 0.669475
vt 0.794878 0.669475
vt 0.816013 0.682351
vt 0.805109 0.682351
vt 0.794878 0.682351
vt 0.816013 0.707701
vt 0.816013 0.603193
vt 0.804656 0.603193
vt 0.805109 0.707701
vt 0.794878 0.707701
vt 0.794878 0.603193
vt 0.816013 0.630827
vt 0.805109 0.631056
vt 0.794878 0.631028
vt 0.794878 0.617981
vt 0.816013 0.617668
vt 0.328844 0.954801
vt 0.328849 0.960836
vt 0.328854 0.966870
vt 0.328859 0.972905
vt 0.328864 0.978939
vt 0.328869 0.984974
vt 0.328549 0.942740
vt 0.328875 0.991009
vt 0.328875 0.948766
vt 0.772304 0.174894
vt 0.910282 0.404949
vt 0.901105 0.368154
vt 0.901105 0.368154
vt 0.772304 0.188969
vt 0.924357 0.404949
vt 0.906086 0.377214
vt 0.906086 0.377214
vt 0.772304 0.203044
vt 0.936547 0.411987
vt 0.914948 0.382488
vt 0.914948 0.382488
vt 0.772304 0.217119
vt 0.943584 0.424176
vt 0.925195 0.382805
vt 0.925195 0.382805
vt 0.772304 0.231193
vt 0.943584 0.438251
vt 0.934143 0.377872
vt 0.934143 0.377872
vt 0.772304 0.245268
vt 0.936546 0.450441
vt 0.939418 0.369067
vt 0.939418 0.369067
vt 0.772304 0.259343
vt 0.772304 0.090446
vt 0.924356 0.457477
vt 0.939604 0.358697
vt 0.939604 0.358697
vt 0.772304 0.104520
vt 0.910281 0.457477
vt 0.934727 0.349522
vt 0.934727 0.349522
vt 0.772304 0.118595
vt 0.898092 0.450440
vt 0.925921 0.344072
vt 0.925921 0.344072
vt 0.772304 0.132670
vt 0.891055 0.438250
vt 0.915582 0.343852
vt 0.915582 0.343852
vt 0.772304 0.146745
vt 0.891055 0.424175
vt 0.906527 0.348885
vt 0.906527 0.348885
vt 0.772304 0.160820
vt 0.898093 0.411986
vt 0.901187 0.357785
vt 0.901187 0.357785
vt 0.777968 0.174894
vt 0.892331 0.370600
vt 0.777968 0.188969
vt 0.899763 0.383653
vt 0.777968 0.203044
vt 0.912627 0.391135
vt 0.777968 0.217119
vt 0.927272 0.391364
vt 0.777968 0.231193
vt 0.940179 0.384445
vt 0.777968 0.245268
vt 0.948038 0.371789
vt 0.777968 0.259343
vt 0.777968 0.090446
vt 0.948514 0.356779
vt 0.777968 0.104520
vt 0.941543 0.343443
vt 0.777968 0.118595
vt 0.928752 0.335296
vt 0.777968 0.132670
vt 0.913335 0.334755
vt 0.777968 0.146745
vt 0.899946 0.342398
vt 0.777968 0.160820
vt 0.892331 0.355538
vt 0.549648 0.708947
vt 0.886039 0.928523
vt 0.557975 0.708947
vt 0.536034 0.978028
vt 0.874653 0.908801
vt 0.549648 0.718859
vt 0.536034 0.968116
vt 0.557975 0.718859
vt 0.874653 0.886028
vt 0.549648 0.728770
vt 0.531078 0.959533
vt 0.557975 0.728770
vt 0.886039 0.866306
vt 0.549648 0.738682
vt 0.522494 0.954577
vt 0.557975 0.738682
vt 0.905761 0.854920
vt 0.549648 0.748593
vt 0.512583 0.954577
vt 0.557975 0.748593
vt 0.928534 0.854920
vt 0.549648 0.758505
vt 0.503999 0.959533
vt 0.557975 0.758505
vt 0.549648 0.768416
vt 0.948255 0.866306
vt 0.557975 0.768416
vt 0.499044 0.968116
vt 0.959642 0.886028
vt 0.549648 0.778328
vt 0.499044 0.978028
vt 0.557975 0.778328
vt 0.959642 0.908801
vt 0.549648 0.788239
vt 0.549648 0.669301
vt 0.503999 0.986611
vt 0.557975 0.788239
vt 0.557975 0.669301
vt 0.948255 0.928523
vt 0.549648 0.679213
vt 0.512583 0.991567
vt 0.557975 0.679213
vt 0.928534 0.939909
vt 0.549648 0.689124
vt 0.522494 0.991567
vt 0.557975 0.689124
vt 0.905761 0.939909
vt 0.549648 0.699036
vt 0.531078 0.986611
vt 0.557975 0.699036
vt 0.623371 0.932136
vt 0.623371 0.944656
vt 0.623371 0.957177
vt 0.623371 0.969698
vt 0.623371 0.982218
vt 0.623371 0.882053
vt 0.623371 0.894574
vt 0.623371 0.907094
vt 0.623371 0.919615
vt 0.648684 0.932136
vt 0.648684 0.944656
vt 0.648684 0.957177
vt 0.648684 0.969698
vt 0.648684 0.982218
vt 0.648684 0.882053
vt 0.648684 0.894574
vt 0.648684 0.907094
vt 0.648684 0.919615
vt 0.673997 0.932136
vt 0.673997 0.944656
vt 0.673997 0.957177
vt 0.673997 0.969698
vt 0.673997 0.982218
vt 0.673997 0.882053
vt 0.673997 0.894574
vt 0.673997 0.907094
vt 0.673997 0.919615
vt 0.699309 0.932136
vt 0.699309 0.944656
vt 0.699309 0.957177
vt 0.699309 0.969698
vt 0.699309 0.982218
vt 0.699309 0.882053
vt 0.699309 0.894574
vt 0.699309 0.907094
vt 0.699309 0.919615
vt 0.724622 0.932136
vt 0.724622 0.944656
vt 0.724622 0.957177
vt 0.724622 0.969698
vt 0.724622 0.982218
vt 0.724622 0.882053
vt 0.724622 0.894574
vt 0.724622 0.907094
vt 0.724622 0.919615
vt 0.749935 0.932136
vt 0.749935 0.944656
vt 0.749935 0.957177
vt 0.749935 0.969698
vt 0.749935 0.982218
vt 0.749935 0.882053
vt 0.749935 0.894574
vt 0.749935 0.907094
vt 0.749935 0.919615
vt 0.775248 0.932136
vt 0.775248 0.944656
vt 0.775248 0.957177
vt 0.775248 0.969698
vt 0.775248 0.982218
vt 0.775248 0.882053
vt 0.775248 0.894574
vt 0.775248 0.907094
vt 0.775248 0.919615
vt 0.800561 0.932136
vt 0.800561 0.944656
vt 0.800561 0.957177
vt 0.800561 0.969698
vt 0.800561 0.982218
vt 0.800561 0.882053
vt 0.800561 0.894574
vt 0.800561 0.907094
vt 0.800561 0.919615
vt 0.825873 0.932136
vt 0.825873 0.944656
vt 0.825873 0.957177
vt 0.825873 0.969698
vt 0.825873 0.982218
vt 0.825873 0.882053
vt 0.825873 0.894574
vt 0.825873 0.907094
vt 0.825873 0.919615
vt 0.585888 0.944656
vt 0.585888 0.932136
vt 0.585888 0.957177
vt 0.585888 0.969698
vt 0.585888 0.982218
vt 0.585888 0.882053
vt 0.585888 0.894574
vt 0.585888 0.907094
vt 0.585888 0.919615
vt 0.845962 0.661685
vt 0.763014 0.603193
vt 0.845962 0.673383
vt 0.898496 0.240439
vt 0.845962 0.685081
vt 0.887688 0.244915
vt 0.845962 0.696780
vt 0.845962 0.603193
vt 0.877473 0.345610
vt 0.876880 0.240439
vt 0.845962 0.614891
vt 0.845962 0.626590
vt 0.845962 0.638288
vt 0.845962 0.649986
vt 0.839060 0.673383
vt 0.839060 0.661685
vt 0.839060 0.685081
vt 0.839060 0.696780
vt 0.839060 0.603193
vt 0.839060 0.614891
vt 0.839060 0.626590
vt 0.839060 0.638288
vt 0.839060 0.649986
vt 0.772060 0.603193
vt 0.855009 0.673383
vt 0.003906 0.781486
vt 0.839455 0.854920
vt 0.855009 0.661685
vt 0.014714 0.777009
vt 0.003906 0.792294
vt 0.850264 0.854920
vt 0.855009 0.603193
vt 0.868427 0.345610
vt 0.003906 0.803102
vt 0.861071 0.854920
vt 0.855009 0.614891
vt 0.014714 0.807578
vt 0.855009 0.626590
vt 0.025522 0.803102
vt 0.855009 0.638288
vt 0.029998 0.792294
vt 0.855009 0.649986
vt 0.025522 0.781486
vt 0.763014 0.701446
vt 0.887688 0.331469
vt 0.763014 0.689748
vt 0.763014 0.689748
vt 0.898496 0.326992
vt 0.877473 0.432162
vt 0.763014 0.713145
vt 0.876880 0.326992
vt 0.772060 0.701446
vt 0.850264 0.945950
vt 0.772060 0.689748
vt 0.772060 0.689748
vt 0.839455 0.941473
vt 0.868427 0.432162
vt 0.772060 0.713145
vt 0.861071 0.941473
f 3/3 9/9 11/11
f 3/3 11/11 7/7
f 2/2 90/90 10/10
f 2/2 10/10 4/4
f 151/151 136/136 134/134
f 151/151 134/134 148/148
f 8/8 12/12 88/88
f 8/8 88/88 6/6
f 8/8 6/6 47/47
f 8/8 47/47 14/14
f 2/2 4/4 27/27
f 2/2 27/27 34/34
f 210/210 211/211 89/89
f 210/210 89/89 1/1
f 16/16 24/24 29/29
f 16/16 29/29 21/21
f 20/20 28/28 31/31
f 20/20 31/31 18/18
f 18/18 31/31 26/26
f 18/18 26/26 13/13
f 36/36 44/44 49/49
f 36/36 49/49 41/41
f 48/48 51/51 216/216
f 38/38 213/213 103/103
f 38/38 103/103 33/33
f 44/44 16/16 21/21
f 44/44 21/21 49/49
f 50/50 22/22 19/19
f 50/50 19/19 52/52
f 52/52 19/19 14/14
f 52/52 14/14 47/47
f 24/24 36/36 41/41
f 24/24 41/41 29/29
f 30/30 42/42 39/39
f 30/30 39/39 32/32
f 32/32 39/39 34/34
f 32/32 34/34 27/27
f 3/3 7/7 13/13
f 3/3 13/13 26/26
f 5/5 87/87 93/93
f 5/5 93/93 214/214
f 35/35 69/69 75/75
f 35/35 75/75 43/43
f 62/62 63/63 56/56
f 62/62 56/56 58/58
f 77/77 61/61 57/57
f 77/77 57/57 59/59
f 83/83 77/77 60/60
f 83/83 60/60 54/54
f 63/63 83/83 53/53
f 63/63 53/53 55/55
f 25/25 65/65 70/70
f 25/25 70/70 37/37
f 45/45 76/76 82/82
f 45/45 82/82 17/17
f 83/83 63/63 66/66
f 83/83 66/66 86/86
f 86/86 66/66 67/67
f 86/86 67/67 84/84
f 84/84 67/67 64/64
f 84/84 64/64 81/81
f 77/77 83/83 86/86
f 77/77 86/86 80/80
f 80/80 86/86 85/85
f 80/80 85/85 79/79
f 79/79 85/85 82/82
f 79/79 82/82 76/76
f 61/61 77/77 80/80
f 61/61 80/80 73/73
f 73/73 80/80 78/78
f 73/73 78/78 71/71
f 71/71 78/78 75/75
f 71/71 75/75 69/69
f 63/63 62/62 74/74
f 63/63 74/74 66/66
f 66/66 74/74 72/72
f 66/66 72/72 68/68
f 68/68 72/72 70/70
f 68/68 70/70 65/65
f 15/15 81/81 64/64
f 15/15 64/64 23/23
f 94/94 115/115 124/124
f 94/94 124/124 212/212
f 91/91 96/96 127/127
f 91/91 127/127 92/92
f 94/94 92/92 109/109
f 94/94 109/109 129/129
f 122/122 98/98 91/91
f 98/98 100/100 91/91
f 100/100 96/96 91/91
f 124/124 105/105 212/212
f 105/105 107/107 212/212
f 107/107 102/102 212/212
f 127/127 111/111 92/92
f 111/111 113/113 92/92
f 113/113 109/109 92/92
f 129/129 118/118 94/94
f 118/118 120/120 94/94
f 120/120 115/115 94/94
f 212/212 102/102 122/122
f 212/212 122/122 91/91
f 97/97 121/121 130/130
f 97/97 130/130 131/131
f 182/182 187/187 139/139
f 182/182 139/139 133/133
f 192/192 180/180 155/155
f 192/192 155/155 172/172
f 195/195 169/169 143/143
f 195/195 143/143 142/142
f 157/157 138/138 137/137
f 157/157 137/137 159/159
f 149/149 153/153 154/154
f 149/149 154/154 152/152
f 155/155 156/156 154/154
f 155/155 154/154 153/153
f 156/156 158/158 160/160
f 156/156 160/160 154/154
f 159/159 137/137 136/136
f 159/159 136/136 151/151
f 162/162 146/146 145/145
f 162/162 145/145 165/165
f 152/152 154/154 160/160
f 165/165 145/145 144/144
f 165/165 144/144 167/167
f 167/167 144/144 143/143
f 167/167 143/143 169/169
f 176/176 131/131 130/130
f 176/176 130/130 174/174
f 168/168 170/170 171/171
f 168/168 171/171 166/166
f 172/172 173/173 171/171
f 172/172 171/171 170/170
f 173/173 161/161 164/164
f 173/173 164/164 171/171
f 164/164 166/166 171/171
f 182/182 133/133 132/132
f 182/182 132/132 184/184
f 175/175 178/178 179/179
f 175/175 179/179 177/177
f 180/180 181/181 179/179
f 180/180 179/179 178/178
f 181/181 183/183 185/185
f 181/181 185/185 179/179
f 184/184 132/132 131/131
f 184/184 131/131 176/176
f 189/189 140/140 139/139
f 189/189 139/139 187/187
f 177/177 179/179 185/185
f 195/195 142/142 141/141
f 195/195 141/141 197/197
f 186/186 190/190 191/191
f 186/186 191/191 188/188
f 192/192 193/193 191/191
f 192/192 191/191 190/190
f 193/193 194/194 196/196
f 193/193 196/196 191/191
f 197/197 141/141 140/140
f 197/197 140/140 189/189
f 150/150 135/135 147/147
f 150/150 147/147 163/163
f 188/188 191/191 196/196
f 157/157 174/174 130/130
f 157/157 130/130 138/138
f 149/149 161/161 173/173
f 149/149 173/173 153/153
f 153/153 173/173 172/172
f 153/153 172/172 155/155
f 175/175 158/158 156/156
f 175/175 156/156 178/178
f 178/178 156/156 155/155
f 178/178 155/155 180/180
f 180/180 192/192 190/190
f 180/180 190/190 181/181
f 181/181 190/190 186/186
f 181/181 186/186 183/183
f 168/168 194/194 193/193
f 168/168 193/193 170/170
f 170/170 193/193 192/192
f 170/170 192/192 172/172
f 99/99 97/97 131/131
f 99/99 131/131 132/132
f 95/95 99/99 132/132
f 95/95 132/132 133/133
f 104/104 123/123 134/134
f 104/104 134/134 136/136
f 106/106 104/104 136/136
f 106/106 136/136 137/137
f 101/101 106/106 137/137
f 101/101 137/137 138/138
f 110/110 126/126 139/139
f 110/110 139/139 140/140
f 112/112 110/110 140/140
f 112/112 140/140 141/141
f 108/108 112/112 141/141
f 108/108 141/141 142/142
f 117/117 128/128 143/143
f 117/117 143/143 144/144
f 119/119 117/117 144/144
f 119/119 144/144 145/145
f 114/114 119/119 145/145
f 114/114 145/145 146/146
f 121/121 101/101 138/138
f 121/121 138/138 130/130
f 126/126 95/95 133/133
f 126/126 133/133 139/139
f 125/125 116/116 147/147
f 125/125 147/147 135/135
f 128/128 108/108 142/142
f 128/128 142/142 143/143
f 219/219 218/218 212/212
f 219/219 212/212 91/91
f 222/222 220/220 92/92
f 222/222 92/92 94/94
f 88/88 12/12 206/206
f 88/88 206/206 209/209
f 11/11 9/9 201/201
f 11/11 201/201 204/204
f 10/10 90/90 200/200
f 10/10 200/200 203/203
f 210/210 1/1 33/33
f 210/210 33/33 103/103
f 5/5 214/214 215/215
f 5/5 215/215 46/46
f 214/214 93/93 211/211
f 214/214 211/211 210/210
f 211/211 217/217 198/198
f 211/211 198/198 89/89
f 214/214 210/210 103/103
f 214/214 103/103 215/215
f 38/38 40/40 213/213
f 213/213 216/216 215/215
f 213/213 215/215 103/103
f 216/216 51/51 46/46
f 216/216 46/46 215/215
f 93/93 87/87 207/207
f 93/93 207/207 221/221
f 40/40 48/48 216/216
f 40/40 216/216 213/213
f 208/208 205/205 220/220
f 208/208 220/220 222/222
f 205/205 202/202 219/219
f 205/205 219/219 220/220
f 202/202 199/199 218/218
f 202/202 218/218 219/219
f 220/220 219/219 91/91
f 220/220 91/91 92/92
f 223/223 224/224 228/228
f 223/223 228/228 226/226
f 226/226 228/228 231/231
f 226/226 231/231 229/229
f 229/229 231/231 234/234
f 229/229 234/234 232/232
f 232/232 234/234 237/237
f 232/232 237/237 235/235
f 235/235 237/237 240/240
f 235/235 240/240 238/238
f 238/238 240/240 242/242
f 238/238 242/242 241/241
f 241/241 242/242 246/246
f 241/241 246/246 244/244
f 244/244 246/246 250/250
f 244/244 250/250 247/247
f 248/248 251/251 254/254
f 248/248 254/254 252/252
f 252/252 254/254 257/257
f 252/252 257/257 255/255
f 230/230 227/227 225/225
f 225/225 259/259 256/256
f 256/256 253/253 249/249
f 249/249 245/245 243/243
f 243/243 239/239 236/236
f 236/236 233/233 230/230
f 230/230 225/225 256/256
f 256/256 249/249 243/243
f 243/243 236/236 230/230
f 256/256 243/243 230/230
f 255/255 257/257 260/260
f 255/255 260/260 258/258
f 258/258 260/260 224/224
f 258/258 224/224 223/223
f 261/261 263/263 268/268
f 261/261 268/268 266/266
f 266/266 268/268 272/272
f 266/266 272/272 270/270
f 270/270 272/272 276/276
f 270/270 276/276 274/274
f 274/274 276/276 280/280
f 274/274 280/280 278/278
f 278/278 280/280 284/284
f 278/278 284/284 282/282
f 282/282 284/284 287/287
f 282/282 287/287 285/285
f 285/285 287/287 292/292
f 285/285 292/292 290/290
f 290/290 292/292 297/297
f 290/290 297/297 294/294
f 295/295 298/298 302/302
f 295/295 302/302 300/300
f 300/300 302/302 306/306
f 300/300 306/306 304/304
f 271/271 267/267 264/264
f 264/264 309/309 305/305
f 305/305 301/301 296/296
f 296/296 291/291 288/288
f 288/288 283/283 279/279
f 279/279 275/275 271/271
f 271/271 264/264 305/305
f 305/305 296/296 288/288
f 288/288 279/279 271/271
f 305/305 288/288 271/271
f 304/304 306/306 310/310
f 304/304 310/310 308/308
f 308/308 310/310 263/263
f 308/308 263/263 261/261
f 307/307 262/262 265/265
f 265/265 269/269 273/273
f 273/273 277/277 281/281
f 281/281 286/286 289/289
f 289/289 293/293 299/299
f 299/299 303/303 307/307
f 307/307 265/265 273/273
f 273/273 281/281 289/289
f 289/289 299/299 307/307
f 273/273 289/289 307/307
f 331/331 312/312 315/315
f 331/331 315/315 361/361
f 362/362 316/316 318/318
f 362/362 318/318 371/371
f 371/371 318/318 320/320
f 371/371 320/320 367/367
f 367/367 320/320 322/322
f 367/367 322/322 349/349
f 349/349 322/322 324/324
f 349/349 324/324 352/352
f 352/352 324/324 326/326
f 352/352 326/326 355/355
f 355/355 326/326 328/328
f 355/355 328/328 358/358
f 358/358 328/328 312/312
f 358/358 312/312 331/331
f 327/327 360/360 329/329
f 327/327 329/329 311/311
f 360/360 359/359 330/330
f 360/360 330/330 329/329
f 359/359 358/358 331/331
f 359/359 331/331 330/330
f 325/325 357/357 360/360
f 325/325 360/360 327/327
f 357/357 356/356 359/359
f 357/357 359/359 360/360
f 356/356 355/355 358/358
f 356/356 358/358 359/359
f 323/323 354/354 357/357
f 323/323 357/357 325/325
f 354/354 353/353 356/356
f 354/354 356/356 357/357
f 353/353 352/352 355/355
f 353/353 355/355 356/356
f 321/321 351/351 354/354
f 321/321 354/354 323/323
f 351/351 350/350 353/353
f 351/351 353/353 354/354
f 350/350 349/349 352/352
f 350/350 352/352 353/353
f 319/319 369/369 351/351
f 319/319 351/351 321/321
f 369/369 368/368 350/350
f 369/369 350/350 351/351
f 368/368 367/367 349/349
f 368/368 349/349 350/350
f 317/317 370/370 369/369
f 317/317 369/369 319/319
f 314/314 366/366 370/370
f 314/314 370/370 317/317
f 311/311 329/329 365/365
f 311/311 365/365 313/313
f 329/329 330/330 364/364
f 329/329 364/364 365/365
f 330/330 331/331 361/361
f 330/330 361/361 364/364
f 333/333 335/335 363/363
f 333/333 363/363 362/362
f 335/335 337/337 366/366
f 335/335 366/366 363/363
f 345/345 344/344 367/367
f 345/345 367/367 368/368
f 347/347 345/345 368/368
f 347/347 368/368 369/369
f 340/340 347/347 369/369
f 340/340 369/369 370/370
f 344/344 339/339 371/371
f 344/344 371/371 367/367
f 337/337 340/340 370/370
f 337/337 370/370 366/366
f 339/339 333/333 362/362
f 339/339 362/362 371/371
f 348/348 380/380 372/372
f 348/348 372/372 346/346
f 341/341 378/378 380/380
f 341/341 380/380 348/348
f 336/336 377/377 379/379
f 336/336 379/379 342/342
f 334/334 376/376 377/377
f 334/334 377/377 336/336
f 332/332 375/375 376/376
f 332/332 376/376 334/334
f 338/338 374/374 375/375
f 338/338 375/375 332/332
f 374/374 338/338 343/343
f 374/374 343/343 373/373
f 346/346 372/372 373/373
f 346/346 373/373 343/343
f 431/431 383/383 387/387
f 431/431 387/387 433/433
f 433/433 387/387 391/391
f 433/433 391/391 435/435
f 435/435 391/391 395/395
f 435/435 395/395 437/437
f 437/437 395/395 399/399
f 437/437 399/399 439/439
f 439/439 399/399 403/403
f 439/439 403/403 441/441
f 441/441 403/403 408/408
f 441/441 408/408 444/444
f 444/444 408/408 412/412
f 444/444 412/412 446/446
f 446/446 412/412 416/416
f 446/446 416/416 448/448
f 448/448 416/416 420/420
f 448/448 420/420 450/450
f 450/450 420/420 424/424
f 450/450 424/424 452/452
f 392/392 388/388 384/384
f 384/384 429/429 425/425
f 425/425 421/421 417/417
f 417/417 413/413 409/409
f 409/409 404/404 400/400
f 400/400 396/396 392/392
f 392/392 384/384 425/425
f 425/425 417/417 409/409
f 409/409 400/400 392/392
f 425/425 409/409 392/392
f 452/452 424/424 428/428
f 452/452 428/428 454/454
f 454/454 428/428 383/383
f 454/454 383/383 431/431
f 427/427 382/382 386/386
f 386/386 390/390 394/394
f 394/394 398/398 402/402
f 402/402 407/407 411/411
f 411/411 415/415 419/419
f 419/419 423/423 427/427
f 427/427 386/386 394/394
f 394/394 402/402 411/411
f 411/411 419/419 427/427
f 394/394 411/411 427/427
f 426/426 453/453 430/430
f 426/426 430/430 381/381
f 422/422 451/451 453/453
f 422/422 453/453 426/426
f 418/418 449/449 451/451
f 418/418 451/451 422/422
f 414/414 447/447 449/449
f 414/414 449/449 418/418
f 410/410 445/445 447/447
f 410/410 447/447 414/414
f 406/406 443/443 445/445
f 406/406 445/445 410/410
f 401/401 440/440 442/442
f 401/401 442/442 405/405
f 397/397 438/438 440/440
f 397/397 440/440 401/401
f 393/393 436/436 438/438
f 393/393 438/438 397/397
f 389/389 434/434 436/436
f 389/389 436/436 393/393
f 385/385 432/432 434/434
f 385/385 434/434 389/389
f 381/381 430/430 432/432
f 381/381 432/432 385/385
f 455/455 457/457 462/462
f 455/455 462/462 460/460
f 460/460 462/462 466/466
f 460/460 466/466 464/464
f 464/464 466/466 470/470
f 464/464 470/470 468/468
f 468/468 470/470 474/474
f 468/468 474/474 472/472
f 472/472 474/474 478/478
f 472/472 478/478 476/476
f 476/476 478/478 481/481
f 476/476 481/481 479/479
f 479/479 481/481 486/486
f 479/479 486/486 484/484
f 484/484 486/486 491/491
f 484/484 491/491 488/488
f 489/489 492/492 496/496
f 489/489 496/496 494/494
f 494/494 496/496 500/500
f 494/494 500/500 498/498
f 465/465 461/461 458/458
f 458/458 503/503 499/499
f 499/499 495/495 490/490
f 490/490 485/485 482/482
f 482/482 477/477 473/473
f 473/473 469/469 465/465
f 465/465 458/458 499/499
f 499/499 490/490 482/482
f 482/482 473/473 465/465
f 499/499 482/482 465/465
f 498/498 500/500 504/504
f 498/498 504/504 502/502
f 502/502 504/504 457/457
f 502/502 457/457 455/455
f 501/501 456/456 459/459
f 459/459 463/463 467/467
f 467/467 471/471 475/475
f 475/475 480/480 483/483
f 483/483 487/487 493/493
f 493/493 497/497 501/501
f 501/501 459/459 467/467
f 467/467 475/475 483/483
f 483/483 493/493 501/501
f 467/467 483/483 501/501
f 508/508 509/509 590/590
f 508/508 590/590 589/589
f 521/521 520/520 529/529
f 521/521 529/529 530/530
f 508/508 507/507 516/516
f 508/508 516/516 517/517
f 506/506 505/505 514/514
f 506/506 514/514 515/515
f 505/505 513/513 522/522
f 505/505 522/522 514/514
f 512/512 511/511 520/520
f 512/512 520/520 521/521
f 509/509 508/508 517/517
f 509/509 517/517 518/518
f 507/507 506/506 515/515
f 507/507 515/515 516/516
f 513/513 512/512 521/521
f 513/513 521/521 522/522
f 511/511 510/510 519/519
f 511/511 519/519 520/520
f 524/524 523/523 532/532
f 524/524 532/532 533/533
f 518/518 517/517 526/526
f 518/518 526/526 527/527
f 516/516 515/515 524/524
f 516/516 524/524 525/525
f 522/522 521/521 530/530
f 522/522 530/530 531/531
f 520/520 519/519 528/528
f 520/520 528/528 529/529
f 517/517 516/516 525/525
f 517/517 525/525 526/526
f 515/515 514/514 523/523
f 515/515 523/523 524/524
f 514/514 522/522 531/531
f 514/514 531/531 523/523
f 540/540 539/539 548/548
f 540/540 548/548 549/549
f 523/523 531/531 540/540
f 523/523 540/540 532/532
f 530/530 529/529 538/538
f 530/530 538/538 539/539
f 527/527 526/526 535/535
f 527/527 535/535 536/536
f 525/525 524/524 533/533
f 525/525 533/533 534/534
f 531/531 530/530 539/539
f 531/531 539/539 540/540
f 529/529 528/528 537/537
f 529/529 537/537 538/538
f 526/526 525/525 534/534
f 526/526 534/534 535/535
f 543/543 542/542 551/551
f 543/543 551/551 552/552
f 538/538 537/537 546/546
f 538/538 546/546 547/547
f 535/535 534/534 543/543
f 535/535 543/543 544/544
f 533/533 532/532 541/541
f 533/533 541/541 542/542
f 532/532 540/540 549/549
f 532/532 549/549 541/541
f 539/539 538/538 547/547
f 539/539 547/547 548/548
f 536/536 535/535 544/544
f 536/536 544/544 545/545
f 534/534 533/533 542/542
f 534/534 542/542 543/543
f 550/550 558/558 567/567
f 550/550 567/567 559/559
f 549/549 548/548 557/557
f 549/549 557/557 558/558
f 547/547 546/546 555/555
f 547/547 555/555 556/556
f 544/544 543/543 552/552
f 544/544 552/552 553/553
f 542/542 541/541 550/550
f 542/542 550/550 551/551
f 541/541 549/549 558/558
f 541/541 558/558 550/550
f 548/548 547/547 556/556
f 548/548 556/556 557/557
f 545/545 544/544 553/553
f 545/545 553/553 554/554
f 562/562 561/561 570/570
f 562/562 570/570 571/571
f 557/557 556/556 565/565
f 557/557 565/565 566/566
f 554/554 553/553 562/562
f 554/554 562/562 563/563
f 552/552 551/551 560/560
f 552/552 560/560 561/561
f 558/558 557/557 566/566
f 558/558 566/566 567/567
f 556/556 555/555 564/564
f 556/556 564/564 565/565
f 553/553 552/552 561/561
f 553/553 561/561 562/562
f 551/551 550/550 559/559
f 551/551 559/559 560/560
f 576/576 575/575 584/584
f 576/576 584/584 585/585
f 560/560 559/559 568/568
f 560/560 568/568 569/569
f 559/559 567/567 576/576
f 559/559 576/576 568/568
f 566/566 565/565 574/574
f 566/566 574/574 575/575
f 563/563 562/562 571/571
f 563/563 571/571 572/572
f 561/561 560/560 569/569
f 561/561 569/569 570/570
f 567/567 566/566 575/575
f 567/567 575/575 576/576
f 565/565 564/564 573/573
f 565/565 573/573 574/574
f 574/574 573/573 582/582
f 574/574 582/582 583/583
f 571/571 570/570 579/579
f 571/571 579/579 580/580
f 569/569 568/568 577/577
f 569/569 577/577 578/578
f 568/568 576/576 585/585
f 568/568 585/585 577/577
f 575/575 574/574 583/583
f 575/575 583/583 584/584
f 572/572 571/571 580/580
f 572/572 580/580 581/581
f 570/570 569/569 578/578
f 570/570 578/578 579/579
f 506/506 507/507 588/588
f 506/506 588/588 586/586
f 512/512 513/513 594/594
f 512/512 594/594 593/593
f 510/510 511/511 592/592
f 510/510 592/592 591/591
f 507/507 508/508 589/589
f 507/507 589/589 588/588
f 505/505 506/506 586/586
f 505/505 586/586 587/587
f 513/513 505/505 587/587
f 513/513 587/587 594/594
f 511/511 512/512 593/593
f 511/511 593/593 592/592
f 653/653 647/647 625/625
f 653/653 625/625 629/629
f 599/599 611/611 609/609
f 599/599 609/609 597/597
f 608/608 617/617 616/616
f 608/608 616/616 607/607
f 606/606 615/615 614/614
f 606/606 614/614 605/605
f 601/601 612/612 611/611
f 601/601 611/611 599/599
f 597/597 609/609 610/610
f 597/597 610/610 595/595
f 595/595 610/610 617/617
f 595/595 617/617 608/608
f 607/607 616/616 615/615
f 607/607 615/615 606/606
f 605/605 614/614 613/613
f 605/605 613/613 602/602
f 635/635 624/624 620/620
f 620/620 623/623 637/637
f 620/620 637/637 635/635
f 608/608 607/607 634/634
f 608/608 634/634 636/636
f 606/606 605/605 630/630
f 606/606 630/630 632/632
f 597/597 595/595 622/622
f 597/597 622/622 619/619
f 595/595 608/608 636/636
f 595/595 636/636 622/622
f 607/607 606/606 632/632
f 607/607 632/632 634/634
f 605/605 602/602 626/626
f 605/605 626/626 630/630
f 647/647 650/650 621/621
f 647/647 621/621 625/625
f 627/627 603/603 643/643
f 627/627 643/643 651/651
f 641/641 649/649 646/646
f 641/641 646/646 638/638
f 638/638 646/646 652/652
f 638/638 652/652 644/644
f 604/604 600/600 639/639
f 604/604 639/639 645/645
f 631/631 628/628 624/624
f 624/624 635/635 633/633
f 624/624 633/633 631/631
f 600/600 598/598 642/642
f 600/600 642/642 639/639
f 596/596 618/618 648/648
f 596/596 648/648 640/640
