# CC0 mesh
v 0.125474 0.067044 0.302081
v 0.125474 0.067044 0.302081
v 0.125474 0.067044 0.302081
v 0.225848 0.067044 0.489866
v 0.225848 0.067044 0.489866
v 0.208656 0.067044 0.576295
v 0.208656 0.067044 0.576295
v 0.187786 0.067044 0.615341
v 0.187786 0.067044 0.615341
v 0.125474 0.067044 0.677652
v 0.125474 0.067044 0.677652
v -0.044061 0.067044 0.711375
v -0.044061 0.067044 0.711375
v -0.159699 0.067044 0.649565
v -0.159699 0.067044 0.649565
v -0.221508 0.067044 0.445806
v -0.221508 0.067044 0.445806
v -0.159699 0.067044 0.330168
v -0.159699 0.067044 0.330168
v 0.161189 0.067044 0.248629
v 0.205155 0.067044 0.284711
v 0.205155 0.067044 0.284711
v 0.205155 0.067044 0.284711
v 0.241237 0.067044 0.328677
v 0.241237 0.067044 0.328677
v 0.268048 0.067044 0.378837
v 0.268048 0.067044 0.378837
v 0.284559 0.067044 0.433264
v 0.284559 0.067044 0.433264
v 0.290133 0.067044 0.489866
v 0.290133 0.067044 0.489866
v 0.284559 0.067044 0.546469
v 0.284559 0.067044 0.546469
v 0.268048 0.067044 0.600896
v 0.268048 0.067044 0.600896
v 0.241237 0.067044 0.651056
v 0.241237 0.067044 0.651056
v 0.205155 0.067044 0.695022
v 0.205155 0.067044 0.695022
v 0.161189 0.067044 0.731104
v 0.161189 0.067044 0.731104
v 0.111029 0.067044 0.757915
v 0.111029 0.067044 0.757915
v 0.056602 0.067044 0.774425
v 0.056602 0.067044 0.774425
v -0.000000 0.067044 0.780000
v -0.000000 0.067044 0.780000
v -0.056602 0.067044 0.774425
v -0.056602 0.067044 0.774425
v -0.111029 0.067044 0.757915
v -0.111029 0.067044 0.757915
v -0.161190 0.067044 0.731104
v -0.161190 0.067044 0.731104
v -0.205155 0.067044 0.695022
v -0.205155 0.067044 0.695022
v -0.241237 0.067044 0.651056
v -0.241237 0.067044 0.651056
v -0.268049 0.067044 0.600896
v -0.268049 0.067044 0.600896
v -0.284559 0.067044 0.546469
v -0.284559 0.067044 0.546469
v -0.290134 0.067044 0.489866
v -0.290134 0.067044 0.489866
v -0.284559 0.067044 0.433264
v -0.284559 0.067044 0.433264
v -0.268049 0.067044 0.378837
v -0.268049 0.067044 0.378837
v -0.241237 0.067044 0.328677
v -0.241237 0.067044 0.328677
v -0.205155 0.067044 0.284711
v -0.205155 0.067044 0.284711
v -0.205155 0.067044 0.284711
v -0.161190 0.067044 0.248629
v 0.111029 -0.010191 0.221818
v 0.111029 -0.010191 0.221818
v 0.070460 -0.196629 0.326410
v 0.070460 -0.196629 0.326410
v 0.083482 -0.161445 0.282021
v 0.083482 -0.161445 0.282021
v 0.100159 -0.115694 0.248062
v 0.100159 -0.115694 0.248062
v 0.108264 -0.064804 0.228493
v 0.108264 -0.064804 0.228493
v 0.161189 -0.010191 0.248629
v 0.102291 -0.192928 0.336776
v 0.126688 -0.159395 0.300265
v 0.145408 -0.115694 0.272248
v 0.157176 -0.064804 0.254636
v 0.205155 -0.010191 0.284711
v 0.130192 -0.192928 0.359674
v 0.161243 -0.159395 0.328623
v 0.185069 -0.115694 0.304797
v 0.200047 -0.064804 0.289820
v 0.268048 -0.010191 0.378837
v 0.170105 -0.192928 0.419407
v 0.210674 -0.159395 0.402602
v 0.241804 -0.115694 0.389708
v 0.261374 -0.064804 0.381602
v 0.290133 -0.010191 0.489866
v 0.184120 -0.192928 0.489866
v 0.228032 -0.159395 0.489866
v 0.261727 -0.115694 0.489866
v 0.282909 -0.064804 0.489866
v 0.268048 -0.010191 0.600896
v 0.170105 -0.192928 0.560326
v 0.210674 -0.159395 0.577131
v 0.241804 -0.115694 0.590025
v 0.261374 -0.064804 0.598131
v 0.205155 -0.010191 0.695022
v 0.130192 -0.192928 0.620059
v 0.161243 -0.159395 0.651110
v 0.185069 -0.115694 0.674936
v 0.200047 -0.064804 0.689913
v 0.111029 -0.010191 0.757915
v 0.070460 -0.192928 0.659971
v 0.087264 -0.159395 0.700541
v 0.100159 -0.115694 0.731671
v 0.108264 -0.064804 0.751240
v -0.000000 -0.010191 0.780000
v -0.000000 -0.192928 0.673986
v -0.000000 -0.159395 0.717899
v -0.000000 -0.115694 0.751594
v -0.000000 -0.064804 0.772775
v -0.111029 -0.010191 0.757915
v -0.070460 -0.192928 0.659971
v -0.087264 -0.159395 0.700541
v -0.100159 -0.115694 0.731671
v -0.108265 -0.064804 0.751240
v -0.205155 -0.010191 0.695022
v -0.130193 -0.192928 0.620059
v -0.161243 -0.159395 0.651110
v -0.185069 -0.115694 0.674936
v -0.200047 -0.064804 0.689913
v -0.268049 -0.010191 0.600896
v -0.170105 -0.192928 0.560326
v -0.210674 -0.159395 0.577131
v -0.241805 -0.115694 0.590025
v -0.261374 -0.064804 0.598131
v -0.290134 -0.010191 0.489866
v -0.184120 -0.192928 0.489866
v -0.228032 -0.159395 0.489866
v -0.261727 -0.115694 0.489866
v -0.282909 -0.064804 0.489866
v -0.268049 -0.010191 0.378837
v -0.170105 -0.192928 0.419407
v -0.210674 -0.159395 0.402602
v -0.241805 -0.115694 0.389708
v -0.261374 -0.064804 0.381602
v -0.205155 -0.010191 0.284711
v -0.130193 -0.192928 0.359674
v -0.161243 -0.159395 0.328623
v -0.185069 -0.115694 0.304797
v -0.200047 -0.064804 0.289820
v -0.161190 -0.010191 0.248629
v -0.102292 -0.192928 0.336776
v -0.126688 -0.159395 0.300265
v -0.145408 -0.115694 0.272248
v -0.157176 -0.064804 0.254636
v -0.111029 -0.010191 0.221818
v -0.111029 -0.010191 0.221818
v -0.070460 -0.192928 0.319762
v -0.070460 -0.192928 0.319762
v -0.087264 -0.159395 0.279192
v -0.087264 -0.159395 0.279192
v -0.100159 -0.115694 0.248062
v -0.100159 -0.115694 0.248062
v -0.108265 -0.064804 0.228493
v -0.108265 -0.064804 0.228493
v -0.111029 -0.010191 0.039105
v -0.111029 -0.010191 0.039105
v 0.111029 -0.010191 0.039105
v 0.111029 -0.010191 0.039105
v 0.108264 -0.064804 0.039105
v 0.108264 -0.064804 0.039105
v 0.100159 -0.115694 0.053033
v 0.100159 -0.115694 0.053033
v 0.087264 -0.159395 0.079973
v 0.087264 -0.159395 0.079973
v 0.070460 -0.192928 0.118411
v 0.070460 -0.192928 0.118411
v -0.070460 -0.192928 0.118411
v -0.070460 -0.192928 0.118411
v -0.108265 -0.064804 0.039105
v -0.108265 -0.064804 0.039105
v -0.100159 -0.115694 0.053033
v -0.100159 -0.115694 0.053033
v -0.087264 -0.159395 0.079973
v -0.087264 -0.159395 0.079973
v 0.087264 -0.159395 0.154829
v -0.108265 -0.064804 0.154829
v 0.100159 -0.115694 0.154829
v -0.136110 0.067044 0.039105
v -0.136110 0.067044 0.039105
v 0.108264 -0.064804 0.154829
v -0.087264 -0.159395 0.154829
v -0.100159 -0.115694 0.154829
v 0.070460 -0.192928 0.154829
v 0.070460 -0.192928 0.154829
v 0.070460 -0.192928 0.154829
v -0.070460 -0.192928 0.154829
v -0.070460 -0.192928 0.154829
v -0.070460 -0.192928 0.154829
v 0.136109 0.067044 0.039105
v 0.136109 0.067044 0.039105
v 0.167372 0.067044 0.039105
v 0.167372 0.067044 0.039105
v 0.167372 0.067044 0.039105
v -0.167373 0.067044 0.039105
v -0.167373 0.067044 0.039105
v -0.167373 0.067044 0.039105
v 0.268048 0.028426 0.378837
v -0.268049 0.028426 0.378837
v 0.290133 0.028426 0.489866
v 0.268048 0.028426 0.600896
v 0.205155 0.028426 0.695022
v 0.111029 0.028426 0.757915
v -0.000000 0.028426 0.780000
v -0.111029 0.028426 0.757915
v -0.205155 0.028426 0.695022
v -0.268049 0.028426 0.600896
v -0.290134 0.028426 0.489866
v -0.167373 0.028426 0.039105
v -0.167373 0.028426 0.039105
v -0.167373 0.028426 0.039105
v 0.167372 0.028426 0.039105
v 0.167372 0.028426 0.039105
v 0.167372 0.028426 0.039105
v -0.111029 0.028426 0.039105
v -0.111029 0.028426 0.039105
v -0.111029 0.028426 0.039105
v -0.205155 0.028426 0.284711
v -0.205155 0.028426 0.284711
v -0.205155 0.028426 0.284711
v -0.136110 0.028426 0.039105
v -0.136110 0.028426 0.039105
v 0.136109 0.028426 0.039105
v 0.136109 0.028426 0.039105
v 0.111029 0.028426 0.221818
v 0.111029 0.028426 0.221818
v 0.111029 0.028426 0.221818
v 0.161189 0.028426 0.248629
v 0.161189 0.028426 0.248629
v 0.205155 0.028426 0.284711
v 0.205155 0.028426 0.284711
v 0.205155 0.028426 0.284711
v -0.161190 0.028426 0.248629
v -0.161190 0.028426 0.248629
v -0.111029 0.028426 0.221818
v -0.111029 0.028426 0.221818
v -0.111029 0.028426 0.221818
v 0.111029 0.028426 0.039105
v 0.111029 0.028426 0.039105
v 0.111029 0.028426 0.039105
v 0.159698 0.067044 0.330168
v 0.159698 0.067044 0.330168
v 0.187785 0.067044 0.364392
v 0.187785 0.067044 0.364392
v 0.208656 0.067044 0.403438
v 0.208656 0.067044 0.403438
v 0.221508 0.067044 0.445806
v 0.221508 0.067044 0.445806
v 0.221508 0.067044 0.533927
v 0.221508 0.067044 0.533927
v 0.159698 0.067044 0.649565
v 0.159698 0.067044 0.649565
v 0.086428 0.067044 0.698523
v 0.086428 0.067044 0.698523
v 0.044061 0.067044 0.711375
v 0.044061 0.067044 0.711375
v -0.000000 0.067044 0.715714
v -0.000000 0.067044 0.715714
v -0.086428 0.067044 0.698523
v -0.086428 0.067044 0.698523
v -0.125475 0.067044 0.677652
v -0.125475 0.067044 0.677652
v -0.187786 0.067044 0.615341
v -0.187786 0.067044 0.615341
v -0.208656 0.067044 0.576295
v -0.208656 0.067044 0.576295
v -0.221508 0.067044 0.533927
v -0.221508 0.067044 0.533927
v -0.225848 0.067044 0.489866
v -0.225848 0.067044 0.489866
v -0.208656 0.067044 0.403438
v -0.208656 0.067044 0.403438
v -0.187786 0.067044 0.364392
v -0.187786 0.067044 0.364392
v -0.125475 0.067044 0.302081
v -0.125475 0.067044 0.302081
v -0.125475 0.067044 0.302081
v 0.125474 0.028426 0.302081
v 0.125474 0.028426 0.302081
v 0.125474 0.028426 0.302081
v 0.125474 0.028426 0.302081
v 0.159698 0.028426 0.330168
v 0.159698 0.028426 0.330168
v 0.187785 0.028426 0.364392
v 0.187785 0.028426 0.364392
v 0.208656 0.028426 0.403438
v 0.208656 0.028426 0.403438
v 0.221508 0.028426 0.445806
v 0.221508 0.028426 0.445806
v 0.225848 0.028426 0.489866
v 0.225848 0.028426 0.489866
v 0.221508 0.028426 0.533927
v 0.221508 0.028426 0.533927
v 0.208656 0.028426 0.576295
v 0.208656 0.028426 0.576295
v 0.187785 0.028426 0.615341
v 0.187785 0.028426 0.615341
v 0.159698 0.028426 0.649565
v 0.159698 0.028426 0.649565
v 0.125474 0.028426 0.677652
v 0.125474 0.028426 0.677652
v 0.086428 0.028426 0.698523
v 0.086428 0.028426 0.698523
v 0.044061 0.028426 0.711375
v 0.044061 0.028426 0.711375
v -0.000000 0.028426 0.715714
v -0.000000 0.028426 0.715714
v -0.000000 0.028426 0.715714
v -0.044061 0.028426 0.711375
v -0.044061 0.028426 0.711375
v -0.086428 0.028426 0.698523
v -0.086428 0.028426 0.698523
v -0.125475 0.028426 0.677652
v -0.125475 0.028426 0.677652
v -0.159699 0.028426 0.649565
v -0.159699 0.028426 0.649565
v -0.187786 0.028426 0.615341
v -0.187786 0.028426 0.615341
v -0.208656 0.028426 0.576295
v -0.208656 0.028426 0.576295
v -0.221508 0.028426 0.533927
v -0.221508 0.028426 0.533927
v -0.225848 0.028426 0.489866
v -0.225848 0.028426 0.489866
v -0.221508 0.028426 0.445806
v -0.221508 0.028426 0.445806
v -0.208656 0.028426 0.403438
v -0.208656 0.028426 0.403438
v -0.187786 0.028426 0.364392
v -0.187786 0.028426 0.364392
v -0.159699 0.028426 0.330168
v -0.159699 0.028426 0.330168
v -0.125475 0.028426 0.302081
v -0.125475 0.028426 0.302081
v -0.125475 0.028426 0.302081
v -0.125475 0.028426 0.302081
v -0.111029 0.028426 0.154829
v -0.111029 0.028426 0.154829
v 0.111029 0.028426 0.154829
v 0.111029 0.028426 0.154829
v 0.185013 0.028426 0.153774
v 0.185013 0.028426 0.153774
v 0.144499 0.067044 0.154829
v -0.144499 0.067044 0.154829
v 0.185013 0.067044 0.153774
v 0.185013 0.067044 0.153774
v -0.185013 0.067044 0.153774
v -0.185013 0.067044 0.153774
v 0.111029 -0.010191 0.154829
v 0.144499 0.028426 0.154829
v -0.185013 0.028426 0.153774
v -0.185013 0.028426 0.153774
v -0.144499 0.028426 0.154829
v -0.111029 -0.010191 0.154829
v 0.141429 0.028426 0.292141
v 0.141429 0.028426 0.292141
v 0.141429 0.028426 0.292141
v 0.141429 0.028426 0.292141
v 0.180005 0.028426 0.323800
v 0.180005 0.028426 0.323800
v 0.211663 0.028426 0.362375
v 0.211663 0.028426 0.362375
v 0.235187 0.028426 0.406386
v 0.235187 0.028426 0.406386
v 0.249674 0.028426 0.454141
v 0.249674 0.028426 0.454141
v 0.254565 0.028426 0.503804
v 0.254565 0.028426 0.503804
v 0.249674 0.028426 0.553468
v 0.249674 0.028426 0.553468
v 0.235187 0.028426 0.601222
v 0.235187 0.028426 0.601222
v 0.211663 0.028426 0.645233
v 0.211663 0.028426 0.645233
v 0.180005 0.028426 0.683809
v 0.180005 0.028426 0.683809
v 0.141429 0.028426 0.715468
v 0.141429 0.028426 0.715468
v 0.097418 0.028426 0.738992
v 0.097418 0.028426 0.738992
v 0.049663 0.028426 0.753478
v 0.049663 0.028426 0.753478
v -0.000000 0.028426 0.758370
v -0.000000 0.028426 0.758370
v -0.000000 0.028426 0.758370
v -0.049663 0.028426 0.753478
v -0.049663 0.028426 0.753478
v -0.097418 0.028426 0.738992
v -0.097418 0.028426 0.738992
v -0.141429 0.028426 0.715468
v -0.141429 0.028426 0.715468
v -0.180005 0.028426 0.683809
v -0.180005 0.028426 0.683809
v -0.211663 0.028426 0.645233
v -0.211663 0.028426 0.645233
v -0.235188 0.028426 0.601222
v -0.235188 0.028426 0.601222
v -0.249674 0.028426 0.553468
v -0.249674 0.028426 0.553468
v -0.254565 0.028426 0.503804
v -0.254565 0.028426 0.503804
v -0.249674 0.028426 0.454141
v -0.249674 0.028426 0.454141
v -0.235188 0.028426 0.406386
v -0.235188 0.028426 0.406386
v -0.211663 0.028426 0.362375
v -0.211663 0.028426 0.362375
v -0.180005 0.028426 0.323800
v -0.180005 0.028426 0.323800
v -0.141429 0.028426 0.292141
v -0.141429 0.028426 0.292141
v -0.141429 0.028426 0.292141
v -0.141429 0.028426 0.292141
v 0.071496 -0.090886 0.328952
v 0.071496 -0.090886 0.328952
v 0.117208 -0.082986 0.369170
v 0.117208 -0.082986 0.369170
v 0.138256 -0.082986 0.423085
v 0.138256 -0.082986 0.423085
v 0.138256 -0.082986 0.481441
v 0.138256 -0.082986 0.481441
v 0.117208 -0.082986 0.535355
v 0.078316 -0.082986 0.576620
v 0.027501 -0.082986 0.598952
v -0.027501 -0.082986 0.598952
v -0.027501 -0.082986 0.598952
v -0.078316 -0.082986 0.576620
v -0.078316 -0.082986 0.576620
v -0.117208 -0.082986 0.535355
v -0.117208 -0.082986 0.535355
v -0.138256 -0.082986 0.481441
v -0.138256 -0.082986 0.423085
v -0.138256 -0.082986 0.423085
v -0.117208 -0.082986 0.369170
v -0.117208 -0.082986 0.369170
v -0.071496 -0.090886 0.328952
v -0.071496 -0.090886 0.328952
v 0.018423 -0.206685 0.343269
v 0.018423 -0.206685 0.343269
v -0.000000 -0.206685 0.339922
v 0.033456 -0.206685 0.350601
v 0.033456 -0.206685 0.350601
v 0.049492 -0.206685 0.367515
v 0.057669 -0.206685 0.402281
v 0.057042 -0.206685 0.432551
v 0.057042 -0.206685 0.432551
v 0.047938 -0.206685 0.446943
v 0.031839 -0.206685 0.453557
v 0.011146 -0.206685 0.455933
v -0.011146 -0.206685 0.455933
v -0.031839 -0.206685 0.453557
v -0.031839 -0.206685 0.453557
v -0.047938 -0.206685 0.446943
v -0.047938 -0.206685 0.446943
v -0.057042 -0.206685 0.432551
v -0.057670 -0.206685 0.402281
v -0.049493 -0.206685 0.367515
v -0.033456 -0.206685 0.350601
v -0.033456 -0.206685 0.350601
v -0.019484 -0.206685 0.343609
v -0.005416 -0.270852 0.304352
v -0.005416 -0.270852 0.304352
v -0.005416 -0.270852 0.304352
v 0.017683 -0.277330 0.307873
v 0.017683 -0.277330 0.307873
v 0.017683 -0.277330 0.307873
v 0.028755 -0.287590 0.313449
v 0.034401 -0.308681 0.324911
v 0.034401 -0.308681 0.324911
v 0.033967 -0.327043 0.334890
v 0.027682 -0.335774 0.339635
v 0.027682 -0.335774 0.339635
v 0.016567 -0.339786 0.341816
v 0.002280 -0.341227 0.342599
v 0.002280 -0.341227 0.342599
v -0.013111 -0.341227 0.342599
v -0.027398 -0.339786 0.341816
v -0.027398 -0.339786 0.341816
v -0.038513 -0.335774 0.339635
v -0.044799 -0.327043 0.334890
v -0.045232 -0.308681 0.324911
v -0.039586 -0.287590 0.313449
v -0.039586 -0.287590 0.313449
v -0.028514 -0.277330 0.307873
v -0.028514 -0.277330 0.307873
v -0.005416 -0.286110 0.283133
v -0.005416 -0.286110 0.283133
v -0.005416 -0.286110 0.283133
v -0.005416 -0.286110 0.283133
v 0.017683 -0.292921 0.280312
v 0.017683 -0.292921 0.280312
v 0.028755 -0.303710 0.275843
v 0.034401 -0.325886 0.266656
v 0.033967 -0.345194 0.258657
v 0.027682 -0.354374 0.254855
v 0.016567 -0.358593 0.253107
v 0.016567 -0.358593 0.253107
v 0.002280 -0.360109 0.252479
v 0.002280 -0.360109 0.252479
v -0.013111 -0.360109 0.252479
v -0.013111 -0.360109 0.252479
v -0.027398 -0.358593 0.253107
v -0.027398 -0.358593 0.253107
v -0.038513 -0.354374 0.254855
v -0.044799 -0.345194 0.258657
v -0.045232 -0.325886 0.266656
v -0.039586 -0.303710 0.275843
v -0.028514 -0.292921 0.280312
v -0.028514 -0.292921 0.280312
v -0.005416 -0.253938 0.246586
v 0.009811 -0.257165 0.242952
v 0.009811 -0.257165 0.242952
v 0.019405 -0.268754 0.229903
v 0.020546 -0.281933 0.215063
v 0.013047 -0.287198 0.209135
v -0.000343 -0.289000 0.207106
v -0.014896 -0.288664 0.207484
v -0.027234 -0.286283 0.210166
v -0.031490 -0.278349 0.219098
v -0.027942 -0.262277 0.237196
v -0.020643 -0.257165 0.242952
v -0.020643 -0.257165 0.242952
v 0.170105 -0.444389 0.560326
v 0.170105 -0.444389 0.560326
v -0.070460 -0.444389 0.659971
v -0.070460 -0.444389 0.659971
v -0.070460 -0.444389 0.659971
v -0.170105 -0.444389 0.419407
v -0.170105 -0.444389 0.419407
v 0.180582 -0.444389 0.453946
v 0.180582 -0.444389 0.453946
v 0.035920 -0.444389 0.670449
v 0.035920 -0.444389 0.670449
v -0.180582 -0.444389 0.525786
v -0.180582 -0.444389 0.525786
v 0.130192 -0.444389 0.359674
v 0.130192 -0.444389 0.359674
v 0.153090 -0.444389 0.592158
v 0.153090 -0.444389 0.592158
v 0.130192 -0.444389 0.620059
v 0.130192 -0.444389 0.620059
v -0.102292 -0.444389 0.642957
v -0.102292 -0.444389 0.642957
v -0.130193 -0.444389 0.620059
v -0.130193 -0.444389 0.620059
v -0.153090 -0.444389 0.387575
v -0.153090 -0.444389 0.387575
v -0.130193 -0.444389 0.359674
v -0.130193 -0.444389 0.359674
v 0.184120 -0.444389 0.489866
v 0.184120 -0.444389 0.489866
v 0.180582 -0.444389 0.525786
v 0.180582 -0.444389 0.525786
v -0.000000 -0.444389 0.673986
v -0.000000 -0.444389 0.673986
v -0.035920 -0.444389 0.670449
v -0.035920 -0.444389 0.670449
v -0.184120 -0.444389 0.489866
v -0.184120 -0.444389 0.489866
v -0.180582 -0.444389 0.453946
v -0.180582 -0.444389 0.453946
v 0.153090 -0.444389 0.387575
v 0.153090 -0.444389 0.387575
v 0.170105 -0.444389 0.419407
v 0.170105 -0.444389 0.419407
v 0.102291 -0.444389 0.642957
v 0.102291 -0.444389 0.642957
v 0.070460 -0.444389 0.659971
v 0.070460 -0.444389 0.659971
v -0.153090 -0.444389 0.592158
v -0.153090 -0.444389 0.592158
v -0.170105 -0.444389 0.560326
v -0.170105 -0.444389 0.560326
v -0.102292 -0.444389 0.336776
v -0.102292 -0.444389 0.336776
v -0.070460 -0.444389 0.319762
v -0.070460 -0.444389 0.319762
v -0.070460 -0.444389 0.319762
v 0.070460 -0.444389 0.326410
v 0.070460 -0.444389 0.326410
v 0.070460 -0.444389 0.326410
v 0.102291 -0.444389 0.336776
v 0.102291 -0.444389 0.336776
v 0.070460 -0.444389 0.154829
v 0.070460 -0.444389 0.154829
v 0.070460 -0.444389 0.154829
v -0.070460 -0.444389 0.154829
v -0.070460 -0.444389 0.154829
v -0.070460 -0.444389 0.154829
v -0.070460 -0.444389 0.154829
v -0.110263 -0.459165 0.654886
v -0.075950 -0.459165 0.673227
v -0.075950 -0.459165 0.673227
v -0.038719 -0.459165 0.684521
v -0.000000 -0.459165 0.688334
v 0.038719 -0.459165 0.684521
v 0.075950 -0.459165 0.673227
v 0.110263 -0.459165 0.654886
v 0.140338 -0.459165 0.630204
v 0.165020 -0.459165 0.600129
v 0.183360 -0.459165 0.565817
v 0.194654 -0.459165 0.528586
v 0.198468 -0.459165 0.489866
v 0.194654 -0.459165 0.451147
v 0.183360 -0.459165 0.413916
v 0.165020 -0.459165 0.379604
v 0.140338 -0.459165 0.349529
v 0.109271 -0.459165 0.324032
v 0.084738 -0.459165 0.316043
v 0.084738 -0.459165 0.316043
v 0.084738 -0.459165 0.140551
v 0.084738 -0.459165 0.140551
v -0.084738 -0.459165 0.140551
v -0.084738 -0.459165 0.140551
v -0.084738 -0.459165 0.311204
v -0.084738 -0.459165 0.311204
v 0.183360 -0.444389 0.565817
v 0.183360 -0.444389 0.565817
v -0.075950 -0.444389 0.673227
v -0.075950 -0.444389 0.673227
v -0.075950 -0.444389 0.673227
v -0.075950 -0.444389 0.673227
v -0.183360 -0.444389 0.413916
v -0.183360 -0.444389 0.413916
v -0.183360 -0.459165 0.413916
v 0.194654 -0.444389 0.451147
v 0.194654 -0.444389 0.451147
v 0.038719 -0.444389 0.684521
v 0.038719 -0.444389 0.684521
v -0.194654 -0.444389 0.528586
v -0.194654 -0.444389 0.528586
v -0.194654 -0.459165 0.528586
v 0.140338 -0.444389 0.349529
v 0.140338 -0.444389 0.349529
v 0.140338 -0.444389 0.630204
v 0.140338 -0.444389 0.630204
v -0.140338 -0.444389 0.630204
v -0.140338 -0.444389 0.630204
v -0.140338 -0.459165 0.630204
v -0.140338 -0.444389 0.349529
v -0.140338 -0.444389 0.349529
v -0.140338 -0.459165 0.349529
v 0.194654 -0.444389 0.528586
v 0.194654 -0.444389 0.528586
v -0.038719 -0.444389 0.684521
v -0.038719 -0.444389 0.684521
v -0.194654 -0.444389 0.451147
v -0.194654 -0.444389 0.451147
v -0.194654 -0.459165 0.451147
v 0.183360 -0.444389 0.413916
v 0.183360 -0.444389 0.413916
v 0.075950 -0.444389 0.673227
v 0.075950 -0.444389 0.673227
v -0.183360 -0.444389 0.565817
v -0.183360 -0.444389 0.565817
v -0.183360 -0.459165 0.565817
v -0.084738 -0.444389 0.311204
v -0.084738 -0.444389 0.311204
v -0.084738 -0.444389 0.311204
v 0.109271 -0.444389 0.324032
v 0.109271 -0.444389 0.324032
v -0.165020 -0.459165 0.600129
v -0.198468 -0.459165 0.489866
v -0.165020 -0.459165 0.379604
v -0.110263 -0.459165 0.324847
v 0.165020 -0.444389 0.600129
v 0.165020 -0.444389 0.600129
v -0.110263 -0.444389 0.654886
v -0.110263 -0.444389 0.654886
v -0.165020 -0.444389 0.379604
v -0.165020 -0.444389 0.379604
v 0.198468 -0.444389 0.489866
v 0.198468 -0.444389 0.489866
v -0.000000 -0.444389 0.688334
v -0.000000 -0.444389 0.688334
v -0.198468 -0.444389 0.489866
v -0.198468 -0.444389 0.489866
v 0.165020 -0.444389 0.379604
v 0.165020 -0.444389 0.379604
v 0.110263 -0.444389 0.654886
v 0.110263 -0.444389 0.654886
v -0.165020 -0.444389 0.600129
v -0.165020 -0.444389 0.600129
v -0.110263 -0.444389 0.324847
v -0.110263 -0.444389 0.324847
v 0.084738 -0.444389 0.316043
v 0.084738 -0.444389 0.316043
v 0.084738 -0.444389 0.316043
v 0.084738 -0.444389 0.140551
v 0.084738 -0.444389 0.140551
v 0.084738 -0.444389 0.140551
v -0.084738 -0.444389 0.140551
v -0.084738 -0.444389 0.140551
v -0.084738 -0.444389 0.140551
v -0.084738 -0.444389 0.140551
v -0.074081 -0.439973 0.276116
v -0.074081 -0.439973 0.283372
v -0.081337 -0.439973 0.276116
v -0.081337 -0.439973 0.283372
v -0.073286 -0.439006 0.279744
v -0.073286 -0.444389 0.275321
v -0.073286 -0.444389 0.284167
v -0.077709 -0.439006 0.284167
v -0.082132 -0.444389 0.284167
v -0.082132 -0.439006 0.279744
v -0.082132 -0.444389 0.275321
v -0.077709 -0.439006 0.275321
v -0.071617 -0.444389 0.279744
v -0.077709 -0.444389 0.285835
v -0.083800 -0.444389 0.279744
v -0.077709 -0.444389 0.273652
v -0.077709 -0.436975 0.279744
v 0.074044 -0.439973 0.276116
v 0.074044 -0.439973 0.283372
v 0.081300 -0.439973 0.276116
v 0.081300 -0.439973 0.283372
v 0.073248 -0.439006 0.279744
v 0.073248 -0.444389 0.275321
v 0.073248 -0.444389 0.284167
v 0.077672 -0.439006 0.284167
v 0.082095 -0.444389 0.284167
v 0.082095 -0.439006 0.279744
v 0.082095 -0.444389 0.275321
v 0.077672 -0.439006 0.275321
v 0.071580 -0.444389 0.279744
v 0.077672 -0.444389 0.285835
v 0.083763 -0.444389 0.279744
v 0.077672 -0.444389 0.273652
v 0.077672 -0.436975 0.279744
v -0.074081 -0.439973 0.188405
v -0.074081 -0.439973 0.181149
v -0.081337 -0.439973 0.188405
v -0.081337 -0.439973 0.181149
v -0.073286 -0.439006 0.184777
v -0.073286 -0.444389 0.189200
v -0.073286 -0.444389 0.180354
v -0.077709 -0.439006 0.180354
v -0.082132 -0.444389 0.180354
v -0.082132 -0.439006 0.184777
v -0.082132 -0.444389 0.189200
v -0.077709 -0.439006 0.189200
v -0.071617 -0.444389 0.184777
v -0.077709 -0.444389 0.178685
v -0.083800 -0.444389 0.184777
v -0.077709 -0.444389 0.190868
v -0.077709 -0.436975 0.184777
v 0.074044 -0.439973 0.188405
v 0.074044 -0.439973 0.181149
v 0.081300 -0.439973 0.188405
v 0.081300 -0.439973 0.181149
v 0.073248 -0.439006 0.184777
v 0.073248 -0.444389 0.189200
v 0.073248 -0.444389 0.180354
v 0.077672 -0.439006 0.180354
v 0.082095 -0.444389 0.180354
v 0.082095 -0.439006 0.184777
v 0.082095 -0.444389 0.189200
v 0.077672 -0.439006 0.189200
v 0.071580 -0.444389 0.184777
v 0.077672 -0.444389 0.178685
v 0.083763 -0.444389 0.184777
v 0.077672 -0.444389 0.190868
v 0.077672 -0.436975 0.184777
vt 0.681236 0.306077
vt 0.220628 0.996094
vt 0.443018 0.305760
vt 0.744692 0.187359
vt 0.360577 0.996094
vt 0.733823 0.132720
vt 0.416557 0.996094
vt 0.720629 0.108035
vt 0.444547 0.996094
vt 0.681236 0.068641
vt 0.500526 0.996094
vt 0.574056 0.047322
vt 0.612486 0.996094
vt 0.500950 0.086398
vt 0.696455 0.996094
vt 0.461875 0.215215
vt 0.836405 0.996094
vt 0.500950 0.288321
vt 0.920374 0.996094
vt 0.703815 0.339869
vt 0.731610 0.317058
vt 0.314929 0.914775
vt 0.405664 0.050063
vt 0.754421 0.289263
vt 0.405664 0.074434
vt 0.771371 0.257552
vt 0.405664 0.098704
vt 0.781808 0.223143
vt 0.405664 0.124320
vt 0.785333 0.187359
vt 0.405664 0.149294
vt 0.781808 0.151575
vt 0.405664 0.173629
vt 0.771371 0.117167
vt 0.405664 0.197664
vt 0.754421 0.085455
vt 0.405664 0.221582
vt 0.731610 0.057660
vt 0.405664 0.245512
vt 0.703815 0.034850
vt 0.405664 0.269515
vt 0.672104 0.017900
vt 0.405664 0.293599
vt 0.637695 0.007462
vt 0.405664 0.317747
vt 0.405664 0.341929
vt 0.601911 0.003937
vt 0.566128 0.007462
vt 0.405664 0.366110
vt 0.531719 0.017900
vt 0.405664 0.390258
vt 0.500008 0.034850
vt 0.405664 0.414342
vt 0.472213 0.057660
vt 0.405664 0.438345
vt 0.449402 0.085455
vt 0.405664 0.462275
vt 0.432452 0.117167
vt 0.405664 0.486193
vt 0.422014 0.151575
vt 0.405664 0.510229
vt 0.418490 0.187359
vt 0.405664 0.534564
vt 0.422014 0.223143
vt 0.405664 0.559538
vt 0.432452 0.257552
vt 0.405664 0.585154
vt 0.449402 0.289263
vt 0.405664 0.609423
vt 0.472213 0.317058
vt 0.405664 0.633795
vt 0.481004 0.880877
vt 0.500008 0.339869
vt 0.348328 0.003906
vt 0.932060 0.892283
vt 0.184879 0.003906
vt 0.813341 0.958885
vt 0.224925 0.003906
vt 0.835745 0.930619
vt 0.266935 0.003906
vt 0.864878 0.908994
vt 0.307496 0.003906
vt 0.897284 0.896534
vt 0.348328 0.025833
vt 0.184879 0.025833
vt 0.224925 0.025833
vt 0.266935 0.025833
vt 0.307496 0.025833
vt 0.348328 0.050063
vt 0.184879 0.050063
vt 0.224925 0.050063
vt 0.266935 0.050063
vt 0.307496 0.050063
vt 0.348328 0.098704
vt 0.184879 0.098704
vt 0.224925 0.098704
vt 0.266935 0.098704
vt 0.307496 0.098704
vt 0.348328 0.149294
vt 0.184879 0.149294
vt 0.224925 0.149294
vt 0.266935 0.149294
vt 0.307496 0.149294
vt 0.348328 0.197664
vt 0.184879 0.197664
vt 0.224925 0.197664
vt 0.266935 0.197664
vt 0.307496 0.197664
vt 0.348328 0.245512
vt 0.184879 0.245512
vt 0.224925 0.245512
vt 0.266935 0.245512
vt 0.307496 0.245512
vt 0.348328 0.293599
vt 0.184879 0.293599
vt 0.224925 0.293599
vt 0.266935 0.293599
vt 0.307496 0.293599
vt 0.348328 0.341929
vt 0.184879 0.341929
vt 0.224925 0.341929
vt 0.266935 0.341929
vt 0.307496 0.341929
vt 0.348328 0.390258
vt 0.184879 0.390258
vt 0.224925 0.390258
vt 0.266935 0.390258
vt 0.307496 0.390258
vt 0.348328 0.438345
vt 0.184879 0.438345
vt 0.224925 0.438345
vt 0.266935 0.438345
vt 0.307496 0.438345
vt 0.348328 0.486193
vt 0.184879 0.486193
vt 0.224925 0.486193
vt 0.266935 0.486193
vt 0.307496 0.486193
vt 0.348328 0.534564
vt 0.184879 0.534564
vt 0.224925 0.534564
vt 0.266935 0.534564
vt 0.307496 0.534564
vt 0.348328 0.585154
vt 0.184879 0.585154
vt 0.224925 0.585154
vt 0.266935 0.585154
vt 0.307496 0.585154
vt 0.348328 0.633795
vt 0.184879 0.633795
vt 0.224925 0.633795
vt 0.266935 0.633795
vt 0.307496 0.633795
vt 0.348328 0.657949
vt 0.184879 0.657949
vt 0.224925 0.657949
vt 0.266935 0.657949
vt 0.307496 0.657949
vt 0.348328 0.680144
vt 0.851268 0.526010
vt 0.184879 0.680144
vt 0.788870 0.409592
vt 0.224925 0.680144
vt 0.814716 0.430955
vt 0.266935 0.680144
vt 0.834548 0.458796
vt 0.307496 0.680144
vt 0.847015 0.491218
vt 0.055889 0.880314
vt 0.967671 0.526010
vt 0.055889 0.730860
vt 0.932059 0.775936
vt 0.092645 0.732720
vt 0.897283 0.775936
vt 0.128156 0.738176
vt 0.864878 0.784805
vt 0.162709 0.746854
vt 0.837050 0.801960
vt 0.197040 0.758164
vt 0.815697 0.826436
vt 0.197040 0.853009
vt 0.917146 0.409592
vt 0.092645 0.878453
vt 0.967671 0.491217
vt 0.128156 0.872998
vt 0.958798 0.458796
vt 0.162709 0.864319
vt 0.941634 0.430955
vt 0.837050 0.849626
vt 0.893945 0.491217
vt 0.864878 0.849626
vt 0.003906 0.897194
vt 0.515863 0.472330
vt 0.897284 0.849626
vt 0.893945 0.430955
vt 0.893945 0.458796
vt 0.221551 0.758164
vt 0.221551 0.758164
vt 0.815697 0.849626
vt 0.221551 0.853009
vt 0.221551 0.853009
vt 0.893945 0.409592
vt 0.003906 0.713980
vt 0.687959 0.472330
vt 0.003906 0.692938
vt 0.707724 0.472330
vt 0.468209 0.914775
vt 0.003906 0.918235
vt 0.496099 0.472330
vt 0.634284 0.880877
vt 0.376996 0.098704
vt 0.376996 0.585154
vt 0.376996 0.149294
vt 0.376996 0.197664
vt 0.376996 0.245512
vt 0.376996 0.293599
vt 0.376996 0.341929
vt 0.376996 0.390258
vt 0.376996 0.438345
vt 0.376996 0.486193
vt 0.376996 0.534564
vt 0.029898 0.918235
vt 0.634284 0.857850
vt 0.634284 0.857850
vt 0.029898 0.692938
vt 0.468209 0.891748
vt 0.468209 0.891748
vt 0.029898 0.880314
vt 0.634284 0.808079
vt 0.967671 0.550612
vt 0.481004 0.857850
vt 0.376996 0.633795
vt 0.481004 0.857850
vt 0.029898 0.897194
vt 0.634284 0.835210
vt 0.029898 0.713980
vt 0.468209 0.869109
vt 0.360529 0.841978
vt 0.376996 0.003906
vt 0.956650 0.892283
vt 0.340180 0.869109
vt 0.376996 0.025833
vt 0.314929 0.891748
vt 0.314929 0.891748
vt 0.376996 0.050063
vt 0.506254 0.835210
vt 0.376996 0.657949
vt 0.526603 0.808079
vt 0.376996 0.680144
vt 0.851268 0.550613
vt 0.029898 0.730860
vt 0.468209 0.841978
vt 0.956650 0.775935
vt 0.702872 0.288321
vt 0.248618 0.996094
vt 0.720629 0.266683
vt 0.276607 0.996094
vt 0.733823 0.241999
vt 0.304597 0.996094
vt 0.741948 0.215215
vt 0.332587 0.996094
vt 0.741948 0.159504
vt 0.388567 0.996094
vt 0.702872 0.086398
vt 0.472536 0.996094
vt 0.656551 0.055447
vt 0.528516 0.996094
vt 0.629766 0.047322
vt 0.556506 0.996094
vt 0.584496 0.996094
vt 0.601911 0.044579
vt 0.547271 0.055447
vt 0.640476 0.996094
vt 0.522587 0.068641
vt 0.668466 0.996094
vt 0.483194 0.108035
vt 0.724445 0.996094
vt 0.469999 0.132720
vt 0.752435 0.996094
vt 0.461874 0.159504
vt 0.780425 0.996094
vt 0.459131 0.187359
vt 0.808415 0.996094
vt 0.469999 0.241999
vt 0.864395 0.996094
vt 0.483194 0.266683
vt 0.892384 0.996094
vt 0.522587 0.306077
vt 0.443018 0.464409
vt 0.948364 0.996094
vt 0.398824 0.657755
vt 0.906739 0.003906
vt 0.220628 0.971680
vt 0.418604 0.305760
vt 0.906739 0.030273
vt 0.248618 0.971680
vt 0.906739 0.056792
vt 0.276607 0.971680
vt 0.906739 0.083201
vt 0.304597 0.971680
vt 0.906739 0.111074
vt 0.332587 0.971680
vt 0.906739 0.138250
vt 0.360577 0.971680
vt 0.906739 0.164730
vt 0.388567 0.971680
vt 0.906739 0.190884
vt 0.416557 0.971680
vt 0.906739 0.216910
vt 0.444547 0.971680
vt 0.906739 0.242949
vt 0.472536 0.971680
vt 0.906739 0.269068
vt 0.500526 0.971680
vt 0.906739 0.295275
vt 0.528516 0.971680
vt 0.906739 0.321551
vt 0.556506 0.971680
vt 0.584496 0.971680
vt 0.379746 0.692938
vt 0.906739 0.347864
vt 0.353955 0.692938
vt 0.612486 0.971680
vt 0.328200 0.692938
vt 0.640476 0.971680
vt 0.302513 0.692938
vt 0.668465 0.971680
vt 0.276912 0.692938
vt 0.696455 0.971680
vt 0.251389 0.692938
vt 0.724445 0.971680
vt 0.225879 0.692938
vt 0.752435 0.971680
vt 0.200244 0.692938
vt 0.780425 0.971680
vt 0.174290 0.692938
vt 0.808415 0.971680
vt 0.147653 0.692938
vt 0.836405 0.971680
vt 0.120333 0.692938
vt 0.864395 0.971680
vt 0.094448 0.692938
vt 0.892384 0.971680
vt 0.068455 0.692938
vt 0.920374 0.971680
vt 0.042692 0.692938
vt 0.398824 0.816404
vt 0.418604 0.464409
vt 0.948364 0.971680
vt 0.566083 0.808079
vt 0.893945 0.550613
vt 0.400008 0.841978
vt 0.956650 0.849626
vt 0.400008 0.891748
vt 0.400008 0.891748
vt 0.693264 0.399168
vt 0.510559 0.399168
vt 0.718876 0.399835
vt 0.400008 0.914775
vt 0.484947 0.399835
vt 0.566083 0.880877
vt 0.932059 0.849626
vt 0.400008 0.869109
vt 0.566083 0.857850
vt 0.566083 0.857850
vt 0.566083 0.835210
vt 0.893945 0.526010
vt 0.392540 0.647669
vt 0.929229 0.003906
vt 0.418459 0.485124
vt 0.625736 0.268207
vt 0.929229 0.030273
vt 0.418459 0.497014
vt 0.929229 0.056792
vt 0.418459 0.508972
vt 0.929229 0.083201
vt 0.418459 0.520880
vt 0.929229 0.111074
vt 0.418459 0.533449
vt 0.929229 0.138250
vt 0.418459 0.545703
vt 0.929229 0.164730
vt 0.418459 0.557644
vt 0.929229 0.190884
vt 0.418459 0.569437
vt 0.929229 0.216910
vt 0.418459 0.581173
vt 0.929229 0.242949
vt 0.418459 0.592915
vt 0.929229 0.269068
vt 0.418459 0.604693
vt 0.929229 0.295275
vt 0.418459 0.616510
vt 0.929229 0.321551
vt 0.418459 0.628359
vt 0.379746 0.715889
vt 0.929229 0.347864
vt 0.418459 0.640224
vt 0.353955 0.715889
vt 0.418459 0.652089
vt 0.328200 0.715889
vt 0.418459 0.663937
vt 0.302513 0.715889
vt 0.418459 0.675755
vt 0.276912 0.715889
vt 0.418459 0.687532
vt 0.251389 0.715889
vt 0.418459 0.699274
vt 0.225879 0.715889
vt 0.418459 0.711009
vt 0.200244 0.715889
vt 0.418459 0.722803
vt 0.174290 0.715889
vt 0.418459 0.734743
vt 0.147653 0.715889
vt 0.418459 0.746997
vt 0.120333 0.715889
vt 0.418459 0.759566
vt 0.094448 0.715889
vt 0.418459 0.771475
vt 0.068455 0.715889
vt 0.418459 0.783433
vt 0.042692 0.715889
vt 0.392540 0.826491
vt 0.418459 0.795285
vt 0.514873 0.268207
vt 0.532236 0.485124
vt 0.625736 0.219391
vt 0.532236 0.508972
vt 0.532236 0.508972
vt 0.532236 0.533449
vt 0.532236 0.533449
vt 0.532236 0.557644
vt 0.532236 0.557644
vt 0.532236 0.581173
vt 0.532236 0.604693
vt 0.532236 0.628359
vt 0.532236 0.652089
vt 0.532236 0.652089
vt 0.532236 0.675755
vt 0.532236 0.675755
vt 0.532236 0.699274
vt 0.532236 0.699274
vt 0.532236 0.722803
vt 0.532236 0.746997
vt 0.532236 0.746997
vt 0.532236 0.771475
vt 0.532236 0.771475
vt 0.514873 0.219391
vt 0.532236 0.795285
vt 0.600853 0.173833
vt 0.600853 0.173833
vt 0.570407 0.173833
vt 0.625736 0.173833
vt 0.638421 0.485124
vt 0.638421 0.508972
vt 0.638421 0.533449
vt 0.638421 0.557644
vt 0.638421 0.557644
vt 0.638421 0.581173
vt 0.638421 0.604693
vt 0.638421 0.628359
vt 0.638421 0.652089
vt 0.638421 0.675755
vt 0.638421 0.675755
vt 0.638421 0.699274
vt 0.638421 0.699274
vt 0.638421 0.722803
vt 0.638421 0.746997
vt 0.638421 0.771475
vt 0.514873 0.173833
vt 0.638421 0.795285
vt 0.538154 0.173833
vt 0.569631 0.134030
vt 0.570407 0.134428
vt 0.571108 0.133973
vt 0.625736 0.134428
vt 0.730265 0.485124
vt 0.730265 0.485124
vt 0.730265 0.508972
vt 0.730265 0.533449
vt 0.730265 0.533449
vt 0.730265 0.557644
vt 0.730265 0.581173
vt 0.730265 0.581173
vt 0.730265 0.604693
vt 0.730265 0.628359
vt 0.730265 0.628359
vt 0.730265 0.652089
vt 0.730265 0.675755
vt 0.730265 0.675755
vt 0.730265 0.699274
vt 0.730265 0.722803
vt 0.730265 0.746997
vt 0.730265 0.771475
vt 0.730265 0.771475
vt 0.514873 0.134428
vt 0.730265 0.795285
vt 0.570377 0.115652
vt 0.570427 0.115632
vt 0.570377 0.115652
vt 0.570427 0.115632
vt 0.625736 0.115572
vt 0.774213 0.485124
vt 0.774213 0.508972
vt 0.774213 0.533449
vt 0.774213 0.557644
vt 0.774213 0.581173
vt 0.774213 0.604693
vt 0.774213 0.604693
vt 0.774213 0.628359
vt 0.774213 0.628359
vt 0.774213 0.652089
vt 0.774213 0.652089
vt 0.774213 0.675755
vt 0.774213 0.675755
vt 0.774213 0.699274
vt 0.774213 0.722803
vt 0.774213 0.746997
vt 0.774213 0.771475
vt 0.514873 0.115572
vt 0.774213 0.795285
vt 0.570407 0.094895
vt 0.625736 0.094895
vt 0.822405 0.485124
vt 0.822405 0.524061
vt 0.822405 0.557644
vt 0.822405 0.591945
vt 0.822405 0.628359
vt 0.822405 0.663164
vt 0.822405 0.699274
vt 0.822405 0.732280
vt 0.822405 0.771475
vt 0.514873 0.094895
vt 0.822405 0.795285
vt 0.362492 0.931030
vt 0.003906 0.197664
vt 0.550385 0.931030
vt 0.942023 0.384251
vt 0.003906 0.390258
vt 0.942023 0.180557
vt 0.003906 0.585154
vt 0.290994 0.931030
vt 0.003906 0.124320
vt 0.479658 0.931030
vt 0.003906 0.317747
vt 0.942023 0.258767
vt 0.003906 0.510229
vt 0.218652 0.931030
vt 0.003906 0.050063
vt 0.385834 0.931030
vt 0.003906 0.221582
vt 0.409187 0.931030
vt 0.003906 0.245512
vt 0.942023 0.359064
vt 0.003906 0.414342
vt 0.942023 0.333959
vt 0.003906 0.438345
vt 0.942023 0.155187
vt 0.003906 0.609423
vt 0.942023 0.129717
vt 0.003906 0.633795
vt 0.315313 0.931030
vt 0.003906 0.149294
vt 0.339041 0.931030
vt 0.003906 0.173629
vt 0.003906 0.341929
vt 0.503244 0.931030
vt 0.526830 0.931030
vt 0.003906 0.366110
vt 0.942023 0.233332
vt 0.003906 0.534564
vt 0.942023 0.207263
vt 0.003906 0.559538
vt 0.242413 0.931030
vt 0.003906 0.074434
vt 0.266080 0.931030
vt 0.003906 0.098704
vt 0.432608 0.931030
vt 0.003906 0.269515
vt 0.456104 0.931030
vt 0.003906 0.293599
vt 0.942023 0.308926
vt 0.003906 0.462275
vt 0.942023 0.283904
vt 0.003906 0.486193
vt 0.942023 0.104454
vt 0.003906 0.657949
vt 0.942023 0.081154
vt 0.003906 0.680144
vt 0.788869 0.249392
vt 0.173600 0.931030
vt 0.003906 0.003906
vt 0.655574 0.958885
vt 0.195013 0.931030
vt 0.003906 0.025833
vt 0.333063 0.758164
vt 0.101536 0.931030
vt 0.655574 0.849627
vt 0.333063 0.853009
vt 0.003906 0.931030
vt 0.942023 0.003906
vt 0.893944 0.249391
vt 0.960962 0.359064
vt 0.550385 0.950980
vt 0.960962 0.384251
vt 0.526830 0.950980
vt 0.503244 0.950980
vt 0.479658 0.950980
vt 0.456104 0.950980
vt 0.432608 0.950980
vt 0.409187 0.950980
vt 0.385834 0.950980
vt 0.362492 0.950980
vt 0.339041 0.950980
vt 0.315313 0.950980
vt 0.290994 0.950980
vt 0.266080 0.950980
vt 0.242413 0.950980
vt 0.218652 0.950980
vt 0.195013 0.950980
vt 0.173600 0.950980
vt 0.173600 0.950980
vt 0.101536 0.950980
vt 0.101536 0.950980
vt 0.003906 0.950980
vt 0.960962 0.003906
vt 0.960962 0.081154
vt 0.960962 0.081154
vt 0.362492 0.941031
vt 0.362492 0.941031
vt 0.550385 0.941031
vt 0.951518 0.384251
vt 0.550385 0.941031
vt 0.951518 0.384251
vt 0.951518 0.180557
vt 0.951518 0.180557
vt 0.960962 0.180557
vt 0.290994 0.941032
vt 0.290994 0.941032
vt 0.479658 0.941032
vt 0.479658 0.941032
vt 0.951518 0.258767
vt 0.951518 0.258767
vt 0.960962 0.258767
vt 0.218652 0.941032
vt 0.218652 0.941032
vt 0.409187 0.941032
vt 0.409187 0.941032
vt 0.951518 0.333959
vt 0.951518 0.333959
vt 0.960962 0.333959
vt 0.951518 0.129717
vt 0.951518 0.129717
vt 0.960962 0.129717
vt 0.339041 0.941032
vt 0.339041 0.941032
vt 0.526830 0.941032
vt 0.526830 0.941032
vt 0.951518 0.207263
vt 0.951518 0.207263
vt 0.960962 0.207263
vt 0.266080 0.941032
vt 0.266080 0.941032
vt 0.456104 0.941032
vt 0.456104 0.941032
vt 0.951518 0.283904
vt 0.951518 0.283904
vt 0.960962 0.283904
vt 0.951518 0.081154
vt 0.951518 0.081154
vt 0.951518 0.081154
vt 0.195013 0.941031
vt 0.195013 0.941031
vt 0.960962 0.308926
vt 0.960962 0.233332
vt 0.960962 0.155187
vt 0.960962 0.104454
vt 0.385834 0.941032
vt 0.385834 0.941032
vt 0.951518 0.359064
vt 0.951518 0.359064
vt 0.951518 0.155187
vt 0.951518 0.155187
vt 0.315313 0.941031
vt 0.315313 0.941031
vt 0.503244 0.941032
vt 0.503244 0.941032
vt 0.951518 0.233332
vt 0.951518 0.233332
vt 0.242413 0.941031
vt 0.242413 0.941031
vt 0.432608 0.941032
vt 0.432608 0.941032
vt 0.951518 0.308926
vt 0.951518 0.308926
vt 0.951518 0.104454
vt 0.951518 0.104454
vt 0.173600 0.941032
vt 0.173600 0.941032
vt 0.173600 0.941032
vt 0.101536 0.941032
vt 0.101536 0.941032
vt 0.101536 0.941032
vt 0.003906 0.941031
vt 0.003906 0.941031
vt 0.951518 0.003906
vt 0.951518 0.003906
vt 0.031603 0.976072
vt 0.027705 0.984705
vt 0.022971 0.972173
vt 0.019072 0.980806
vt 0.029946 0.980520
vt 0.039567 0.973064
vt 0.030713 0.992668
vt 0.023256 0.983047
vt 0.011108 0.983814
vt 0.020729 0.976358
vt 0.019963 0.964210
vt 0.027419 0.973830
vt 0.039567 0.984865
vt 0.018911 0.992668
vt 0.011108 0.972012
vt 0.031764 0.964210
vt 0.025338 0.978439
vt 0.031603 0.976072
vt 0.027705 0.984705
vt 0.022971 0.972173
vt 0.019072 0.980806
vt 0.029946 0.980520
vt 0.039567 0.973064
vt 0.030713 0.992668
vt 0.023256 0.983047
vt 0.011108 0.983814
vt 0.020729 0.976358
vt 0.019963 0.964210
vt 0.027419 0.973830
vt 0.039567 0.984865
vt 0.018911 0.992668
vt 0.011108 0.972012
vt 0.031764 0.964210
vt 0.025338 0.978439
vt 0.031603 0.976072
vt 0.027705 0.984705
vt 0.022971 0.972173
vt 0.019072 0.980806
vt 0.029946 0.980520
vt 0.039567 0.973064
vt 0.030713 0.992668
vt 0.023256 0.983047
vt 0.011108 0.983814
vt 0.020729 0.976358
vt 0.019963 0.964210
vt 0.027419 0.973830
vt 0.039567 0.984865
vt 0.018911 0.992668
vt 0.011108 0.972012
vt 0.031764 0.964210
vt 0.025338 0.978439
vt 0.031603 0.976072
vt 0.027705 0.984705
vt 0.022971 0.972173
vt 0.019072 0.980806
vt 0.029946 0.980520
vt 0.039567 0.973064
vt 0.030713 0.992668
vt 0.023256 0.983047
vt 0.011108 0.983814
vt 0.020729 0.976358
vt 0.019963 0.964210
vt 0.027419 0.973830
vt 0.039567 0.984865
vt 0.018911 0.992668
vt 0.011108 0.972012
vt 0.031764 0.964210
vt 0.025338 0.978439
f 357/357 356/356 204/204
f 357/357 204/204 193/193
f 232/232 149/149 144/144
f 232/232 144/144 212/212
f 94/94 211/211 213/213
f 94/94 213/213 99/99
f 214/214 37/37 215/215
f 145/145 150/150 560/560
f 215/215 41/41 216/216
f 145/145 542/542 574/574
f 216/216 45/45 217/217
f 140/140 145/145 574/574
f 217/217 49/49 218/218
f 140/140 572/572 548/548
f 218/218 53/53 219/219
f 135/135 140/140 548/548
f 219/219 57/57 220/220
f 584/584 558/558 130/130
f 220/220 61/61 221/221
f 586/586 584/584 135/135
f 245/245 23/23 25/25
f 130/130 558/558 556/556
f 288/288 1/1 20/20
f 288/288 20/20 73/73
f 1/1 254/254 21/21
f 1/1 21/21 20/20
f 254/254 256/256 24/24
f 254/254 24/24 21/21
f 256/256 258/258 26/26
f 256/256 26/26 24/24
f 258/258 260/260 28/28
f 258/258 28/28 26/26
f 260/260 4/4 30/30
f 260/260 30/30 28/28
f 4/4 262/262 32/32
f 4/4 32/32 30/30
f 262/262 6/6 34/34
f 262/262 34/34 32/32
f 6/6 8/8 36/36
f 6/6 36/36 34/34
f 8/8 264/264 38/38
f 8/8 38/38 36/36
f 264/264 10/10 40/40
f 264/264 40/40 38/38
f 10/10 266/266 42/42
f 10/10 42/42 40/40
f 266/266 268/268 44/44
f 266/266 44/44 42/42
f 268/268 271/271 47/47
f 268/268 47/47 44/44
f 271/271 12/12 48/48
f 271/271 48/48 47/47
f 12/12 272/272 50/50
f 12/12 50/50 48/48
f 272/272 274/274 52/52
f 272/272 52/52 50/50
f 274/274 14/14 54/54
f 274/274 54/54 52/52
f 14/14 276/276 56/56
f 14/14 56/56 54/54
f 276/276 278/278 58/58
f 276/276 58/58 56/56
f 278/278 280/280 60/60
f 278/278 60/60 58/58
f 280/280 282/282 62/62
f 280/280 62/62 60/60
f 282/282 16/16 64/64
f 282/282 64/64 62/62
f 16/16 284/284 66/66
f 16/16 66/66 64/64
f 284/284 286/286 68/68
f 284/284 68/68 66/66
f 286/286 18/18 70/70
f 286/286 70/70 68/68
f 18/18 288/288 73/73
f 18/18 73/73 70/70
f 189/189 199/199 180/180
f 189/189 180/180 178/178
f 196/196 190/190 184/184
f 196/196 184/184 186/186
f 74/74 84/84 88/88
f 74/74 88/88 82/82
f 82/82 88/88 87/87
f 82/82 87/87 80/80
f 80/80 87/87 86/86
f 80/80 86/86 78/78
f 78/78 86/86 85/85
f 78/78 85/85 76/76
f 84/84 89/89 93/93
f 84/84 93/93 88/88
f 88/88 93/93 92/92
f 88/88 92/92 87/87
f 87/87 92/92 91/91
f 87/87 91/91 86/86
f 86/86 91/91 90/90
f 86/86 90/90 85/85
f 93/93 98/98 97/97
f 93/93 97/97 92/92
f 92/92 97/97 96/96
f 92/92 96/96 91/91
f 91/91 96/96 95/95
f 91/91 95/95 90/90
f 94/94 99/99 103/103
f 94/94 103/103 98/98
f 98/98 103/103 102/102
f 98/98 102/102 97/97
f 97/97 102/102 101/101
f 97/97 101/101 96/96
f 96/96 101/101 100/100
f 96/96 100/100 95/95
f 99/99 104/104 108/108
f 99/99 108/108 103/103
f 103/103 108/108 107/107
f 103/103 107/107 102/102
f 102/102 107/107 106/106
f 102/102 106/106 101/101
f 101/101 106/106 105/105
f 101/101 105/105 100/100
f 104/104 109/109 113/113
f 104/104 113/113 108/108
f 108/108 113/113 112/112
f 108/108 112/112 107/107
f 107/107 112/112 111/111
f 107/107 111/111 106/106
f 106/106 111/111 110/110
f 106/106 110/110 105/105
f 109/109 114/114 118/118
f 109/109 118/118 113/113
f 113/113 118/118 117/117
f 113/113 117/117 112/112
f 112/112 117/117 116/116
f 112/112 116/116 111/111
f 111/111 116/116 115/115
f 111/111 115/115 110/110
f 114/114 119/119 123/123
f 114/114 123/123 118/118
f 118/118 123/123 122/122
f 118/118 122/122 117/117
f 117/117 122/122 121/121
f 117/117 121/121 116/116
f 116/116 121/121 120/120
f 116/116 120/120 115/115
f 119/119 124/124 128/128
f 119/119 128/128 123/123
f 123/123 128/128 127/127
f 123/123 127/127 122/122
f 122/122 127/127 126/126
f 122/122 126/126 121/121
f 121/121 126/126 125/125
f 121/121 125/125 120/120
f 124/124 129/129 133/133
f 124/124 133/133 128/128
f 213/213 33/33 214/214
f 566/566 564/564 100/100
f 110/110 115/115 580/580
f 128/128 133/133 132/132
f 128/128 132/132 127/127
f 127/127 132/132 131/131
f 127/127 131/131 126/126
f 126/126 131/131 130/130
f 126/126 130/130 125/125
f 129/129 134/134 138/138
f 129/129 138/138 133/133
f 100/100 105/105 566/566
f 105/105 537/537 566/566
f 576/576 550/550 90/90
f 95/95 100/100 544/544
f 133/133 138/138 137/137
f 133/133 137/137 132/132
f 132/132 137/137 136/136
f 132/132 136/136 131/131
f 131/131 136/136 135/135
f 131/131 135/135 130/130
f 134/134 139/139 143/143
f 134/134 143/143 138/138
f 155/155 588/588 562/562
f 155/155 562/562 150/150
f 161/161 590/590 588/588
f 161/161 588/588 155/155
f 77/77 594/594 599/599
f 77/77 599/599 199/199
f 138/138 143/143 142/142
f 138/138 142/142 137/137
f 137/137 142/142 141/141
f 137/137 141/141 136/136
f 136/136 141/141 140/140
f 136/136 140/140 135/135
f 139/139 144/144 148/148
f 139/139 148/148 143/143
f 90/90 550/550 596/596
f 90/90 596/596 85/85
f 232/232 212/212 69/69
f 71/71 232/232 69/69
f 213/213 211/211 29/29
f 580/580 554/554 110/110
f 110/110 554/554 552/552
f 143/143 148/148 147/147
f 143/143 147/147 142/142
f 142/142 147/147 146/146
f 142/142 146/146 141/141
f 141/141 146/146 145/145
f 141/141 145/145 140/140
f 144/144 149/149 153/153
f 144/144 153/153 148/148
f 546/546 582/582 115/115
f 29/29 31/31 213/213
f 212/212 221/221 65/65
f 65/65 67/67 212/212
f 33/33 35/35 214/214
f 115/115 120/120 546/546
f 570/570 567/567 120/120
f 148/148 153/153 152/152
f 148/148 152/152 147/147
f 147/147 152/152 151/151
f 147/147 151/151 146/146
f 146/146 151/151 150/150
f 146/146 150/150 145/145
f 99/99 213/213 214/214
f 99/99 214/214 104/104
f 191/191 189/189 178/178
f 191/191 178/178 176/176
f 95/95 578/578 576/576
f 31/31 33/33 213/213
f 211/211 245/245 25/25
f 27/27 211/211 25/25
f 61/61 63/63 221/221
f 556/556 540/540 125/125
f 35/35 37/37 214/214
f 149/149 154/154 158/158
f 149/149 158/158 153/153
f 153/153 158/158 157/157
f 153/153 157/157 152/152
f 152/152 157/157 156/156
f 152/152 156/156 151/151
f 151/151 156/156 155/155
f 151/151 155/155 150/150
f 135/135 584/584 130/130
f 105/105 110/110 552/552
f 154/154 159/159 167/167
f 154/154 167/167 158/158
f 158/158 167/167 165/165
f 158/158 165/165 157/157
f 157/157 165/165 163/163
f 157/157 163/163 156/156
f 156/156 163/163 161/161
f 156/156 161/161 155/155
f 548/548 586/586 135/135
f 115/115 582/582 580/580
f 194/194 191/191 176/176
f 194/194 176/176 174/174
f 574/574 572/572 140/140
f 90/90 95/95 576/576
f 202/202 195/195 188/188
f 202/202 188/188 182/182
f 560/560 542/542 145/145
f 100/100 564/564 544/544
f 150/150 562/562 560/560
f 192/192 203/203 236/236
f 192/192 236/236 251/251
f 228/228 234/234 192/192
f 251/251 228/228 192/192
f 552/552 537/537 105/105
f 139/139 221/221 212/212
f 139/139 212/212 144/144
f 43/43 45/45 216/216
f 37/37 39/39 215/215
f 39/39 41/41 215/215
f 41/41 43/43 216/216
f 557/557 583/583 695/695
f 557/557 695/695 650/650
f 561/561 587/587 697/697
f 561/561 697/697 653/653
f 565/565 536/536 630/630
f 565/565 630/630 656/656
f 168/168 160/160 367/367
f 168/168 367/367 190/190
f 569/569 538/538 632/632
f 569/569 632/632 658/658
f 195/195 196/196 186/186
f 195/195 186/186 188/188
f 573/573 541/541 636/636
f 573/573 636/636 660/660
f 577/577 543/543 639/639
f 577/577 639/639 663/663
f 581/581 545/545 641/641
f 581/581 641/641 665/665
f 585/585 547/547 643/643
f 585/585 643/643 667/667
f 595/595 549/549 646/646
f 595/595 646/646 673/673
f 551/551 553/553 648/648
f 551/551 648/648 679/679
f 169/169 171/171 173/173
f 169/169 173/173 183/183
f 183/183 173/173 175/175
f 183/183 175/175 185/185
f 185/185 175/175 177/177
f 185/185 177/177 187/187
f 187/187 177/177 179/179
f 187/187 179/179 181/181
f 164/164 166/166 196/196
f 164/164 196/196 195/195
f 162/162 164/164 195/195
f 162/162 195/195 202/202
f 83/83 81/81 191/191
f 83/83 191/191 194/194
f 233/233 72/72 361/361
f 233/233 361/361 365/365
f 81/81 79/79 189/189
f 81/81 189/189 191/191
f 166/166 168/168 190/190
f 166/166 190/190 196/196
f 79/79 77/77 199/199
f 79/79 199/199 189/189
f 591/591 162/162 202/202
f 591/591 202/202 603/603
f 201/201 181/181 179/179
f 201/201 179/179 198/198
f 75/75 83/83 194/194
f 75/75 194/194 362/362
f 20/20 21/21 358/358
f 20/20 358/358 356/356
f 222/222 208/208 192/192
f 222/222 192/192 234/234
f 73/73 357/357 360/360
f 73/73 360/360 70/70
f 205/205 225/225 236/236
f 205/205 236/236 203/203
f 22/22 244/244 355/355
f 22/22 355/355 359/359
f 221/221 63/63 65/65
f 211/211 27/27 29/29
f 544/544 578/578 95/95
f 212/212 67/67 69/69
f 228/228 251/251 171/171
f 228/228 171/171 169/169
f 125/125 540/540 570/570
f 120/120 567/567 546/546
f 211/211 94/94 89/89
f 211/211 89/89 245/245
f 45/45 46/46 217/217
f 134/134 220/220 221/221
f 134/134 221/221 139/139
f 46/46 49/49 217/217
f 129/129 219/219 220/220
f 129/129 220/220 134/134
f 49/49 51/51 218/218
f 124/124 218/218 219/219
f 124/124 219/219 129/129
f 51/51 53/53 218/218
f 119/119 217/217 218/218
f 119/119 218/218 124/124
f 53/53 55/55 219/219
f 114/114 216/216 217/217
f 114/114 217/217 119/119
f 55/55 57/57 219/219
f 109/109 215/215 216/216
f 109/109 216/216 114/114
f 57/57 59/59 220/220
f 104/104 214/214 215/215
f 104/104 215/215 109/109
f 59/59 61/61 220/220
f 120/120 125/125 570/570
f 125/125 130/130 556/556
f 84/84 74/74 239/239
f 84/84 239/239 242/242
f 159/159 154/154 247/247
f 159/159 247/247 249/249
f 154/154 149/149 232/232
f 154/154 232/232 247/247
f 89/89 84/84 242/242
f 89/89 242/242 245/245
f 75/75 362/362 353/353
f 75/75 353/353 240/240
f 170/170 367/367 351/351
f 170/170 351/351 230/230
f 241/241 238/238 352/352
f 241/241 352/352 363/363
f 226/226 354/354 363/363
f 226/226 363/363 237/237
f 229/229 350/350 366/366
f 229/229 366/366 235/235
f 235/235 366/366 364/364
f 235/235 364/364 223/223
f 270/270 269/269 318/318
f 270/270 318/318 319/319
f 290/290 19/19 345/345
f 290/290 345/345 349/349
f 289/289 348/348 294/294
f 289/289 294/294 3/3
f 13/13 270/270 319/319
f 13/13 319/319 323/323
f 255/255 2/2 293/293
f 255/255 293/293 296/296
f 273/273 13/13 323/323
f 273/273 323/323 325/325
f 257/257 255/255 296/296
f 257/257 296/296 298/298
f 275/275 273/273 325/325
f 275/275 325/325 327/327
f 259/259 257/257 298/298
f 259/259 298/298 300/300
f 15/15 275/275 327/327
f 15/15 327/327 329/329
f 261/261 259/259 300/300
f 261/261 300/300 302/302
f 277/277 15/15 329/329
f 277/277 329/329 331/331
f 5/5 261/261 302/302
f 5/5 302/302 304/304
f 279/279 277/277 331/331
f 279/279 331/331 333/333
f 263/263 5/5 304/304
f 263/263 304/304 306/306
f 281/281 279/279 333/333
f 281/281 333/333 335/335
f 7/7 263/263 306/306
f 7/7 306/306 308/308
f 283/283 281/281 335/335
f 283/283 335/335 337/337
f 9/9 7/7 308/308
f 9/9 308/308 310/310
f 17/17 283/283 337/337
f 17/17 337/337 339/339
f 265/265 9/9 310/310
f 265/265 310/310 312/312
f 285/285 17/17 339/339
f 285/285 339/339 341/341
f 11/11 265/265 312/312
f 11/11 312/312 314/314
f 287/287 285/285 341/341
f 287/287 341/341 343/343
f 267/267 11/11 314/314
f 267/267 314/314 316/316
f 19/19 287/287 343/343
f 19/19 343/343 345/345
f 269/269 267/267 316/316
f 269/269 316/316 318/318
f 351/351 367/367 160/160
f 351/351 160/160 250/250
f 421/421 423/423 346/346
f 421/421 346/346 344/344
f 419/419 421/421 344/344
f 419/419 344/344 342/342
f 417/417 419/419 342/342
f 417/417 342/342 340/340
f 415/415 417/417 340/340
f 415/415 340/340 338/338
f 413/413 415/415 338/338
f 413/413 338/338 336/336
f 411/411 413/413 336/336
f 411/411 336/336 334/334
f 409/409 411/411 334/334
f 409/409 334/334 332/332
f 407/407 409/409 332/332
f 407/407 332/332 330/330
f 405/405 407/407 330/330
f 405/405 330/330 328/328
f 403/403 405/405 328/328
f 403/403 328/328 326/326
f 401/401 403/403 326/326
f 401/401 326/326 324/324
f 399/399 401/401 324/324
f 399/399 324/324 322/322
f 396/396 399/399 322/322
f 396/396 322/322 320/320
f 394/394 397/397 321/321
f 394/394 321/321 317/317
f 392/392 394/394 317/317
f 392/392 317/317 315/315
f 390/390 392/392 315/315
f 390/390 315/315 313/313
f 388/388 390/390 313/313
f 388/388 313/313 311/311
f 386/386 388/388 311/311
f 386/386 311/311 309/309
f 384/384 386/386 309/309
f 384/384 309/309 307/307
f 382/382 384/384 307/307
f 382/382 307/307 305/305
f 380/380 382/382 305/305
f 380/380 305/305 303/303
f 378/378 380/380 303/303
f 378/378 303/303 301/301
f 376/376 378/378 301/301
f 376/376 301/301 299/299
f 374/374 376/376 299/299
f 374/374 299/299 297/297
f 372/372 374/374 297/297
f 372/372 297/297 295/295
f 369/369 372/372 295/295
f 369/369 295/295 292/292
f 424/424 368/368 291/291
f 424/424 291/291 347/347
f 393/393 391/391 436/436
f 420/420 418/418 447/447
f 422/422 420/420 447/447
f 422/422 447/447 450/450
f 395/395 393/393 436/436
f 395/395 436/436 437/437
f 200/200 197/197 597/597
f 200/200 597/597 600/600
f 425/425 422/422 450/450
f 398/398 395/395 437/437
f 426/426 449/449 428/428
f 426/426 428/428 371/371
f 400/400 398/398 437/437
f 400/400 437/437 439/439
f 373/373 370/370 427/427
f 373/373 427/427 429/429
f 402/402 400/400 438/438
f 375/375 373/373 430/430
f 404/404 402/402 438/438
f 404/404 438/438 441/441
f 377/377 375/375 430/430
f 377/377 430/430 432/432
f 406/406 404/404 440/440
f 379/379 377/377 431/431
f 408/408 406/406 440/440
f 408/408 440/440 442/442
f 381/381 379/379 431/431
f 381/381 431/431 433/433
f 410/410 408/408 443/443
f 383/383 381/381 433/433
f 412/412 410/410 443/443
f 412/412 443/443 444/444
f 385/385 383/383 434/434
f 414/414 412/412 444/444
f 414/414 444/444 446/446
f 387/387 385/385 434/434
f 387/387 434/434 435/435
f 416/416 414/414 445/445
f 389/389 387/387 435/435
f 418/418 416/416 445/445
f 418/418 445/445 448/448
f 391/391 389/389 435/435
f 391/391 435/435 436/436
f 451/451 454/454 428/428
f 441/441 438/438 463/463
f 441/441 463/463 464/464
f 432/432 430/430 456/456
f 432/432 456/456 457/457
f 442/442 440/440 465/465
f 442/442 465/465 467/467
f 433/433 431/431 457/457
f 433/433 457/457 459/459
f 444/444 443/443 466/466
f 444/444 466/466 468/468
f 446/446 444/444 468/468
f 446/446 468/468 469/469
f 435/435 434/434 458/458
f 435/435 458/458 460/460
f 448/448 445/445 469/469
f 448/448 469/469 470/470
f 436/436 435/435 460/460
f 436/436 460/460 461/461
f 450/450 447/447 470/470
f 450/450 470/470 472/472
f 437/437 436/436 461/461
f 437/437 461/461 462/462
f 449/449 471/471 473/473
f 453/453 452/452 428/428
f 428/428 449/449 453/453
f 439/439 437/437 462/462
f 439/439 462/462 463/463
f 429/429 427/427 455/455
f 429/429 455/455 456/456
f 449/449 473/473 453/453
f 459/459 482/482 483/483
f 468/468 466/466 492/492
f 468/468 492/492 493/493
f 469/469 468/468 493/493
f 460/460 458/458 483/483
f 460/460 483/483 484/484
f 469/469 493/493 494/494
f 470/470 469/469 494/494
f 461/461 460/460 485/485
f 461/461 485/485 486/486
f 470/470 494/494 495/495
f 452/452 453/453 476/476
f 472/472 470/470 496/496
f 462/462 461/461 486/486
f 462/462 486/486 487/487
f 472/472 496/496 498/498
f 454/454 451/451 476/476
f 454/454 476/476 477/477
f 473/473 471/471 497/497
f 473/473 497/497 474/474
f 463/463 462/462 488/488
f 463/463 488/488 489/489
f 456/456 455/455 478/478
f 456/456 478/478 480/480
f 453/453 473/473 475/475
f 464/464 463/463 489/489
f 464/464 489/489 490/490
f 457/457 456/456 480/480
f 457/457 480/480 481/481
f 467/467 465/465 491/491
f 467/467 491/491 492/492
f 459/459 457/457 482/482
f 494/494 519/519 520/520
f 494/494 520/520 495/495
f 487/487 486/486 509/509
f 487/487 509/509 511/511
f 498/498 495/495 520/520
f 498/498 520/520 522/522
f 489/489 487/487 511/511
f 489/489 511/511 513/513
f 480/480 479/479 504/504
f 480/480 504/504 505/505
f 477/477 476/476 502/502
f 477/477 502/502 503/503
f 474/474 497/497 521/521
f 474/474 521/521 501/501
f 490/490 489/489 513/513
f 490/490 513/513 516/516
f 481/481 480/480 505/505
f 481/481 505/505 506/506
f 492/492 490/490 516/516
f 492/492 516/516 517/517
f 483/483 481/481 506/506
f 483/483 506/506 507/507
f 493/493 492/492 517/517
f 493/493 517/517 518/518
f 484/484 483/483 507/507
f 484/484 507/507 508/508
f 494/494 493/493 518/518
f 494/494 518/518 519/519
f 512/512 510/510 528/528
f 512/512 528/528 529/529
f 522/522 520/520 533/533
f 522/522 533/533 535/535
f 514/514 512/512 529/529
f 514/514 529/529 530/530
f 505/505 504/504 525/525
f 505/505 525/525 526/526
f 503/503 500/500 523/523
f 503/503 523/523 524/524
f 499/499 521/521 534/534
f 499/499 534/534 523/523
f 515/515 514/514 530/530
f 506/506 505/505 526/526
f 517/517 515/515 530/530
f 517/517 530/530 531/531
f 507/507 506/506 526/526
f 507/507 526/526 527/527
f 518/518 517/517 531/531
f 518/518 531/531 532/532
f 508/508 507/507 527/527
f 508/508 527/527 528/528
f 519/519 518/518 532/532
f 510/510 508/508 528/528
f 520/520 519/519 532/532
f 520/520 532/532 533/533
f 360/360 357/357 193/193
f 360/360 193/193 209/209
f 363/363 352/352 252/252
f 363/363 252/252 237/237
f 363/363 354/354 243/243
f 363/363 243/243 241/241
f 190/190 367/367 170/170
f 190/190 170/170 184/184
f 366/366 350/350 248/248
f 366/366 248/248 246/246
f 73/73 20/20 356/356
f 73/73 356/356 357/357
f 364/364 366/366 246/246
f 364/364 246/246 231/231
f 359/359 355/355 227/227
f 359/359 227/227 207/207
f 365/365 361/361 210/210
f 365/365 210/210 224/224
f 362/362 194/194 174/174
f 362/362 174/174 172/172
f 356/356 358/358 206/206
f 356/356 206/206 204/204
f 353/353 362/362 172/172
f 353/353 172/172 253/253
f 555/555 557/557 650/650
f 555/555 650/650 681/681
f 559/559 561/561 653/653
f 559/559 653/653 683/683
f 631/631 680/680 613/613
f 631/631 613/613 614/614
f 635/635 682/682 604/604
f 635/635 604/604 606/606
f 637/637 684/684 677/677
f 637/637 677/677 638/638
f 640/640 686/686 616/616
f 640/640 616/616 617/617
f 642/642 687/687 608/608
f 642/642 608/608 609/609
f 644/644 690/690 676/676
f 644/644 676/676 645/645
f 647/647 692/692 619/619
f 647/647 619/619 620/620
f 649/649 694/694 611/611
f 649/649 611/611 612/612
f 651/651 696/696 675/675
f 651/651 675/675 652/652
f 654/654 698/698 678/678
f 654/654 678/678 655/655
f 657/657 631/631 614/614
f 657/657 614/614 615/615
f 659/659 634/634 605/605
f 659/659 605/605 607/607
f 661/661 637/637 638/638
f 661/661 638/638 662/662
f 664/664 640/640 617/617
f 664/664 617/617 618/618
f 666/666 642/642 609/609
f 666/666 609/609 610/610
f 668/668 644/644 645/645
f 668/668 645/645 669/669
f 674/674 647/647 620/620
f 674/674 620/620 621/621
f 680/680 649/649 612/612
f 680/680 612/612 613/613
f 682/682 651/651 652/652
f 682/682 652/652 604/604
f 684/684 654/654 655/655
f 684/684 655/655 677/677
f 686/686 657/657 615/615
f 686/686 615/615 616/616
f 687/687 659/659 607/607
f 687/687 607/607 608/608
f 690/690 661/661 662/662
f 690/690 662/662 676/676
f 692/692 664/664 618/618
f 692/692 618/618 619/619
f 694/694 666/666 610/610
f 694/694 610/610 611/611
f 696/696 668/668 669/669
f 696/696 669/669 675/675
f 698/698 671/671 628/628
f 698/698 628/628 678/678
f 700/700 674/674 621/621
f 700/700 621/621 622/622
f 701/701 623/623 625/625
f 701/701 625/625 704/704
f 624/624 626/626 705/705
f 624/624 705/705 702/702
f 629/629 672/672 708/708
f 629/629 708/708 627/627
f 553/553 579/579 693/693
f 553/553 693/693 648/648
f 549/549 575/575 691/691
f 549/549 691/691 646/646
f 601/601 598/598 703/703
f 601/601 703/703 706/706
f 547/547 571/571 689/689
f 547/547 689/689 643/643
f 545/545 568/568 688/688
f 545/545 688/688 641/641
f 543/543 563/563 685/685
f 543/543 685/685 639/639
f 598/598 592/592 699/699
f 598/598 699/699 703/703
f 541/541 559/559 683/683
f 541/541 683/683 636/636
f 589/589 602/602 707/707
f 589/589 707/707 670/670
f 539/539 555/555 681/681
f 539/539 681/681 633/633
f 592/592 595/595 673/673
f 592/592 673/673 699/699
f 536/536 551/551 679/679
f 536/536 679/679 630/630
f 587/587 589/589 670/670
f 587/587 670/670 697/697
f 583/583 585/585 667/667
f 583/583 667/667 695/695
f 579/579 581/581 665/665
f 579/579 665/665 693/693
f 575/575 577/577 663/663
f 575/575 663/663 691/691
f 571/571 573/573 660/660
f 571/571 660/660 689/689
f 568/568 569/569 658/658
f 568/568 658/658 688/688
f 563/563 565/565 656/656
f 563/563 656/656 685/685
f 85/85 596/596 593/593
f 85/85 593/593 76/76
f 484/484 508/508 509/509
f 484/484 509/509 486/486
f 89/89 94/94 98/98
f 89/89 98/98 93/93
f 709/709 713/713 721/721
f 709/709 721/721 714/714
f 713/713 710/710 715/715
f 713/713 715/715 721/721
f 710/710 716/716 722/722
f 710/710 722/722 715/715
f 716/716 712/712 717/717
f 716/716 717/717 722/722
f 712/712 718/718 723/723
f 712/712 723/723 717/717
f 718/718 711/711 719/719
f 718/718 719/719 723/723
f 711/711 720/720 724/724
f 711/711 724/724 719/719
f 720/720 709/709 714/714
f 720/720 714/714 724/724
f 710/710 713/713 725/725
f 710/710 725/725 716/716
f 716/716 725/725 718/718
f 716/716 718/718 712/712
f 725/725 720/720 711/711
f 725/725 711/711 718/718
f 713/713 709/709 720/720
f 713/713 720/720 725/725
f 726/726 731/731 738/738
f 726/726 738/738 730/730
f 730/730 738/738 732/732
f 730/730 732/732 727/727
f 727/727 732/732 739/739
f 727/727 739/739 733/733
f 733/733 739/739 734/734
f 733/733 734/734 729/729
f 729/729 734/734 740/740
f 729/729 740/740 735/735
f 735/735 740/740 736/736
f 735/735 736/736 728/728
f 728/728 736/736 741/741
f 728/728 741/741 737/737
f 737/737 741/741 731/731
f 737/737 731/731 726/726
f 727/727 733/733 742/742
f 727/727 742/742 730/730
f 733/733 729/729 735/735
f 733/733 735/735 742/742
f 742/742 735/735 728/728
f 742/742 728/728 737/737
f 730/730 742/742 737/737
f 730/730 737/737 726/726
f 743/743 748/748 755/755
f 743/743 755/755 747/747
f 747/747 755/755 749/749
f 747/747 749/749 744/744
f 744/744 749/749 756/756
f 744/744 756/756 750/750
f 750/750 756/756 751/751
f 750/750 751/751 746/746
f 746/746 751/751 757/757
f 746/746 757/757 752/752
f 752/752 757/757 753/753
f 752/752 753/753 745/745
f 745/745 753/753 758/758
f 745/745 758/758 754/754
f 754/754 758/758 748/748
f 754/754 748/748 743/743
f 744/744 750/750 759/759
f 744/744 759/759 747/747
f 750/750 746/746 752/752
f 750/750 752/752 759/759
f 759/759 752/752 745/745
f 759/759 745/745 754/754
f 747/747 759/759 754/754
f 747/747 754/754 743/743
f 760/760 764/764 772/772
f 760/760 772/772 765/765
f 764/764 761/761 766/766
f 764/764 766/766 772/772
f 761/761 767/767 773/773
f 761/761 773/773 766/766
f 767/767 763/763 768/768
f 767/767 768/768 773/773
f 763/763 769/769 774/774
f 763/763 774/774 768/768
f 769/769 762/762 770/770
f 769/769 770/770 774/774
f 762/762 771/771 775/775
f 762/762 775/775 770/770
f 771/771 760/760 765/765
f 771/771 765/765 775/775
f 761/761 764/764 776/776
f 761/761 776/776 767/767
f 767/767 776/776 769/769
f 767/767 769/769 763/763
f 776/776 771/771 762/762
f 776/776 762/762 769/769
f 764/764 760/760 771/771
f 764/764 771/771 776/776
