# CC0 albedo mesh for MuJoCo kit_cam rooms
v 0.000000 -0.257974 0.424024
v 0.000000 -0.257974 0.424024
v 0.000000 -0.257974 0.424024
v -0.035505 -0.254477 0.424024
v -0.035505 -0.254477 0.424024
v 0.000000 -0.309776 0.424024
v 0.000000 -0.309776 0.424024
v 0.000000 -0.309776 0.424024
v 0.035505 -0.254477 0.424024
v 0.035505 -0.254477 0.424024
v 0.000000 -0.256096 0.430298
v 0.000000 -0.256096 0.430298
v 0.000000 -0.257974 0.436573
v 0.000000 -0.257974 0.436573
v 0.035138 -0.252636 0.430298
v -0.035138 -0.252636 0.430298
v -0.035505 -0.254477 0.436573
v -0.068926 -0.242386 0.430298
v -0.069645 -0.244120 0.436573
v -0.069645 -0.244120 0.424024
v -0.069645 -0.244120 0.424024
v -0.100066 -0.225742 0.430298
v -0.101109 -0.227303 0.436573
v -0.101109 -0.227303 0.424024
v -0.101109 -0.227303 0.424024
v -0.127359 -0.203342 0.430298
v -0.128687 -0.204670 0.436573
v -0.128687 -0.204670 0.424024
v -0.128687 -0.204670 0.424024
v -0.149759 -0.176049 0.430298
v -0.151320 -0.177091 0.436573
v -0.151320 -0.177091 0.424024
v -0.151320 -0.177091 0.424024
v -0.166403 -0.144909 0.430298
v -0.168137 -0.145628 0.436573
v -0.168137 -0.145628 0.424024
v -0.168137 -0.145628 0.424024
v -0.176653 -0.111121 0.430298
v -0.178494 -0.111487 0.436573
v -0.178494 -0.111487 0.424024
v -0.178494 -0.111487 0.424024
v -0.180113 -0.075983 0.430298
v -0.181991 -0.075983 0.436573
v -0.181991 -0.075983 0.424024
v -0.181991 -0.075983 0.424024
v -0.176653 -0.040844 0.430298
v -0.178494 -0.040478 0.436573
v -0.178494 -0.040478 0.424024
v -0.178494 -0.040478 0.424024
v -0.166403 -0.007056 0.430298
v -0.168137 -0.006338 0.436573
v -0.168137 -0.006338 0.424024
v -0.168137 -0.006338 0.424024
v -0.149759 0.024083 0.430298
v -0.151320 0.025126 0.436573
v -0.151320 0.025126 0.424024
v -0.151320 0.025126 0.424024
v -0.127359 0.051377 0.430298
v -0.128687 0.052704 0.436573
v -0.128687 0.052704 0.424024
v -0.128687 0.052704 0.424024
v -0.100476 0.073569 0.430298
v -0.100476 0.073569 0.430298
v -0.101109 0.075337 0.436573
v -0.101109 0.075337 0.436573
v -0.101109 0.075337 0.424024
v -0.101109 0.075337 0.424024
v -0.101109 0.075337 0.424024
v 0.100476 0.073569 0.430298
v 0.101109 0.075337 0.436573
v 0.101109 0.075337 0.424024
v 0.101109 0.075337 0.424024
v 0.127359 0.051377 0.430298
v 0.128687 0.052704 0.436573
v 0.128687 0.052704 0.424024
v 0.128687 0.052704 0.424024
v 0.149759 0.024083 0.430298
v 0.151320 0.025126 0.436573
v 0.151320 0.025126 0.424024
v 0.151320 0.025126 0.424024
v 0.166403 -0.007056 0.430298
v 0.168137 -0.006338 0.436573
v 0.168137 -0.006338 0.424024
v 0.168137 -0.006338 0.424024
v 0.176653 -0.040844 0.430298
v 0.178494 -0.040478 0.436573
v 0.178494 -0.040478 0.424024
v 0.178494 -0.040478 0.424024
v 0.180114 -0.075983 0.430298
v 0.181991 -0.075983 0.436573
v 0.181991 -0.075983 0.424024
v 0.181991 -0.075983 0.424024
v 0.176653 -0.111121 0.430298
v 0.178494 -0.111487 0.436573
v 0.178494 -0.111487 0.424024
v 0.178494 -0.111487 0.424024
v 0.166403 -0.144909 0.430298
v 0.168138 -0.145628 0.436573
v 0.168138 -0.145628 0.424024
v 0.168138 -0.145628 0.424024
v 0.149759 -0.176049 0.430298
v 0.151320 -0.177091 0.436573
v 0.151320 -0.177091 0.424024
v 0.151320 -0.177091 0.424024
v 0.127359 -0.203342 0.430298
v 0.128687 -0.204670 0.436573
v 0.128687 -0.204670 0.424024
v 0.128687 -0.204670 0.424024
v 0.100066 -0.225742 0.430298
v 0.101109 -0.227303 0.436573
v 0.101109 -0.227303 0.424024
v 0.101109 -0.227303 0.424024
v 0.068926 -0.242386 0.430298
v 0.069645 -0.244120 0.436573
v 0.069645 -0.244120 0.424024
v 0.069645 -0.244120 0.424024
v 0.089469 -0.291979 0.424024
v 0.089469 -0.291979 0.424024
v 0.045611 -0.305283 0.424024
v 0.045611 -0.305283 0.424024
v 0.129888 -0.270374 0.424024
v 0.129888 -0.270374 0.424024
v 0.090187 -0.293714 0.430298
v 0.089469 -0.291979 0.436573
v 0.089469 -0.291979 0.436573
v 0.130931 -0.271935 0.430298
v 0.045977 -0.307124 0.430298
v 0.045611 -0.305283 0.436573
v 0.045611 -0.305283 0.436573
v 0.000000 -0.311653 0.430298
v 0.000000 -0.311653 0.430298
v 0.000000 -0.309776 0.436573
v 0.000000 -0.309776 0.436573
v 0.000000 -0.309776 0.436573
v -0.045977 -0.307125 0.430298
v -0.045611 -0.305283 0.424024
v -0.045611 -0.305283 0.424024
v -0.045611 -0.305283 0.436573
v -0.045611 -0.305283 0.436573
v -0.090187 -0.293714 0.430298
v -0.089469 -0.291979 0.424024
v -0.089469 -0.291979 0.424024
v -0.089469 -0.291979 0.436573
v -0.089469 -0.291979 0.436573
v -0.130931 -0.271935 0.430298
v -0.129888 -0.270375 0.424024
v -0.129888 -0.270375 0.424024
v -0.129888 -0.270375 0.436573
v -0.129888 -0.270375 0.436573
v -0.166644 -0.242627 0.430298
v -0.165316 -0.241299 0.424024
v -0.165316 -0.241299 0.424024
v -0.165316 -0.241299 0.436573
v -0.165316 -0.241299 0.436573
v -0.195952 -0.206914 0.430298
v -0.194392 -0.205871 0.424024
v -0.194392 -0.205871 0.424024
v -0.194392 -0.205871 0.436573
v -0.194392 -0.205871 0.436573
v -0.217731 -0.166170 0.430298
v -0.215996 -0.165452 0.424024
v -0.215996 -0.165452 0.424024
v -0.215996 -0.165452 0.436573
v -0.215996 -0.165452 0.436573
v -0.231142 -0.121960 0.430298
v -0.229301 -0.121594 0.424024
v -0.229301 -0.121594 0.424024
v -0.229301 -0.121594 0.436573
v -0.229301 -0.121594 0.436573
v -0.235670 -0.075983 0.430298
v -0.233793 -0.075983 0.424024
v -0.233793 -0.075983 0.424024
v -0.233793 -0.075983 0.436573
v -0.233793 -0.075983 0.436573
v -0.231142 -0.030006 0.430298
v -0.229301 -0.030372 0.424024
v -0.229301 -0.030372 0.424024
v -0.229301 -0.030372 0.436573
v -0.229301 -0.030372 0.436573
v -0.217731 0.014204 0.430298
v -0.215996 0.013486 0.424024
v -0.215996 0.013486 0.424024
v -0.215996 0.013486 0.436573
v -0.215996 0.013486 0.436573
v -0.195952 0.054948 0.430298
v -0.194392 0.053905 0.424024
v -0.194392 0.053905 0.424024
v -0.194392 0.053905 0.436573
v -0.194392 0.053905 0.436573
v -0.167016 0.090131 0.430298
v -0.165316 0.089334 0.424024
v -0.165316 0.089334 0.424024
v -0.165316 0.089334 0.436573
v -0.165316 0.089334 0.436573
v -0.160921 0.118409 0.430298
v -0.160921 0.118409 0.430298
v -0.159726 0.118409 0.424024
v -0.159726 0.118409 0.424024
v -0.159726 0.118409 0.424024
v -0.159726 0.118409 0.436573
v -0.159726 0.118409 0.436573
v -0.139834 0.119736 0.430298
v -0.139834 0.119736 0.430298
v -0.139834 0.118409 0.436573
v -0.139834 0.118409 0.436573
v -0.139834 0.118409 0.436573
v -0.139834 0.118409 0.424024
v -0.139834 0.118409 0.424024
v -0.139834 0.118409 0.424024
v -0.139834 0.131085 0.430298
v -0.139834 0.131085 0.430298
v -0.139834 0.129757 0.436573
v -0.139834 0.129757 0.436573
v -0.139834 0.129757 0.436573
v -0.139834 0.129757 0.424024
v -0.139834 0.129757 0.424024
v -0.139834 0.129757 0.424024
v -0.129888 0.131085 0.430298
v -0.129888 0.131085 0.430298
v -0.129888 0.129757 0.424024
v -0.129888 0.129757 0.424024
v -0.129888 0.129757 0.424024
v -0.129888 0.129757 0.436573
v -0.129888 0.129757 0.436573
v -0.129888 0.129757 0.436573
v -0.129888 0.119736 0.430298
v -0.129888 0.119736 0.430298
v -0.129888 0.118409 0.424024
v -0.129888 0.118409 0.424024
v -0.129888 0.118409 0.424024
v -0.129888 0.118409 0.436573
v -0.129888 0.118409 0.436573
v -0.129888 0.118409 0.436573
v 0.129889 0.119736 0.430298
v 0.129889 0.119736 0.430298
v 0.129889 0.118409 0.424024
v 0.129889 0.118409 0.424024
v 0.129889 0.118409 0.424024
v 0.129889 0.118409 0.436573
v 0.129889 0.118409 0.436573
v 0.129889 0.118409 0.436573
v 0.129888 0.133448 0.430298
v 0.129888 0.133448 0.430298
v 0.129888 0.132121 0.424024
v 0.129888 0.132121 0.424024
v 0.129888 0.132121 0.424024
v 0.129888 0.132121 0.436573
v 0.129888 0.132121 0.436573
v 0.129888 0.132121 0.436573
v 0.139834 0.133448 0.430298
v 0.139834 0.133448 0.430298
v 0.139834 0.132121 0.436573
v 0.139834 0.132121 0.436573
v 0.139834 0.132121 0.436573
v 0.139834 0.132121 0.424024
v 0.139834 0.132121 0.424024
v 0.139834 0.132121 0.424024
v 0.139834 0.118408 0.430298
v 0.139834 0.118408 0.430298
v 0.139834 0.118408 0.436573
v 0.139834 0.118408 0.436573
v 0.139834 0.118408 0.436573
v 0.139834 0.118408 0.424024
v 0.139834 0.118408 0.424024
v 0.139834 0.118408 0.424024
v 0.160921 0.118409 0.430298
v 0.160921 0.118409 0.430298
v 0.159726 0.118409 0.424024
v 0.159726 0.118409 0.424024
v 0.159726 0.118409 0.424024
v 0.159726 0.118409 0.436573
v 0.159726 0.118409 0.436573
v 0.159726 0.118409 0.436573
v 0.167016 0.090131 0.430298
v 0.165316 0.089334 0.424024
v 0.165316 0.089334 0.424024
v 0.165316 0.089334 0.436573
v 0.165316 0.089334 0.436573
v 0.195952 0.054948 0.430298
v 0.194392 0.053906 0.424024
v 0.194392 0.053906 0.424024
v 0.194392 0.053906 0.436573
v 0.194392 0.053906 0.436573
v 0.217731 0.014204 0.430298
v 0.215996 0.013486 0.424024
v 0.215996 0.013486 0.424024
v 0.215996 0.013486 0.436573
v 0.215996 0.013486 0.436573
v 0.231142 -0.030006 0.430298
v 0.229301 -0.030372 0.424024
v 0.229301 -0.030372 0.424024
v 0.229301 -0.030372 0.436573
v 0.229301 -0.030372 0.436573
v 0.235670 -0.075983 0.430298
v 0.233793 -0.075983 0.424024
v 0.233793 -0.075983 0.424024
v 0.233793 -0.075983 0.436573
v 0.233793 -0.075983 0.436573
v 0.231142 -0.121960 0.430298
v 0.229301 -0.121594 0.424024
v 0.229301 -0.121594 0.424024
v 0.229301 -0.121594 0.436573
v 0.229301 -0.121594 0.436573
v 0.217731 -0.166170 0.430298
v 0.215996 -0.165451 0.424024
v 0.215996 -0.165451 0.424024
v 0.215996 -0.165451 0.436573
v 0.215996 -0.165451 0.436573
v 0.195952 -0.206914 0.430298
v 0.194392 -0.205871 0.424024
v 0.194392 -0.205871 0.424024
v 0.194392 -0.205871 0.436573
v 0.194392 -0.205871 0.436573
v 0.166644 -0.242627 0.430298
v 0.165317 -0.241299 0.424024
v 0.165317 -0.241299 0.424024
v 0.165317 -0.241299 0.436573
v 0.165317 -0.241299 0.436573
v 0.129888 -0.270374 0.436573
v 0.129888 -0.270374 0.436573
v 0.163108 -0.239091 0.438282
v 0.130895 -0.206878 0.438282
v 0.130895 -0.206878 0.438282
v 0.128153 -0.267778 0.438282
v 0.191795 -0.204136 0.438282
v 0.153916 -0.178827 0.438282
v 0.153916 -0.178827 0.438282
v 0.213111 -0.164256 0.438282
v 0.171023 -0.146823 0.438282
v 0.171023 -0.146823 0.438282
v 0.226238 -0.120984 0.438282
v 0.181557 -0.112097 0.438282
v 0.181557 -0.112097 0.438282
v 0.230670 -0.075983 0.438282
v 0.185114 -0.075983 0.438282
v 0.185114 -0.075983 0.438282
v 0.226237 -0.030981 0.438282
v 0.181557 -0.039869 0.438282
v 0.181557 -0.039869 0.438282
v 0.213111 0.012291 0.438282
v 0.171023 -0.005143 0.438282
v 0.171023 -0.005143 0.438282
v 0.191795 0.052170 0.438282
v 0.153916 0.026861 0.438282
v 0.153916 0.026861 0.438282
v 0.162413 0.087972 0.438282
v 0.129888 0.115301 0.438282
v 0.130895 0.054912 0.438282
v 0.130895 0.054912 0.438282
v 0.157158 0.115301 0.438282
v 0.139834 0.115301 0.438282
v 0.102221 0.078445 0.438282
v 0.102221 0.078445 0.438282
v -0.102221 0.078445 0.438282
v -0.102221 0.078445 0.438282
v -0.102221 0.078445 0.438282
v -0.129888 0.115301 0.438282
v -0.130895 0.054912 0.438282
v -0.130895 0.054912 0.438282
v -0.162413 0.087972 0.438282
v -0.153916 0.026861 0.438282
v -0.153916 0.026861 0.438282
v -0.191795 0.052170 0.438282
v -0.171023 -0.005143 0.438282
v -0.171023 -0.005143 0.438282
v -0.213111 0.012291 0.438282
v -0.181557 -0.039869 0.438282
v -0.181557 -0.039869 0.438282
v -0.226237 -0.030981 0.438282
v -0.185114 -0.075983 0.438282
v -0.185114 -0.075983 0.438282
v -0.230670 -0.075983 0.438282
v -0.181557 -0.112097 0.438282
v -0.181557 -0.112097 0.438282
v -0.226237 -0.120984 0.438282
v -0.171023 -0.146823 0.438282
v -0.171023 -0.146823 0.438282
v -0.213111 -0.164256 0.438282
v -0.153916 -0.178827 0.438282
v -0.153916 -0.178827 0.438282
v -0.191795 -0.204136 0.438282
v -0.130895 -0.206878 0.438282
v -0.130895 -0.206878 0.438282
v -0.163108 -0.239091 0.438282
v -0.102844 -0.229899 0.438282
v -0.102844 -0.229899 0.438282
v -0.128153 -0.267778 0.438282
v -0.070840 -0.247006 0.438282
v -0.070840 -0.247006 0.438282
v -0.088273 -0.289094 0.438282
v -0.036114 -0.257540 0.438282
v -0.036114 -0.257540 0.438282
v -0.045001 -0.302220 0.438282
v 0.000000 -0.261097 0.438282
v 0.000000 -0.261097 0.438282
v 0.000000 -0.261097 0.438282
v 0.000000 -0.306653 0.438282
v 0.036114 -0.257540 0.438282
v 0.036114 -0.257540 0.438282
v 0.045001 -0.302220 0.438282
v 0.070840 -0.247006 0.438282
v 0.070840 -0.247006 0.438282
v 0.035505 -0.254477 0.436573
v 0.088274 -0.289094 0.438282
v 0.102844 -0.229899 0.438282
v 0.102844 -0.229899 0.438282
v -0.157159 0.115301 0.438282
v -0.139834 0.115301 0.438282
v -0.149780 0.129757 0.424024
v -0.149780 0.118409 0.424024
v -0.149780 0.118409 0.424024
v -0.149780 0.138580 0.424024
v -0.149780 0.138580 0.424024
v -0.149780 0.129757 0.428393
v -0.149780 0.129757 0.432763
v -0.149780 0.129757 0.432763
v -0.149780 0.129757 0.432763
v -0.149780 0.118409 0.428393
v -0.149780 0.118409 0.428393
v -0.149780 0.138580 0.428393
v -0.149780 0.138580 0.428393
v -0.149780 0.138580 0.428393
v -0.148192 0.138580 0.428393
v -0.148192 0.138580 0.428393
v -0.148192 0.138580 0.428393
v -0.148192 0.138580 0.428393
v -0.148192 0.131181 0.428393
v -0.148192 0.131181 0.428393
v -0.148192 0.131181 0.428393
v -0.141422 0.138580 0.428393
v -0.141422 0.138580 0.428393
v -0.141422 0.138580 0.428393
v -0.141422 0.138580 0.428393
v -0.148192 0.131181 0.432058
v -0.148192 0.131181 0.432058
v -0.148192 0.131181 0.432058
v -0.144807 0.138580 0.424024
v -0.139834 0.138580 0.424024
v -0.139834 0.138580 0.424024
v -0.139834 0.138580 0.428393
v -0.139834 0.138580 0.428393
v -0.139834 0.138580 0.428393
v -0.139834 0.129757 0.424024
v -0.139834 0.129757 0.428393
v -0.139834 0.118409 0.424024
v -0.139834 0.118409 0.424024
v -0.139834 0.118409 0.428393
v -0.139834 0.118409 0.428393
v -0.139834 0.118409 0.432763
v -0.139834 0.118409 0.432763
v -0.139834 0.118409 0.432763
v -0.149780 0.118409 0.432763
v -0.149780 0.118409 0.432763
v -0.149780 0.118409 0.432763
v -0.139834 0.129757 0.432763
v -0.139834 0.129757 0.432763
v -0.139834 0.129757 0.432763
v -0.141422 0.131181 0.432058
v -0.141422 0.131181 0.432058
v -0.141422 0.131181 0.432058
v -0.141422 0.131181 0.428393
v -0.141422 0.131181 0.428393
v -0.141422 0.131181 0.428393
v -0.143085 0.136602 0.430145
v -0.142708 0.134880 0.430529
v -0.142708 0.136979 0.428393
v -0.144807 0.136979 0.430529
v -0.146529 0.136602 0.430145
v -0.144807 0.137771 0.428393
v -0.144807 0.134880 0.431334
v -0.144807 0.132781 0.430529
v -0.146906 0.134880 0.430529
v -0.146529 0.133158 0.430145
v -0.147698 0.134880 0.428393
v -0.146906 0.132781 0.428393
v -0.146906 0.136979 0.428393
v -0.144807 0.131989 0.428393
v -0.142708 0.132781 0.428393
v -0.143085 0.133158 0.430145
v -0.141916 0.134880 0.428393
v 0.149780 0.129755 0.424024
v 0.149780 0.118406 0.424024
v 0.149780 0.118406 0.424024
v 0.149780 0.138577 0.424024
v 0.149780 0.138577 0.424024
v 0.149780 0.129755 0.428393
v 0.149780 0.129755 0.432763
v 0.149780 0.129755 0.432763
v 0.149780 0.129755 0.432763
v 0.149780 0.118406 0.428393
v 0.149780 0.118406 0.428393
v 0.149780 0.138577 0.428393
v 0.149780 0.138577 0.428393
v 0.149780 0.138577 0.428393
v 0.148192 0.138577 0.428393
v 0.148192 0.138577 0.428393
v 0.148192 0.138577 0.428393
v 0.148192 0.138577 0.428393
v 0.148192 0.131178 0.428393
v 0.148192 0.131178 0.428393
v 0.148192 0.131178 0.428393
v 0.141423 0.138578 0.428393
v 0.141423 0.138578 0.428393
v 0.141423 0.138578 0.428393
v 0.141423 0.138578 0.428393
v 0.148192 0.131178 0.432058
v 0.148192 0.131178 0.432058
v 0.148192 0.131178 0.432058
v 0.144808 0.138578 0.424024
v 0.139835 0.138578 0.424024
v 0.139835 0.138578 0.424024
v 0.139835 0.138578 0.428393
v 0.139835 0.138578 0.428393
v 0.139835 0.138578 0.428393
v 0.139834 0.129755 0.424024
v 0.139834 0.129755 0.428393
v 0.139834 0.118406 0.424024
v 0.139834 0.118406 0.424024
v 0.139834 0.118406 0.428393
v 0.139834 0.118406 0.428393
v 0.139834 0.118406 0.432763
v 0.139834 0.118406 0.432763
v 0.139834 0.118406 0.432763
v 0.149780 0.118406 0.432763
v 0.149780 0.118406 0.432763
v 0.149780 0.118406 0.432763
v 0.139834 0.129755 0.432763
v 0.139834 0.129755 0.432763
v 0.139834 0.129755 0.432763
v 0.141423 0.131178 0.432058
v 0.141423 0.131178 0.432058
v 0.141423 0.131178 0.432058
v 0.141423 0.131178 0.428393
v 0.141423 0.131178 0.428393
v 0.141423 0.131178 0.428393
v 0.143086 0.136600 0.430145
v 0.142708 0.134878 0.430529
v 0.142708 0.136977 0.428393
v 0.144807 0.136977 0.430529
v 0.146529 0.136600 0.430145
v 0.144808 0.137769 0.428393
v 0.144807 0.134878 0.431334
v 0.144807 0.132778 0.430529
v 0.146907 0.134878 0.430529
v 0.146529 0.133156 0.430145
v 0.147699 0.134878 0.428393
v 0.146907 0.132778 0.428393
v 0.146907 0.136977 0.428393
v 0.144807 0.131987 0.428393
v 0.142708 0.132778 0.428393
v 0.143085 0.133156 0.430145
v 0.141916 0.134878 0.428393
v -0.000000 0.118409 0.437637
v -0.000000 0.118409 0.437637
v -0.000000 -0.309776 0.437637
v -0.000000 -0.309776 0.437637
v -0.045611 -0.305283 0.437637
v -0.045611 -0.305283 0.437637
v -0.045611 -0.305283 0.437637
v -0.089469 -0.291979 0.437637
v -0.089469 -0.291979 0.437637
v -0.129889 -0.270374 0.437637
v -0.129889 -0.270374 0.437637
v -0.165317 -0.241299 0.437637
v -0.165317 -0.241299 0.437637
v -0.194392 -0.205871 0.437637
v -0.194392 -0.205871 0.437637
v -0.215997 -0.165451 0.437637
v -0.215997 -0.165451 0.437637
v -0.229301 -0.121594 0.437637
v -0.229301 -0.121594 0.437637
v -0.233793 -0.075983 0.437637
v -0.233793 -0.075983 0.437637
v -0.229301 -0.030372 0.437637
v -0.229301 -0.030372 0.437637
v -0.215997 0.013486 0.437637
v -0.215997 0.013486 0.437637
v -0.194392 0.053906 0.437637
v -0.194392 0.053906 0.437637
v -0.165317 0.089334 0.437637
v -0.165317 0.089334 0.437637
v -0.129889 0.118409 0.437637
v -0.129889 0.118409 0.437637
v -0.129889 0.118409 0.437637
v -0.089469 0.118409 0.437637
v -0.089469 0.118409 0.437637
v -0.045611 0.118409 0.437637
v -0.045611 0.118409 0.437637
v -0.000000 0.114518 0.452649
v -0.000000 0.114518 0.452649
v -0.000000 -0.305866 0.452649
v -0.000000 -0.305866 0.452649
v -0.044848 -0.301448 0.452649
v -0.044848 -0.301448 0.452649
v -0.044848 -0.301448 0.452649
v -0.087973 -0.288367 0.452649
v -0.087973 -0.288367 0.452649
v -0.127716 -0.267123 0.452649
v -0.127716 -0.267123 0.452649
v -0.162552 -0.238534 0.452649
v -0.162552 -0.238534 0.452649
v -0.191141 -0.203699 0.452649
v -0.191141 -0.203699 0.452649
v -0.212384 -0.163955 0.452649
v -0.212384 -0.163955 0.452649
v -0.225466 -0.120831 0.452649
v -0.225466 -0.120831 0.452649
v -0.229883 -0.075983 0.452649
v -0.229883 -0.075983 0.452649
v -0.225466 -0.031135 0.452649
v -0.225466 -0.031135 0.452649
v -0.212384 0.011989 0.452649
v -0.212384 0.011989 0.452649
v -0.191141 0.051733 0.452649
v -0.191141 0.051733 0.452649
v -0.161682 0.087629 0.452649
v -0.161682 0.087629 0.452649
v -0.129889 0.118409 0.449191
v -0.129889 0.118409 0.449191
v -0.129889 0.118409 0.449191
v -0.129889 0.118409 0.449191
v -0.089469 0.114518 0.452649
v -0.089469 0.114518 0.452649
v -0.045611 0.114518 0.452649
v -0.045611 0.114518 0.452649
v -0.159726 0.118409 0.437637
v -0.159726 0.118409 0.437637
v -0.159726 0.118409 0.437637
v -0.159726 0.118409 0.437637
v -0.155835 0.118038 0.452649
v -0.155835 0.118038 0.452649
v -0.149780 0.118409 0.437637
v -0.149780 0.118409 0.437637
v -0.149780 0.118409 0.437637
v -0.133780 0.125867 0.452649
v -0.133780 0.125867 0.452649
v -0.133780 0.125867 0.452649
v -0.129889 0.129758 0.437637
v -0.129889 0.129758 0.437637
v -0.129889 0.129758 0.437637
v -0.155835 0.125866 0.452649
v -0.155835 0.125866 0.452649
v -0.155835 0.125866 0.452649
v -0.159726 0.129758 0.437637
v -0.159726 0.129758 0.437637
v -0.159726 0.129758 0.437637
v -0.149780 0.125866 0.452649
v -0.149780 0.125866 0.452649
v -0.149780 0.129758 0.437637
v -0.149780 0.129758 0.437637
v -0.149780 0.129758 0.437637
v -0.149780 0.118408 0.424024
v -0.149780 0.118408 0.424024
v -0.149780 0.118408 0.424024
v -0.159726 0.118408 0.424024
v -0.159726 0.118408 0.424024
v -0.159726 0.118408 0.424024
v -0.149780 0.127307 0.424024
v -0.149780 0.127307 0.424024
v -0.149780 0.129758 0.426474
v -0.149780 0.129758 0.426474
v -0.159726 0.129758 0.426474
v -0.159726 0.129758 0.426474
v -0.159726 0.127307 0.424024
v -0.159726 0.127307 0.424024
v -0.045611 -0.305283 0.449191
v -0.045611 -0.305283 0.449191
v -0.000000 -0.309776 0.449191
v -0.089469 -0.291979 0.449191
v -0.129889 -0.270374 0.449191
v -0.165317 -0.241299 0.449191
v -0.194392 -0.205871 0.449191
v -0.215997 -0.165451 0.449191
v -0.229301 -0.121594 0.449191
v -0.233793 -0.075983 0.449191
v -0.229301 -0.030372 0.449191
v -0.215997 0.013486 0.449191
v -0.194392 0.053906 0.449191
v -0.165317 0.089334 0.449191
v -0.089469 0.118409 0.449191
v -0.089469 0.118409 0.449191
v -0.133780 0.114518 0.452649
v -0.133780 0.114518 0.452649
v -0.133780 0.114518 0.452649
v -0.045611 0.118409 0.449191
v -0.045611 0.118409 0.449191
v -0.000000 0.118409 0.449191
v -0.000000 0.118409 0.449191
v -0.159726 0.118409 0.449191
v -0.149780 0.129758 0.449191
v -0.149780 0.129758 0.449191
v -0.159726 0.129758 0.449191
v -0.159726 0.129758 0.449191
v -0.159726 0.129758 0.449191
v -0.129889 0.129758 0.449191
v -0.129889 0.129758 0.449191
v -0.129889 0.129758 0.449191
v -0.129889 0.129758 0.449191
v 0.045610 -0.305283 0.437637
v 0.045610 -0.305283 0.437637
v 0.089468 -0.291979 0.437637
v 0.089468 -0.291979 0.437637
v 0.129888 -0.270375 0.437637
v 0.129888 -0.270375 0.437637
v 0.165316 -0.241299 0.437637
v 0.165316 -0.241299 0.437637
v 0.194391 -0.205871 0.437637
v 0.194391 -0.205871 0.437637
v 0.215996 -0.165452 0.437637
v 0.215996 -0.165452 0.437637
v 0.229300 -0.121594 0.437637
v 0.229300 -0.121594 0.437637
v 0.233793 -0.075983 0.437637
v 0.233793 -0.075983 0.437637
v 0.229300 -0.030372 0.437637
v 0.229300 -0.030372 0.437637
v 0.215996 0.013486 0.437637
v 0.215996 0.013486 0.437637
v 0.194392 0.053905 0.437637
v 0.194392 0.053905 0.437637
v 0.165316 0.089334 0.437637
v 0.165316 0.089334 0.437637
v 0.129888 0.118409 0.437637
v 0.129888 0.118409 0.437637
v 0.129888 0.118409 0.437637
v 0.089469 0.118409 0.437637
v 0.089469 0.118409 0.437637
v 0.045611 0.118409 0.437637
v 0.045611 0.118409 0.437637
v 0.044848 -0.301448 0.452649
v 0.044848 -0.301448 0.452649
v 0.087972 -0.288367 0.452649
v 0.087972 -0.288367 0.452649
v 0.127716 -0.267123 0.452649
v 0.127716 -0.267123 0.452649
v 0.162551 -0.238535 0.452649
v 0.162551 -0.238535 0.452649
v 0.191140 -0.203699 0.452649
v 0.191140 -0.203699 0.452649
v 0.212384 -0.163955 0.452649
v 0.212384 -0.163955 0.452649
v 0.225465 -0.120831 0.452649
v 0.225465 -0.120831 0.452649
v 0.229883 -0.075983 0.452649
v 0.229883 -0.075983 0.452649
v 0.225465 -0.031135 0.452649
v 0.225465 -0.031135 0.452649
v 0.212384 0.011989 0.452649
v 0.212384 0.011989 0.452649
v 0.191140 0.051733 0.452649
v 0.191140 0.051733 0.452649
v 0.161682 0.087629 0.452649
v 0.161682 0.087629 0.452649
v 0.129888 0.118409 0.449191
v 0.129888 0.118409 0.449191
v 0.129888 0.118409 0.449191
v 0.129888 0.118409 0.449191
v 0.089469 0.114517 0.452649
v 0.089469 0.114517 0.452649
v 0.045611 0.114517 0.452649
v 0.045611 0.114517 0.452649
v 0.159726 0.118408 0.437637
v 0.159726 0.118408 0.437637
v 0.159726 0.118408 0.437637
v 0.159726 0.118408 0.437637
v 0.155835 0.118038 0.452649
v 0.155835 0.118038 0.452649
v 0.149780 0.118409 0.437637
v 0.149780 0.118409 0.437637
v 0.149780 0.118409 0.437637
v 0.133780 0.125866 0.452649
v 0.133780 0.125866 0.452649
v 0.133780 0.125866 0.452649
v 0.129888 0.129758 0.437637
v 0.129888 0.129758 0.437637
v 0.129888 0.129758 0.437637
v 0.155835 0.125866 0.452649
v 0.155835 0.125866 0.452649
v 0.155835 0.125866 0.452649
v 0.159726 0.129757 0.437637
v 0.159726 0.129757 0.437637
v 0.159726 0.129757 0.437637
v 0.149780 0.125866 0.452649
v 0.149780 0.125866 0.452649
v 0.149780 0.129758 0.437637
v 0.149780 0.129758 0.437637
v 0.149780 0.129758 0.437637
v 0.149780 0.118408 0.424024
v 0.149780 0.118408 0.424024
v 0.149780 0.118408 0.424024
v 0.159726 0.118408 0.424024
v 0.159726 0.118408 0.424024
v 0.159726 0.118408 0.424024
v 0.149780 0.127307 0.424024
v 0.149780 0.127307 0.424024
v 0.149780 0.129758 0.426474
v 0.149780 0.129758 0.426474
v 0.159726 0.129757 0.426474
v 0.159726 0.129757 0.426474
v 0.159726 0.127307 0.424024
v 0.159726 0.127307 0.424024
v 0.045610 -0.305283 0.449191
v 0.089468 -0.291979 0.449191
v 0.129888 -0.270375 0.449191
v 0.165316 -0.241299 0.449191
v 0.194391 -0.205871 0.449191
v 0.215996 -0.165452 0.449191
v 0.229300 -0.121594 0.449191
v 0.233793 -0.075983 0.449191
v 0.229300 -0.030372 0.449191
v 0.215996 0.013486 0.449191
v 0.194392 0.053905 0.449191
v 0.165316 0.089334 0.449191
v 0.089469 0.118409 0.449191
v 0.089469 0.118409 0.449191
v 0.133780 0.114517 0.452649
v 0.133780 0.114517 0.452649
v 0.133780 0.114517 0.452649
v 0.045611 0.118409 0.449191
v 0.045611 0.118409 0.449191
v 0.159726 0.118408 0.449191
v 0.149780 0.129758 0.449191
v 0.149780 0.129758 0.449191
v 0.159726 0.129757 0.449191
v 0.159726 0.129757 0.449191
v 0.159726 0.129757 0.449191
v 0.129888 0.129758 0.449191
v 0.129888 0.129758 0.449191
v 0.129888 0.129758 0.449191
v 0.129888 0.129758 0.449191
vt 0.003906 0.003906
vt 0.121732 0.666298
vt 0.488921 0.474389
vt 0.491969 0.445992
vt 0.121732 0.614393
vt 0.084118 0.711865
vt 0.094947 0.711721
vt 0.447453 0.474025
vt 0.491471 0.502834
vt 0.003906 0.055644
vt 0.013354 0.003906
vt 0.131210 0.666298
vt 0.022802 0.003906
vt 0.140689 0.666298
vt 0.013354 0.055644
vt 0.131210 0.614393
vt 0.140689 0.614393
vt 0.131210 0.562488
vt 0.140689 0.562488
vt 0.500498 0.418736
vt 0.121732 0.562488
vt 0.131210 0.510584
vt 0.140689 0.510584
vt 0.514182 0.393667
vt 0.121732 0.510584
vt 0.131210 0.458679
vt 0.140689 0.458679
vt 0.532493 0.371750
vt 0.121732 0.458679
vt 0.131210 0.406774
vt 0.140689 0.406774
vt 0.554727 0.353825
vt 0.121732 0.406774
vt 0.131210 0.354870
vt 0.140689 0.354870
vt 0.580032 0.340584
vt 0.121732 0.354870
vt 0.131210 0.302965
vt 0.140689 0.302965
vt 0.607433 0.332533
vt 0.121732 0.302965
vt 0.131210 0.251060
vt 0.140689 0.251060
vt 0.635879 0.329983
vt 0.121732 0.251060
vt 0.131210 0.199156
vt 0.140689 0.199156
vt 0.664276 0.333031
vt 0.121732 0.199156
vt 0.131210 0.147251
vt 0.140689 0.147251
vt 0.691532 0.341561
vt 0.121732 0.147251
vt 0.131210 0.095346
vt 0.140689 0.095346
vt 0.716601 0.355244
vt 0.121732 0.095346
vt 0.131210 0.043370
vt 0.140689 0.043370
vt 0.738518 0.373555
vt 0.121732 0.043370
vt 0.013354 0.957563
vt 0.131210 0.003906
vt 0.022802 0.957563
vt 0.140689 0.003906
vt 0.756442 0.395790
vt 0.003906 0.957563
vt 0.121732 0.003906
vt 0.013354 0.664158
vt 0.022802 0.664158
vt 0.755024 0.557663
vt 0.003906 0.664158
vt 0.013354 0.624827
vt 0.022802 0.624827
vt 0.736713 0.579580
vt 0.003906 0.624827
vt 0.013354 0.573018
vt 0.022802 0.573018
vt 0.714478 0.597504
vt 0.003906 0.573018
vt 0.013354 0.521281
vt 0.022802 0.521281
vt 0.689174 0.610746
vt 0.003906 0.521281
vt 0.013354 0.469543
vt 0.022802 0.469543
vt 0.661772 0.618797
vt 0.003906 0.469543
vt 0.013354 0.417806
vt 0.022802 0.417806
vt 0.633326 0.621347
vt 0.003906 0.417806
vt 0.013354 0.366068
vt 0.022802 0.366068
vt 0.604930 0.618299
vt 0.003906 0.366068
vt 0.013354 0.314331
vt 0.022802 0.314331
vt 0.577673 0.609769
vt 0.003906 0.314331
vt 0.013354 0.262593
vt 0.022802 0.262593
vt 0.552605 0.596086
vt 0.003906 0.262593
vt 0.013354 0.210856
vt 0.022802 0.210856
vt 0.530687 0.577775
vt 0.003906 0.210856
vt 0.013354 0.159119
vt 0.022802 0.159119
vt 0.512763 0.555540
vt 0.003906 0.159119
vt 0.013354 0.107381
vt 0.022802 0.107381
vt 0.499522 0.530236
vt 0.003906 0.107381
vt 0.461072 0.545769
vt 0.095210 0.600014
vt 0.450729 0.510568
vt 0.095158 0.655596
vt 0.478083 0.578276
vt 0.095260 0.544440
vt 0.103182 0.600029
vt 0.111153 0.600043
vt 0.171736 0.687624
vt 0.103193 0.544459
vt 0.103172 0.655618
vt 0.111107 0.655616
vt 0.161403 0.722907
vt 0.076559 0.711846
vt 0.103076 0.711750
vt 0.069000 0.711865
vt 0.111204 0.711739
vt 0.158200 0.759531
vt 0.076558 0.658638
vt 0.451369 0.437546
vt 0.084264 0.658657
vt 0.068852 0.658657
vt 0.162171 0.796103
vt 0.076556 0.604392
vt 0.462327 0.402531
vt 0.084413 0.604411
vt 0.068700 0.604412
vt 0.173198 0.831163
vt 0.076555 0.549108
vt 0.479905 0.370327
vt 0.084563 0.549107
vt 0.068546 0.549108
vt 0.190848 0.863383
vt 0.076554 0.493806
vt 0.503428 0.342171
vt 0.084413 0.493806
vt 0.068694 0.493807
vt 0.214467 0.891487
vt 0.076552 0.438505
vt 0.531992 0.319145
vt 0.084561 0.438505
vt 0.068544 0.438506
vt 0.243059 0.914434
vt 0.076551 0.383221
vt 0.564499 0.302134
vt 0.084407 0.383201
vt 0.068694 0.383202
vt 0.275525 0.931451
vt 0.076549 0.328975
vt 0.599700 0.291792
vt 0.084256 0.328956
vt 0.068843 0.328956
vt 0.310739 0.941789
vt 0.076514 0.275760
vt 0.636243 0.288515
vt 0.084111 0.275747
vt 0.068992 0.275750
vt 0.347320 0.945102
vt 0.076561 0.223060
vt 0.672722 0.292432
vt 0.084118 0.223054
vt 0.069004 0.223066
vt 0.383806 0.941144
vt 0.076571 0.170373
vt 0.707737 0.303389
vt 0.084128 0.170367
vt 0.069013 0.170379
vt 0.418764 0.930255
vt 0.076619 0.117677
vt 0.739941 0.320967
vt 0.084139 0.117684
vt 0.069020 0.117687
vt 0.450995 0.912847
vt 0.076623 0.062699
vt 0.768097 0.344490
vt 0.084563 0.062668
vt 0.068681 0.062655
vt 0.479563 0.889578
vt 0.076649 0.028184
vt 0.076649 0.028184
vt 0.791332 0.349169
vt 0.083947 0.027346
vt 0.083947 0.027346
vt 0.069352 0.027335
vt 0.502501 0.884288
vt 0.076668 0.003907
vt 0.193801 0.397222
vt 0.069136 0.003976
vt 0.502739 0.868473
vt 0.187106 0.398494
vt 0.791193 0.365092
vt 0.084200 0.003988
vt 0.200555 0.398522
vt 0.193707 0.385766
vt 0.193707 0.385766
vt 0.187356 0.386439
vt 0.511875 0.868395
vt 0.187356 0.386439
vt 0.200331 0.386353
vt 0.800277 0.365172
vt 0.200331 0.386353
vt 0.193932 0.376397
vt 0.193932 0.376397
vt 0.200313 0.375809
vt 0.800207 0.373133
vt 0.200313 0.375809
vt 0.187270 0.375881
vt 0.511807 0.860388
vt 0.187270 0.375881
vt 0.193833 0.363956
vt 0.193833 0.363956
vt 0.201187 0.363369
vt 0.791123 0.373054
vt 0.201187 0.363369
vt 0.186449 0.363344
vt 0.502670 0.860466
vt 0.186449 0.363344
vt 0.194313 0.045106
vt 0.194313 0.045106
vt 0.202174 0.045807
vt 0.789301 0.581003
vt 0.202174 0.045807
vt 0.186449 0.045783
vt 0.500826 0.651987
vt 0.186449 0.045783
vt 0.194338 0.029091
vt 0.194338 0.029091
vt 0.201299 0.029580
vt 0.800277 0.581099
vt 0.201299 0.029580
vt 0.187375 0.029558
vt 0.511875 0.651890
vt 0.187375 0.029558
vt 0.194353 0.019351
vt 0.194353 0.019351
vt 0.187782 0.018599
vt 0.511805 0.643876
vt 0.187782 0.018599
vt 0.200926 0.018619
vt 0.800207 0.589061
vt 0.200926 0.018619
vt 0.102912 0.003906
vt 0.194377 0.003906
vt 0.110247 0.003919
vt 0.500756 0.643973
vt 0.187676 0.003955
vt 0.095576 0.003938
vt 0.789231 0.588965
vt 0.201078 0.003976
vt 0.102943 0.028024
vt 0.102943 0.028024
vt 0.095678 0.027193
vt 0.789091 0.604888
vt 0.095678 0.027193
vt 0.110205 0.027174
vt 0.110205 0.027174
vt 0.500242 0.628143
vt 0.102987 0.062378
vt 0.765778 0.609159
vt 0.095083 0.062351
vt 0.110892 0.062331
vt 0.477178 0.623247
vt 0.103020 0.117103
vt 0.737214 0.632185
vt 0.095534 0.117114
vt 0.110583 0.117109
vt 0.448112 0.600430
vt 0.103132 0.169568
vt 0.704707 0.649196
vt 0.095570 0.169560
vt 0.110621 0.169555
vt 0.415440 0.583568
vt 0.103126 0.222519
vt 0.669505 0.659538
vt 0.095456 0.222523
vt 0.110795 0.222515
vt 0.380170 0.573353
vt 0.103119 0.275470
vt 0.632963 0.662814
vt 0.095631 0.275483
vt 0.110681 0.275478
vt 0.343598 0.570146
vt 0.103230 0.327939
vt 0.596484 0.658898
vt 0.095668 0.327931
vt 0.110718 0.327926
vt 0.307114 0.574184
vt 0.103223 0.380909
vt 0.561469 0.647941
vt 0.095553 0.380894
vt 0.110894 0.380886
vt 0.272126 0.585195
vt 0.103212 0.434894
vt 0.529265 0.630363
vt 0.095431 0.434882
vt 0.111070 0.434889
vt 0.239948 0.602866
vt 0.103282 0.489413
vt 0.501109 0.606840
vt 0.095423 0.489398
vt 0.111066 0.489405
vt 0.211801 0.626443
vt 0.111204 0.544461
vt 0.188778 0.655032
vt 0.213836 0.628439
vt 0.027954 0.210856
vt 0.239865 0.653907
vt 0.191169 0.656599
vt 0.241565 0.605230
vt 0.027954 0.262593
vt 0.262103 0.635262
vt 0.273245 0.587816
vt 0.027954 0.314331
vt 0.287540 0.621303
vt 0.307704 0.576978
vt 0.027954 0.366068
vt 0.315204 0.612576
vt 0.343631 0.573003
vt 0.027954 0.417806
vt 0.344048 0.609411
vt 0.379647 0.576162
vt 0.027954 0.469543
vt 0.372963 0.611936
vt 0.414383 0.586224
vt 0.027954 0.521281
vt 0.400856 0.620051
vt 0.446561 0.602844
vt 0.027954 0.573018
vt 0.426693 0.633462
vt 0.475931 0.625925
vt 0.497973 0.652012
vt 0.027954 0.624827
vt 0.449493 0.651678
vt 0.497536 0.630414
vt 0.497898 0.644027
vt 0.027954 0.664158
vt 0.468587 0.674509
vt 0.027954 0.957563
vt 0.145858 0.003906
vt 0.470066 0.838560
vt 0.499819 0.860491
vt 0.145858 0.043370
vt 0.451402 0.861719
vt 0.478271 0.886928
vt 0.145858 0.095346
vt 0.429035 0.880307
vt 0.449405 0.910470
vt 0.145858 0.147251
vt 0.403530 0.894148
vt 0.417660 0.927634
vt 0.145858 0.199156
vt 0.375845 0.902759
vt 0.383225 0.938351
vt 0.145858 0.251060
vt 0.346986 0.905839
vt 0.347294 0.942238
vt 0.145858 0.302965
vt 0.318077 0.903235
vt 0.311274 0.938982
vt 0.145858 0.354870
vt 0.290238 0.895063
vt 0.276596 0.928805
vt 0.145858 0.406774
vt 0.264537 0.881625
vt 0.244618 0.912052
vt 0.145858 0.458679
vt 0.241940 0.863448
vt 0.216462 0.889444
vt 0.145858 0.510584
vt 0.223294 0.841196
vt 0.193206 0.861768
vt 0.145858 0.562488
vt 0.209347 0.815720
vt 0.175828 0.830040
vt 0.145858 0.614393
vt 0.200640 0.788011
vt 0.164972 0.795515
vt 0.027954 0.003906
vt 0.145858 0.666298
vt 0.197510 0.759131
vt 0.161068 0.759500
vt 0.027954 0.055644
vt 0.200064 0.730189
vt 0.164209 0.723435
vt 0.027954 0.107381
vt 0.208230 0.702296
vt 0.022802 0.055644
vt 0.174396 0.688697
vt 0.027954 0.159119
vt 0.221677 0.676536
vt 0.499760 0.882068
vt 0.499884 0.868469
vt 0.676257 0.248504
vt 0.165916 0.901879
vt 0.575037 0.248504
vt 0.077449 0.989298
vt 0.754946 0.248504
vt 0.676257 0.209531
vt 0.676257 0.170558
vt 0.676257 0.170558
vt 0.676257 0.170558
vt 0.126943 0.901879
vt 0.575037 0.209531
vt 0.038476 0.989298
vt 0.764068 0.170558
vt 0.754946 0.209531
vt 0.038476 0.975133
vt 0.764068 0.156395
vt 0.038476 0.793788
vt 0.038476 0.793788
vt 0.104471 0.793788
vt 0.104471 0.793788
vt 0.104471 0.793788
vt 0.038476 0.914755
vt 0.764068 0.096016
vt 0.038476 0.854167
vt 0.038476 0.854167
vt 0.137157 0.793788
vt 0.690422 0.156395
vt 0.104471 0.761103
vt 0.077449 0.944944
vt 0.077449 0.900590
vt 0.754945 0.003906
vt 0.038476 0.900590
vt 0.764068 0.081851
vt 0.754945 0.042878
vt 0.676257 0.003906
vt 0.676257 0.042878
vt 0.165916 0.990586
vt 0.575037 0.003906
vt 0.126943 0.990586
vt 0.575037 0.042878
vt 0.087970 0.990586
vt 0.575037 0.081851
vt 0.575037 0.081851
vt 0.087970 0.901879
vt 0.575037 0.170558
vt 0.575037 0.170558
vt 0.676257 0.081851
vt 0.676257 0.081851
vt 0.676257 0.081851
vt 0.137157 0.854167
vt 0.690422 0.096016
vt 0.104471 0.886853
vt 0.104471 0.854167
vt 0.104471 0.854167
vt 0.104471 0.854167
vt 0.193401 0.941026
vt 0.204825 0.934546
vt 0.176438 0.934446
vt 0.197464 0.953519
vt 0.203947 0.964942
vt 0.176438 0.962790
vt 0.210632 0.947712
vt 0.223799 0.941904
vt 0.216438 0.960880
vt 0.227862 0.954396
vt 0.225711 0.981907
vt 0.244826 0.960977
vt 0.197366 0.981907
vt 0.244826 0.932632
vt 0.223897 0.913518
vt 0.217316 0.930481
vt 0.195553 0.913518
vt 0.676257 0.248504
vt 0.165916 0.901879
vt 0.575037 0.248504
vt 0.077449 0.989298
vt 0.754946 0.248504
vt 0.676257 0.209531
vt 0.676257 0.170558
vt 0.676257 0.170558
vt 0.676257 0.170558
vt 0.126943 0.901879
vt 0.575037 0.209531
vt 0.038476 0.989298
vt 0.764068 0.170558
vt 0.754946 0.209531
vt 0.038476 0.975133
vt 0.764068 0.156395
vt 0.038476 0.793788
vt 0.038476 0.793788
vt 0.104471 0.793788
vt 0.104471 0.793788
vt 0.104471 0.793788
vt 0.038476 0.914755
vt 0.764068 0.096016
vt 0.038476 0.854167
vt 0.038476 0.854167
vt 0.137157 0.793788
vt 0.690422 0.156395
vt 0.104471 0.761103
vt 0.077449 0.944944
vt 0.077449 0.900590
vt 0.754945 0.003906
vt 0.038476 0.900590
vt 0.764068 0.081851
vt 0.754945 0.042878
vt 0.676257 0.003906
vt 0.676257 0.042878
vt 0.165916 0.990586
vt 0.575037 0.003906
vt 0.126943 0.990586
vt 0.575037 0.042878
vt 0.087970 0.990586
vt 0.575037 0.081851
vt 0.575037 0.081851
vt 0.087970 0.901879
vt 0.575037 0.170558
vt 0.575037 0.170558
vt 0.676257 0.081851
vt 0.676257 0.081851
vt 0.676257 0.081851
vt 0.137157 0.854167
vt 0.690422 0.096016
vt 0.104471 0.886853
vt 0.104471 0.854167
vt 0.104471 0.854167
vt 0.104471 0.854167
vt 0.193401 0.941026
vt 0.204825 0.934546
vt 0.176438 0.934446
vt 0.197464 0.953519
vt 0.203947 0.964942
vt 0.176438 0.962790
vt 0.210632 0.947712
vt 0.223799 0.941904
vt 0.216438 0.960880
vt 0.227862 0.954396
vt 0.225711 0.981907
vt 0.244826 0.960977
vt 0.197366 0.981907
vt 0.244826 0.932632
vt 0.223897 0.913518
vt 0.217316 0.930481
vt 0.195553 0.913518
vt 0.541973 0.828583
vt 0.221719 0.191088
vt 0.038476 0.707509
vt 0.564490 0.191088
vt 0.560894 0.227601
vt 0.038476 0.762148
vt 0.175927 0.652932
vt 0.550244 0.262710
vt 0.175927 0.598288
vt 0.532949 0.295067
vt 0.175927 0.543643
vt 0.509674 0.323428
vt 0.175927 0.488998
vt 0.481312 0.346703
vt 0.175927 0.434353
vt 0.448956 0.363999
vt 0.175927 0.379708
vt 0.413846 0.374649
vt 0.175927 0.325063
vt 0.377334 0.378245
vt 0.175927 0.270418
vt 0.340821 0.374649
vt 0.175927 0.215773
vt 0.305712 0.363999
vt 0.175927 0.161128
vt 0.273355 0.346704
vt 0.175927 0.106483
vt 0.244994 0.323428
vt 0.175927 0.051478
vt 0.541973 0.984495
vt 0.221719 0.295067
vt 0.038476 0.874384
vt 0.541973 0.932853
vt 0.221719 0.262710
vt 0.541973 0.881740
vt 0.221719 0.227601
vt 0.522442 0.828583
vt 0.658991 0.812067
vt 0.058022 0.707509
vt 0.995517 0.812067
vt 0.058022 0.762148
vt 0.156379 0.652932
vt 0.991981 0.776165
vt 0.156379 0.598288
vt 0.981509 0.741643
vt 0.156379 0.543643
vt 0.964503 0.709828
vt 0.156379 0.488998
vt 0.941617 0.681941
vt 0.156379 0.434353
vt 0.913731 0.659055
vt 0.156379 0.379708
vt 0.881915 0.642049
vt 0.156379 0.325063
vt 0.847393 0.631577
vt 0.156379 0.270418
vt 0.811491 0.628041
vt 0.156379 0.215773
vt 0.775589 0.631577
vt 0.156379 0.161128
vt 0.741067 0.642049
vt 0.156379 0.106483
vt 0.709251 0.659055
vt 0.156379 0.051478
vt 0.680516 0.682637
vt 0.528509 0.984495
vt 0.038476 0.883633
vt 0.528509 0.984495
vt 0.038476 0.883633
vt 0.522442 0.932853
vt 0.658991 0.740445
vt 0.522442 0.881740
vt 0.658991 0.775555
vt 0.114993 0.773074
vt 0.221719 0.318953
vt 0.108987 0.733170
vt 0.175927 0.020367
vt 0.156379 0.020367
vt 0.656173 0.687318
vt 0.122954 0.773074
vt 0.221719 0.310991
vt 0.128594 0.740756
vt 0.047561 0.887800
vt 0.217066 0.420201
vt 0.649906 0.704973
vt 0.221658 0.439977
vt 0.212634 0.295067
vt 0.047561 0.874384
vt 0.156379 0.003906
vt 0.191041 0.420201
vt 0.649906 0.687318
vt 0.186449 0.439977
vt 0.099902 0.733170
vt 0.175927 0.003906
vt 0.198185 0.420201
vt 0.649906 0.692165
vt 0.198186 0.439977
vt 0.212634 0.310991
vt 0.119509 0.740756
vt 0.122954 0.762176
vt 0.198185 0.467740
vt 0.128594 0.751654
vt 0.114993 0.762176
vt 0.186449 0.467740
vt 0.108987 0.722272
vt 0.198185 0.457239
vt 0.121470 0.751654
vt 0.198186 0.453150
vt 0.119509 0.749692
vt 0.186449 0.453150
vt 0.099902 0.724234
vt 0.186449 0.457239
vt 0.101864 0.722272
vt 0.051786 0.762148
vt 0.162616 0.652932
vt 0.051786 0.707509
vt 0.162616 0.598288
vt 0.162616 0.543643
vt 0.162616 0.488998
vt 0.162616 0.434353
vt 0.162616 0.379708
vt 0.162616 0.325063
vt 0.162616 0.270418
vt 0.162616 0.215773
vt 0.162616 0.161128
vt 0.162616 0.106483
vt 0.162616 0.051478
vt 0.528509 0.932853
vt 0.528509 0.932853
vt 0.038476 0.887800
vt 0.522442 0.984495
vt 0.658991 0.704973
vt 0.528509 0.881740
vt 0.528509 0.881740
vt 0.528509 0.828583
vt 0.528509 0.828583
vt 0.162616 0.020367
vt 0.198185 0.426344
vt 0.198185 0.426344
vt 0.186449 0.426344
vt 0.162616 0.003906
vt 0.186449 0.426344
vt 0.221658 0.426344
vt 0.047561 0.883633
vt 0.221658 0.426344
vt 0.047561 0.883633
vt 0.560894 0.154576
vt 0.038476 0.652869
vt 0.550244 0.119467
vt 0.038476 0.598230
vt 0.532949 0.087110
vt 0.038476 0.543590
vt 0.509673 0.058749
vt 0.038476 0.488950
vt 0.481312 0.035473
vt 0.038476 0.434311
vt 0.448956 0.018178
vt 0.038476 0.379671
vt 0.413846 0.007528
vt 0.038476 0.325032
vt 0.377334 0.003932
vt 0.038476 0.270392
vt 0.340821 0.007528
vt 0.038476 0.215752
vt 0.305712 0.018178
vt 0.038476 0.161113
vt 0.273355 0.035473
vt 0.038476 0.106473
vt 0.244994 0.058749
vt 0.038476 0.051474
vt 0.541973 0.672671
vt 0.221719 0.087110
vt 0.003906 0.987861
vt 0.541973 0.724313
vt 0.221719 0.119467
vt 0.541973 0.775427
vt 0.221719 0.154576
vt 0.058022 0.652869
vt 0.991981 0.847969
vt 0.058022 0.598230
vt 0.981509 0.882491
vt 0.058022 0.543590
vt 0.964503 0.914307
vt 0.058022 0.488950
vt 0.941617 0.942193
vt 0.058022 0.434311
vt 0.913731 0.965080
vt 0.058022 0.379671
vt 0.881915 0.982086
vt 0.058022 0.325032
vt 0.847393 0.992558
vt 0.058022 0.270392
vt 0.811491 0.996094
vt 0.058022 0.215752
vt 0.775589 0.992558
vt 0.058022 0.161113
vt 0.741067 0.982086
vt 0.058022 0.106473
vt 0.709251 0.965080
vt 0.058022 0.051474
vt 0.680516 0.941497
vt 0.528509 0.672671
vt 0.003906 0.974227
vt 0.528509 0.672671
vt 0.003906 0.974227
vt 0.522442 0.724313
vt 0.658991 0.883689
vt 0.522442 0.775427
vt 0.658991 0.848580
vt 0.122954 0.875587
vt 0.221719 0.063224
vt 0.038476 0.020365
vt 0.082638 0.722400
vt 0.058022 0.020365
vt 0.656173 0.936817
vt 0.114993 0.875587
vt 0.221719 0.071186
vt 0.128693 0.730234
vt 0.017298 0.968084
vt 0.242346 0.409679
vt 0.649906 0.919161
vt 0.246938 0.389903
vt 0.212634 0.087110
vt 0.017298 0.987861
vt 0.058022 0.003906
vt 0.216321 0.409679
vt 0.649906 0.936817
vt 0.211729 0.389903
vt 0.038476 0.003906
vt 0.069246 0.722400
vt 0.223465 0.409679
vt 0.649906 0.931970
vt 0.223465 0.389903
vt 0.212634 0.071186
vt 0.119608 0.730234
vt 0.114993 0.864689
vt 0.223465 0.362140
vt 0.128693 0.719336
vt 0.122954 0.864689
vt 0.211729 0.362140
vt 0.082638 0.738464
vt 0.223465 0.372640
vt 0.121569 0.719336
vt 0.223465 0.376730
vt 0.119608 0.721298
vt 0.211729 0.376730
vt 0.069245 0.735572
vt 0.211729 0.372640
vt 0.072137 0.738464
vt 0.051786 0.652869
vt 0.051786 0.598230
vt 0.051786 0.543590
vt 0.051786 0.488950
vt 0.051786 0.434311
vt 0.051786 0.379671
vt 0.051786 0.325032
vt 0.051786 0.270392
vt 0.051786 0.215752
vt 0.051786 0.161113
vt 0.051786 0.106473
vt 0.051786 0.051474
vt 0.528509 0.724313
vt 0.528509 0.724313
vt 0.003906 0.968084
vt 0.522442 0.672671
vt 0.658991 0.919161
vt 0.528509 0.775427
vt 0.528509 0.775427
vt 0.051786 0.020365
vt 0.223465 0.403536
vt 0.223465 0.403536
vt 0.211729 0.403536
vt 0.051786 0.003906
vt 0.211729 0.403536
vt 0.246938 0.403536
vt 0.017298 0.974227
vt 0.246938 0.403536
vt 0.017298 0.974227
f 2/2 5/5 16/16
f 2/2 16/16 12/12
f 3/3 8/8 136/136
f 3/3 136/136 4/4
f 3/3 9/9 119/119
f 3/3 119/119 8/8
f 1/1 11/11 15/15
f 1/1 15/15 10/10
f 11/11 13/13 403/403
f 11/11 403/403 15/15
f 12/12 16/16 17/17
f 12/12 17/17 14/14
f 16/16 18/18 19/19
f 16/16 19/19 17/17
f 5/5 21/21 18/18
f 5/5 18/18 16/16
f 18/18 22/22 23/23
f 18/18 23/23 19/19
f 21/21 25/25 22/22
f 21/21 22/22 18/18
f 22/22 26/26 27/27
f 22/22 27/27 23/23
f 25/25 29/29 26/26
f 25/25 26/26 22/22
f 26/26 30/30 31/31
f 26/26 31/31 27/27
f 29/29 33/33 30/30
f 29/29 30/30 26/26
f 30/30 34/34 35/35
f 30/30 35/35 31/31
f 33/33 37/37 34/34
f 33/33 34/34 30/30
f 34/34 38/38 39/39
f 34/34 39/39 35/35
f 37/37 41/41 38/38
f 37/37 38/38 34/34
f 38/38 42/42 43/43
f 38/38 43/43 39/39
f 41/41 45/45 42/42
f 41/41 42/42 38/38
f 42/42 46/46 47/47
f 42/42 47/47 43/43
f 45/45 49/49 46/46
f 45/45 46/46 42/42
f 46/46 50/50 51/51
f 46/46 51/51 47/47
f 49/49 53/53 50/50
f 49/49 50/50 46/46
f 50/50 54/54 55/55
f 50/50 55/55 51/51
f 53/53 57/57 54/54
f 53/53 54/54 50/50
f 54/54 58/58 59/59
f 54/54 59/59 55/55
f 57/57 61/61 58/58
f 57/57 58/58 54/54
f 58/58 63/63 65/65
f 58/58 65/65 59/59
f 61/61 68/68 63/63
f 61/61 63/63 58/58
f 70/70 64/64 62/62
f 70/70 62/62 69/69
f 72/72 69/69 62/62
f 72/72 62/62 67/67
f 73/73 74/74 70/70
f 73/73 70/70 69/69
f 76/76 73/73 69/69
f 76/76 69/69 72/72
f 77/77 78/78 74/74
f 77/77 74/74 73/73
f 80/80 77/77 73/73
f 80/80 73/73 76/76
f 81/81 82/82 78/78
f 81/81 78/78 77/77
f 84/84 81/81 77/77
f 84/84 77/77 80/80
f 85/85 86/86 82/82
f 85/85 82/82 81/81
f 88/88 85/85 81/81
f 88/88 81/81 84/84
f 89/89 90/90 86/86
f 89/89 86/86 85/85
f 92/92 89/89 85/85
f 92/92 85/85 88/88
f 93/93 94/94 90/90
f 93/93 90/90 89/89
f 96/96 93/93 89/89
f 96/96 89/89 92/92
f 97/97 98/98 94/94
f 97/97 94/94 93/93
f 100/100 97/97 93/93
f 100/100 93/93 96/96
f 101/101 102/102 98/98
f 101/101 98/98 97/97
f 104/104 101/101 97/97
f 104/104 97/97 100/100
f 105/105 106/106 102/102
f 105/105 102/102 101/101
f 108/108 105/105 101/101
f 108/108 101/101 104/104
f 109/109 110/110 106/106
f 109/109 106/106 105/105
f 112/112 109/109 105/105
f 112/112 105/105 108/108
f 113/113 114/114 110/110
f 113/113 110/110 109/109
f 116/116 113/113 109/109
f 116/116 109/109 112/112
f 15/15 403/403 114/114
f 15/15 114/114 113/113
f 10/10 15/15 113/113
f 10/10 113/113 116/116
f 9/9 115/115 117/117
f 9/9 117/117 119/119
f 115/115 111/111 121/121
f 115/115 121/121 117/117
f 118/118 123/123 127/127
f 118/118 127/127 120/120
f 122/122 126/126 123/123
f 122/122 123/123 118/118
f 126/126 319/319 124/124
f 126/126 124/124 123/123
f 123/123 124/124 128/128
f 123/123 128/128 127/127
f 120/120 127/127 131/131
f 120/120 131/131 7/7
f 127/127 128/128 133/133
f 127/127 133/133 131/131
f 137/137 6/6 130/130
f 137/137 130/130 135/135
f 135/135 130/130 132/132
f 135/135 132/132 138/138
f 142/142 137/137 135/135
f 142/142 135/135 140/140
f 140/140 135/135 138/138
f 140/140 138/138 143/143
f 147/147 142/142 140/140
f 147/147 140/140 145/145
f 145/145 140/140 143/143
f 145/145 143/143 148/148
f 152/152 147/147 145/145
f 152/152 145/145 150/150
f 150/150 145/145 148/148
f 150/150 148/148 153/153
f 157/157 152/152 150/150
f 157/157 150/150 155/155
f 155/155 150/150 153/153
f 155/155 153/153 158/158
f 162/162 157/157 155/155
f 162/162 155/155 160/160
f 160/160 155/155 158/158
f 160/160 158/158 163/163
f 167/167 162/162 160/160
f 167/167 160/160 165/165
f 165/165 160/160 163/163
f 165/165 163/163 168/168
f 172/172 167/167 165/165
f 172/172 165/165 170/170
f 170/170 165/165 168/168
f 170/170 168/168 173/173
f 177/177 172/172 170/170
f 177/177 170/170 175/175
f 175/175 170/170 173/173
f 175/175 173/173 178/178
f 182/182 177/177 175/175
f 182/182 175/175 180/180
f 180/180 175/175 178/178
f 180/180 178/178 183/183
f 187/187 182/182 180/180
f 187/187 180/180 185/185
f 185/185 180/180 183/183
f 185/185 183/183 188/188
f 192/192 187/187 185/185
f 192/192 185/185 190/190
f 190/190 185/185 188/188
f 190/190 188/188 193/193
f 192/192 190/190 196/196
f 192/192 196/196 199/199
f 190/190 193/193 200/200
f 190/190 200/200 196/196
f 198/198 195/195 202/202
f 198/198 202/202 208/208
f 202/202 195/195 200/200
f 202/202 200/200 204/204
f 203/203 206/206 214/214
f 203/203 214/214 211/211
f 209/209 203/203 211/211
f 209/209 211/211 217/217
f 218/218 210/210 212/212
f 218/218 212/212 223/223
f 220/220 215/215 210/210
f 220/220 210/210 218/218
f 227/227 230/230 222/222
f 227/227 222/222 219/219
f 233/233 227/227 219/219
f 233/233 219/219 225/225
f 226/226 234/234 236/236
f 226/226 236/236 228/228
f 239/239 234/234 226/226
f 239/239 226/226 231/231
f 235/235 243/243 246/246
f 235/235 246/246 238/238
f 241/241 249/249 243/243
f 241/241 243/243 235/235
f 244/244 242/242 250/250
f 244/244 250/250 255/255
f 242/242 247/247 252/252
f 242/242 252/252 250/250
f 259/259 251/251 254/254
f 259/259 254/254 262/262
f 265/265 257/257 251/251
f 265/265 251/251 259/259
f 258/258 260/260 271/271
f 258/258 271/271 266/266
f 258/258 266/266 268/268
f 258/258 268/268 263/263
f 276/276 270/270 267/267
f 276/276 267/267 274/274
f 274/274 267/267 272/272
f 274/274 272/272 277/277
f 276/276 274/274 279/279
f 276/276 279/279 281/281
f 274/274 277/277 282/282
f 274/274 282/282 279/279
f 281/281 279/279 284/284
f 281/281 284/284 286/286
f 279/279 282/282 287/287
f 279/279 287/287 284/284
f 286/286 284/284 289/289
f 286/286 289/289 291/291
f 284/284 287/287 292/292
f 284/284 292/292 289/289
f 291/291 289/289 294/294
f 291/291 294/294 296/296
f 289/289 292/292 297/297
f 289/289 297/297 294/294
f 296/296 294/294 299/299
f 296/296 299/299 301/301
f 294/294 297/297 302/302
f 294/294 302/302 299/299
f 301/301 299/299 304/304
f 301/301 304/304 306/306
f 299/299 302/302 307/307
f 299/299 307/307 304/304
f 306/306 304/304 309/309
f 306/306 309/309 311/311
f 304/304 307/307 312/312
f 304/304 312/312 309/309
f 311/311 309/309 314/314
f 311/311 314/314 316/316
f 309/309 312/312 317/317
f 309/309 317/317 314/314
f 316/316 314/314 126/126
f 316/316 126/126 122/122
f 314/314 317/317 319/319
f 314/314 319/319 126/126
f 321/321 324/324 320/320
f 321/321 320/320 318/318
f 325/325 321/321 318/318
f 325/325 318/318 313/313
f 323/323 321/321 325/325
f 323/323 325/325 327/327
f 406/406 324/324 321/321
f 406/406 321/321 323/323
f 327/327 325/325 328/328
f 327/327 328/328 330/330
f 328/328 325/325 313/313
f 328/328 313/313 308/308
f 330/330 328/328 331/331
f 330/330 331/331 333/333
f 331/331 328/328 308/308
f 331/331 308/308 303/303
f 333/333 331/331 334/334
f 333/333 334/334 336/336
f 334/334 331/331 303/303
f 334/334 303/303 298/298
f 336/336 334/334 337/337
f 336/336 337/337 339/339
f 337/337 334/334 298/298
f 337/337 298/298 293/293
f 339/339 337/337 340/340
f 339/339 340/340 342/342
f 340/340 337/337 293/293
f 340/340 293/293 288/288
f 342/342 340/340 343/343
f 342/342 343/343 345/345
f 343/343 340/340 288/288
f 343/343 288/288 283/283
f 345/345 343/343 346/346
f 345/345 346/346 349/349
f 346/346 343/343 283/283
f 346/346 283/283 278/278
f 346/346 350/350 351/351
f 346/346 351/351 347/347
f 349/349 346/346 347/347
f 349/349 347/347 353/353
f 350/350 346/346 278/278
f 350/350 278/278 273/273
f 351/351 350/350 273/273
f 351/351 273/273 261/261
f 347/347 351/351 261/261
f 347/347 261/261 240/240
f 344/344 348/348 74/74
f 344/344 74/74 78/78
f 348/348 352/352 70/70
f 348/348 70/70 74/74
f 347/347 357/357 356/356
f 347/347 356/356 353/353
f 352/352 354/354 64/64
f 352/352 64/64 70/70
f 359/359 356/356 357/357
f 359/359 357/357 360/360
f 355/355 358/358 59/59
f 355/355 59/59 65/65
f 362/362 359/359 360/360
f 362/362 360/360 363/363
f 358/358 361/361 55/55
f 358/358 55/55 59/59
f 365/365 362/362 363/363
f 365/365 363/363 366/366
f 361/361 364/364 51/51
f 361/361 51/51 55/55
f 368/368 365/365 366/366
f 368/368 366/366 369/369
f 364/364 367/367 47/47
f 364/364 47/47 51/51
f 371/371 368/368 369/369
f 371/371 369/369 372/372
f 367/367 370/370 43/43
f 367/367 43/43 47/47
f 374/374 371/371 372/372
f 374/374 372/372 375/375
f 370/370 373/373 39/39
f 370/370 39/39 43/43
f 377/377 374/374 375/375
f 377/377 375/375 378/378
f 373/373 376/376 35/35
f 373/373 35/35 39/39
f 380/380 377/377 378/378
f 380/380 378/378 381/381
f 376/376 379/379 31/31
f 376/376 31/31 35/35
f 383/383 380/380 381/381
f 383/383 381/381 384/384
f 379/379 382/382 27/27
f 379/379 27/27 31/31
f 386/386 383/383 384/384
f 386/386 384/384 387/387
f 382/382 385/385 23/23
f 382/382 23/23 27/27
f 389/389 386/386 387/387
f 389/389 387/387 390/390
f 385/385 388/388 19/19
f 385/385 19/19 23/23
f 392/392 389/389 390/390
f 392/392 390/390 393/393
f 388/388 391/391 17/17
f 388/388 17/17 19/19
f 396/396 392/392 393/393
f 396/396 393/393 397/397
f 391/391 395/395 14/14
f 391/391 14/14 17/17
f 396/396 397/397 400/400
f 396/396 400/400 399/399
f 394/394 398/398 403/403
f 394/394 403/403 13/13
f 399/399 400/400 404/404
f 399/399 404/404 402/402
f 398/398 401/401 114/114
f 398/398 114/114 403/403
f 402/402 404/404 324/324
f 402/402 324/324 406/406
f 401/401 405/405 110/110
f 401/401 110/110 114/114
f 405/405 322/322 106/106
f 405/405 106/106 110/110
f 404/404 400/400 129/129
f 404/404 129/129 125/125
f 324/324 404/404 125/125
f 324/324 125/125 320/320
f 400/400 397/397 134/134
f 400/400 134/134 129/129
f 397/397 393/393 139/139
f 397/397 139/139 134/134
f 393/393 390/390 144/144
f 393/393 144/144 139/139
f 390/390 387/387 149/149
f 390/390 149/149 144/144
f 387/387 384/384 154/154
f 387/387 154/154 149/149
f 384/384 381/381 159/159
f 384/384 159/159 154/154
f 381/381 378/378 164/164
f 381/381 164/164 159/159
f 378/378 375/375 169/169
f 378/378 169/169 164/164
f 375/375 372/372 174/174
f 375/375 174/174 169/169
f 372/372 369/369 179/179
f 372/372 179/179 174/174
f 369/369 366/366 184/184
f 369/369 184/184 179/179
f 366/366 363/363 189/189
f 366/366 189/189 184/184
f 363/363 360/360 194/194
f 363/363 194/194 189/189
f 360/360 357/357 408/408
f 360/360 408/408 407/407
f 360/360 407/407 201/201
f 360/360 201/201 194/194
f 407/407 408/408 205/205
f 407/407 205/205 201/201
f 408/408 357/357 232/232
f 408/408 232/232 205/205
f 347/347 240/240 232/232
f 347/347 232/232 357/357
f 341/341 344/344 78/78
f 341/341 78/78 82/82
f 338/338 341/341 82/82
f 338/338 82/82 86/86
f 335/335 338/338 86/86
f 335/335 86/86 90/90
f 332/332 335/335 90/90
f 332/332 90/90 94/94
f 329/329 332/332 94/94
f 329/329 94/94 98/98
f 326/326 329/329 98/98
f 326/326 98/98 102/102
f 322/322 326/326 102/102
f 322/322 102/102 106/106
f 111/111 107/107 315/315
f 111/111 315/315 121/121
f 107/107 103/103 310/310
f 107/107 310/310 315/315
f 103/103 99/99 305/305
f 103/103 305/305 310/310
f 99/99 95/95 300/300
f 99/99 300/300 305/305
f 95/95 91/91 295/295
f 95/95 295/295 300/300
f 91/91 87/87 290/290
f 91/91 290/290 295/295
f 87/87 83/83 285/285
f 87/87 285/285 290/290
f 83/83 79/79 280/280
f 83/83 280/280 285/285
f 79/79 75/75 275/275
f 79/79 275/275 280/280
f 275/275 237/237 264/264
f 275/275 264/264 269/269
f 75/75 71/71 237/237
f 75/75 237/237 275/275
f 237/237 245/245 256/256
f 237/237 256/256 264/264
f 261/261 253/253 248/248
f 261/261 248/248 240/240
f 71/71 66/66 229/229
f 71/71 229/229 237/237
f 205/205 232/232 224/224
f 205/205 224/224 213/213
f 191/191 197/197 207/207
f 191/191 207/207 229/229
f 60/60 191/191 229/229
f 60/60 229/229 66/66
f 229/229 207/207 216/216
f 229/229 216/216 221/221
f 56/56 186/186 191/191
f 56/56 191/191 60/60
f 52/52 181/181 186/186
f 52/52 186/186 56/56
f 48/48 176/176 181/181
f 48/48 181/181 52/52
f 44/44 171/171 176/176
f 44/44 176/176 48/48
f 40/40 166/166 171/171
f 40/40 171/171 44/44
f 36/36 161/161 166/166
f 36/36 166/166 40/40
f 32/32 156/156 161/161
f 32/32 161/161 36/36
f 28/28 151/151 156/156
f 28/28 156/156 32/32
f 24/24 146/146 151/151
f 24/24 151/151 28/28
f 20/20 141/141 146/146
f 20/20 146/146 24/24
f 4/4 136/136 141/141
f 4/4 141/141 20/20
f 414/414 409/409 411/411
f 414/414 411/411 419/419
f 409/409 414/414 422/422
f 409/409 422/422 413/413
f 417/417 414/414 419/419
f 417/417 419/419 454/454
f 414/414 417/417 422/422
f 420/420 423/423 437/437
f 420/420 437/437 412/412
f 435/435 424/424 421/421
f 435/435 421/421 415/415
f 429/429 426/426 436/436
f 462/462 432/432 425/425
f 462/462 425/425 428/428
f 423/423 430/430 437/437
f 437/437 430/430 440/440
f 437/437 440/440 438/438
f 439/439 442/442 444/444
f 439/439 444/444 443/443
f 443/443 444/444 448/448
f 443/443 448/448 446/446
f 445/445 447/447 418/418
f 445/445 418/418 410/410
f 444/444 457/457 451/451
f 444/444 451/451 448/448
f 447/447 449/449 452/452
f 447/447 452/452 418/418
f 456/456 416/416 453/453
f 456/456 453/453 450/450
f 459/459 435/435 415/415
f 459/459 415/415 455/455
f 431/431 459/459 455/455
f 431/431 455/455 441/441
f 442/442 457/457 444/444
f 461/461 427/427 434/434
f 461/461 434/434 458/458
f 433/433 463/463 460/460
f 465/465 464/464 467/467
f 465/465 467/467 470/470
f 464/464 465/465 480/480
f 464/464 480/480 466/466
f 467/467 464/464 466/466
f 467/467 466/466 469/469
f 470/470 467/467 468/468
f 470/470 468/468 472/472
f 468/468 467/467 469/469
f 468/468 469/469 476/476
f 471/471 470/470 472/472
f 471/471 472/472 473/473
f 479/479 465/465 470/470
f 479/479 470/470 471/471
f 472/472 468/468 476/476
f 472/472 476/476 474/474
f 473/473 472/472 474/474
f 473/473 474/474 475/475
f 471/471 473/473 475/475
f 471/471 475/475 477/477
f 479/479 471/471 477/477
f 479/479 477/477 478/478
f 465/465 479/479 478/478
f 465/465 478/478 480/480
f 486/486 491/491 483/483
f 486/486 483/483 481/481
f 481/481 485/485 494/494
f 481/481 494/494 486/486
f 489/489 526/526 491/491
f 489/489 491/491 486/486
f 486/486 494/494 489/489
f 492/492 484/484 509/509
f 492/492 509/509 495/495
f 507/507 487/487 493/493
f 507/507 493/493 496/496
f 501/501 508/508 498/498
f 534/534 500/500 497/497
f 534/534 497/497 504/504
f 495/495 509/509 502/502
f 509/509 510/510 512/512
f 509/509 512/512 502/502
f 511/511 515/515 516/516
f 511/511 516/516 514/514
f 515/515 518/518 520/520
f 515/515 520/520 516/516
f 517/517 482/482 490/490
f 517/517 490/490 519/519
f 516/516 520/520 523/523
f 516/516 523/523 529/529
f 519/519 490/490 524/524
f 519/519 524/524 521/521
f 528/528 522/522 525/525
f 528/528 525/525 488/488
f 531/531 527/527 487/487
f 531/531 487/487 507/507
f 503/503 513/513 527/527
f 503/503 527/527 531/531
f 514/514 516/516 529/529
f 533/533 530/530 506/506
f 533/533 506/506 499/499
f 505/505 532/532 535/535
f 537/537 542/542 539/539
f 537/537 539/539 536/536
f 536/536 538/538 552/552
f 536/536 552/552 537/537
f 539/539 541/541 538/538
f 539/539 538/538 536/536
f 542/542 544/544 540/540
f 542/542 540/540 539/539
f 540/540 548/548 541/541
f 540/540 541/541 539/539
f 543/543 545/545 544/544
f 543/543 544/544 542/542
f 551/551 543/543 542/542
f 551/551 542/542 537/537
f 544/544 546/546 548/548
f 544/544 548/548 540/540
f 545/545 547/547 546/546
f 545/545 546/546 544/544
f 543/543 549/549 547/547
f 543/543 547/547 545/545
f 551/551 550/550 549/549
f 551/551 549/549 543/543
f 537/537 552/552 550/550
f 537/537 550/550 551/551
f 558/558 555/555 668/668
f 558/558 668/668 666/666
f 561/561 559/559 667/667
f 561/561 667/667 669/669
f 563/563 561/561 669/669
f 563/563 669/669 670/670
f 565/565 563/563 670/670
f 565/565 670/670 671/671
f 567/567 565/565 671/671
f 567/567 671/671 672/672
f 569/569 567/567 672/672
f 569/569 672/672 673/673
f 571/571 569/569 673/673
f 571/571 673/673 674/674
f 573/573 571/571 674/674
f 573/573 674/674 675/675
f 575/575 573/573 675/675
f 575/575 675/675 676/676
f 577/577 575/575 676/676
f 577/577 676/676 677/677
f 579/579 577/577 677/677
f 579/579 677/677 678/678
f 581/581 579/579 678/678
f 581/581 678/678 679/679
f 581/581 679/679 689/689
f 581/581 689/689 629/629
f 585/585 582/582 618/618
f 585/585 618/618 680/680
f 587/587 585/585 680/680
f 587/587 680/680 685/685
f 553/553 587/587 685/685
f 553/553 685/685 687/687
f 684/684 637/637 648/648
f 580/580 627/627 633/633
f 580/580 633/633 583/583
f 647/647 636/636 697/697
f 647/647 697/697 691/691
f 638/638 649/649 690/690
f 638/638 690/690 695/695
f 649/649 644/644 692/692
f 649/649 692/692 690/690
f 617/617 684/684 631/631
f 629/629 689/689 693/693
f 629/629 693/693 646/646
f 621/621 584/584 640/640
f 621/621 640/640 698/698
f 661/661 651/651 634/634
f 634/634 654/654 659/659
f 634/634 659/659 661/661
f 657/657 628/628 645/645
f 645/645 663/663 665/665
f 645/645 665/665 657/657
f 644/644 649/649 660/660
f 644/644 660/660 662/662
f 658/658 664/664 662/662
f 658/658 662/662 660/660
f 632/632 626/626 655/655
f 632/632 655/655 652/652
f 653/653 656/656 664/664
f 653/653 664/664 658/658
f 591/591 593/593 666/666
f 591/591 666/666 668/668
f 594/594 596/596 669/669
f 594/594 669/669 667/667
f 596/596 598/598 670/670
f 596/596 670/670 669/669
f 598/598 600/600 671/671
f 598/598 671/671 670/670
f 600/600 602/602 672/672
f 600/600 672/672 671/671
f 602/602 604/604 673/673
f 602/602 673/673 672/672
f 604/604 606/606 674/674
f 604/604 674/674 673/673
f 606/606 608/608 675/675
f 606/606 675/675 674/674
f 608/608 610/610 676/676
f 608/608 676/676 675/675
f 610/610 612/612 677/677
f 610/610 677/677 676/676
f 612/612 614/614 678/678
f 612/612 678/678 677/677
f 614/614 616/616 679/679
f 614/614 679/679 678/678
f 683/683 622/622 681/681
f 683/683 681/681 620/620
f 622/622 624/624 686/686
f 622/622 686/686 681/681
f 624/624 589/589 688/688
f 624/624 688/688 686/686
f 616/616 630/630 689/689
f 616/616 689/689 679/679
f 642/642 647/647 691/691
f 642/642 691/691 694/694
f 631/631 684/684 648/648
f 631/631 648/648 643/643
f 635/635 682/682 619/619
f 635/635 619/619 696/696
f 630/630 641/641 693/693
f 630/630 693/693 689/689
f 583/583 633/633 650/650
f 583/583 650/650 639/639
f 699/699 556/556 557/557
f 557/557 560/560 562/562
f 562/562 564/564 566/566
f 566/566 568/568 570/570
f 570/570 572/572 574/574
f 574/574 576/576 578/578
f 578/578 580/580 583/583
f 583/583 586/586 588/588
f 588/588 554/554 729/729
f 729/729 727/727 724/724
f 724/724 721/721 719/719
f 719/719 717/717 715/715
f 715/715 713/713 711/711
f 711/711 709/709 707/707
f 707/707 705/705 703/703
f 703/703 701/701 699/699
f 699/699 557/557 562/562
f 562/562 566/566 570/570
f 570/570 574/574 578/578
f 578/578 583/583 588/588
f 588/588 729/729 724/724
f 724/724 719/719 715/715
f 715/715 711/711 707/707
f 707/707 703/703 699/699
f 699/699 562/562 570/570
f 570/570 578/578 588/588
f 588/588 724/724 715/715
f 715/715 707/707 699/699
f 699/699 570/570 588/588
f 588/588 715/715 699/699
f 625/625 623/623 684/684
f 684/684 617/617 615/615
f 615/615 613/613 611/611
f 611/611 609/609 607/607
f 607/607 605/605 603/603
f 603/603 601/601 599/599
f 599/599 597/597 595/595
f 595/595 592/592 731/731
f 731/731 733/733 735/735
f 735/735 737/737 739/739
f 739/739 741/741 743/743
f 743/743 745/745 747/747
f 747/747 749/749 751/751
f 751/751 753/753 818/818
f 818/818 759/759 761/761
f 761/761 590/590 625/625
f 625/625 684/684 615/615
f 615/615 611/611 607/607
f 607/607 603/603 599/599
f 599/599 595/595 731/731
f 731/731 735/735 739/739
f 739/739 743/743 747/747
f 747/747 751/751 818/818
f 818/818 761/761 625/625
f 625/625 615/615 607/607
f 607/607 599/599 731/731
f 731/731 739/739 747/747
f 747/747 818/818 625/625
f 625/625 607/607 731/731
f 625/625 731/731 747/747
f 700/700 802/802 668/668
f 700/700 668/668 555/555
f 702/702 803/803 802/802
f 702/702 802/802 700/700
f 704/704 804/804 803/803
f 704/704 803/803 702/702
f 706/706 805/805 804/804
f 706/706 804/804 704/704
f 708/708 806/806 805/805
f 708/708 805/805 706/706
f 710/710 807/807 806/806
f 710/710 806/806 708/708
f 712/712 808/808 807/807
f 712/712 807/807 710/710
f 714/714 809/809 808/808
f 714/714 808/808 712/712
f 716/716 810/810 809/809
f 716/716 809/809 714/714
f 718/718 811/811 810/810
f 718/718 810/810 716/716
f 720/720 812/812 811/811
f 720/720 811/811 718/718
f 722/722 813/813 812/812
f 722/722 812/812 720/720
f 722/722 764/764 821/821
f 722/722 821/821 813/813
f 726/726 814/814 754/754
f 726/726 754/754 723/723
f 728/728 819/819 814/814
f 728/728 814/814 726/726
f 553/553 687/687 819/819
f 553/553 819/819 728/728
f 818/818 784/784 773/773
f 721/721 724/724 769/769
f 721/721 769/769 763/763
f 783/783 823/823 829/829
f 783/783 829/829 772/772
f 774/774 827/827 822/822
f 774/774 822/822 785/785
f 785/785 822/822 824/824
f 785/785 824/824 780/780
f 753/753 767/767 818/818
f 764/764 781/781 825/825
f 764/764 825/825 821/821
f 757/757 830/830 776/776
f 757/757 776/776 725/725
f 770/770 787/787 797/797
f 797/797 795/795 790/790
f 797/797 790/790 770/770
f 782/782 765/765 793/793
f 793/793 801/801 799/799
f 793/793 799/799 782/782
f 780/780 798/798 796/796
f 780/780 796/796 785/785
f 794/794 796/796 798/798
f 794/794 798/798 800/800
f 768/768 788/788 791/791
f 768/768 791/791 762/762
f 789/789 794/794 800/800
f 789/789 800/800 792/792
f 591/591 668/668 802/802
f 591/591 802/802 730/730
f 730/730 802/802 803/803
f 730/730 803/803 732/732
f 732/732 803/803 804/804
f 732/732 804/804 734/734
f 734/734 804/804 805/805
f 734/734 805/805 736/736
f 736/736 805/805 806/806
f 736/736 806/806 738/738
f 738/738 806/806 807/807
f 738/738 807/807 740/740
f 740/740 807/807 808/808
f 740/740 808/808 742/742
f 742/742 808/808 809/809
f 742/742 809/809 744/744
f 744/744 809/809 810/810
f 744/744 810/810 746/746
f 746/746 810/810 811/811
f 746/746 811/811 748/748
f 748/748 811/811 812/812
f 748/748 812/812 750/750
f 750/750 812/812 813/813
f 750/750 813/813 752/752
f 817/817 756/756 815/815
f 817/817 815/815 758/758
f 758/758 815/815 820/820
f 758/758 820/820 760/760
f 760/760 820/820 688/688
f 760/760 688/688 589/589
f 752/752 813/813 821/821
f 752/752 821/821 766/766
f 778/778 826/826 823/823
f 778/778 823/823 783/783
f 767/767 779/779 784/784
f 767/767 784/784 818/818
f 771/771 828/828 755/755
f 771/771 755/755 816/816
f 766/766 821/821 825/825
f 766/766 825/825 777/777
f 724/724 775/775 786/786
f 724/724 786/786 769/769
