# CC0 Poly Haven, Z-up, floor-centered
v -0.020000 0.450000 0.000000
v -0.020000 -0.450000 0.000000
v -0.020000 -0.450000 2.030000
v -0.020000 0.450000 2.030000
v 0.020000 -0.450000 0.000000
v 0.020000 0.450000 0.000000
v 0.020000 0.450000 2.030000
v 0.020000 -0.450000 2.030000
v -0.020000 0.450000 0.000000
v -0.020000 0.450000 2.030000
v 0.020000 0.450000 2.030000
v 0.020000 0.450000 0.000000
v 0.020000 -0.450000 0.000000
v 0.020000 -0.450000 2.030000
v -0.020000 -0.450000 2.030000
v -0.020000 -0.450000 0.000000
v -0.020000 0.450000 2.030000
v -0.020000 -0.450000 2.030000
v 0.020000 -0.450000 2.030000
v 0.020000 0.450000 2.030000
v -0.020000 -0.450000 0.000000
v -0.020000 0.450000 0.000000
v 0.020000 0.450000 0.000000
v 0.020000 -0.450000 0.000000
vt 0.275000 0.000000
vt 0.725000 0.000000
vt 0.725000 1.000000
vt 0.275000 1.000000
vt 0.020000 0.020000
vt 0.080000 0.020000
vt 0.080000 0.080000
vt 0.020000 0.080000
vt 0.020000 0.020000
vt 0.020000 0.200000
vt 0.060000 0.200000
vt 0.060000 0.020000
vt 0.020000 0.020000
vt 0.020000 0.200000
vt 0.060000 0.200000
vt 0.060000 0.020000
vt 0.020000 0.020000
vt 0.100000 0.020000
vt 0.100000 0.060000
vt 0.020000 0.060000
vt 0.020000 0.020000
vt 0.100000 0.020000
vt 0.100000 0.060000
vt 0.020000 0.060000
f 1/1 2/2 3/3
f 1/1 3/3 4/4
f 5/5 6/6 7/7
f 5/5 7/7 8/8
f 9/9 10/10 11/11
f 9/9 11/11 12/12
f 13/13 14/14 15/15
f 13/13 15/15 16/16
f 17/17 18/18 19/19
f 17/17 19/19 20/20
f 21/21 22/22 23/23
f 21/21 23/23 24/24
