# CC0 Poly Haven, Z-up, floor-centered
v -1.100000 -0.350000 0.012000
v 1.100000 -0.350000 0.012000
v 1.100000 0.350000 0.012000
v -1.100000 0.350000 0.012000
v -1.100000 0.350000 0.000000
v 1.100000 0.350000 0.000000
v 1.100000 -0.350000 0.000000
v -1.100000 -0.350000 0.000000
v -1.100000 -0.350000 0.000000
v 1.100000 -0.350000 0.000000
v 1.100000 -0.350000 0.012000
v -1.100000 -0.350000 0.012000
v 1.100000 0.350000 0.000000
v -1.100000 0.350000 0.000000
v -1.100000 0.350000 0.012000
v 1.100000 0.350000 0.012000
v 1.100000 -0.350000 0.000000
v 1.100000 0.350000 0.000000
v 1.100000 0.350000 0.012000
v 1.100000 -0.350000 0.012000
v -1.100000 0.350000 0.000000
v -1.100000 -0.350000 0.000000
v -1.100000 -0.350000 0.012000
v -1.100000 0.350000 0.012000
vt 0.000000 0.000000
vt 8.148148 0.000000
vt 8.148148 2.536232
vt 0.000000 2.536232
vt 0.000000 0.000000
vt 0.200000 0.000000
vt 0.200000 0.200000
vt 0.000000 0.200000
vt 0.000000 0.000000
vt 0.400000 0.000000
vt 0.400000 0.050000
vt 0.000000 0.050000
vt 0.000000 0.000000
vt 0.400000 0.000000
vt 0.400000 0.050000
vt 0.000000 0.050000
vt 0.000000 0.000000
vt 0.200000 0.000000
vt 0.200000 0.050000
vt 0.000000 0.050000
vt 0.000000 0.000000
vt 0.200000 0.000000
vt 0.200000 0.050000
vt 0.000000 0.050000
f 1/1 2/2 3/3
f 1/1 3/3 4/4
f 5/5 6/6 7/7
f 5/5 7/7 8/8
f 9/9 10/10 11/11
f 9/9 11/11 12/12
f 13/13 14/14 15/15
f 13/13 15/15 16/16
f 17/17 18/18 19/19
f 17/17 19/19 20/20
f 21/21 22/22 23/23
f 21/21 23/23 24/24
