# CC0 albedo mesh for MuJoCo kit_cam rooms
v -0.687795 0.149458 0.869315
v -0.687795 0.149458 0.869315
v -0.632090 0.065546 0.870009
v -0.752277 0.019514 0.870627
v -0.913355 -0.053462 0.872736
v -0.913355 -0.053462 0.872736
v -1.002865 -0.154479 0.821814
v -1.002865 -0.154479 0.821814
v -1.022786 -0.238019 0.808761
v -1.033312 -0.253090 0.751016
v -1.033312 -0.253090 0.751016
v -0.049344 -0.631321 0.605348
v -0.049344 -0.631321 0.605348
v 0.009031 -0.626673 0.707890
v 0.272651 -0.638386 0.660856
v 0.272651 -0.638386 0.660856
v 0.442664 -0.638420 0.691538
v 0.442664 -0.638420 0.691538
v 0.188344 -0.619583 0.742102
v 0.364433 -0.615093 0.753799
v 0.578541 -0.633749 0.717506
v 0.578541 -0.633749 0.717506
v 0.649239 -0.613050 0.753013
v 0.716693 -0.621690 0.740642
v 0.716693 -0.621690 0.740642
v 1.127948 -0.560479 0.754616
v 1.127948 -0.560479 0.754616
v 1.101652 -0.566172 0.763478
v 1.101652 -0.566172 0.763478
v 1.087512 -0.328157 0.772783
v 1.087512 -0.328157 0.772783
v 1.057877 -0.103621 0.804764
v 1.057877 -0.103621 0.804764
v 1.049090 -0.309619 0.811709
v 1.041057 -0.012085 0.813785
v 1.041057 -0.012085 0.813785
v 0.905433 0.633534 0.756847
v 0.905433 0.633534 0.756847
v 0.775561 0.549386 0.823059
v 0.824641 0.636886 0.750526
v 1.060708 -0.577933 0.803904
v 1.060708 -0.577933 0.803904
v 1.038715 -0.532009 0.814206
v 0.694203 0.650123 0.696862
v 0.898517 0.643820 0.719114
v 0.898517 0.643820 0.719114
v 0.978742 -0.584429 0.777820
v 0.978742 -0.584429 0.777820
v 0.852896 -0.532124 0.813991
v 0.685342 0.635932 0.750865
v 0.680022 0.561907 0.806391
v 0.581159 0.621051 0.768533
v 0.544410 0.642612 0.742953
v 0.475490 0.666297 0.658243
v 0.475490 0.666297 0.658243
v 0.545369 0.556061 0.808663
v 0.797316 -0.612926 0.755816
v 0.797316 -0.612926 0.755816
v 0.472590 0.538211 0.813781
v 0.469991 0.623513 0.766291
v 0.397639 0.641854 0.739505
v 0.638698 -0.298192 0.814202
v 0.633166 -0.549533 0.804326
v 0.521108 0.186292 0.825022
v 0.426194 0.545525 0.813704
v 0.593934 -0.299010 0.814244
v 0.601469 -0.227661 0.821320
v 0.342676 0.605455 0.783906
v 0.298226 0.493092 0.814243
v 0.340843 0.547376 0.815345
v 0.509136 -0.609932 0.758253
v 0.264971 0.634677 0.753587
v 0.345929 0.670763 0.691516
v 0.345929 0.670763 0.691516
v 0.591283 -0.524955 0.814155
v 0.393286 0.020191 0.814396
v 0.392241 0.182707 0.814294
v 0.378919 0.122124 0.826845
v 0.343701 0.197607 0.834554
v 0.257100 0.504690 0.845625
v 0.351468 -0.560005 0.797565
v 0.315169 -0.435368 0.814341
v 0.291696 0.225237 0.814497
v 0.257943 0.550075 0.813395
v 0.239000 0.695118 0.779965
v 0.239000 0.695118 0.779965
v 0.292669 0.312345 0.836246
v 0.217138 0.529710 0.815639
v 0.251950 0.594537 0.822836
v 0.174340 0.674825 0.754294
v 0.174340 0.674825 0.754294
v 0.193639 0.589307 0.813240
v 0.163322 0.517784 0.818112
v 0.169882 0.416533 0.824410
v 0.130513 0.603847 0.794415
v 0.091594 0.618709 0.769746
v 0.169485 0.302998 0.828629
v 0.298727 -0.522384 0.814191
v 0.209336 -0.529312 0.813505
v 0.266294 -0.273119 0.823389
v 0.155512 0.221965 0.814301
v 0.136098 0.354171 0.826927
v 0.107079 0.516458 0.825748
v 0.108415 0.555688 0.812645
v 0.075716 0.534927 0.814796
v 0.169059 -0.600872 0.767460
v -0.195327 0.539284 0.813998
v -0.072757 0.548545 0.814650
v -0.000911 0.643854 0.746912
v -0.000911 0.643854 0.746912
v -0.600802 0.072587 0.814178
v 0.021460 -0.557743 0.797799
v 0.020847 -0.616171 0.752105
v -0.026201 -0.526851 0.813733
v -0.224716 0.558115 0.809031
v -0.265620 0.608721 0.772132
v -0.265620 0.608721 0.772132
v -0.200386 -0.531492 0.814070
v -0.688353 0.424952 0.814283
v -0.468532 0.537370 0.814053
v -0.123608 -0.614035 0.755121
v -0.312292 -0.621903 0.731933
v -0.455954 0.586241 0.796840
v -0.455954 0.586241 0.796840
v -0.366036 -0.625923 0.685731
v -0.272412 -0.612247 0.757667
v -0.465161 -0.547868 0.803765
v -0.429838 -0.609886 0.759573
v -0.539382 -0.527573 0.813707
v -0.658617 0.491587 0.814656
v -0.640914 0.540715 0.840145
v -0.640914 0.540715 0.840145
v -0.635519 0.558907 0.817871
v -0.635519 0.558907 0.817871
v -0.919673 -0.093636 0.814180
v -0.746973 0.282874 0.814299
v -0.725835 0.349667 0.816517
v -0.668881 0.486893 0.829477
v -0.676892 0.458364 0.837917
v -0.525995 -0.620659 0.735722
v -0.596440 -0.612302 0.758206
v -0.707145 0.399718 0.827995
v -0.701895 0.394358 0.841987
v -0.772246 -0.625064 0.483009
v -0.772246 -0.625064 0.483009
v -0.644549 -0.624266 0.681077
v -0.745326 0.313433 0.828368
v -0.721268 0.337753 0.841584
v -0.545570 0.388576 0.839612
v -0.545570 0.388576 0.839612
v -0.587495 0.454454 0.838112
v -0.587495 0.454454 0.838112
v -0.781734 0.224005 0.816005
v -0.753228 0.285771 0.839155
v -0.758940 -0.624165 0.719621
v -0.729975 -0.525531 0.823367
v -0.765178 0.247831 0.840805
v -0.577116 0.311464 0.840450
v -0.803978 0.165909 0.814399
v -0.791848 0.198360 0.839344
v -0.756438 -0.614741 0.755657
v -0.837260 0.088642 0.814457
v -0.822224 0.139686 0.829182
v -0.793631 0.168547 0.841119
v -0.593408 0.217105 0.840746
v -0.863607 0.022776 0.814431
v -0.829720 0.111268 0.839833
v -0.888803 -0.025746 0.815873
v -0.860645 0.052453 0.829458
v -0.830305 0.080676 0.841354
v -0.629136 0.121928 0.840874
v -0.869541 0.022075 0.839468
v -0.887246 -0.021599 0.840124
v -0.785684 -0.048011 0.840033
v -0.895551 -0.618305 0.752617
v -0.906830 -0.064410 0.839729
v -0.481946 0.166120 0.839780
v -0.936415 -0.530009 0.812802
v -0.944875 -0.144233 0.816918
v -0.928020 -0.121721 0.840859
v -0.664136 0.019915 0.840088
v -0.952380 -0.501482 0.814088
v -0.951911 -0.195309 0.813006
v -0.980763 -0.249675 0.802661
v -0.957507 -0.172370 0.823511
v -0.470848 0.271644 0.839309
v -0.470848 0.271644 0.839309
v -0.377993 0.127970 0.841925
v -0.377993 0.127970 0.841925
v -0.889823 -0.634548 0.463426
v -0.889823 -0.634548 0.463426
v -0.941586 -0.625533 0.698584
v -0.962215 -0.196101 0.833969
v -0.512947 0.036952 0.839722
v -0.984599 -0.473514 0.789879
v -0.995053 -0.324523 0.788112
v -0.999667 -0.297124 0.796155
v -0.993522 -0.262282 0.828720
v -0.948888 -0.220030 0.840118
v -0.785491 -0.169575 0.839504
v -0.658350 -0.061185 0.839488
v -0.963558 -0.614753 0.663134
v -1.037110 -0.618945 0.721282
v -1.012376 -0.318840 0.811729
v -0.975020 -0.577321 0.447964
v -0.975020 -0.577321 0.447964
v -1.036286 -0.511300 0.792691
v -1.027565 -0.456551 0.776270
v -0.960769 -0.325891 0.839424
v -0.905540 -0.255781 0.842399
v -0.714769 -0.127782 0.845363
v -0.549087 -0.006750 0.863752
v -1.074786 -0.476463 0.783416
v -1.015743 -0.440451 0.768624
v -1.034580 -0.377263 0.815809
v -1.027114 -0.351616 0.789306
v -0.865455 -0.250768 0.862318
v -0.713261 -0.122176 0.869508
v -1.037029 -0.590827 0.729848
v -1.024952 -0.605476 0.754258
v -1.051272 -0.415202 0.816329
v -1.036518 -0.376362 0.844067
v -0.885625 -0.242499 0.876989
v -0.524634 0.052601 0.871776
v -0.639570 -0.054710 0.873072
v -0.560752 0.074458 0.867593
v -0.999492 -0.586522 0.441207
v -0.999492 -0.586522 0.441207
v -1.035891 -0.649174 0.557138
v -1.022904 -0.621903 0.686573
v -1.047866 -0.648986 0.619739
v -1.055865 -0.615947 0.689919
v -1.089021 -0.458377 0.769618
v -1.078697 -0.414860 0.795134
v -1.058417 -0.373941 0.831527
v -0.385397 0.135772 0.868078
v -0.385397 0.135772 0.868078
v -1.058993 -0.634156 0.665403
v -1.076529 -0.618357 0.639150
v -1.016782 -0.256669 0.843562
v -1.003483 -0.298418 0.859554
v -0.840925 -0.151779 0.866959
v -0.480742 0.240969 0.870719
v -0.480742 0.240969 0.870719
v -1.061549 -0.670308 0.533509
v -1.091523 -0.653703 0.584550
v -1.074402 -0.643324 0.629348
v -1.048150 -0.343884 0.690006
v -1.048150 -0.343884 0.690006
v -1.032725 -0.663175 0.416540
v -1.032725 -0.663175 0.416540
v -1.115084 -0.631716 0.566185
v -1.059862 -0.564075 0.564279
v -1.059862 -0.564075 0.564279
v -1.054702 -0.471307 0.611542
v -1.054702 -0.471307 0.611542
v -0.952695 -0.153663 0.867621
v -1.078329 -0.695118 0.396940
v -1.078329 -0.695118 0.396940
v -1.115589 -0.683001 0.480678
v -1.115589 -0.683001 0.480678
v -0.572774 0.168683 0.873128
v -0.527973 0.293278 0.867854
v -0.527973 0.293278 0.867854
v -1.127948 -0.633429 0.530618
v -1.127948 -0.633429 0.530618
v 0.868379 0.651495 0.574501
v 0.868379 0.651495 0.574501
v 0.273765 0.676045 0.721914
v 0.273765 0.676045 0.721914
v 0.927073 0.547357 0.813568
v 0.927073 0.547357 0.813568
v 0.927073 0.547357 0.813568
v -0.687788 0.149455 0.868940
v -0.687788 0.149455 0.868940
v -0.752280 0.019516 0.870252
v -0.632092 0.065547 0.869634
v -0.913324 -0.053463 0.872362
v -0.913324 -0.053463 0.872362
v -1.002574 -0.154567 0.821594
v -1.002574 -0.154567 0.821594
v -1.032943 -0.253123 0.750958
v -1.032943 -0.253123 0.750958
v -1.022426 -0.238100 0.808694
v -0.049339 -0.630946 0.605329
v -0.049339 -0.630946 0.605329
v 0.272661 -0.638017 0.660787
v 0.272661 -0.638017 0.660787
v 0.009037 -0.626301 0.707834
v 0.442673 -0.638064 0.691422
v 0.442673 -0.638064 0.691422
v 0.364433 -0.614791 0.753579
v 0.188347 -0.619241 0.741949
v 0.578542 -0.633423 0.717323
v 0.578542 -0.633423 0.717323
v 0.716690 -0.621445 0.740359
v 0.716690 -0.621445 0.740359
v 0.649231 -0.612770 0.752762
v 1.127827 -0.560473 0.754261
v 1.127827 -0.560473 0.754261
v 1.087250 -0.328159 0.772517
v 1.087250 -0.328159 0.772517
v 1.101449 -0.566170 0.763163
v 1.101449 -0.566170 0.763163
v 1.057682 -0.103623 0.804444
v 1.057682 -0.103623 0.804444
v 1.041051 -0.012083 0.813410
v 1.041051 -0.012083 0.813410
v 1.048940 -0.309621 0.811365
v 0.905431 0.633240 0.756612
v 0.905431 0.633240 0.756612
v 0.824645 0.636571 0.750323
v 0.786792 0.550607 0.813320
v 1.060595 -0.577877 0.803552
v 1.060595 -0.577877 0.803552
v 1.038668 -0.531952 0.813839
v 0.898510 0.643450 0.719051
v 0.898510 0.643450 0.719051
v 0.694192 0.649754 0.696799
v 0.978762 -0.584228 0.777503
v 0.978762 -0.584228 0.777503
v 0.852899 -0.532008 0.813634
v 0.685336 0.635622 0.750656
v 0.581180 0.620808 0.768247
v 0.680021 0.561703 0.806075
v 0.544411 0.642291 0.742759
v 0.475477 0.665937 0.658141
v 0.475477 0.665937 0.658141
v 0.545373 0.555895 0.808327
v 0.797344 -0.612720 0.755504
v 0.797344 -0.612720 0.755504
v 0.472583 0.538174 0.813408
v 0.469986 0.623261 0.766014
v 0.397638 0.641531 0.739313
v 0.638693 -0.298187 0.813827
v 0.633163 -0.549340 0.804005
v 0.426190 0.545427 0.813341
v 0.521101 0.186291 0.824648
v 0.601474 -0.227654 0.820945
v 0.593940 -0.299001 0.813869
v 0.342679 0.605215 0.783618
v 0.340839 0.547290 0.814980
v 0.298114 0.493049 0.813888
v 0.509134 -0.609653 0.758002
v 0.345889 0.670455 0.691304
v 0.345889 0.670455 0.691304
v 0.264757 0.634493 0.753340
v 0.591284 -0.524881 0.813788
v 0.392163 0.182689 0.813927
v 0.393285 0.020195 0.814022
v 0.378795 0.122143 0.826492
v 0.343707 0.197630 0.834179
v 0.257097 0.504633 0.845254
v 0.351467 -0.559810 0.797244
v 0.315149 -0.435364 0.813967
v 0.291780 0.225276 0.814133
v 0.257684 0.549959 0.813149
v 0.238872 0.694989 0.779638
v 0.238872 0.694989 0.779638
v 0.292828 0.312396 0.835910
v 0.217229 0.529700 0.815275
v 0.251742 0.594422 0.822546
v 0.174436 0.674653 0.753976
v 0.174436 0.674653 0.753976
v 0.193701 0.589198 0.812885
v 0.163339 0.517774 0.817738
v 0.169836 0.416522 0.812874
v 0.130590 0.603676 0.794091
v 0.091645 0.618518 0.769429
v 0.169410 0.302995 0.828261
v 0.298723 -0.522311 0.813823
v 0.209339 -0.529207 0.813145
v 0.266330 -0.273110 0.823016
v 0.155597 0.221983 0.813936
v 0.136200 0.354187 0.826566
v 0.108412 0.555561 0.812293
v 0.107045 0.516402 0.825379
v 0.075745 0.534896 0.814424
v 0.169058 -0.600617 0.767185
v -0.195323 0.539243 0.813625
v -0.072755 0.548437 0.814290
v -0.000897 0.643643 0.746603
v -0.000897 0.643643 0.746603
v -0.600802 0.072587 0.813803
v 0.021461 -0.557542 0.797484
v 0.020849 -0.615855 0.751904
v -0.026203 -0.526765 0.813368
v -0.224716 0.557954 0.808692
v -0.265628 0.608496 0.771832
v -0.265628 0.608496 0.771832
v -0.200387 -0.531379 0.813713
v -0.688585 0.425056 0.814007
v -0.468538 0.537313 0.813682
v -0.123609 -0.613728 0.754906
v -0.312289 -0.621538 0.731846
v -0.455962 0.586108 0.796489
v -0.455962 0.586108 0.796489
v -0.366032 -0.625548 0.685710
v -0.272412 -0.611951 0.757437
v -0.465159 -0.547672 0.803445
v -0.429839 -0.609596 0.759335
v -0.539379 -0.527470 0.813347
v -0.658802 0.491685 0.814345
v -0.635672 0.558956 0.817533
v -0.635672 0.558956 0.817533
v -0.641237 0.540834 0.840294
v -0.641237 0.540834 0.840294
v -0.919926 -0.093533 0.813924
v -0.747170 0.282950 0.813988
v -0.726140 0.349800 0.816346
v -0.669223 0.487049 0.829465
v -0.677139 0.458452 0.838186
v -0.596440 -0.612006 0.757978
v -0.525997 -0.620294 0.735635
v -0.707466 0.399909 0.828038
v -0.702088 0.394452 0.842295
v -0.644550 -0.623892 0.681068
v -0.772255 -0.624689 0.483000
v -0.772255 -0.624689 0.483000
v -0.745669 0.313582 0.828378
v -0.721443 0.337845 0.841902
v -0.587492 0.454461 0.838487
v -0.587492 0.454461 0.838487
v -0.545565 0.388579 0.839987
v -0.545565 0.388579 0.839987
v -0.781992 0.224127 0.815761
v -0.753525 0.285891 0.839350
v -0.758938 -0.623792 0.719575
v -0.730480 -0.530834 0.813599
v -0.765382 0.247907 0.841110
v -0.577112 0.311464 0.840826
v -0.804224 0.166036 0.814146
v -0.792125 0.198457 0.839578
v -0.756439 -0.614434 0.755442
v -0.837522 0.088744 0.814209
v -0.822553 0.139858 0.829230
v -0.793808 0.168612 0.841444
v -0.593405 0.217105 0.841120
v -0.863815 0.022851 0.814129
v -0.829988 0.111338 0.840084
v -0.889045 -0.025634 0.815610
v -0.860978 0.052619 0.829499
v -0.830473 0.080742 0.841683
v -0.629136 0.121927 0.841249
v -0.869805 0.022178 0.839712
v -0.887488 -0.021496 0.840390
v -0.785687 -0.048010 0.840408
v -0.895548 -0.617980 0.752428
v -0.907077 -0.064300 0.839990
v -0.481948 0.166122 0.840155
v -0.936384 -0.529889 0.812447
v -0.945145 -0.144108 0.816689
v -0.928234 -0.121623 0.841151
v -0.664135 0.019911 0.840464
v -0.952304 -0.501479 0.813721
v -0.952057 -0.195244 0.812667
v -0.980912 -0.249553 0.802340
v -0.957862 -0.172269 0.823445
v -0.470845 0.271645 0.839684
v -0.470845 0.271645 0.839684
v -0.378188 0.128197 0.842151
v -0.378188 0.128197 0.842151
v -0.889738 -0.634184 0.463436
v -0.889738 -0.634184 0.463436
v -0.941565 -0.625159 0.698575
v -0.962530 -0.196003 0.834146
v -0.513048 0.037098 0.840052
v -0.995040 -0.324436 0.787748
v -0.984439 -0.473589 0.789548
v -0.999925 -0.297017 0.795905
v -0.993831 -0.262184 0.828909
v -0.948951 -0.220016 0.840488
v -0.785627 -0.169416 0.839815
v -0.658420 -0.061105 0.839848
v -0.963490 -0.614386 0.663180
v -1.036908 -0.618658 0.721148
v -1.012714 -0.318711 0.811827
v -0.975008 -0.576949 0.448010
v -0.975008 -0.576949 0.448010
v -1.027615 -0.456563 0.775898
v -1.036164 -0.511257 0.792339
v -0.905628 -0.255704 0.842755
v -0.961014 -0.325658 0.839589
v -0.714943 -0.127535 0.845585
v -0.549298 -0.006467 0.863628
v -1.074584 -0.476370 0.783114
v -1.015805 -0.440450 0.768254
v -1.027399 -0.351497 0.789094
v -1.034949 -0.377201 0.815803
v -0.865678 -0.250468 0.862284
v -0.713414 -0.121974 0.869231
v -1.024774 -0.605238 0.754029
v -1.036670 -0.590762 0.729765
v -1.036545 -0.376180 0.843739
v -1.051179 -0.414978 0.816042
v -0.885676 -0.242405 0.876630
v -0.524650 0.052614 0.871401
v -0.560752 0.074451 0.867218
v -0.639647 -0.054580 0.872728
v -0.999757 -0.586256 0.441215
v -0.999757 -0.586256 0.441215
v -1.022955 -0.621535 0.686517
v -1.036169 -0.648924 0.557112
v -1.047959 -0.648632 0.619657
v -1.055552 -0.615827 0.689752
v -1.088652 -0.458340 0.769562
v -1.078364 -0.414829 0.794964
v -1.058120 -0.373938 0.831297
v -0.385536 0.135934 0.867771
v -0.385536 0.135934 0.867771
v -1.058829 -0.633868 0.665228
v -1.076193 -0.618435 0.639001
v -1.003358 -0.298416 0.859201
v -1.016493 -0.256745 0.843336
v -0.840921 -0.151798 0.866584
v -0.480745 0.240968 0.870344
v -0.480745 0.240968 0.870344
v -1.061655 -0.669955 0.533439
v -1.091339 -0.653404 0.584417
v -1.074196 -0.643055 0.629188
v -1.047790 -0.343974 0.690047
v -1.047790 -0.343974 0.690047
v -1.032993 -0.662915 0.416510
v -1.032993 -0.662915 0.416510
v -1.114736 -0.631733 0.566045
v -1.059523 -0.564211 0.564196
v -1.059523 -0.564211 0.564196
v -1.054328 -0.471291 0.611568
v -1.054328 -0.471291 0.611568
v -0.952567 -0.153704 0.867272
v -1.078478 -0.694776 0.396897
v -1.078478 -0.694776 0.396897
v -1.115537 -0.682641 0.480588
v -1.115537 -0.682641 0.480588
v -0.527965 0.293259 0.867480
v -0.527965 0.293259 0.867480
v -0.572777 0.168683 0.872753
v -1.127603 -0.633352 0.530489
v -1.127603 -0.633352 0.530489
v 0.868366 0.651122 0.574479
v 0.868366 0.651122 0.574479
v 0.273542 0.675893 0.721653
v 0.273542 0.675893 0.721653
v 0.927071 0.547266 0.813205
v 0.927071 0.547266 0.813205
v 0.927071 0.547266 0.813205
v -1.018547 -0.553509 0.727560
v -1.018547 -0.553509 0.727560
v -1.018547 -0.553509 0.727560
v -1.018547 -0.553509 0.727560
v -1.011148 -0.292505 0.711261
v -1.011148 -0.292505 0.711261
v -1.011155 0.022645 0.711261
v -1.011155 0.022645 0.711261
v -1.018575 0.598801 0.758585
v -1.018575 0.598801 0.758585
v -1.018575 0.598801 0.758585
v -1.018575 0.598801 0.758585
v -1.018575 0.598801 0.758585
v -1.018547 -0.553509 0.758587
v -1.018547 -0.553509 0.758587
v -1.018547 -0.553509 0.758587
v -1.018547 -0.553509 0.758587
v 1.003629 0.574049 0.758585
v 1.003629 0.574049 0.758585
v 1.003629 0.574049 0.758585
v 1.003629 0.574049 0.758585
v -0.976730 0.556959 0.777931
v -0.976730 0.556959 0.777931
v -0.976730 0.556959 0.777931
v -0.976730 0.556959 0.777931
v -0.993773 0.574001 0.758585
v -0.993773 0.574001 0.758585
v -0.993773 0.574001 0.758585
v -0.993773 0.574001 0.758585
v -0.993747 -0.528707 0.758587
v -0.993747 -0.528707 0.758587
v -0.993747 -0.528707 0.758587
v -0.993747 -0.528707 0.758587
v -0.993747 -0.528707 0.758587
v 0.797410 -0.451097 0.715680
v 0.797410 -0.451097 0.715680
v 0.797410 -0.451097 0.715680
v -0.787507 -0.342501 0.715681
v -0.787507 -0.342501 0.715681
v -0.787507 -0.342501 0.715681
v -0.787505 -0.451134 0.715681
v -0.787505 -0.451134 0.715681
v -0.787505 -0.451134 0.715681
v 1.028457 -0.553461 0.758586
v 1.028457 -0.553461 0.758586
v 1.028457 -0.553461 0.758586
v 1.028457 -0.553461 0.758586
v -0.942705 -0.477663 0.790693
v -0.963612 0.543842 0.783430
v -0.963612 0.543842 0.783430
v -0.942729 0.522960 0.790692
v -0.963587 -0.498546 0.783432
v -0.963587 -0.498546 0.783432
v -1.011162 0.307021 0.711260
v -1.011162 0.307021 0.711260
v -0.895800 0.478322 0.715963
v -0.895800 0.478322 0.715963
v -0.895800 0.478322 0.715963
v -1.011168 0.539296 0.711260
v -1.011168 0.539296 0.711260
v -0.736810 -0.540543 0.710542
v -0.736810 -0.540543 0.710542
v -0.953253 -0.544930 0.711110
v -0.953253 -0.544930 0.711110
v 0.986612 -0.511617 0.777931
v 0.986612 -0.511617 0.777931
v 0.986612 -0.511617 0.777931
v 0.986612 -0.511617 0.777931
v -0.976704 -0.511664 0.777932
v -0.976704 -0.511664 0.777932
v -0.976704 -0.511664 0.777932
v -0.976704 -0.511664 0.777932
v -0.953267 0.022647 0.711109
v -0.895780 -0.343600 0.715964
v -0.895780 -0.343600 0.715964
v -0.895780 -0.343600 0.715964
v -0.787524 0.361276 0.715680
v -0.787524 0.361276 0.715680
v -0.787524 0.361276 0.715680
v -0.895797 0.362368 0.715963
v -0.895797 0.362368 0.715963
v -0.895797 0.362368 0.715963
v 0.746705 0.022688 0.710541
v -0.736823 0.022652 0.710541
v -0.895778 -0.453198 0.715964
v -0.895778 -0.453198 0.715964
v -0.895778 -0.453198 0.715964
v -0.953280 0.590225 0.711108
v -0.953280 0.590225 0.711108
v -1.011169 0.591396 0.711260
v -1.011169 0.591396 0.711260
v -1.011169 0.591396 0.711260
v -1.011143 -0.512111 0.711261
v -1.011143 -0.512111 0.711261
v -1.011142 -0.546104 0.711262
v -1.011142 -0.546104 0.711262
v -1.011142 -0.546104 0.711262
v -1.018575 0.598801 0.727558
v -1.018575 0.598801 0.727558
v -1.018575 0.598801 0.727558
v -0.736837 0.585849 0.710541
v -0.736837 0.585849 0.710541
v 0.746692 0.585884 0.710541
v 0.746692 0.585884 0.710541
v 0.952612 -0.477618 0.790693
v 0.973469 0.543887 0.783429
v 0.973469 0.543887 0.783429
v 0.952587 0.523005 0.790691
v 0.986587 0.557006 0.777930
v 0.986587 0.557006 0.777930
v 0.986587 0.557006 0.777930
v 0.986587 0.557006 0.777930
v 1.028430 0.598850 0.758585
v 1.028430 0.598850 0.758585
v 1.028430 0.598850 0.758585
v 1.028430 0.598850 0.758585
v 1.028430 0.598850 0.758585
v 1.028430 0.598850 0.727557
v 1.028430 0.598850 0.727557
v 1.028430 0.598850 0.727557
v 0.797387 0.476371 0.715679
v 0.797387 0.476371 0.715679
v 0.797387 0.476371 0.715679
v 0.797390 0.361313 0.715679
v 0.797390 0.361313 0.715679
v 0.797390 0.361313 0.715679
v -0.787527 0.476333 0.715679
v -0.787527 0.476333 0.715679
v -0.787527 0.476333 0.715679
v 1.028457 -0.553461 0.727559
v 1.028457 -0.553461 0.727559
v 1.028457 -0.553461 0.727559
v 1.028457 -0.553461 0.727559
v 1.021037 0.022694 0.711260
v 1.021037 0.022694 0.711260
v 1.021045 -0.292456 0.711261
v 1.021045 -0.292456 0.711261
v 1.003655 -0.528660 0.758586
v 1.003655 -0.528660 0.758586
v 1.003655 -0.528660 0.758586
v 1.003655 -0.528660 0.758586
v 1.003655 -0.528660 0.758586
v 0.973494 -0.498500 0.783431
v 0.973494 -0.498500 0.783431
v 1.021031 0.307069 0.711260
v 1.021031 0.307069 0.711260
v 0.905660 0.478365 0.715963
v 0.905660 0.478365 0.715963
v 0.905660 0.478365 0.715963
v 0.905663 0.362411 0.715963
v 0.905663 0.362411 0.715963
v 0.905663 0.362411 0.715963
v 0.746719 -0.540507 0.710542
v 0.746719 -0.540507 0.710542
v 0.963162 -0.544884 0.711109
v 0.963162 -0.544884 0.711109
v 0.797406 -0.342463 0.715680
v 0.797406 -0.342463 0.715680
v 0.797406 -0.342463 0.715680
v 0.905680 -0.343558 0.715963
v 0.905680 -0.343558 0.715963
v 0.905680 -0.343558 0.715963
v 0.963149 0.022693 0.711108
v 0.905682 -0.453155 0.715963
v 0.905682 -0.453155 0.715963
v 0.905682 -0.453155 0.715963
v 1.021025 0.539345 0.711259
v 1.021025 0.539345 0.711259
v 1.021024 0.591444 0.711259
v 1.021024 0.591444 0.711259
v 1.021024 0.591444 0.711259
v 0.963135 0.590270 0.711107
v 0.963135 0.590270 0.711107
v 1.021051 -0.546055 0.711261
v 1.021051 -0.546055 0.711261
v 1.021051 -0.546055 0.711261
v 1.021050 -0.512063 0.711261
v 1.021050 -0.512063 0.711261
v -0.819728 0.395954 0.000001
v -0.819728 0.395954 0.000001
v -0.819728 0.395954 0.000001
v 0.829593 0.395993 0.000000
v 0.829593 0.395993 0.000000
v 0.829593 0.395993 0.000000
v 0.829591 0.442608 0.000000
v 0.829591 0.442608 0.000000
v 0.829591 0.442608 0.000000
v -0.863595 0.443375 0.000115
v -0.863595 0.443375 0.000115
v -0.863595 0.443375 0.000115
v 0.829611 -0.375244 0.000001
v 0.829611 -0.375244 0.000001
v 0.829611 -0.375244 0.000001
v 0.873457 0.443417 0.000115
v 0.873457 0.443417 0.000115
v 0.873457 0.443417 0.000115
v 0.873458 0.396438 0.000115
v 0.873458 0.396438 0.000115
v 0.873458 0.396438 0.000115
v -0.863576 -0.375729 0.000117
v -0.863576 -0.375729 0.000117
v -0.863576 -0.375729 0.000117
v -0.819710 -0.375284 0.000002
v -0.819710 -0.375284 0.000002
v -0.819710 -0.375284 0.000002
v 0.873477 -0.375687 0.000116
v 0.873477 -0.375687 0.000116
v 0.873477 -0.375687 0.000116
v -0.819730 0.442569 0.000000
v -0.819730 0.442569 0.000000
v -0.819730 0.442569 0.000000
v -0.819709 -0.419295 0.000002
v -0.819709 -0.419295 0.000002
v -0.819709 -0.419295 0.000002
v -0.863594 0.396397 0.000115
v -0.863594 0.396397 0.000115
v -0.863594 0.396397 0.000115
v -0.863575 -0.420132 0.000117
v -0.863575 -0.420132 0.000117
v -0.863575 -0.420132 0.000117
v 0.873478 -0.420090 0.000116
v 0.873478 -0.420090 0.000116
v 0.873478 -0.420090 0.000116
v 0.829612 -0.419255 0.000001
v 0.829612 -0.419255 0.000001
v 0.829612 -0.419255 0.000001
vt 0.070602 0.444666
vt 0.576473 0.996364
vt 0.075853 0.425867
vt 0.113203 0.435225
vt 0.166252 0.446571
vt 0.539511 0.996364
vt 0.212914 0.446868
vt 0.521931 0.996364
vt 0.238030 0.439758
vt 0.252537 0.447222
vt 0.506606 0.996364
vt 0.291143 0.996364
vt 0.446760 0.234161
vt 0.418396 0.219870
vt 0.251025 0.996364
vt 0.446977 0.172451
vt 0.229952 0.996364
vt 0.447194 0.139972
vt 0.417097 0.185443
vt 0.422726 0.152314
vt 0.213048 0.996364
vt 0.446977 0.114206
vt 0.438533 0.099915
vt 0.195808 0.996364
vt 0.446760 0.088006
vt 0.141941 0.996364
vt 0.446328 0.005510
vt 0.145435 0.996364
vt 0.446328 0.010923
vt 0.112980 0.996364
vt 0.373575 0.004860
vt 0.085033 0.996364
vt 0.303204 0.004644
vt 0.364481 0.014388
vt 0.073595 0.996364
vt 0.274407 0.004644
vt 0.067787 0.004428
vt 0.911837 0.996364
vt 0.090035 0.029978
vt 0.060588 0.018935
vt 0.152535 0.996364
vt 0.446328 0.021749
vt 0.430954 0.024564
vt 0.035552 0.040371
vt 0.055770 0.004211
vt 0.906879 0.996364
vt 0.163127 0.996364
vt 0.446544 0.037989
vt 0.419912 0.058775
vt 0.051656 0.044268
vt 0.079101 0.048815
vt 0.051873 0.064188
vt 0.039531 0.069602
vt 0.008858 0.078479
vt 0.839716 0.996364
vt 0.072226 0.073716
vt 0.185777 0.996364
vt 0.446760 0.072633
vt 0.072984 0.087790
vt 0.043157 0.084325
vt 0.028271 0.096018
vt 0.336116 0.090388
vt 0.412983 0.100132
vt 0.182491 0.093203
vt 0.067409 0.096667
vt 0.333518 0.099265
vt 0.311865 0.094718
vt 0.041182 0.108576
vt 0.073850 0.122217
vt 0.060696 0.112041
vt 0.428789 0.125465
vt 0.022587 0.120702
vt 0.008307 0.102947
vt 0.823489 0.996364
vt 0.402589 0.106844
vt 0.222765 0.123949
vt 0.173831 0.117237
vt 0.190503 0.123083
vt 0.166036 0.126764
vt 0.069032 0.131528
vt 0.400641 0.152314
vt 0.359285 0.154480
vt 0.154993 0.136508
vt 0.053361 0.127414
vt 0.007145 0.129579
vt 0.805008 0.996364
vt 0.128252 0.131961
vt 0.058747 0.140189
vt 0.040722 0.131528
vt 0.005631 0.143653
vt 0.796443 0.996364
vt 0.038800 0.142571
vt 0.059505 0.150799
vt 0.091226 0.152747
vt 0.029489 0.154263
vt 0.019475 0.161408
vt 0.126628 0.157511
vt 0.385268 0.160759
vt 0.382453 0.177648
vt 0.307102 0.158377
vt 0.150771 0.163574
vt 0.108981 0.161841
vt 0.057638 0.162274
vt 0.044700 0.160109
vt 0.049572 0.167688
vt 0.406487 0.188041
vt 0.033522 0.219221
vt 0.037230 0.195836
vt 0.004251 0.178297
vt 0.774357 0.996364
vt 0.154452 0.309945
vt 0.382453 0.213807
vt 0.405188 0.216406
vt 0.369245 0.221602
vt 0.025944 0.224200
vt 0.004451 0.229939
vt 0.741901 0.996364
vt 0.361450 0.254297
vt 0.041994 0.315683
vt 0.019475 0.270537
vt 0.396527 0.243147
vt 0.394361 0.279090
vt 0.004322 0.266423
vt 0.718011 0.996364
vt 0.405621 0.290566
vt 0.387866 0.270862
vt 0.354088 0.304315
vt 0.379205 0.300093
vt 0.343478 0.317415
vt 0.023102 0.307563
vt 0.005062 0.306372
vt 0.692318 0.996364
vt 0.003750 0.300959
vt 0.695924 0.996364
vt 0.188879 0.375390
vt 0.082132 0.330623
vt 0.062699 0.324777
vt 0.022412 0.311027
vt 0.028312 0.315574
vt 0.382236 0.318714
vt 0.371410 0.331056
vt 0.047461 0.321096
vt 0.045160 0.323586
vt 0.380844 0.996364
vt 0.446111 0.371979
vt 0.393063 0.342369
vt 0.071685 0.330514
vt 0.060426 0.330190
vt 0.005546 0.340312
vt 0.670231 0.996364
vt 0.005452 0.325318
vt 0.679697 0.996364
vt 0.099400 0.338742
vt 0.077531 0.334953
vt 0.375740 0.362236
vt 0.335250 0.353087
vt 0.087329 0.339825
vt 0.026878 0.349298
vt 0.115802 0.345238
vt 0.102269 0.344913
vt 0.364698 0.360720
vt 0.137021 0.353845
vt 0.121540 0.350706
vt 0.108278 0.349515
vt 0.047001 0.362614
vt 0.156184 0.361099
vt 0.126411 0.354819
vt 0.169825 0.367540
vt 0.146007 0.360828
vt 0.132258 0.359529
vt 0.072280 0.374144
vt 0.152286 0.365592
vt 0.164304 0.370842
vt 0.141785 0.385296
vt 0.359501 0.385945
vt 0.176320 0.375822
vt 0.026377 0.382047
vt 0.325290 0.390005
vt 0.202953 0.381669
vt 0.191586 0.382751
vt 0.098317 0.386811
vt 0.315979 0.392360
vt 0.218002 0.385241
vt 0.235865 0.392252
vt 0.209449 0.385620
vt 0.005895 0.366512
vt 0.653102 0.996364
vt 0.005710 0.398639
vt 0.632367 0.996364
vt 0.395493 0.996364
vt 0.446111 0.393875
vt 0.372276 0.396338
vt 0.214429 0.390005
vt 0.055879 0.399288
vt 0.305370 0.399370
vt 0.258817 0.397827
vt 0.249073 0.397529
vt 0.234566 0.397989
vt 0.215187 0.395797
vt 0.162788 0.404972
vt 0.110280 0.400506
vt 0.382019 0.402103
vt 0.357552 0.412361
vt 0.252537 0.403429
vt 0.408115 0.996364
vt 0.446328 0.412388
vt 0.317928 0.409140
vt 0.298441 0.408274
vt 0.237597 0.411874
vt 0.209882 0.406434
vt 0.136697 0.405378
vt 0.072172 0.405026
vt 0.307968 0.417422
vt 0.293244 0.405487
vt 0.269210 0.411413
vt 0.266179 0.404647
vt 0.197973 0.411224
vt 0.134964 0.409980
vt 0.348891 0.414012
vt 0.348675 0.408437
vt 0.282418 0.416502
vt 0.266611 0.416935
vt 0.200463 0.416015
vt 0.054336 0.410385
vt 0.103297 0.409790
vt 0.057854 0.418018
vt 0.411495 0.996364
vt 0.446328 0.417179
vt 0.407137 0.423932
vt 0.369461 0.412063
vt 0.387866 0.422389
vt 0.363615 0.418505
vt 0.305370 0.421983
vt 0.289347 0.421564
vt 0.271158 0.420887
vt 0.005400 0.404025
vt 0.628761 0.996364
vt 0.373142 0.420860
vt 0.373792 0.427585
vt 0.235865 0.432295
vt 0.240629 0.423553
vt 0.170799 0.422930
vt 0.004898 0.430617
vt 0.611632 0.996364
vt 0.410818 0.431050
vt 0.392629 0.432254
vt 0.381803 0.426205
vt 0.286965 0.446828
vt 0.493083 0.996364
vt 0.422088 0.996364
vt 0.446760 0.432958
vt 0.390897 0.438811
vt 0.367079 0.444852
vt 0.461980 0.996364
vt 0.335033 0.445878
vt 0.474602 0.996364
vt 0.197107 0.437519
vt 0.429300 0.996364
vt 0.447194 0.443835
vt 0.419479 0.444101
vt 0.440569 0.996364
vt 0.040776 0.432525
vt 0.004470 0.443840
vt 0.603068 0.996364
vt 0.397826 0.444175
vt 0.449359 0.996364
vt 0.010875 0.003778
vt 0.888849 0.996364
vt 0.007769 0.117021
vt 0.814023 0.996364
vt 0.003745 0.996364
vt 0.099887 0.004644
vt 0.924910 0.996364
vt 0.070416 0.501134
vt 0.576473 0.995329
vt 0.113273 0.510657
vt 0.075611 0.519965
vt 0.166087 0.499402
vt 0.539511 0.995329
vt 0.212840 0.499186
vt 0.521931 0.995329
vt 0.252667 0.498753
vt 0.506606 0.995329
vt 0.237949 0.506112
vt 0.291143 0.995329
vt 0.446607 0.711740
vt 0.251025 0.995329
vt 0.446607 0.773429
vt 0.418036 0.725918
vt 0.229952 0.995329
vt 0.446607 0.805788
vt 0.422798 0.793559
vt 0.416737 0.760442
vt 0.213048 0.995329
vt 0.446607 0.831546
vt 0.195808 0.995329
vt 0.446607 0.857791
vt 0.438382 0.845886
vt 0.141941 0.995329
vt 0.446607 0.940292
vt 0.112980 0.995329
vt 0.373447 0.940819
vt 0.145435 0.995329
vt 0.446607 0.934962
vt 0.085033 0.995329
vt 0.303316 0.941247
vt 0.073595 0.995329
vt 0.274312 0.941217
vt 0.364356 0.931499
vt 0.067818 0.941386
vt 0.911837 0.995329
vt 0.060459 0.926973
vt 0.089896 0.915826
vt 0.152535 0.995329
vt 0.446607 0.923971
vt 0.431022 0.921251
vt 0.055697 0.941649
vt 0.906879 0.995329
vt 0.035784 0.905410
vt 0.163127 0.995329
vt 0.446607 0.907872
vt 0.419767 0.887011
vt 0.051801 0.901568
vt 0.051801 0.881709
vt 0.079074 0.896914
vt 0.039680 0.876243
vt 0.008944 0.867422
vt 0.839716 0.995329
vt 0.072147 0.872076
vt 0.185777 0.995329
vt 0.446607 0.873267
vt 0.073013 0.857953
vt 0.043143 0.861416
vt 0.028424 0.849728
vt 0.336217 0.855355
vt 0.412841 0.845778
vt 0.067385 0.849241
vt 0.182537 0.852650
vt 0.311542 0.851027
vt 0.333620 0.846643
vt 0.041411 0.837174
vt 0.060459 0.833764
vt 0.073879 0.823537
vt 0.428858 0.820399
vt 0.008511 0.842964
vt 0.823489 0.995329
vt 0.022797 0.825052
vt 0.402451 0.839013
vt 0.173879 0.828515
vt 0.222797 0.821914
vt 0.190329 0.822888
vt 0.166087 0.819100
vt 0.069117 0.814338
vt 0.400720 0.793559
vt 0.359161 0.791394
vt 0.154832 0.809360
vt 0.053533 0.818342
vt 0.007212 0.816178
vt 0.805008 0.995329
vt 0.127992 0.813905
vt 0.058728 0.805680
vt 0.040546 0.814230
vt 0.005480 0.802217
vt 0.796443 0.995329
vt 0.038814 0.803299
vt 0.059593 0.795074
vt 0.091195 0.793126
vt 0.029290 0.791611
vt 0.019333 0.784468
vt 0.126693 0.788256
vt 0.385135 0.785117
vt 0.382538 0.768126
vt 0.307213 0.787498
vt 0.150935 0.782303
vt 0.108944 0.784035
vt 0.044875 0.785658
vt 0.057429 0.783602
vt 0.049637 0.778083
vt 0.406347 0.757845
vt 0.033619 0.726567
vt 0.037083 0.749944
vt 0.004182 0.767476
vt 0.774357 0.995329
vt 0.154399 0.635983
vt 0.382538 0.731979
vt 0.405049 0.729489
vt 0.369118 0.724186
vt 0.025827 0.721589
vt 0.004615 0.715853
vt 0.741901 0.995329
vt 0.361326 0.691611
vt 0.041844 0.630139
vt 0.019333 0.675377
vt 0.396390 0.702649
vt 0.394226 0.666719
vt 0.004182 0.679489
vt 0.718011 0.995329
vt 0.405481 0.655247
vt 0.387732 0.674944
vt 0.353966 0.641611
vt 0.379075 0.645723
vt 0.343577 0.628407
vt 0.023230 0.638147
vt 0.003749 0.644857
vt 0.695924 0.995329
vt 0.005048 0.639446
vt 0.692318 0.995329
vt 0.189031 0.570398
vt 0.082104 0.615203
vt 0.062624 0.621047
vt 0.022363 0.634684
vt 0.028424 0.630139
vt 0.371282 0.614770
vt 0.382105 0.627108
vt 0.047472 0.624727
vt 0.044875 0.622130
vt 0.392927 0.603515
vt 0.380844 0.995329
vt 0.445742 0.573861
vt 0.071715 0.615203
vt 0.060459 0.615420
vt 0.005480 0.620398
vt 0.679697 0.995329
vt 0.005480 0.605463
vt 0.670231 0.995329
vt 0.099420 0.606978
vt 0.077342 0.610658
vt 0.375611 0.583601
vt 0.334919 0.592692
vt 0.087299 0.605896
vt 0.026693 0.596372
vt 0.115870 0.600485
vt 0.102018 0.600701
vt 0.364356 0.585117
vt 0.137082 0.592043
vt 0.121498 0.595073
vt 0.108078 0.596156
vt 0.047039 0.582952
vt 0.156130 0.584684
vt 0.126260 0.590961
vt 0.169983 0.578190
vt 0.146173 0.584900
vt 0.132320 0.586199
vt 0.072147 0.571481
vt 0.152234 0.580138
vt 0.164355 0.574944
vt 0.141845 0.560441
vt 0.359161 0.560009
vt 0.176477 0.569965
vt 0.026260 0.563688
vt 0.325395 0.555896
vt 0.202884 0.564121
vt 0.191628 0.563039
vt 0.098121 0.558926
vt 0.315871 0.553515
vt 0.218035 0.560658
vt 0.235784 0.553515
vt 0.209377 0.560225
vt 0.005913 0.579273
vt 0.653102 0.995329
vt 0.005480 0.547021
vt 0.632367 0.995329
vt 0.395493 0.995329
vt 0.445742 0.552000
vt 0.372148 0.549619
vt 0.214139 0.555679
vt 0.055697 0.546372
vt 0.258728 0.548103
vt 0.305481 0.546588
vt 0.249204 0.548320
vt 0.234485 0.547671
vt 0.215005 0.549835
vt 0.162624 0.540744
vt 0.110243 0.545290
vt 0.381672 0.543775
vt 0.357430 0.533601
vt 0.252667 0.542260
vt 0.408115 0.995329
vt 0.446607 0.533601
vt 0.298555 0.537497
vt 0.318035 0.536848
vt 0.209810 0.539229
vt 0.237516 0.533818
vt 0.136650 0.540311
vt 0.072147 0.540744
vt 0.308079 0.528407
vt 0.293360 0.540311
vt 0.266087 0.541177
vt 0.269117 0.534467
vt 0.197689 0.534467
vt 0.134918 0.535766
vt 0.348338 0.537497
vt 0.348772 0.531870
vt 0.266520 0.529056
vt 0.282537 0.529489
vt 0.200286 0.529922
vt 0.054398 0.535550
vt 0.057862 0.527757
vt 0.103316 0.535982
vt 0.411495 0.995329
vt 0.446607 0.528623
vt 0.369551 0.533818
vt 0.406780 0.521913
vt 0.387732 0.523428
vt 0.363490 0.527541
vt 0.305048 0.524078
vt 0.289464 0.524294
vt 0.270849 0.525160
vt 0.005480 0.541826
vt 0.628761 0.995329
vt 0.373014 0.524943
vt 0.373880 0.518450
vt 0.240546 0.522346
vt 0.235784 0.513688
vt 0.170849 0.522995
vt 0.004615 0.515203
vt 0.611632 0.995329
vt 0.410676 0.514770
vt 0.392494 0.513688
vt 0.381672 0.519748
vt 0.286866 0.499186
vt 0.493083 0.995329
vt 0.422088 0.995329
vt 0.446607 0.512822
vt 0.390763 0.507194
vt 0.366953 0.501134
vt 0.461980 0.995329
vt 0.334919 0.500052
vt 0.474602 0.995329
vt 0.197256 0.508493
vt 0.429300 0.995329
vt 0.446607 0.501999
vt 0.419334 0.501783
vt 0.440569 0.995329
vt 0.004615 0.501999
vt 0.603068 0.995329
vt 0.040546 0.513255
vt 0.397689 0.501783
vt 0.449359 0.995329
vt 0.011108 0.942044
vt 0.888849 0.995329
vt 0.007645 0.828732
vt 0.814023 0.995329
vt 0.003745 0.995329
vt 0.099853 0.941282
vt 0.924910 0.995329
vt 0.760434 0.163422
vt 0.991117 0.507944
vt 0.947581 0.868326
vt 0.954615 0.888975
vt 0.668578 0.003741
vt 0.902227 0.894201
vt 0.591981 0.003741
vt 0.838890 0.894201
vt 0.737761 0.003741
vt 0.003780 0.977827
vt 0.985269 0.501018
vt 0.995729 0.957836
vt 0.721831 0.859032
vt 0.769760 0.163422
vt 0.284071 0.977827
vt 0.977783 0.639947
vt 0.947581 0.859032
vt 0.964276 0.610090
vt 0.422273 0.981817
vt 0.991270 0.010189
vt 0.263892 0.491208
vt 0.714350 0.502743
vt 0.957776 0.148990
vt 0.714350 0.502743
vt 0.726389 0.943863
vt 0.964276 0.145056
vt 0.989526 0.963698
vt 0.991270 0.495016
vt 0.722388 0.950292
vt 0.938890 0.154037
vt 0.278007 0.971840
vt 0.721866 0.957836
vt 0.971766 0.633968
vt 0.982112 0.950292
vt 0.003843 0.453858
vt 0.707179 0.441219
vt 0.722511 0.714199
vt 0.680688 0.057933
vt 0.721932 0.570624
vt 0.722511 0.774078
vt 0.707179 0.057933
vt 0.721932 0.662441
vt 0.722511 0.592475
vt 0.769760 0.563136
vt 0.004417 0.957869
vt 0.977783 0.145134
vt 0.721833 0.842069
vt 0.462235 0.510885
vt 0.711033 0.506060
vt 0.711033 0.506060
vt 0.706208 0.510885
vt 0.457410 0.506060
vt 0.457410 0.506060
vt 0.522954 0.003741
vt 0.781712 0.894201
vt 0.481326 0.031593
vt 0.721932 0.602560
vt 0.760951 0.057274
vt 0.466566 0.003741
vt 0.735017 0.894201
vt 0.728674 0.070043
vt 0.985267 0.567760
vt 0.729885 0.017667
vt 0.985541 0.521866
vt 0.454093 0.979077
vt 0.945394 0.615148
vt 0.008356 0.484783
vt 0.454093 0.979077
vt 0.454093 0.502743
vt 0.945394 0.157972
vt 0.454093 0.502743
vt 0.977913 0.943863
vt 0.591981 0.017667
vt 0.680991 0.031593
vt 0.721932 0.752261
vt 0.766307 0.148463
vt 0.509784 0.057933
vt 0.721932 0.722321
vt 0.761131 0.119060
vt 0.509481 0.031593
vt 0.722511 0.744139
vt 0.760352 0.034696
vt 0.591981 0.428957
vt 0.591981 0.070043
vt 0.707482 0.031593
vt 0.722510 0.684259
vt 0.765725 0.126512
vt 0.454153 0.017667
vt 0.752700 0.016936
vt 0.453850 0.003741
vt 0.724549 0.894201
vt 0.752607 0.005234
vt 0.721711 0.003741
vt 0.946278 0.894201
vt 0.730188 0.003741
vt 0.953122 0.894201
vt 0.985622 0.509491
vt 0.747409 0.003741
vt 0.721831 0.868326
vt 0.723055 0.888975
vt 0.455213 0.070043
vt 0.752949 0.060508
vt 0.455213 0.428957
vt 0.752949 0.359032
vt 0.462235 0.970859
vt 0.711033 0.975911
vt 0.711033 0.975911
vt 0.706208 0.970859
vt 0.714350 0.979077
vt 0.957776 0.606155
vt 0.259958 0.484783
vt 0.714350 0.979077
vt 0.737761 0.415737
vt 0.284473 0.957869
vt 0.428631 0.987684
vt 0.985269 0.004416
vt 0.947584 0.842069
vt 0.722833 0.881228
vt 0.947584 0.851364
vt 0.747409 0.415737
vt 0.481779 0.441219
vt 0.721932 0.632500
vt 0.761131 0.088122
vt 0.509784 0.441219
vt 0.722511 0.804019
vt 0.760535 0.065634
vt 0.481779 0.057933
vt 0.722511 0.624380
vt 0.760535 0.096572
vt 0.721833 0.851364
vt 0.954390 0.881228
vt 0.760434 0.563136
vt 0.991117 0.941357
vt 0.591981 0.495260
vt 0.838681 0.875997
vt 0.668578 0.495260
vt 0.901953 0.875997
vt 0.938890 0.619082
vt 0.010479 0.951882
vt 0.154940 0.987684
vt 0.971766 0.150886
vt 0.004340 0.491208
vt 0.457410 0.975911
vt 0.457410 0.975911
vt 0.522954 0.495260
vt 0.781450 0.875997
vt 0.481326 0.467407
vt 0.722511 0.654320
vt 0.760100 0.003758
vt 0.509481 0.467407
vt 0.721932 0.782201
vt 0.760699 0.026336
vt 0.728674 0.428957
vt 0.985267 0.881669
vt 0.729885 0.481257
vt 0.985541 0.927499
vt 0.004422 0.475709
vt 0.680688 0.441219
vt 0.721932 0.812141
vt 0.220657 0.454856
vt 0.680991 0.467407
vt 0.722510 0.833958
vt 0.591981 0.481257
vt 0.221239 0.476806
vt 0.707482 0.467407
vt 0.721933 0.692381
vt 0.466566 0.495260
vt 0.734775 0.875997
vt 0.453850 0.495260
vt 0.724312 0.875997
vt 0.752607 0.414243
vt 0.454153 0.481257
vt 0.752700 0.402603
vt 0.730188 0.495260
vt 0.952895 0.875997
vt 0.985622 0.939810
vt 0.721711 0.495260
vt 0.946044 0.875997
vt 0.795937 0.165065
vt 0.930905 0.723214
vt 0.976058 0.106590
vt 0.824637 0.165065
vt 0.931036 0.791920
vt 0.975922 0.066554
vt 0.824637 0.153855
vt 0.930916 0.633393
vt 0.976058 0.075652
vt 0.806544 0.153550
vt 0.930916 0.603453
vt 0.976739 0.044754
vt 0.213261 0.463592
vt 0.499786 0.039695
vt 0.930891 0.813034
vt 0.814033 0.153553
vt 0.931049 0.642220
vt 0.976350 0.004682
vt 0.814033 0.165065
vt 0.930904 0.783094
vt 0.976487 0.013816
vt 0.699017 0.039771
vt 0.930891 0.753153
vt 0.976097 0.136290
vt 0.688423 0.039695
vt 0.931023 0.761979
vt 0.931218 0.571518
vt 0.430896 0.455754
vt 0.489190 0.039771
vt 0.931023 0.821860
vt 0.795937 0.153853
vt 0.931048 0.612280
vt 0.975922 0.097492
vt 0.688423 0.050364
vt 0.930904 0.663333
vt 0.931351 0.580358
vt 0.806544 0.165065
vt 0.931037 0.732040
vt 0.976602 0.035620
vt 0.699017 0.050591
vt 0.931036 0.672160
vt 0.975964 0.127410
vt 0.431029 0.464634
vt 0.489190 0.050594
vt 0.930904 0.693273
vt 0.213129 0.454752
vt 0.499786 0.050367
vt 0.931037 0.702100
f 1/1 4/4 3/3
f 1/1 5/5 4/4
f 7/7 10/10 9/9
f 13/13 16/16 14/14
f 18/18 20/20 19/19
f 18/18 22/22 20/20
f 22/22 25/25 23/23
f 27/27 31/31 29/29
f 33/33 36/36 34/34
f 37/37 40/40 39/39
f 42/42 34/34 43/43
f 34/34 36/36 39/39
f 43/43 34/34 39/39
f 40/40 45/45 44/44
f 48/48 43/43 49/49
f 50/50 52/52 51/51
f 44/44 53/53 50/50
f 44/44 54/54 53/53
f 39/39 51/51 56/56
f 52/52 53/53 56/56
f 58/58 49/49 25/25
f 39/39 56/56 59/59
f 53/53 60/60 56/56
f 60/60 53/53 61/61
f 43/43 39/39 62/62
f 39/39 59/59 62/62
f 25/25 63/63 23/23
f 59/59 65/65 64/64
f 59/59 56/56 65/65
f 62/62 67/67 66/66
f 67/67 64/64 66/66
f 64/64 65/65 66/66
f 65/65 60/60 68/68
f 65/65 70/70 69/69
f 23/23 63/63 71/71
f 68/68 73/73 72/72
f 75/75 49/49 66/66
f 66/66 77/77 76/76
f 66/66 69/69 77/77
f 76/76 77/77 78/78
f 77/77 69/69 79/79
f 69/69 80/80 79/79
f 71/71 63/63 81/81
f 63/63 75/75 81/81
f 76/76 82/82 66/66
f 79/79 83/83 76/76
f 84/84 72/72 85/85
f 87/87 80/80 88/88
f 80/80 89/89 88/88
f 85/85 90/90 89/89
f 82/82 76/76 83/83
f 88/88 89/89 92/92
f 89/89 90/90 92/92
f 92/92 93/93 88/88
f 82/82 88/88 94/94
f 92/92 95/95 93/93
f 90/90 96/96 95/95
f 82/82 94/94 97/97
f 98/98 99/99 81/81
f 100/100 98/98 82/82
f 100/100 101/101 98/98
f 100/100 97/97 101/101
f 97/97 94/94 102/102
f 94/94 104/104 103/103
f 102/102 103/103 105/105
f 81/81 106/106 20/20
f 101/101 105/105 107/107
f 108/108 96/96 109/109
f 105/105 104/104 108/108
f 98/98 111/111 99/99
f 99/99 112/112 106/106
f 19/19 113/113 14/14
f 99/99 114/114 112/112
f 115/115 109/109 116/116
f 112/112 114/114 118/118
f 111/111 118/118 114/114
f 98/98 107/107 119/119
f 107/107 115/115 120/120
f 121/121 122/122 14/14
f 120/120 115/115 123/123
f 14/14 122/122 125/125
f 121/121 126/126 122/122
f 121/121 118/118 126/126
f 118/118 127/127 126/126
f 126/126 128/128 122/122
f 127/127 118/118 129/129
f 119/119 120/120 130/130
f 130/130 133/133 131/131
f 111/111 135/135 118/118
f 136/136 119/119 137/137
f 119/119 130/130 138/138
f 130/130 131/131 138/138
f 129/129 118/118 135/135
f 119/119 138/138 139/139
f 128/128 141/141 140/140
f 137/137 119/119 142/142
f 119/119 139/139 143/143
f 137/137 142/142 143/143
f 125/125 146/146 145/145
f 136/136 137/137 147/147
f 137/137 143/143 148/148
f 143/143 151/151 149/149
f 153/153 136/136 154/154
f 136/136 147/147 154/154
f 147/147 148/148 154/154
f 140/140 141/141 155/155
f 141/141 129/129 156/156
f 129/129 135/135 156/156
f 153/153 154/154 157/157
f 148/148 149/149 158/158
f 159/159 153/153 160/160
f 153/153 157/157 160/160
f 141/141 156/156 161/161
f 162/162 159/159 163/163
f 159/159 160/160 164/164
f 157/157 148/148 165/165
f 146/146 155/155 145/145
f 155/155 141/141 161/161
f 111/111 162/162 166/166
f 162/162 163/163 167/167
f 163/163 164/164 167/167
f 111/111 166/166 168/168
f 166/166 162/162 169/169
f 162/162 167/167 170/170
f 164/164 157/157 171/171
f 168/168 166/166 172/172
f 166/166 169/169 172/172
f 169/169 170/170 172/172
f 157/157 165/165 171/171
f 135/135 168/168 173/173
f 168/168 172/172 173/173
f 172/172 170/170 174/174
f 155/155 175/175 145/145
f 161/161 175/175 155/155
f 135/135 173/173 176/176
f 170/170 164/164 171/171
f 165/165 177/177 171/171
f 156/156 178/178 175/175
f 179/179 135/135 180/180
f 135/135 176/176 180/180
f 176/176 173/173 174/174
f 170/170 171/171 181/181
f 156/156 182/182 178/178
f 183/183 184/184 182/182
f 183/183 179/179 185/185
f 186/186 188/188 177/177
f 191/191 145/145 192/192
f 184/184 183/183 193/193
f 183/183 185/185 193/193
f 185/185 180/180 193/193
f 171/171 194/194 181/181
f 182/182 196/196 195/195
f 196/196 184/184 197/197
f 198/198 197/197 184/184
f 184/184 193/193 198/198
f 199/199 180/180 200/200
f 181/181 194/194 201/201
f 191/191 192/192 202/202
f 175/175 203/203 192/192
f 196/196 197/197 204/204
f 198/198 204/204 197/197
f 177/177 188/188 194/194
f 191/191 202/202 206/206
f 195/195 208/208 207/207
f 199/199 210/210 209/209
f 174/174 211/211 200/200
f 201/201 212/212 211/211
f 194/194 188/188 212/212
f 208/208 213/213 207/207
f 214/214 216/216 215/215
f 209/209 210/210 217/217
f 210/210 200/200 217/217
f 200/200 211/211 218/218
f 203/203 220/220 219/219
f 208/208 222/222 221/221
f 217/217 218/218 223/223
f 224/224 226/226 225/225
f 228/228 230/230 229/229
f 230/230 231/231 229/229
f 230/230 203/203 232/232
f 219/219 213/213 233/233
f 213/213 234/234 233/233
f 222/222 235/235 234/234
f 225/225 226/226 3/3
f 224/224 236/236 226/226
f 238/238 232/232 239/239
f 235/235 241/241 240/240
f 242/242 218/218 4/4
f 218/218 3/3 4/4
f 226/226 236/236 243/243
f 229/229 231/231 245/245
f 231/231 246/246 245/245
f 247/247 238/238 239/239
f 233/233 234/234 248/248
f 235/235 240/240 234/234
f 229/229 245/245 251/251
f 246/246 247/247 252/252
f 247/247 239/239 252/252
f 239/239 253/253 252/252
f 239/239 232/232 253/253
f 233/233 255/255 219/219
f 234/234 240/240 9/9
f 257/257 242/242 5/5
f 242/242 4/4 5/5
f 251/251 245/245 259/259
f 245/245 246/246 260/260
f 246/246 252/252 260/260
f 233/233 248/248 255/255
f 243/243 263/263 262/262
f 1/1 262/262 263/263
f 7/7 240/240 5/5
f 7/7 9/9 240/240
f 10/10 248/248 9/9
f 253/253 219/219 255/255
f 265/265 252/252 253/253
f 265/265 260/260 252/252
f 259/259 245/245 260/260
f 18/18 19/19 16/16
f 42/42 43/43 48/48
f 31/31 34/34 29/29
f 33/33 34/34 31/31
f 44/44 267/267 54/54
f 73/73 61/61 54/54
f 269/269 72/72 73/73
f 85/85 72/72 269/269
f 96/96 90/90 109/109
f 123/123 115/115 116/116
f 133/133 120/120 123/123
f 131/131 139/139 138/138
f 151/151 139/139 131/131
f 186/186 158/158 149/149
f 29/29 34/34 42/42
f 37/37 39/39 272/272
f 37/37 45/45 40/40
f 267/267 44/44 45/45
f 272/272 39/39 36/36
f 40/40 51/51 39/39
f 40/40 50/50 51/51
f 44/44 50/50 40/40
f 48/48 49/49 58/58
f 52/52 56/56 51/51
f 50/50 53/53 52/52
f 49/49 43/43 62/62
f 63/63 25/25 49/49
f 53/53 54/54 61/61
f 66/66 49/49 62/62
f 75/75 63/63 49/49
f 62/62 64/64 67/67
f 59/59 64/64 62/62
f 60/60 65/65 56/56
f 65/65 69/69 66/66
f 60/60 61/61 68/68
f 61/61 73/73 68/68
f 23/23 71/71 22/22
f 65/65 68/68 70/70
f 70/70 68/68 84/84
f 70/70 84/84 69/69
f 68/68 72/72 84/84
f 78/78 79/79 76/76
f 77/77 79/79 78/78
f 69/69 84/84 80/80
f 22/22 71/71 20/20
f 75/75 98/98 81/81
f 66/66 82/82 75/75
f 79/79 87/87 83/83
f 80/80 87/87 79/79
f 84/84 89/89 80/80
f 84/84 85/85 89/89
f 71/71 81/81 20/20
f 82/82 98/98 75/75
f 87/87 88/88 83/83
f 83/83 88/88 82/82
f 88/88 93/93 94/94
f 90/90 95/95 92/92
f 82/82 97/97 100/100
f 93/93 104/104 94/94
f 93/93 95/95 104/104
f 97/97 102/102 101/101
f 94/94 103/103 102/102
f 96/96 104/104 95/95
f 102/102 105/105 101/101
f 101/101 107/107 98/98
f 104/104 105/105 103/103
f 99/99 106/106 81/81
f 96/96 108/108 104/104
f 19/19 14/14 16/16
f 20/20 106/106 19/19
f 105/105 108/108 107/107
f 106/106 113/113 19/19
f 111/111 114/114 99/99
f 108/108 115/115 107/107
f 108/108 109/109 115/115
f 112/112 113/113 106/106
f 121/121 113/113 112/112
f 112/112 118/118 121/121
f 113/113 121/121 14/14
f 98/98 119/119 111/111
f 14/14 125/125 13/13
f 127/127 128/128 126/126
f 107/107 120/120 119/119
f 120/120 133/133 130/130
f 140/140 125/125 122/122
f 122/122 128/128 140/140
f 125/125 145/145 13/13
f 119/119 136/136 111/111
f 140/140 146/146 125/125
f 127/127 141/141 128/128
f 119/119 143/143 142/142
f 139/139 151/151 143/143
f 127/127 129/129 141/141
f 111/111 153/153 159/159
f 111/111 136/136 153/153
f 137/137 148/148 147/147
f 143/143 149/149 148/148
f 111/111 159/159 162/162
f 154/154 148/148 157/157
f 155/155 146/146 140/140
f 159/159 164/164 163/163
f 160/160 157/157 164/164
f 158/158 165/165 148/148
f 162/162 170/170 169/169
f 186/186 165/165 158/158
f 111/111 168/168 135/135
f 167/167 164/164 170/170
f 172/172 174/174 173/173
f 135/135 179/179 156/156
f 165/165 186/186 177/177
f 156/156 175/175 161/161
f 156/156 183/183 182/182
f 179/179 183/183 156/156
f 176/176 174/174 180/180
f 170/170 181/181 174/174
f 179/179 180/180 185/185
f 171/171 177/177 194/194
f 175/175 192/192 145/145
f 175/175 178/178 220/220
f 184/184 196/196 182/182
f 180/180 199/199 193/193
f 181/181 201/201 174/174
f 193/193 199/199 198/198
f 174/174 200/200 180/180
f 220/220 203/203 175/175
f 196/196 214/214 195/195
f 196/196 204/204 216/216
f 203/203 202/202 192/192
f 178/178 207/207 220/220
f 182/182 207/207 178/178
f 195/195 207/207 182/182
f 195/195 214/214 208/208
f 196/196 216/216 214/214
f 209/209 204/204 198/198
f 199/199 209/209 198/198
f 199/199 200/200 210/210
f 201/201 211/211 174/174
f 194/194 212/212 201/201
f 188/188 236/236 212/212
f 202/202 230/230 206/206
f 203/203 230/230 202/202
f 214/214 222/222 208/208
f 214/214 215/215 222/222
f 204/204 215/215 216/216
f 204/204 209/209 215/215
f 200/200 218/218 217/217
f 211/211 225/225 218/218
f 212/212 225/225 211/211
f 212/212 224/224 225/225
f 236/236 224/224 212/212
f 206/206 230/230 228/228
f 220/220 213/213 219/219
f 207/207 213/213 220/220
f 208/208 234/234 213/213
f 208/208 221/221 234/234
f 209/209 222/222 215/215
f 217/217 222/222 209/209
f 217/217 223/223 222/222
f 230/230 238/238 231/231
f 230/230 232/232 238/238
f 219/219 232/232 203/203
f 222/222 234/234 221/221
f 222/222 241/241 235/235
f 222/222 223/223 241/241
f 223/223 218/218 242/242
f 225/225 3/3 218/218
f 231/231 238/238 247/247
f 223/223 257/257 241/241
f 223/223 242/242 257/257
f 226/226 243/243 262/262
f 229/229 251/251 228/228
f 231/231 247/247 246/246
f 241/241 257/257 240/240
f 226/226 262/262 3/3
f 219/219 253/253 232/232
f 234/234 9/9 248/248
f 257/257 5/5 240/240
f 3/3 262/262 1/1
f 274/274 277/277 276/276
f 274/274 276/276 278/278
f 280/280 284/284 282/282
f 286/286 289/289 288/288
f 291/291 293/293 292/292
f 291/291 292/292 295/295
f 295/295 298/298 297/297
f 300/300 304/304 302/302
f 306/306 309/309 308/308
f 310/310 313/313 312/312
f 315/315 316/316 309/309
f 309/309 313/313 308/308
f 316/316 313/313 309/309
f 312/312 319/319 317/317
f 321/321 322/322 316/316
f 323/323 325/325 324/324
f 319/319 323/323 326/326
f 319/319 326/326 327/327
f 313/313 329/329 325/325
f 324/324 329/329 326/326
f 331/331 297/297 322/322
f 313/313 332/332 329/329
f 326/326 329/329 333/333
f 333/333 334/334 326/326
f 316/316 335/335 313/313
f 313/313 335/335 332/332
f 297/297 298/298 336/336
f 332/332 338/338 337/337
f 332/332 337/337 329/329
f 335/335 340/340 339/339
f 339/339 340/340 338/338
f 338/338 340/340 337/337
f 337/337 341/341 333/333
f 337/337 343/343 342/342
f 298/298 344/344 336/336
f 341/341 347/347 345/345
f 348/348 340/340 322/322
f 340/340 350/350 349/349
f 340/340 349/349 343/343
f 350/350 351/351 349/349
f 349/349 352/352 343/343
f 343/343 352/352 353/353
f 344/344 354/354 336/336
f 336/336 354/354 348/348
f 350/350 340/340 355/355
f 352/352 350/350 356/356
f 357/357 358/358 347/347
f 360/360 361/361 353/353
f 353/353 361/361 362/362
f 358/358 362/362 363/363
f 355/355 356/356 350/350
f 361/361 365/365 362/362
f 362/362 365/365 363/363
f 365/365 361/361 366/366
f 355/355 367/367 361/361
f 365/365 366/366 368/368
f 363/363 368/368 369/369
f 355/355 370/370 367/367
f 371/371 354/354 372/372
f 373/373 355/355 371/371
f 373/373 371/371 374/374
f 373/373 374/374 370/370
f 370/370 375/375 367/367
f 367/367 377/377 376/376
f 375/375 378/378 377/377
f 354/354 292/292 379/379
f 374/374 380/380 378/378
f 381/381 382/382 369/369
f 378/378 381/381 376/376
f 371/371 372/372 384/384
f 372/372 379/379 385/385
f 293/293 289/289 386/386
f 372/372 385/385 387/387
f 388/388 389/389 382/382
f 385/385 391/391 387/387
f 384/384 387/387 391/391
f 371/371 392/392 380/380
f 380/380 393/393 388/388
f 394/394 289/289 395/395
f 393/393 396/396 388/388
f 289/289 398/398 395/395
f 394/394 395/395 399/399
f 394/394 399/399 391/391
f 391/391 399/399 400/400
f 399/399 395/395 401/401
f 400/400 402/402 391/391
f 392/392 403/403 393/393
f 403/403 406/406 404/404
f 384/384 391/391 408/408
f 409/409 410/410 392/392
f 392/392 411/411 403/403
f 403/403 411/411 406/406
f 402/402 408/408 391/391
f 392/392 412/412 411/411
f 401/401 414/414 413/413
f 410/410 415/415 392/392
f 392/392 416/416 412/412
f 410/410 416/416 415/415
f 398/398 419/419 417/417
f 409/409 420/420 410/410
f 410/410 421/421 416/416
f 416/416 424/424 422/422
f 426/426 427/427 409/409
f 409/409 427/427 420/420
f 420/420 427/427 421/421
f 414/414 428/428 413/413
f 413/413 429/429 402/402
f 402/402 429/429 408/408
f 426/426 430/430 427/427
f 421/421 431/431 424/424
f 432/432 433/433 426/426
f 426/426 433/433 430/430
f 413/413 434/434 429/429
f 435/435 436/436 432/432
f 432/432 437/437 433/433
f 430/430 438/438 421/421
f 417/417 419/419 428/428
f 428/428 434/434 413/413
f 384/384 439/439 435/435
f 435/435 440/440 436/436
f 436/436 440/440 437/437
f 384/384 441/441 439/439
f 439/439 442/442 435/435
f 435/435 443/443 440/440
f 437/437 444/444 430/430
f 441/441 445/445 439/439
f 439/439 445/445 442/442
f 442/442 445/445 443/443
f 430/430 444/444 438/438
f 408/408 446/446 441/441
f 441/441 446/446 445/445
f 445/445 447/447 443/443
f 428/428 419/419 448/448
f 434/434 428/428 448/448
f 408/408 449/449 446/446
f 443/443 444/444 437/437
f 438/438 444/444 450/450
f 429/429 448/448 451/451
f 452/452 453/453 408/408
f 408/408 453/453 449/449
f 449/449 447/447 446/446
f 443/443 454/454 444/444
f 429/429 451/451 455/455
f 456/456 455/455 457/457
f 456/456 458/458 452/452
f 459/459 450/450 461/461
f 464/464 465/465 419/419
f 457/457 466/466 456/456
f 456/456 466/466 458/458
f 458/458 466/466 453/453
f 444/444 454/454 467/467
f 455/455 469/469 468/468
f 468/468 470/470 457/457
f 471/471 457/457 470/470
f 457/457 471/471 466/466
f 472/472 473/473 453/453
f 454/454 474/474 467/467
f 464/464 475/475 465/465
f 448/448 465/465 476/476
f 468/468 477/477 470/470
f 471/471 470/470 477/477
f 450/450 467/467 461/461
f 464/464 479/479 475/475
f 469/469 481/481 480/480
f 472/472 483/483 482/482
f 447/447 473/473 484/484
f 474/474 484/484 485/485
f 467/467 485/485 461/461
f 480/480 481/481 486/486
f 487/487 489/489 488/488
f 483/483 490/490 482/482
f 482/482 490/490 473/473
f 473/473 491/491 484/484
f 476/476 493/493 492/492
f 480/480 495/495 494/494
f 490/490 496/496 491/491
f 497/497 499/499 498/498
f 501/501 503/503 502/502
f 502/502 503/503 504/504
f 502/502 505/505 476/476
f 493/493 506/506 486/486
f 486/486 506/506 507/507
f 494/494 507/507 508/508
f 499/499 277/277 498/498
f 497/497 498/498 509/509
f 511/511 512/512 505/505
f 508/508 514/514 513/513
f 515/515 276/276 491/491
f 491/491 276/276 277/277
f 498/498 516/516 509/509
f 503/503 518/518 504/504
f 504/504 518/518 519/519
f 520/520 512/512 511/511
f 506/506 521/521 507/507
f 508/508 507/507 514/514
f 503/503 524/524 518/518
f 519/519 525/525 520/520
f 520/520 525/525 512/512
f 512/512 525/525 526/526
f 512/512 526/526 505/505
f 506/506 493/493 528/528
f 507/507 284/284 514/514
f 530/530 278/278 515/515
f 515/515 278/278 276/276
f 524/524 532/532 518/518
f 518/518 533/533 519/519
f 519/519 533/533 525/525
f 506/506 528/528 521/521
f 516/516 537/537 535/535
f 274/274 535/535 537/537
f 280/280 278/278 514/514
f 280/280 514/514 284/284
f 282/282 284/284 521/521
f 526/526 528/528 493/493
f 538/538 526/526 525/525
f 538/538 525/525 533/533
f 532/532 533/533 518/518
f 291/291 288/288 293/293
f 315/315 321/321 316/316
f 302/302 304/304 309/309
f 306/306 302/302 309/309
f 319/319 327/327 540/540
f 345/345 327/327 334/334
f 542/542 345/345 347/347
f 358/358 542/542 347/347
f 369/369 382/382 363/363
f 396/396 389/389 388/388
f 404/404 396/396 393/393
f 406/406 411/411 412/412
f 422/422 406/406 412/412
f 459/459 424/424 431/431
f 304/304 315/315 309/309
f 310/310 545/545 313/313
f 310/310 312/312 317/317
f 540/540 317/317 319/319
f 545/545 308/308 313/313
f 312/312 313/313 325/325
f 312/312 325/325 323/323
f 319/319 312/312 323/323
f 321/321 331/331 322/322
f 324/324 325/325 329/329
f 323/323 324/324 326/326
f 322/322 335/335 316/316
f 336/336 322/322 297/297
f 326/326 334/334 327/327
f 340/340 335/335 322/322
f 348/348 322/322 336/336
f 335/335 339/339 338/338
f 332/332 335/335 338/338
f 333/333 329/329 337/337
f 337/337 340/340 343/343
f 333/333 341/341 334/334
f 334/334 341/341 345/345
f 298/298 295/295 344/344
f 337/337 342/342 341/341
f 342/342 357/357 341/341
f 342/342 343/343 357/357
f 341/341 357/357 347/347
f 351/351 350/350 352/352
f 349/349 351/351 352/352
f 343/343 353/353 357/357
f 295/295 292/292 344/344
f 348/348 354/354 371/371
f 340/340 348/348 355/355
f 352/352 356/356 360/360
f 353/353 352/352 360/360
f 357/357 353/353 362/362
f 357/357 362/362 358/358
f 344/344 292/292 354/354
f 355/355 348/348 371/371
f 360/360 356/356 361/361
f 356/356 355/355 361/361
f 361/361 367/367 366/366
f 363/363 365/365 368/368
f 355/355 373/373 370/370
f 366/366 367/367 376/376
f 366/366 376/376 368/368
f 370/370 374/374 375/375
f 367/367 375/375 377/377
f 369/369 368/368 376/376
f 375/375 374/374 378/378
f 374/374 371/371 380/380
f 376/376 377/377 378/378
f 372/372 354/354 379/379
f 369/369 376/376 381/381
f 293/293 288/288 289/289
f 292/292 293/293 379/379
f 378/378 380/380 381/381
f 379/379 293/293 386/386
f 384/384 372/372 387/387
f 381/381 380/380 388/388
f 381/381 388/388 382/382
f 385/385 379/379 386/386
f 394/394 385/385 386/386
f 385/385 394/394 391/391
f 386/386 289/289 394/394
f 371/371 384/384 392/392
f 289/289 286/286 398/398
f 400/400 399/399 401/401
f 380/380 392/392 393/393
f 393/393 403/403 404/404
f 414/414 395/395 398/398
f 395/395 414/414 401/401
f 398/398 286/286 419/419
f 392/392 384/384 409/409
f 414/414 398/398 417/417
f 400/400 401/401 413/413
f 392/392 415/415 416/416
f 412/412 416/416 422/422
f 400/400 413/413 402/402
f 384/384 432/432 426/426
f 384/384 426/426 409/409
f 410/410 420/420 421/421
f 416/416 421/421 424/424
f 384/384 435/435 432/432
f 427/427 430/430 421/421
f 428/428 414/414 417/417
f 432/432 436/436 437/437
f 433/433 437/437 430/430
f 431/431 421/421 438/438
f 435/435 442/442 443/443
f 459/459 431/431 438/438
f 384/384 408/408 441/441
f 440/440 443/443 437/437
f 445/445 446/446 447/447
f 408/408 429/429 452/452
f 438/438 450/450 459/459
f 429/429 434/434 448/448
f 429/429 455/455 456/456
f 452/452 429/429 456/456
f 449/449 453/453 447/447
f 443/443 447/447 454/454
f 452/452 458/458 453/453
f 444/444 467/467 450/450
f 448/448 419/419 465/465
f 448/448 492/492 451/451
f 457/457 455/455 468/468
f 453/453 466/466 472/472
f 454/454 447/447 474/474
f 466/466 471/471 472/472
f 447/447 453/453 473/473
f 492/492 448/448 476/476
f 468/468 469/469 487/487
f 468/468 488/488 477/477
f 476/476 465/465 475/475
f 451/451 492/492 481/481
f 455/455 451/451 481/481
f 469/469 455/455 481/481
f 469/469 480/480 487/487
f 468/468 487/487 488/488
f 483/483 471/471 477/477
f 472/472 471/471 483/483
f 472/472 482/482 473/473
f 474/474 447/447 484/484
f 467/467 474/474 485/485
f 461/461 485/485 509/509
f 475/475 479/479 502/502
f 476/476 475/475 502/502
f 487/487 480/480 494/494
f 487/487 494/494 489/489
f 477/477 488/488 489/489
f 477/477 489/489 483/483
f 473/473 490/490 491/491
f 484/484 491/491 499/499
f 485/485 484/484 499/499
f 485/485 499/499 497/497
f 509/509 485/485 497/497
f 479/479 501/501 502/502
f 492/492 493/493 486/486
f 481/481 492/492 486/486
f 480/480 486/486 507/507
f 480/480 507/507 495/495
f 483/483 489/489 494/494
f 490/490 483/483 494/494
f 490/490 494/494 496/496
f 502/502 504/504 511/511
f 502/502 511/511 505/505
f 493/493 476/476 505/505
f 494/494 495/495 507/507
f 494/494 508/508 513/513
f 494/494 513/513 496/496
f 496/496 515/515 491/491
f 499/499 491/491 277/277
f 504/504 520/520 511/511
f 496/496 513/513 530/530
f 496/496 530/530 515/515
f 498/498 537/537 516/516
f 503/503 501/501 524/524
f 504/504 519/519 520/520
f 513/513 514/514 530/530
f 498/498 277/277 537/537
f 493/493 505/505 526/526
f 507/507 521/521 284/284
f 530/530 514/514 278/278
f 277/277 274/274 537/537
f 8/8 6/6 279/279
f 266/266 539/539 534/534
f 15/15 287/287 290/290
f 24/24 296/296 330/330
f 187/187 460/460 462/462
f 249/249 11/11 283/283
f 227/227 250/250 523/523
f 134/134 405/405 407/407
f 254/254 256/256 529/529
f 144/144 190/190 463/463
f 47/47 57/57 330/330
f 47/47 320/320 314/314
f 11/11 8/8 281/281
f 261/261 534/534 531/531
f 144/144 418/418 285/285
f 21/21 294/294 296/296
f 30/30 26/26 299/299
f 268/268 46/46 318/318
f 270/270 74/74 346/346
f 150/150 425/425 460/460
f 264/264 536/536 275/275
f 205/205 227/227 500/500
f 38/38 273/273 546/546
f 268/268 541/541 328/328
f 91/91 364/364 383/383
f 134/134 124/124 397/397
f 132/132 407/407 423/423
f 249/249 522/522 529/529
f 12/12 285/285 287/287
f 28/28 41/41 314/314
f 30/30 301/301 305/305
f 35/35 307/307 544/544
f 270/270 543/543 359/359
f 2/2 275/275 279/279
f 254/254 527/527 539/539
f 205/205 478/478 463/463
f 17/17 290/290 294/294
f 28/28 303/303 299/299
f 46/46 38/38 311/311
f 110/110 383/383 390/390
f 150/150 152/152 423/423
f 258/258 531/531 523/523
f 32/32 305/305 307/307
f 55/55 328/328 346/346
f 91/91 86/86 359/359
f 117/117 390/390 397/397
f 264/264 244/244 517/517
f 244/244 237/237 510/510
f 237/237 189/189 462/462
f 8/8 279/279 281/281
f 266/266 534/534 261/261
f 15/15 290/290 17/17
f 24/24 330/330 57/57
f 187/187 462/462 189/189
f 249/249 283/283 522/522
f 227/227 523/523 500/500
f 134/134 407/407 132/132
f 254/254 529/529 527/527
f 144/144 463/463 418/418
f 47/47 330/330 320/320
f 47/47 314/314 41/41
f 11/11 281/281 283/283
f 261/261 531/531 258/258
f 144/144 285/285 12/12
f 21/21 296/296 24/24
f 30/30 299/299 301/301
f 268/268 318/318 541/541
f 270/270 346/346 543/543
f 150/150 460/460 187/187
f 264/264 275/275 2/2
f 205/205 500/500 478/478
f 38/38 546/546 311/311
f 268/268 328/328 55/55
f 91/91 383/383 110/110
f 134/134 397/397 405/405
f 132/132 423/423 152/152
f 249/249 529/529 256/256
f 12/12 287/287 15/15
f 28/28 314/314 303/303
f 30/30 305/305 32/32
f 35/35 544/544 271/271
f 270/270 359/359 86/86
f 2/2 279/279 6/6
f 254/254 539/539 266/266
f 205/205 463/463 190/190
f 17/17 294/294 21/21
f 28/28 299/299 26/26
f 46/46 311/311 318/318
f 110/110 390/390 117/117
f 150/150 423/423 425/425
f 258/258 523/523 250/250
f 32/32 307/307 35/35
f 55/55 346/346 74/74
f 91/91 359/359 364/364
f 117/117 397/397 124/124
f 264/264 517/517 536/536
f 244/244 510/510 517/517
f 237/237 462/462 510/510
f 550/550 554/554 552/552
f 549/549 563/563 559/559
f 564/564 572/572 569/569
f 578/578 573/573 558/558
f 582/582 587/587 584/584
f 590/590 560/560 547/547
f 594/594 597/597 596/596
f 599/599 596/596 570/570
f 600/600 605/605 602/602
f 608/608 548/548 610/610
f 577/577 556/556 561/561
f 598/598 615/615 611/611
f 612/612 616/616 576/576
f 594/594 596/596 599/599
f 599/599 570/570 617/617
f 575/575 580/580 618/618
f 584/584 620/620 619/619
f 619/619 626/626 623/623
f 584/584 630/630 629/629
f 607/607 609/609 631/631
f 553/553 600/600 626/626
f 605/605 636/636 634/634
f 620/620 551/551 553/553
f 609/609 641/641 639/639
f 631/631 639/639 551/551
f 606/606 646/646 637/637
f 635/635 644/644 648/648
f 646/646 554/554 550/550
f 554/554 646/646 601/601
f 550/550 640/640 642/642
f 644/644 635/635 638/638
f 550/550 552/552 640/640
f 650/650 648/648 644/644
f 601/601 646/646 606/606
f 602/602 634/634 647/647
f 610/610 548/548 643/643
f 630/630 584/584 619/619
f 605/605 634/634 602/602
f 609/609 639/639 631/631
f 619/619 620/620 553/553
f 651/651 594/594 598/598
f 579/579 562/562 592/592
f 597/597 654/654 652/652
f 595/595 652/652 655/655
f 574/574 566/566 662/662
f 555/555 659/659 666/666
f 607/607 587/587 582/582
f 667/667 670/670 623/623
f 629/629 630/630 623/623
f 667/667 673/673 647/647
f 679/679 548/548 608/608
f 677/677 683/683 681/681
f 663/663 593/593 676/676
f 686/686 661/661 565/565
f 651/651 653/653 654/654
f 690/690 658/658 653/653
f 691/691 696/696 693/693
f 700/700 702/702 679/679
f 685/685 591/591 660/660
f 651/651 690/690 653/653
f 690/690 614/614 658/658
f 613/613 688/688 567/567
f 704/704 709/709 707/707
f 709/709 670/670 696/696
f 699/699 582/582 711/711
f 680/680 696/696 691/691
f 713/713 718/718 715/715
f 707/707 680/680 682/682
f 701/701 723/723 720/720
f 711/711 707/707 682/682
f 714/714 716/716 664/664
f 719/719 650/650 666/666
f 664/664 677/677 681/681
f 681/681 692/692 664/664
f 677/677 721/721 724/724
f 666/666 717/717 719/719
f 677/677 724/724 683/683
f 692/692 714/714 664/664
f 693/693 667/667 649/649
f 702/702 722/722 679/679
f 629/629 670/670 709/709
f 713/713 693/693 718/718
f 701/701 711/711 723/723
f 680/680 707/707 709/709
f 597/597 594/594 651/651
f 675/675 625/625 727/727
f 669/669 733/733 730/730
f 628/628 604/604 736/736
f 581/581 703/703 737/737
f 698/698 745/745 742/742
f 586/586 750/750 747/747
f 705/705 708/708 754/754
f 674/674 756/756 735/735
f 589/589 760/760 751/751
f 624/624 627/627 762/762
f 671/671 729/729 744/744
f 668/668 694/694 741/741
f 588/588 632/632 765/765
f 583/583 772/772 769/769
f 706/706 710/710 767/767
f 622/622 748/748 766/766
f 746/746 749/749 758/758
f 761/761 734/734 755/755
f 771/771 738/738 753/753
f 743/743 728/728 731/731
f 549/549 559/559 645/645
f 564/564 569/569 656/656
f 582/582 584/584 704/704
f 590/590 547/547 678/678
f 600/600 602/602 626/626
f 598/598 611/611 689/689
f 612/612 576/576 684/684
f 575/575 618/618 571/571
f 584/584 629/629 704/704
f 607/607 631/631 587/587
f 631/631 551/551 620/620
f 650/650 644/644 666/666
f 602/602 647/647 673/673
f 630/630 619/619 623/623
f 619/619 553/553 626/626
f 651/651 598/598 689/689
f 579/579 592/592 687/687
f 597/597 652/652 595/595
f 595/595 655/655 568/568
f 574/574 662/662 557/557
f 555/555 666/666 644/644
f 607/607 582/582 699/699
f 667/667 623/623 673/673
f 629/629 623/623 670/670
f 667/667 647/647 649/649
f 679/679 608/608 700/700
f 663/663 676/676 665/665
f 691/691 693/693 713/713
f 613/613 567/567 657/657
f 699/699 711/711 701/701
f 711/711 682/682 723/723
f 693/693 649/649 718/718
f 629/629 709/709 704/704
f 680/680 709/709 696/696
f 597/597 651/651 654/654
f 675/675 727/727 757/757
f 669/669 730/730 672/672
f 628/628 736/736 763/763
f 581/581 737/737 770/770
f 698/698 742/742 695/695
f 586/586 747/747 621/621
f 705/705 754/754 739/739
f 674/674 735/735 603/603
f 589/589 751/751 585/585
f 624/624 762/762 726/726
f 671/671 744/744 697/697
f 668/668 741/741 732/732
f 588/588 765/765 759/759
f 583/583 769/769 712/712
f 706/706 767/767 752/752
f 622/622 766/766 633/633
f 746/746 758/758 764/764
f 761/761 755/755 725/725
f 771/771 753/753 768/768
f 743/743 731/731 740/740
